<svg xmlns="http://www.w3.org/2000/svg" xmlns:xlink="http://www.w3.org/1999/xlink" viewBox="0 0 3599.2 3414.92"><defs><style>.cls-1{fill:#c49a6c;}.cls-2{fill:#ffd9b3;}.cls-3{fill:#8b5e3c;}.cls-4{fill:#db4532;}.cls-5{fill:#3c2415;}.cls-6{fill:#f4e68b;}.cls-7{fill:#603913;}.cls-8{fill:#be1e2d;}.cls-9{fill:url(#White_Black);}.cls-10{fill:#e6e0d3;}.cls-11{fill:#383a3c;}.cls-12{fill:#4d2c27;}.cls-13{fill:#ed1c24;}.cls-14{fill:#f6c54a;}</style><linearGradient id="White_Black" x1="1218.71" y1="2603.37" x2="1264.63" y2="2603.37" gradientUnits="userSpaceOnUse"><stop offset="0" stop-color="#fff"/><stop offset="1" stop-color="#231f20"/></linearGradient></defs><g id="Background"><path class="cls-1" d="M594.73,3518.25S467.7,3286.34,961,2839.63C1145,2673,810.14,2166.21,537,1742.21s568-1088,827.45-728,505.07,446.56,536.93,215.31C1942,934.5,843,656.37,1969,485.58,2869.69,349,3617.13,670.21,2972.5,1454.21s-518.23,719.84,17.14,314.79C3402,1457,3945,2201,3601.75,2625,3003.06,3364.55,3402,3518.25,3402,3518.25Z" transform="translate(-231.69 -290.53)"/><rect class="cls-2" x="166.56" y="3217.72" width="3203.51" height="20"/><path class="cls-2" d="M1003.61,3519.13l-19.92-1.76c.14-1.56,14.4-158.51,67.76-371.32,31.33-125,69.83-244.59,114.43-355.49,55.79-138.75,121.35-264.2,194.85-372.89l16.57,11.21c-164.75,243.6-257.58,527.1-306.45,722C1017.87,3362.21,1003.75,3517.58,1003.61,3519.13Z" transform="translate(-231.69 -290.53)"/><path class="cls-2" d="M907.65,3518.92l-20-1.34c.18-2.66,18-269.58,22.48-573.29,5.87-401.18-14.19-684-58-817.84l19-6.22c24.9,76.07,42.28,197.09,51.66,359.68,7.48,129.62,9.94,286,7.33,464.76C925.71,3248.9,907.83,3516.26,907.65,3518.92Z" transform="translate(-231.69 -290.53)"/><path class="cls-2" d="M779.71,3518.8c-.08-1.35-8.09-136.77-59.68-297.26-47.38-147.41-142.32-346.85-325.51-459.82l10.5-17c83.37,51.41,156,124.16,215.9,216.23,47.76,73.41,87.56,159.19,118.31,255,52.27,162.85,60.37,300.42,60.45,301.79Z" transform="translate(-231.69 -290.53)"/><path class="cls-2" d="M1096,3520.54l-19.47-4.58c.37-1.53,36.49-155.12,76.07-305.5,20.77-78.93,63.16-101.35,97.22-119.36,33.77-17.86,58.16-30.76,54.47-93.51-2.24-38-6.73-66.12-10.34-88.69-9.48-59.29-13.81-86.35,40.2-161.52,31.65-44.06,59.66-58.21,80.11-68.54,26.56-13.41,39.89-20.14,42-86.16.61-19,.89-34.83,1.13-48.79,1.36-76.59,1.53-86.43,50.67-156.62,13-18.6,6.72-38.34-.86-51.62-18.74-32.85-69.52-65.94-118.88-62.14-35.5,2.74-62,24.54-76.73,63.06-22.6,59.24-42.13,97.91-63.32,125.37-20.38,26.4-41.17,41.47-67.49,60.55-11.86,8.59-25.3,18.33-40.28,30.32-76.51,61.2-99.93,90.14-84.35,199,9.6,67.11-26.58,143.12-58.5,210.18-22.1,46.45-43,90.32-41.42,118.48,4,71.84-23.9,423.65-25.09,438.59l-19.94-1.58c.29-3.65,29-365.4,25.07-435.91-1.85-33.25,19.08-77.24,43.33-128.17,30.7-64.51,65.5-137.63,56.75-198.75-8.45-59-5.89-96,8.83-127.67s40.42-55.85,82.82-89.77c15.36-12.29,29-22.17,41-30.89,50.25-36.42,77.93-56.48,123.87-176.87,9.15-24,22.48-42.74,39.6-55.71,15.56-11.79,33.82-18.57,54.27-20.15,25.81-2,54.42,4.71,80.51,18.86,25.08,13.6,45.43,32.53,57.28,53.31,14.76,25.87,14.72,51.79-.13,73-45.63,65.19-45.73,71.26-47,145.52-.25,14-.53,29.92-1.15,49.07-1.15,35.76-6,58.6-15.61,74s-23.07,22.12-37.37,29.34c-19.64,9.93-44.09,22.28-72.89,62.36-49.2,68.48-45.79,89.77-36.69,146.69,3.68,23,8.26,51.65,10.55,90.67,4.45,75.6-29.32,93.46-65.08,112.37-32.2,17-68.69,36.32-87.23,106.76C1132.42,3365.67,1096.35,3519,1096,3520.54Z" transform="translate(-231.69 -290.53)"/><path class="cls-2" d="M720.41,3520c-.35-2-36.21-201.82-111.88-254.79-44.2-30.93-69.09-55.47-85.93-84.7-16.94-29.39-26-64.88-30.31-118.69-1.11-13.86-1.91-26.25-2.63-37.18-4.46-68.57-5.27-80.92-51.63-102.56-16.15-7.54-31.23-11.4-45.81-15.14-37.73-9.68-70.31-18-79.86-84.71-4.71-32.88-19.49-46.63-36.61-62.55-22.65-21.07-48.32-44.94-43.47-115.35,2.5-36.25,22.6-49.53,39-54.29,40.63-11.77,100.19,15.88,132.07,33.4,45.7,25.12,88.68,58.74,107,83.67,27,36.8,48.32,44.39,73,53.18,13.84,4.92,28.15,10,44.3,20.29,3.8,2.42,7.63,4.8,11.69,7.32,41.46,25.78,93.07,57.85,100.89,132.07.36,3.44.71,6.83,1,10.15,7.21,69.29,11.55,111.11,54.39,142.87,22.59,16.74,36,42.56,41.11,78.93,4.34,31,2.31,67.13.34,102q-.44,7.77-.85,15.59c-3.93,74.66,3,246.58,3.09,248.31l-20,.82c-.07-1.74-7.07-174.59-3.09-250.19.28-5.22.57-10.45.87-15.66,3.86-68.63,7.5-133.46-33.4-163.78-23.26-17.23-38.32-38.35-47.4-66.46-8.21-25.39-11.34-55.52-15-90.4q-.51-5-1.06-10.12c-6.78-64.49-49.88-91.28-91.55-117.18-3.92-2.44-8-5-11.87-7.43-14.24-9.07-27.47-13.78-40.26-18.33-25.48-9.07-51.81-18.44-82.43-60.2-16.46-22.43-57.76-54.49-100.46-78-49.65-27.29-92.24-38.84-116.87-31.72-9.69,2.81-22.78,9.64-24.63,36.46-4.2,60.88,14.95,78.7,37.13,99.33,17.38,16.16,37.08,34.48,42.79,74.36,7.65,53.44,29.25,59,65,68.16,14.75,3.79,31.46,8.07,49.3,16.4,57.09,26.64,58.61,50,63.13,119.38.71,10.86,1.51,23.17,2.61,36.88,7.71,96.36,28.86,133.37,107.76,188.61,82.45,57.71,118.62,259.16,120.12,267.71Z" transform="translate(-231.69 -290.53)"/><path class="cls-2" d="M819.35,3135.75c0-1.21-.7-122.19-39-223.21-19.82-52.28-32.09-90.65-36.1-132.07-3.88-39.94-.35-84.34,12.18-153.26,12.33-67.83-8.39-116.93-30.34-168.93-19.53-46.29-39.74-94.16-37.82-157.58,1.91-62.82,19-88.62,34.12-111.38,16.93-25.52,30.3-45.67,16.34-118.61-4.38-22.86,3.45-46.61,22-66.87,16.79-18.3,41.43-32.32,67.59-38.47,30.35-7.14,60.78-3.44,85.68,10.43,29.19,16.25,50.58,46.16,61.86,86.51,31.28,111.83,34.54,180.78,36.7,226.41,2.2,46.57,3.3,70,29,97.46,35.13,37.64,28.45,81.46,20.72,132.21-5.53,36.31-11.8,77.47-3.1,123.11l-19.65,3.74c-9.33-49-2.79-92,3-129.86,7.24-47.49,13-85-15.57-115.56-30.69-32.87-32.06-62-34.34-110.16-2.24-47.4-5.31-112.31-36-222-21.66-77.44-78.11-93.58-123.7-82.85-22.35,5.25-43.29,17.11-57.44,32.53s-20.29,33.08-17.13,49.58c15.5,81-1.41,106.44-19.32,133.43-14.28,21.54-29,43.8-30.78,100.92-1.79,59.06,17.55,104.89,36.25,149.21,22.12,52.4,45,106.59,31.59,180.28-23.22,127.7-16.41,170.86,22.94,274.67,39.63,104.5,40.3,225.17,40.31,230.25Z" transform="translate(-231.69 -290.53)"/><path class="cls-2" d="M3143.09,3521.51l-18.91-6.52c.55-1.59,55.77-160.2,149.42-325,55.15-97,112.68-177.27,171-238.52,73.62-77.32,148.88-124.58,223.71-140.47l4.16,19.57C3511.19,2864.82,3376,3050.31,3291,3199.89,3198.24,3363.08,3143.63,3520,3143.09,3521.51Z" transform="translate(-231.69 -290.53)"/><path class="cls-2" d="M3047.23,3521.06l-19.19-5.62c.56-1.91,56.35-193.9,97.31-455.57,37.75-241.17,70.29-592.55,10.86-896.95l19.63-3.84c26.51,135.82,37.29,292,32,464.13-4.21,137.56-18.61,285.6-42.8,440C3103.89,3326.14,3047.79,3519.14,3047.23,3521.06Z" transform="translate(-231.69 -290.53)"/><path class="cls-2" d="M2940,3521c-.3-1-30.38-105.42-82.48-216.35C2789.36,3159.51,2714.76,3069,2641.8,3043c-44.45-15.87-89.69-8.15-134.46,22.93l-11.41-16.43c50.38-35,101.72-43.5,152.61-25.33,44,15.7,87.76,51.66,130.1,106.88,33.36,43.5,66,99.13,97.11,165.35,52.75,112.35,83.2,218,83.5,219.1Z" transform="translate(-231.69 -290.53)"/><path class="cls-2" d="M2865.1,3523.46c-.52-.85-52.29-85.59-95.53-144.55-16.32-22.25-40.1-26.83-63.1-31.26-32.58-6.28-69.49-13.39-66.83-76.5l.35-8c2.34-54.68,4-94.18-11.42-109.12-7.36-7.11-19.48-9.74-38.16-8.3-28.52,2.21-54.6-2.45-77.6-6.56-33.38-6-62.2-11.11-90.22,4.87-12.77,7.29-20.78,4.61-25.26,1.08-7.89-6.23-9.28-18.36-4.12-36.05,6.37-21.88,24.46-56.52,56.12-88.16,24.37-24.36,64.85-54.55,119.3-60.07,66.35-6.71,107.95-9,137.75-2.2s47.25,22.19,70.87,49.9c20.29,23.82,30.7,38.19,38.3,48.68,14.83,20.46,16.37,22.6,63.3,51.28,35,21.39,58.19,41.84,70.84,62.49,11,17.95,14.17,36.22,9.7,55.86-9.14,40.13,25.79,222.47,40,289.35l-19.57,4.16c-.12-.61-13.07-61.61-24.43-128.07-15.42-90.26-20.65-147.41-15.54-169.88,4.95-21.73,1.3-52.38-71.46-96.85-48.48-29.62-52.46-33.69-69.06-56.61-7.41-10.22-17.55-24.22-37.34-47.43-40.65-47.71-57-54.38-191.38-40.78-66.47,6.73-117.89,57-143.85,101.85-13.68,23.62-16.8,39.28-16.65,45.36a25.14,25.14,0,0,0,2.54-1.28c34.31-19.58,68-13.56,103.65-7.19,22.89,4.09,46.56,8.32,72.53,6.31,24.8-1.92,41.83,2.48,53.6,13.85,21.94,21.19,20.18,62.24,17.51,124.36l-.34,8c-1.94,45.89,17.84,49.7,50.62,56,24.28,4.67,54.49,10.49,75.45,39.08,43.75,59.65,96,145.1,96.47,145.95Z" transform="translate(-231.69 -290.53)"/><path class="cls-2" d="M2972.44,3380.1l-18.93-6.43c.29-.86,29.45-87.79,41.19-205.14,5.33-53.35-9.84-84.25-24.51-114.12-17.29-35.23-35.18-71.66-16.86-139.12,17.64-65,41.23-76.22,60.19-85.23,16-7.61,26.56-12.63,30.53-58.93,3.77-44-9.58-60-23.72-77-17.86-21.42-36.34-43.57-14.21-112.24,15.91-49.39,33-70,46.8-86.49,17.87-21.46,28.65-34.41,20.22-110.32-6.89-61.95-26.88-86.56-42.94-106.33-18.4-22.64-34.28-42.19-17-98.72,17.72-57.9,34.11-91.18,54.8-111.29,25.2-24.5,57-30,100-17.2,41.45,12.29,70.67,41.44,84.49,84.3,12.37,38.37,12.14,86.6-.68,139.48-9.86,40.67,8.69,92.32,28.34,147,25.63,71.34,54.68,152.21,24.7,226.28-16.16,39.91-28.38,62.36-36.46,77.21-16.81,30.88-16.81,30.88-4.92,112.33,4.57,31.29,8.61,53.75,11.56,70.16,9.23,51.29,9.64,57.79-6.1,119l-19.37-5c15.1-58.77,14.58-61.7,5.79-110.52-3-16.54-7.06-39.2-11.67-70.81-12.5-85.58-12.3-89.08,7.14-124.78,8.34-15.32,19.76-36.3,35.49-75.16,27.11-67,.63-140.71-25-212-20.69-57.58-40.23-112-29-158.48,12-49.28,12.33-93.76,1.09-128.62-11.87-36.81-35.81-60.79-71.15-71.27-66.56-19.74-96.93,7.17-130,115.17-14.18,46.34-3.81,59.11,13.38,80.26,16.78,20.65,39.76,48.94,47.29,116.73,9,80.62-2.31,98.42-24.72,125.33-12.66,15.2-28.41,34.12-43.14,79.83-18.74,58.18-5.82,73.68,10.54,93.3,15.35,18.41,32.76,39.27,28.28,91.46-2.19,25.64-6.95,43-15,54.76-7.85,11.47-17.53,16.08-26.89,20.53-16.05,7.63-34.25,16.29-49.48,72.41-16.34,60.18-1.58,90.25,15.52,125.06,15.16,30.89,32.35,65.9,26.45,124.93C3002.62,3290.28,2972.75,3379.22,2972.44,3380.1Z" transform="translate(-231.69 -290.53)"/><path class="cls-2" d="M3203.34,3520.37l-19.55-4.24c13.79-63.7,31.81-113.25,55.07-151.5,20.54-33.79,42.44-54.36,61.76-72.52,22.11-20.78,41.21-38.73,54.7-71.93,6.6-16.23,12.15-30.22,17.06-42.56,24.2-60.89,32.35-81.4,67-124.93,21.7-27.23,39.5-29,60.12-31.07,21.16-2.12,47.5-4.75,93-39.64,46.3-35.49,45.08-60.12,44.19-78.1-.79-15.8-1.68-33.72,31.61-40.76,17.4-3.67,39.6-4.14,61.07-4.6,33.06-.69,70.53-1.49,79.47-14.67,2.87-4.24,2.67-10.82-.6-19.55-6.43-17.19-19.93-29.4-40.13-36.3-38.34-13.1-96.07-4.1-137.25,21.4-32.52,20.13-57,11.86-78.66,4.56-25.2-8.5-47-15.84-85.41,14.67-31.68,25.14-43.33,54.6-53.61,80.6-13.28,33.6-25.87,65.41-78.23,65.41-2.23,0-4.51,0-6.88-.17-42.18-2.1-51.7,25.05-66.19,77.21-10,36-21.3,76.69-52,110-66.36,72.12-126,355.72-126.58,358.58l-19.58-4.08c2.47-11.88,61.37-291.88,131.44-368.05,27.41-29.79,38-68.06,47.42-101.83,6.77-24.39,13.17-47.42,25.07-64.3,14-19.87,34.09-28.88,61.37-27.54,43.88,2.16,52-18.45,65.53-52.61,10.65-26.93,23.9-60.45,59.78-88.92,47-37.27,77.39-27,104.24-17.95,20.79,7,37.22,12.56,61.73-2.61,46.59-28.84,110-38.44,154.24-23.33,25.77,8.8,43.89,25.48,52.41,48.22,5.67,15.15,5.14,27.87-1.59,37.79-14.73,21.73-54,22.56-95.6,23.44-20.54.43-41.79.88-57.35,4.17-8.23,1.74-13.38,4-14.89,6.68s-1.18,7.61-.89,13.52c1.05,21.14,2.64,53.08-52,95-50,38.36-80.75,41.43-103.19,43.67-18.71,1.87-30,3-46.46,23.64-32.82,41.2-40.07,59.43-64.08,119.85-4.92,12.37-10.49,26.39-17.11,42.7-15.14,37.25-36.7,57.52-59.53,79C3276.23,3342.47,3233.07,3383,3203.34,3520.37Z" transform="translate(-231.69 -290.53)"/><path class="cls-2" d="M1905,2467.72H1238.59V1615.81h547.06L1905,1735.16Zm-646.41-20H1885V1743.45l-107.63-107.64H1258.59Z" transform="translate(-231.69 -290.53)"/><rect class="cls-2" x="1083.52" y="1494.01" width="513.18" height="20"/><rect class="cls-2" x="1083.52" y="1576.42" width="513.18" height="20"/><rect class="cls-2" x="1083.52" y="1658.83" width="513.18" height="20"/><rect class="cls-2" x="1083.52" y="1741.24" width="513.18" height="20"/><rect class="cls-2" x="1083.52" y="1823.64" width="513.18" height="20"/><rect class="cls-2" x="1083.52" y="1906.05" width="513.18" height="20"/><rect class="cls-2" x="1083.52" y="1988.46" width="513.18" height="20"/><rect class="cls-2" x="1083.52" y="2070.87" width="513.18" height="20"/><polygon class="cls-2" points="1663.32 1458.77 1539.82 1458.77 1539.82 1335.28 1559.82 1335.28 1559.82 1438.77 1663.32 1438.77 1663.32 1458.77"/><path class="cls-2" d="M2488.14,816.78H1910.25A57.82,57.82,0,0,1,1852.49,759V486.37h20V759a37.8,37.8,0,0,0,37.76,37.76h577.89A37.81,37.81,0,0,0,2525.91,759V486.37h20V759A57.83,57.83,0,0,1,2488.14,816.78Z" transform="translate(-231.69 -290.53)"/><path class="cls-2" d="M2199.2,609,1868,500a47.24,47.24,0,0,1-32.52-44.95V390.86a35.23,35.23,0,0,1,35.19-35.19h657a35.23,35.23,0,0,1,35.19,35.19v64.21A47.24,47.24,0,0,1,2530.38,500ZM1870.68,375.67a15.21,15.21,0,0,0-15.19,15.19v64.21A27.27,27.27,0,0,0,1874.27,481L2199.2,588,2524.13,481l3.12,9.5-3.12-9.5a27.26,27.26,0,0,0,18.77-25.95V390.86a15.21,15.21,0,0,0-15.19-15.19Z" transform="translate(-231.69 -290.53)"/><path class="cls-2" d="M2295,375.67H2103.36V344.85a54.38,54.38,0,0,1,54.32-54.32h83A54.38,54.38,0,0,1,2295,344.85Zm-171.67-20H2275V344.85a34.36,34.36,0,0,0-34.32-34.32h-83a34.36,34.36,0,0,0-34.32,34.32Z" transform="translate(-231.69 -290.53)"/><path class="cls-2" d="M1314.14,1447.09q-18,0-36-1.78a363,363,0,1,1,36,1.78Zm.63-708.48c-122.07,0-240.47,65-302.86,179.51a344.22,344.22,0,0,0,604.57,329.32c90.79-166.68,29.06-376.15-137.63-466.95A342.18,342.18,0,0,0,1314.77,738.61Z" transform="translate(-231.69 -290.53)"/><path class="cls-2" d="M1313.79,1374.31a292.25,292.25,0,1,1,82.78-12A292.88,292.88,0,0,1,1313.79,1374.31Zm.78-563a272.46,272.46,0,0,0-77.1,11.2A269.56,269.56,0,0,0,1075.87,953c-71.59,131.41-22.91,296.56,108.5,368.15a269.85,269.85,0,0,0,129.37,33c96.24,0,189.59-51.23,238.78-141.53A271.38,271.38,0,0,0,1444,844.45h0A270,270,0,0,0,1314.57,811.26Z" transform="translate(-231.69 -290.53)"/><path class="cls-2" d="M1422,884.79a226.71,226.71,0,0,0-60.91-24l4.56-19.47a246.17,246.17,0,0,1,66.28,26.15Z" transform="translate(-231.69 -290.53)"/><path class="cls-2" d="M1115.4,974.49l-17.56-9.57a246.25,246.25,0,0,1,208.69-128.43l.64,20A227.44,227.44,0,0,0,1115.4,974.49Z" transform="translate(-231.69 -290.53)"/><polygon class="cls-2" points="1451.25 1073 1355.55 1020.87 1365.11 1003.3 1443.26 1045.87 1486.25 966.94 1409.53 925.16 1419.1 907.59 1513.38 958.95 1451.25 1073"/><path class="cls-2" d="M2244.86,1702.7l-593.38-323.23,89.92-165.07,593.37,323.23Zm-566.25-331.22,558.25,304.09,70.78-129.94-558.25-304.09Z" transform="translate(-231.69 -290.53)"/><path class="cls-2" d="M2020.7,3297.93a176.79,176.79,0,0,1-36.91-4.12c-46.47-9.94-94.92-37-136.43-76.14s-71.32-86-83.94-131.78c-13.11-47.57-6.27-88.66,19.25-115.71s66.14-36.25,114.39-25.93c46.47,9.93,94.92,37,136.43,76.14h0c41.51,39.16,71.32,86,83.94,131.77,13.11,47.57,6.27,88.67-19.24,115.71C2079.49,3287.69,2052.68,3297.93,2020.7,3297.93Zm-160.48-337.8c-26.43,0-48.21,8.09-63,23.78-20.53,21.76-25.69,56.1-14.51,96.67,11.66,42.34,39.5,85.85,78.39,122.54s83.94,62,126.88,71.13c41.16,8.8,75.13,1.66,95.67-20.11s25.69-56.09,14.51-96.67c-11.66-42.33-39.5-85.85-78.38-122.54h0c-38.89-36.68-84-61.94-126.89-71.13A157.19,157.19,0,0,0,1860.22,2960.13Z" transform="translate(-231.69 -290.53)"/><path class="cls-2" d="M1989.18,3331.33a176.12,176.12,0,0,1-36.91-4.12c-46.47-9.93-94.92-37-136.43-76.13s-71.32-86-83.94-131.78c-13.1-47.57-6.27-88.66,19.25-115.71l31.52-33.41,14.54,13.73-31.52,33.41c-20.53,21.76-25.68,56.1-14.51,96.67,11.67,42.33,39.5,85.85,78.39,122.54s83.94,61.94,126.88,71.13c41.16,8.8,75.13,1.66,95.67-20.11l31.52-33.41,14.55,13.73-31.52,33.41C2048,3321.09,2021.16,3331.33,1989.18,3331.33Z" transform="translate(-231.69 -290.53)"/><rect class="cls-2" x="1930.65" y="2967.17" width="20" height="303.23" transform="translate(-1891.3 2099.55) rotate(-46.67)"/><path class="cls-2" d="M1984.22,3219.31a82.84,82.84,0,0,1-19.67-2.28l5.16-19.32-2.58,9.66,2.55-9.67c.29.07,28.86,7.26,44.61-9.44,7.64-8.1,10.79-17.14,9.36-26.89-1.47-10-7.69-20.47-18-30.18-17.82-16.81-33.66-17.69-60.54-3.34-30.09,16.06-57.28,13-80.8-9.25-12.07-11.38-20.4-25.24-23.45-39-3.66-16.47.49-32.07,11.67-43.92,22.81-24.18,50.71-19.34,51.89-19.13l-3.64,19.67c-.66-.11-18.57-2.86-33.7,13.18s-5,39.63,11,54.66c17.29,16.32,35.08,18.21,57.67,6.15,24.27-12.95,53.19-22.32,83.68,6.44,13.6,12.83,21.91,27.29,24,41.83,2.32,15.88-2.73,30.93-14.61,43.51C2015.54,3216.08,1997.73,3219.31,1984.22,3219.31Z" transform="translate(-231.69 -290.53)"/><path class="cls-2" d="M1181.33,576.5a62,62,0,1,1,62-62A62.06,62.06,0,0,1,1181.33,576.5Zm0-104a42,42,0,1,0,42,42A42,42,0,0,0,1181.33,472.51Z" transform="translate(-231.69 -290.53)"/><path class="cls-2" d="M878.28,1507.46a48.91,48.91,0,1,1,48.91-48.91A49,49,0,0,1,878.28,1507.46Zm0-77.81a28.91,28.91,0,1,0,28.91,28.9A28.93,28.93,0,0,0,878.28,1429.65Z" transform="translate(-231.69 -290.53)"/><path class="cls-2" d="M3670.37,2165a48.91,48.91,0,1,1,48.91-48.91A49,49,0,0,1,3670.37,2165Zm0-77.81a28.91,28.91,0,1,0,28.91,28.9A28.93,28.93,0,0,0,3670.37,2087.23Z" transform="translate(-231.69 -290.53)"/><path class="cls-2" d="M536.29,2453a62,62,0,1,1,62-62A62.06,62.06,0,0,1,536.29,2453Zm0-104a42,42,0,1,0,42,42A42,42,0,0,0,536.29,2349Z" transform="translate(-231.69 -290.53)"/></g><g id="Object"><path class="cls-3" d="M3189.67,3384.33l-705.32-196.4c-34.33-7.9-66.22-38.11-90-84.82-23.54-46.3-36.42-103.62-36.42-161.7V858.65c0-58.08,12.88-115.4,36.42-161.7,23.75-46.71,55.64-76.92,90-84.82l706.32-196.38c46-10.59,197-18.75,257.06,51.07,35.2,40.92,52.45,104.19,52.45,174.4V3158.84c0,70.21-18.5,132.44-52.45,174.4C3389.67,3405,3235.69,3394.91,3189.67,3384.33Z" transform="translate(-231.69 -290.53)"/><path class="cls-4" d="M3270.21,3399.26c-33.43,0-63.77-3.38-82.22-7.63l-.33-.08L2482.5,3195.2c-36.35-8.44-70-39.93-94.8-88.69-24-47.23-37.24-105.87-37.24-165.1V858.65c0-59.23,13.23-117.87,37.24-165.1,24.79-48.76,58.45-80.25,94.8-88.69l706.32-196.38.17,0c25.84-5.94,76.21-10,125.73-4.77,44.43,4.68,104.56,18.58,138.7,58.26,35,40.68,54.26,104.35,54.26,179.29V3158.84c0,72.37-19.22,136-54.11,179.12-33,40.78-93.61,54.69-138.64,59.17C3299.92,3398.62,3284.77,3399.26,3270.21,3399.26Zm-78.69-22.21c18.31,4.19,67.11,10.6,121.92,5.15,42.19-4.2,98.72-16.92,128.46-53.68,32.75-40.47,50.78-100.73,50.78-169.68V641.22c0-71.35-18-131.54-50.63-169.51-57.37-66.69-204.87-58.9-249.54-48.69L2486.2,619.41l-.17,0c-32,7.37-62.18,36.1-85,80.91-23,45.16-35.61,101.38-35.61,158.3V2941.41c0,56.92,12.65,113.14,35.61,158.31,22.78,44.8,52.95,73.53,85,80.9l.33.08Z" transform="translate(-231.69 -290.53)"/><path class="cls-1" d="M3165.71,3332.58l-840.12-187c-57.24-12.74-102.79-102.05-102.79-199.71V854.16c0-97.66,45.55-187,102.79-199.71l840.12-187c77.41-17.23,141.55,63.29,141.55,180.23V3152.34C3307.26,3269.28,3243.12,3349.8,3165.71,3332.58Z" transform="translate(-231.69 -290.53)"/><path class="cls-5" d="M3165.71,3381.25l-840.12-193.32c-34.33-7.9-66.22-38.11-90-84.82-23.54-46.3-36.42-103.62-36.42-161.7V858.65c0-58.08,12.88-115.4,36.42-161.7,23.75-46.71,55.64-76.92,90-84.82l840.12-193.32c46-10.58,89.88,6.31,123.26,48,33.73,42.14,52.45,104.19,52.45,174.4V3158.84c0,70.21-18.72,132.26-52.45,174.4C3255.59,3374.94,3211.72,3391.83,3165.71,3381.25ZM2325.59,696.77c-43.83,9.43-79,77.94-79,152.86v2100.8c0,74.92,35.16,143.44,79,152.86l840.12,180.61c59,12.68,107.74-49.13,107.74-138V654.16c0-88.87-48.78-150.68-107.74-138Z" transform="translate(-231.69 -290.53)"/><path class="cls-4" d="M3192.45,3391.86a126.49,126.49,0,0,1-28.42-3.31L2323.9,3195.24c-36.41-8.38-70.14-39.89-95-88.73-24-47.23-37.23-105.86-37.23-165.1V858.65c0-59.23,13.22-117.87,37.23-165.1,24.83-48.84,58.56-80.34,95-88.72L3164,411.51c49.16-11.31,95.61,6.67,130.8,50.63,34.88,43.58,54.09,107.17,54.09,179.08V3158.84c0,71.91-19.21,135.51-54.09,179.08C3266.51,3373.3,3230.89,3391.86,3192.45,3391.86Zm-.33-2968.61a110.06,110.06,0,0,0-24.73,2.87L2327.27,619.44c-32,7.37-62.19,36.1-85,80.91-23,45.16-35.61,101.38-35.61,158.3V2941.41c0,56.92,12.64,113.14,35.61,158.31,22.77,44.8,53,73.53,85,80.9l840.12,193.32c43.24,9.94,84.33-6.17,115.72-45.39,32.77-40.93,50.81-101.2,50.81-169.71V641.22c0-68.51-18-128.78-50.8-169.71C3257.78,439.86,3226.12,423.25,3192.12,423.25Zm-11.07,2869.82a80.74,80.74,0,0,1-16.92-1.83L2324,3110.62c-23.4-5-45.07-24.83-61-55.76-15.4-29.88-23.89-67-23.89-104.43V849.63c0-37.46,8.49-74.55,23.89-104.43,16-30.93,37.62-50.73,61-55.76l840.12-180.61c23.92-5.15,47,.58,66.8,16.56,31.32,25.3,50,73.44,50,128.77V3145.9c0,55.33-18.7,103.47-50,128.77C3215.86,3286.84,3198.86,3293.07,3181.05,3293.07ZM2325.59,696.77l1.57,7.34c-18.93,4.07-37,21.1-50.83,48-14.33,27.79-22.23,62.43-22.23,97.55v2100.8c0,35.12,7.9,69.76,22.23,97.56,13.85,26.86,31.9,43.9,50.83,48l840.13,180.61c19.33,4.16,38.08-.53,54.21-13.57,27.83-22.48,44.45-66.26,44.45-117.1V654.16c0-50.84-16.62-94.62-44.45-117.1-16.13-13-34.88-17.73-54.21-13.57L2327.16,704.11Z" transform="translate(-231.69 -290.53)"/><path class="cls-5" d="M2314.32,1492V1281.82l137-13.61v214.64Zm20-192v170.66l97-6.45V1290.3Z" transform="translate(-231.69 -290.53)"/><rect class="cls-5" x="2499.37" y="1274.98" width="697.83" height="20" transform="translate(-337.42 -24.23) rotate(-5.26)"/><rect class="cls-5" x="2499.89" y="1390.32" width="696.79" height="20" transform="translate(-326.95 -77.29) rotate(-4.22)"/><path class="cls-5" d="M2314.32,1832.47V1622.39l137-5.55v214.58Zm20-190.87v170.72l97-.75v-173.9Z" transform="translate(-231.69 -290.53)"/><rect class="cls-5" x="2500.64" y="1646.91" width="695.28" height="20" transform="matrix(1, -0.03, 0.03, 1, -285.12, -195.05)"/><rect class="cls-5" x="2500.8" y="1762.25" width="694.98" height="20" transform="translate(-257.85 -247.78) rotate(-0.86)"/><path class="cls-5" d="M2451.34,2180l-137-7V1962.93l137,2.51Zm-117-26,97,5v-173.9l-97-1.78Z" transform="translate(-231.69 -290.53)"/><rect class="cls-5" x="2838.28" y="1681.27" width="20" height="695.13" transform="translate(515.53 4533.73) rotate(-88.53)"/><rect class="cls-5" x="2838.28" y="1796.4" width="20" height="695.57" transform="translate(349.74 4605.3) rotate(-87.49)"/><path class="cls-5" d="M2451.34,2528.66l-137-15.06V2303.44l137,10.56Zm-117-33,97,10.66V2332.52l-97-7.48Z" transform="translate(-231.69 -290.53)"/><rect class="cls-5" x="2838.28" y="2052.08" width="20" height="697.37" transform="translate(-15.19 4746.53) rotate(-85.18)"/><rect class="cls-5" x="2838.28" y="2166.83" width="20" height="698.55" transform="translate(-177.15 4802.1) rotate(-84.14)"/><path class="cls-5" d="M2451.34,2877.33l-137-23.11V2643.91l137,18.62Zm-117-40,97,16.37V2680l-97-13.19Z" transform="translate(-231.69 -290.53)"/><rect class="cls-5" x="2838.28" y="2421.7" width="20" height="701.99" transform="translate(-531.83 4908.68) rotate(-81.85)"/><rect class="cls-5" x="2838.28" y="2536.09" width="20" height="703.89" transform="translate(-688.43 4949.16) rotate(-80.83)"/><rect class="cls-5" x="2374.8" y="1015.04" width="744.55" height="20" transform="translate(-347.41 100.89) rotate(-7.98)"/><rect class="cls-5" x="2445.21" y="818.7" width="586.43" height="20" transform="matrix(0.99, -0.17, 0.17, 0.99, -332.85, 188.25)"/><path class="cls-6" d="M1516.06,2465s40,65.61-13.39,82.48c-35.77,11.31-38.82-75.73-38.82-75.73S1511.68,2447.07,1516.06,2465Z" transform="translate(-231.69 -290.53)"/><path class="cls-7" d="M1279.54,1995.34S1499.15,1975,1557,2227c32.39,141.09-62.77,286-62.77,286l-58.36-5.23S1461,2283,1387,2187,1279.54,1995.34,1279.54,1995.34Z" transform="translate(-231.69 -290.53)"/><path class="cls-8" d="M1517.15,2480.45c-15.18,436.09-41.58,826.8-71.72,1063.33-40.55,16.57-86.09,16.49-125.54,0-65-365.06-116.31-742.09-99.56-1063.33Z" transform="translate(-231.69 -290.53)"/><path class="cls-8" d="M924,2480.45c15.19,436.09,41.58,826.8,71.72,1063.33,40.55,16.57,86.09,16.49,125.54,0,65-365.06,116.31-742.09,99.56-1063.33Z" transform="translate(-231.69 -290.53)"/><rect class="cls-5" x="1086.32" y="2611.74" width="272.61" height="10" transform="translate(-1643.89 3509.34) rotate(-89.14)"/><path class="cls-9" d="M1225.08,2726.39a12,12,0,0,1-6.37-1.76l5.55-8.32a.93.93,0,0,0-.2-.12c.22.11,1.47.62,3.55-.68,7.29-4.58,30.77-35.05,26.49-235l10-.22c1.82,85.21-1.09,149.48-8.67,191-5.42,29.72-13.29,47.61-23.4,53.15A14.3,14.3,0,0,1,1225.08,2726.39Z" transform="translate(-231.69 -290.53)"/><path class="cls-5" d="M1432.87,3551.46l-14.88-1.9c29.66-232.79,56.45-632.56,71.67-1069.37l15,.52C1489.42,2918,1462.59,3318.24,1432.87,3551.46Z" transform="translate(-231.69 -290.53)"/><path class="cls-5" d="M1008.29,3551.46c-29.71-233.22-56.54-633.5-71.77-1070.75l15-.52c15.21,436.81,42,836.58,71.66,1069.37Z" transform="translate(-231.69 -290.53)"/><path class="cls-10" d="M1303,3667.95h291.69a10,10,0,0,1,10,10v27.51a0,0,0,0,1,0,0H1293a0,0,0,0,1,0,0v-27.51A10,10,0,0,1,1303,3667.95Z" transform="translate(2665.99 7082.87) rotate(180)"/><path class="cls-11" d="M1445.43,3543.78s-6,41.95,39.22,62.09c51.88,23.12,118.38,14.16,120,62.08H1293s-2.94-35.42,10-64.42c8.16-18.35,14.76-29.75,16.9-59.75Z" transform="translate(-231.69 -290.53)"/><rect class="cls-11" x="1061.32" y="3393.67" width="209.56" height="5"/><path class="cls-10" d="M1542.68,3658.63c-1.38,0-34.22-.92-67.75-15.36-44.77-19.28-68.64-53.68-69-99.47l5,0c.38,44.28,22.59,76.21,66,94.92,32.64,14.06,65.56,15,65.89,15Z" transform="translate(-231.69 -290.53)"/><rect class="cls-10" x="1499.3" y="3623.11" width="21.19" height="5" transform="translate(-2649.08 3300.42) rotate(-66.88)"/><rect class="cls-10" x="1475.57" y="3615.4" width="21.25" height="5" transform="translate(-2619.12 2786.14) rotate(-59.71)"/><rect class="cls-10" x="1455.94" y="3605.45" width="21.39" height="5" transform="translate(-2421.39 1975.95) rotate(-47.73)"/><rect class="cls-10" x="1441.46" y="3593.69" width="21.9" height="5" transform="translate(-2266.34 1607.87) rotate(-42.05)"/><rect class="cls-10" x="1429.58" y="3576.84" width="22.51" height="5" transform="translate(-1423.67 468.19) rotate(-21.1)"/><rect class="cls-10" x="1521.13" y="3627.87" width="20.44" height="5" transform="translate(-2638.19 3473.94) rotate(-69.08)"/><rect class="cls-10" x="1192.97" y="3266.63" width="21.55" height="5"/><path class="cls-10" d="M1555,3625.38c27.57,6.78,48.76,15.79,49.68,42.57H1539C1537.81,3645,1546.76,3632.29,1555,3625.38Z" transform="translate(-231.69 -290.53)"/><rect class="cls-11" x="1061.32" y="3374.92" width="311.67" height="5"/><polygon class="cls-10" points="1146.42 3301.23 1146.42 3324.76 1126.04 3336.53 1105.66 3324.76 1105.66 3301.23 1126.04 3289.47 1146.42 3301.23"/><path class="cls-11" d="M1138,3668H959.23c-3.33-38.33,40-50.42,36.52-124.17h125.54C1116.32,3600,1138,3620.45,1138,3668Z" transform="translate(-231.69 -290.53)"/><path class="cls-10" d="M969.3,3667.95h158.61A10.07,10.07,0,0,1,1138,3678v27.43a0,0,0,0,1,0,0H959.23a0,0,0,0,1,0,0V3678A10.07,10.07,0,0,1,969.3,3667.95Z" transform="translate(1865.53 7082.87) rotate(180)"/><path class="cls-10" d="M959.9,3668c3.45-26.06,41.62-46.67,88.71-46.67s85.26,20.61,88.71,46.67Z" transform="translate(-231.69 -290.53)"/><rect class="cls-11" x="727.55" y="3374.92" width="178.75" height="5"/><path class="cls-10" d="M1088.27,3612.06a148.08,148.08,0,0,0-65.57,0l-1.1-4.88a153.17,153.17,0,0,1,67.77,0Z" transform="translate(-231.69 -290.53)"/><path class="cls-10" d="M1086.63,3597.39c-16.3-3.67-46-3.67-62.28,0l-1.1-4.88c17.17-3.86,47.3-3.86,64.47,0Z" transform="translate(-231.69 -290.53)"/><path class="cls-10" d="M1085,3582.72c-10.75-2.42-48.24-2.42-59,0l-1.1-4.88c11.44-2.57,49.75-2.57,61.19,0Z" transform="translate(-231.69 -290.53)"/><path class="cls-10" d="M1027.63,3568.06l-1.09-4.88c6-1.34,51.94-1.34,57.89,0l-1.09,4.88C1078.13,3566.88,1032.84,3566.88,1027.63,3568.06Z" transform="translate(-231.69 -290.53)"/><rect class="cls-10" x="797.04" y="3257.92" width="53.51" height="5"/><path class="cls-5" d="M1220.58,1990.45c-268.64,0-296.76,87.08-296.56,490,194.55,116.18,392.21,119.38,593.13,0C1517.15,2263.22,1489.23,1990.45,1220.58,1990.45Z" transform="translate(-231.69 -290.53)"/><path class="cls-6" d="M1279.54,1992.18c-21.84,95-76.8,29.47-117.94,0l10.81-52h96.32Z" transform="translate(-231.69 -290.53)"/><ellipse class="cls-6" cx="1244.55" cy="1898.2" rx="105.83" ry="83.75" transform="translate(-1108.63 2414.72) rotate(-77.58)"/><path class="cls-12" d="M1306,1760.45c-58.34,17.92-222.94-44.42-137.26,194.07,0,0,16.69-30.32,11.64-79.79-.46-4.47.39-8.16.3-11.16l8.36-10.55s9.6,13.6,5.92,44.66c-2.94,24.84,48.59-22.33,43.25-55.68,0,0,77.46,38,118.87-4S1345.93,1748.19,1306,1760.45Z" transform="translate(-231.69 -290.53)"/><path class="cls-6" d="M1188.82,1881.2c-3.57,16.22-.37,30.71-13.29,27.86s-20.5-18.3-16.93-34.51,17-27.06,29.87-24.21C1195.48,1851.88,1192.39,1865,1188.82,1881.2Z" transform="translate(-231.69 -290.53)"/><path class="cls-7" d="M1079.88,2004.44C941,2027,821,2198,993.65,2339c127.35,104,376.19,63.66,376.19,63.66l-15.57-76.09s-262.42-36.73-299.48-153.6C1097,2123.34,1185.12,1987.35,1079.88,2004.44Z" transform="translate(-231.69 -290.53)"/><path class="cls-3" d="M1524.65,2480.45h-15c0-94.75-4.82-215.88-42.38-312.31l14-5.45C1519.72,2261.45,1524.65,2384.38,1524.65,2480.45Z" transform="translate(-231.69 -290.53)"/><path class="cls-8" d="M1522.69,2229.84l-10.54-9.43h0c-2.92-2.91-7.48-4.14-12.62-2.9l-72.84,17.64c-8.81,2.13-16,10.69-16,19.12v136a11.59,11.59,0,0,0,4,9.14h0l11.27,10.1,2.73-8.35,70.77-17.13c8.81-2.14,16-10.7,16-19.12V2238.28Z" transform="translate(-231.69 -290.53)"/><path class="cls-13" d="M1510.68,2394l-72.84,17.63c-8.81,2.13-15.95-3-15.95-11.39v-136c0-8.43,7.14-17,15.95-19.12l72.84-17.64c8.81-2.13,16,3,16,11.4v136C1526.63,2383.32,1519.49,2391.88,1510.68,2394Z" transform="translate(-231.69 -290.53)"/><path class="cls-6" d="M1410.73,2328.33v-13.58c-11.85-1.07-31.61,3-55.23,17.84l12.42,60.64s55.59,20.44,86.91-21.29C1480.46,2337.77,1455,2308.08,1410.73,2328.33Z" transform="translate(-231.69 -290.53)"/><path class="cls-3" d="M1257.94,2417.82c-9.27,0-18.88-.16-28.72-.52-45.91-1.72-88-7.52-125-17.25-46.65-12.27-85.46-30.86-115.34-55.26-28.81-23.53-50.95-49-65.8-75.71l13.11-7.29c13.92,25,34.84,49.06,62.18,71.38,64.11,52.35,161.06,66.49,231.1,69.13a814.3,814.3,0,0,0,131.39-6L1348,2333.17c-17.08-2.73-73.24-12.6-132-32.49-41.4-14-76-30.24-103-48.19-34.43-22.95-56.44-48.95-65.42-77.27l14.3-4.54c35.22,111.08,290.79,148.08,293.37,148.44l5.24.74,18.2,88.93L1371,2410C1370.49,2410.13,1322.15,2417.82,1257.94,2417.82Z" transform="translate(-231.69 -290.53)"/><path class="cls-14" d="M1243.42,2008.4a59.15,59.15,0,0,1-13.2-1.48c-19.63-4.51-36.21-18.92-49.3-42.82l13.16-7.2c10.9,19.91,24.14,31.81,39.35,35.36,21,4.91,39.47-7.81,39.66-7.94l8.67,12.24C1281,1997.13,1264.82,2008.4,1243.42,2008.4Z" transform="translate(-231.69 -290.53)"/></g></svg>