<svg xmlns="http://www.w3.org/2000/svg" viewBox="0 0 654.78 485.22"><defs><style>.cls-1{fill:#754c29;}.cls-2{fill:#a97c50;}.cls-3{fill:#8b5e3c;}.cls-4{fill:#fbc3a9;}.cls-5{fill:#282f39;}.cls-6{fill:#474952;}.cls-7{fill:#fff;}.cls-8{fill:#f1f2f2;}.cls-9{fill:#f7941d;}.cls-10{fill:#c49a6c;}.cls-11{fill:#c7eafb;opacity:0.5;}.cls-12{fill:#414042;}.cls-13{fill:#f8a79b;}.cls-14{fill:#603913;}.cls-15{fill:#cf8f2a;}.cls-16{fill:#d1d3d4;}.cls-17{fill:#fbb040;}</style></defs><g id="Object"><path class="cls-1" d="M90.33,545.51C94,532.89,125.67,535.16,175,532.75s74.67,1.58,75.33,9.58-44.72,11.34-78.69,11.34S86.33,559.36,90.33,545.51Z" transform="translate(-59.44 -69.61)"/><path class="cls-2" d="M323.75,545.51c3.65-12.62,35.34-10.35,84.67-12.76s74.67,1.58,75.33,9.58S439,553.67,405.06,553.67,319.75,559.36,323.75,545.51Z" transform="translate(-59.44 -69.61)"/><path class="cls-3" d="M554.21,545.51c3.65-12.62,35.34-10.35,84.67-12.76s74.67,1.58,75.33,9.58-44.71,11.34-78.69,11.34S550.21,559.36,554.21,545.51Z" transform="translate(-59.44 -69.61)"/><path class="cls-4" d="M141.76,529.17l10.41,1.47c.09-14.43,4.35-124,16.12-212.64l.25-1.83h11l.24,1.83c11.78,88.61,12.06,198.21,12.15,212.64l10.41-1.47c13.36-104.94,8.36-227.11,9.28-242.24l0,0H132.49C131.57,302,128.4,424.19,141.76,529.17Z" transform="translate(-59.44 -69.61)"/><path class="cls-5" d="M140.7,520s-1,7.93-13.5,13.63-18.72,9.42-6.58,11.65c7.63,1.4,34.2-3.22,35.94-9.66S152.1,520,152.1,520s-1.49,4-5,4.71S145.65,520,140.7,520Z" transform="translate(-59.44 -69.61)"/><path class="cls-5" d="M203.26,520s1,7.93,13.49,13.63,18.72,9.42,6.58,11.65c-7.63,1.4-34.2-3.22-35.93-9.66S191.86,520,191.86,520s1.49,4,5,4.71S198.3,520,203.26,520Z" transform="translate(-59.44 -69.61)"/><path class="cls-5" d="M130.18,284.93h82.28s14.23,132.92-5.89,228.61H185.63s3.59-89.29-7-194.72h0l-8.77-.56c-12.91,97.15-12.89,195.28-12.89,195.28h-19.8C122.25,398.55,130.18,284.93,130.18,284.93Z" transform="translate(-59.44 -69.61)"/><polygon class="cls-6" points="98.73 443.93 76.02 443.93 74.57 425.03 98.73 425.03 98.73 443.93"/><polygon class="cls-6" points="126.61 443.93 149.32 443.93 150.77 425.03 126.61 425.03 126.61 443.93"/><path class="cls-7" d="M127.19,286.72s-4-77.54-4-118.25c0,0-41.43,37.24-40.85,63.58s47.91,65.61,47.91,65.61l-8.06,13.61s-58.55-29.85-62.56-76.88,42.95-91.11,62.42-94.55,56.36,8.13,79.66,10.31c29.13,2.72,33.14,76.15,34.57,102.49s-.85,73.05-.85,73.05l-15.78-1.07s-3.13-88-12.29-128.09l7.45,92.76S178.7,300.45,127.19,286.72Z" transform="translate(-59.44 -69.61)"/><path class="cls-4" d="M157,112.8,155.5,142l21.92,14s-.78-6.38-1.31-10.9l-2.33-26.45Z" transform="translate(-59.44 -69.61)"/><path class="cls-8" d="M177.42,156l-1.31-10.9-.52-5.89s10.27,7.83,11.35,10,0,11.81,0,11.81-.61-7.3-2.88-7.73-5.92,5.15-5.92,5.15-5.14-4.94-6.87-4.94-4.73,7.52-4.73,7.52l-16.15-19.87,5.57-8,17.74,12.39Z" transform="translate(-59.44 -69.61)"/><path class="cls-3" d="M187.16,88.18s1.94,3.92,1.37,7.6l-7.34-5.57S182.58,85.57,187.16,88.18Z" transform="translate(-59.44 -69.61)"/><path class="cls-3" d="M158.72,82.29s-3.93-8.87-8.61-8.74-6.9,5.17-6.4,8.74,11,5.89,11,5.89Z" transform="translate(-59.44 -69.61)"/><path class="cls-1" d="M155.25,85.81s-8.37-8.57-9.8-5.62S154.09,88,154.09,88Z" transform="translate(-59.44 -69.61)"/><path class="cls-9" d="M153.32,87.21s-2.94-4.3-.8-6.88,7.42,2.08,7.42,2.08Z" transform="translate(-59.44 -69.61)"/><path class="cls-4" d="M154.09,97.23c0-11.59,10.65-16.3,21.62-14.41s15,11.91,13.17,27.89S181,131.4,173.21,131.4C163.48,131.4,154.09,111.65,154.09,97.23Z" transform="translate(-59.44 -69.61)"/><path class="cls-10" d="M157.85,109.15s.46-15.11,6.29-25.69c0,0-9.51,1.92-10.62,11.42s2.92,21.79,2.92,21.79Z" transform="translate(-59.44 -69.61)"/><path class="cls-4" d="M157.85,109.15s-8.15-9.5-7.21-2.24,7.21,12.58,9.3,9.24Z" transform="translate(-59.44 -69.61)"/><path class="cls-3" d="M181,112.8s7.72-.59,8,3.54c.15,1.79,2,16.82-7.33,19.11-9.44,2.33-16.48-4-20.18-11.94s-5.69-19.33-5.69-19.33h2.84s2.13,9.46,5.12,10.46S164.79,112.8,181,112.8Z" transform="translate(-59.44 -69.61)"/><path class="cls-11" d="M164,102.12s1,5.5,2.05,5.88,8,1.29,9.25-.77a10.41,10.41,0,0,0,1.15-5.11S172.29,99.45,164,102.12Z" transform="translate(-59.44 -69.61)"/><path class="cls-12" d="M163.17,101.26s.24,6,2.47,7.24,9.89.88,10.6-1.12a27.89,27.89,0,0,0,.82-6.12S172.59,98.9,163.17,101.26ZM174.83,107c-1.18,1.88-7.54,1.06-8.48.7s-1.88-5.39-1.88-5.39c7.65-2.45,11.41,0,11.41,0A9.6,9.6,0,0,1,174.83,107Z" transform="translate(-59.44 -69.61)"/><path class="cls-11" d="M191,102.12s-.76,5.5-1.53,5.88-6,1.29-6.91-.77a13.53,13.53,0,0,1-.87-5.11S184.75,99.45,191,102.12Z" transform="translate(-59.44 -69.61)"/><path class="cls-12" d="M181.19,101.26a37.14,37.14,0,0,0,.61,6.12c.53,2,6.25,2.35,7.93,1.12s1.85-7.24,1.85-7.24C184.53,98.9,181.19,101.26,181.19,101.26Zm.88,1.08s2.82-2.45,8.54,0c0,0-.71,5-1.41,5.39s-5.46,1.18-6.34-.7A12.37,12.37,0,0,1,182.07,102.34Z" transform="translate(-59.44 -69.61)"/><path class="cls-12" d="M176.38,103.06a6.92,6.92,0,0,1,5.32,0l.3-2.12h-5.75Z" transform="translate(-59.44 -69.61)"/><polygon class="cls-12" points="103.73 31.65 92.87 36.03 93.56 37.3 104.7 33.45 103.73 31.65"/><path class="cls-12" d="M170.12,102c-.75,0-1.36,1-1.36,2.2s.61,2.19,1.36,2.19,1.36-1,1.36-2.19S170.87,102,170.12,102Z" transform="translate(-59.44 -69.61)"/><path class="cls-12" d="M184.39,102c-.75,0-1.36,1-1.36,2.2s.61,2.19,1.36,2.19,1.36-1,1.36-2.19S185.14,102,184.39,102Z" transform="translate(-59.44 -69.61)"/><path class="cls-13" d="M180.49,104.3a50.15,50.15,0,0,0,1.56,6.81s1.13-1.22,1.54-.13-1.16,1.62-1.16,1.62-1.49,3-3.81.8c0,0-2.4-.51-1.8-1.74s1.44.2,1.44.2a46.24,46.24,0,0,1-.65-7.31,1.48,1.48,0,0,1,1.16-1.46h0A1.46,1.46,0,0,1,180.49,104.3Z" transform="translate(-59.44 -69.61)"/><path class="cls-3" d="M175.4,98.88s-5.41-3.76-8.54,1.33c0,0-1.88-2.27,1.49-4.23S176.65,94.49,175.4,98.88Z" transform="translate(-59.44 -69.61)"/><path class="cls-3" d="M180,98.88s5.41-3.76,8.55,1.33c0,0,1.88-2.27-1.49-4.23S178.7,94.49,180,98.88Z" transform="translate(-59.44 -69.61)"/><path class="cls-7" d="M171.4,116.68c.77-1.1,3.85.85,8.62.4,3-.28,4-1.18,5-.18s-.09,3.72-5.13,4S170,118.64,171.4,116.68Z" transform="translate(-59.44 -69.61)"/><path class="cls-3" d="M164,88.92s18.37,6.08,23.2-.74c0,0-1.82-4.41-8-7.42-7.48-3.62-21.89-1.71-25,1.65s-.57,12.47-.57,12.47l5.79,2.67S165,94.32,164,88.92Z" transform="translate(-59.44 -69.61)"/><path class="cls-13" d="M131.33,299.55s13.57-.32,14.64,1.56-11.17,2.64-11.17,2.64Z" transform="translate(-59.44 -69.61)"/><path class="cls-4" d="M130.3,297.66s20.67,11.5,24.24,16-10-2-10-2,11.86,6.79,10.48,8.44-15.51-5-15.51-5,12,6.42,11.09,7.8-13.71-4.45-13.71-4.45,8.51,6.12,7.89,7.39-22.49-14.54-22.49-14.54Z" transform="translate(-59.44 -69.61)"/><path class="cls-13" d="M220.67,326.54s-7.94,11-7,12.95,8.5-7.71,8.5-7.71Z" transform="translate(-59.44 -69.61)"/><path class="cls-4" d="M219.7,324.62s-2.22,23.55-.52,29.05,4-9.42,4-9.42-1.12,13.62,1,13.42S228.87,342,228.87,342s-1.51,13.53.15,13.56,4.09-13.82,4.09-13.82.23,10.48,1.62,10.68.75-26.76.75-26.76Z" transform="translate(-59.44 -69.61)"/><path class="cls-5" d="M136,139.42c-2.15-.14-4.21-.22-6.18-.2,1.81,20.82,8.82,104.41,9,150.25q3.19.66,6.3,1.2C144.93,261.74,143.62,188.55,136,139.42Z" transform="translate(-59.44 -69.61)"/><path class="cls-5" d="M198.41,149.78c-2-.25-4.18-.56-6.39-.91,2.68,25.76,9.69,97.29,10,143q3.21-.47,5.65-.95C207,263,204.66,195.4,198.41,149.78Z" transform="translate(-59.44 -69.61)"/><path class="cls-5" d="M179.12,164a2.36,2.36,0,1,0,2.37,2.36A2.36,2.36,0,0,0,179.12,164Z" transform="translate(-59.44 -69.61)"/><path class="cls-5" d="M181.42,187.1a2.37,2.37,0,1,0,2.37,2.37A2.37,2.37,0,0,0,181.42,187.1Z" transform="translate(-59.44 -69.61)"/><path class="cls-5" d="M183.73,210.19a2.36,2.36,0,1,0,2.36,2.36A2.36,2.36,0,0,0,183.73,210.19Z" transform="translate(-59.44 -69.61)"/><circle class="cls-5" cx="126.58" cy="166.02" r="2.36"/><circle class="cls-5" cx="128.95" cy="189.11" r="2.36"/><path class="cls-5" d="M188.33,279.44a2.36,2.36,0,1,0,2.36,2.36A2.35,2.35,0,0,0,188.33,279.44Z" transform="translate(-59.44 -69.61)"/><path class="cls-4" d="M373.54,525.22,384,526.69c.09-14.43,4.34-124,16.12-212.64l.24-1.83h11l.24,1.83c11.78,88.61,12.06,198.21,12.15,212.64l10.41-1.47c13.36-104.94,8.36-227.11,9.27-242.24l0,0H364.27C363.35,298,360.18,420.24,373.54,525.22Z" transform="translate(-59.44 -69.61)"/><path class="cls-5" d="M372.48,516s-1,7.93-13.5,13.63-18.72,9.42-6.58,11.65c7.63,1.4,34.2-3.22,35.94-9.66S383.87,516,383.87,516s-1.48,4-4.95,4.71S377.43,516,372.48,516Z" transform="translate(-59.44 -69.61)"/><path class="cls-5" d="M435,516s1,7.93,13.49,13.63,18.72,9.42,6.58,11.65c-7.63,1.4-34.2-3.22-35.93-9.66S423.64,516,423.64,516s1.48,4,4.95,4.71S430.08,516,435,516Z" transform="translate(-59.44 -69.61)"/><path class="cls-2" d="M362,281h82.28s14.23,132.92-5.89,228.61H417.41s3.58-89.29-7.05-194.72h0l-8.77-.56c-12.91,97.15-12.89,195.28-12.89,195.28H368.9C354,394.6,362,281,362,281Z" transform="translate(-59.44 -69.61)"/><path class="cls-7" d="M359,282.77s-4-77.54-4-118.25c0,0-41.43,37.24-40.85,63.58s47.91,65.61,47.91,65.61L354,307.32s-58.55-29.85-62.56-76.88,43-91.11,62.41-94.55,56.37,8.13,79.67,10.31c29.13,2.72,33.13,76.15,34.57,102.49s-.85,73.05-.85,73.05l-15.78-1.07s-3.13-88-12.29-128.09l7.44,92.76S410.47,296.5,359,282.77Z" transform="translate(-59.44 -69.61)"/><path class="cls-4" d="M388.77,108.85,387.28,138l21.92,14s-.78-6.38-1.32-10.9l-2.33-26.45Z" transform="translate(-59.44 -69.61)"/><path class="cls-4" d="M385.86,93.28c0-11.59,10.66-16.3,21.63-14.42s15.05,11.92,13.17,27.9-7.84,20.69-15.67,20.69C395.26,127.45,385.86,107.7,385.86,93.28Z" transform="translate(-59.44 -69.61)"/><path class="cls-10" d="M389.63,105.2s.45-15.11,6.29-25.69c0,0-9.51,1.91-10.62,11.42s2.92,21.79,2.92,21.79Z" transform="translate(-59.44 -69.61)"/><path class="cls-11" d="M395.73,98.17s1,5.5,2,5.88,8,1.29,9.24-.77a10.35,10.35,0,0,0,1.16-5.11S404.07,95.5,395.73,98.17Z" transform="translate(-59.44 -69.61)"/><path class="cls-12" d="M395,97.31s.24,6,2.47,7.24,9.89.88,10.6-1.12a27.89,27.89,0,0,0,.82-6.12S404.37,95,395,97.31Zm11.65,5.77c-1.17,1.88-7.53,1-8.47.7s-1.88-5.39-1.88-5.39c7.65-2.45,11.41,0,11.41,0A9.54,9.54,0,0,1,406.6,103.08Z" transform="translate(-59.44 -69.61)"/><path class="cls-11" d="M422.77,98.17s-.77,5.5-1.53,5.88-6,1.29-6.92-.77a13.43,13.43,0,0,1-.86-5.11S416.53,95.5,422.77,98.17Z" transform="translate(-59.44 -69.61)"/><path class="cls-12" d="M413,97.31a36,36,0,0,0,.61,6.12c.53,2,6.25,2.35,7.93,1.12s1.84-7.24,1.84-7.24C416.31,95,413,97.31,413,97.31Zm.88,1.08s2.81-2.45,8.54,0c0,0-.71,5-1.41,5.39s-5.46,1.18-6.34-.7A12.37,12.37,0,0,1,413.85,98.39Z" transform="translate(-59.44 -69.61)"/><path class="cls-12" d="M408.16,99.11a6.9,6.9,0,0,1,5.31,0l.31-2.12H408Z" transform="translate(-59.44 -69.61)"/><polygon class="cls-12" points="335.51 27.7 324.64 32.08 325.34 33.35 336.48 29.5 335.51 27.7"/><path class="cls-10" d="M418.16,110.27c-1.11-2.35-2.77-1-6.19-.85a82.24,82.24,0,0,1-8.49,0c-4.31-.25-5.08,4.39-5.24,9.63s1.17,9,6.86,9,9.31-2.38,11.07-5.25S419.27,112.62,418.16,110.27Zm-2,9.28c-1.64,4.5-2.25,4.5-3.2,2a19,19,0,0,1-1-5.63H409.2a14.25,14.25,0,0,1-.36,5.13c-.71,3.25-6.29,4.87-7.54,1.25s-.5-11,2.87-10.75a72.61,72.61,0,0,0,7.8,0s3.95-1.38,5.14,0S417.8,115.05,416.17,119.55Z" transform="translate(-59.44 -69.61)"/><ellipse class="cls-12" cx="342.45" cy="30.62" rx="1.36" ry="2.19"/><ellipse class="cls-12" cx="356.72" cy="30.62" rx="1.36" ry="2.19"/><path class="cls-13" d="M412.27,100.35a48.67,48.67,0,0,0,1.56,6.81s1.13-1.22,1.54-.13-1.16,1.62-1.16,1.62-1.49,3-3.81.8c0,0-2.4-.51-1.8-1.74s1.43.2,1.43.2a47,47,0,0,1-.64-7.31,1.48,1.48,0,0,1,1.16-1.46h0A1.46,1.46,0,0,1,412.27,100.35Z" transform="translate(-59.44 -69.61)"/><path class="cls-3" d="M407.18,94.93s-5.41-3.76-8.54,1.33c0,0-1.88-2.27,1.49-4.23S408.43,90.54,407.18,94.93Z" transform="translate(-59.44 -69.61)"/><path class="cls-3" d="M411.73,94.93s5.41-3.76,8.54,1.33c0,0,1.88-2.27-1.48-4.23S410.48,90.54,411.73,94.93Z" transform="translate(-59.44 -69.61)"/><path class="cls-7" d="M403.18,112.73c.77-1.1,3.85.85,8.62.4,3-.28,4-1.18,5-.18s-.08,3.72-5.12,4S401.82,114.69,403.18,112.73Z" transform="translate(-59.44 -69.61)"/><path class="cls-14" d="M418.11,86a14,14,0,0,0-5.14-.79c-2.25.25-2.32,2.33-4.79,2.08s-2.77-1.75-4.7-1.67-2,1.21-4,1.69-2.34-1.29-4-1.07-1.09,2.63-3.75,2.72-2-.16-4.69,2-3.48.88-5.15,0-2,.95-4-1.05.59-4,.75-5.5-1.66-1.9-.75-4.87,5.5-1.63,6.21-2.38,1.51-3.41,3.53-3.41,3.85,1.08,5.1-1.17,5.91-.83,7.41,0,2.84-1.25,5.17-.75,3.63,2.5,4.73,2.83,4.19-1.16,5.77,1.25-.29,2.42,2.31,4.67,1.19,4.5,1.44,5.33,2.23,1.68.54,5.05C420.09,90.93,419.1,87.3,418.11,86Z" transform="translate(-59.44 -69.61)"/><path class="cls-4" d="M389.63,105.2s-8.15-9.5-7.21-2.24,7.21,12.58,9.3,9.24Z" transform="translate(-59.44 -69.61)"/><path class="cls-13" d="M363.11,295.6s13.57-.32,14.63,1.56-11.17,2.64-11.17,2.64Z" transform="translate(-59.44 -69.61)"/><path class="cls-4" d="M362.08,293.71s20.67,11.5,24.24,16-10.05-2-10.05-2,11.85,6.79,10.48,8.44-15.51-5-15.51-5,12,6.42,11.09,7.8-13.71-4.45-13.71-4.45,8.51,6.12,7.88,7.39S354,307.32,354,307.32Z" transform="translate(-59.44 -69.61)"/><path class="cls-13" d="M452.45,322.59s-7.94,11-7,13,8.51-7.71,8.51-7.71Z" transform="translate(-59.44 -69.61)"/><path class="cls-4" d="M451.48,320.67s-2.23,23.55-.52,29.05,4-9.42,4-9.42-1.11,13.62,1,13.42,4.63-15.64,4.63-15.64-1.51,13.53.14,13.56,4.1-13.82,4.1-13.82.22,10.48,1.62,10.68.75-26.76.75-26.76Z" transform="translate(-59.44 -69.61)"/><path class="cls-4" d="M425.22,145.18c-16.6-2.53-37.4-7.81-54.21-9.43,7.35,8.71,23.38,25.07,39.67,24.32C422,159.55,425,152.22,425.22,145.18Z" transform="translate(-59.44 -69.61)"/><path class="cls-5" d="M314.17,228.1c-.58-26.34,40.85-63.58,40.85-63.58L354,283c6.72,8.41,27.57,10.41,27.57,10.41l.47-156.17c-18.64-3.4-28.19-1.31-28.19-1.31-19.46,3.44-66.42,47.53-62.41,94.55S354,307.32,354,307.32l8.06-13.61S314.74,254.44,314.17,228.1Z" transform="translate(-59.44 -69.61)"/><path class="cls-5" d="M468.11,248.69c-1.44-26.34-5.44-99.77-34.57-102.49l0,.13-18.48-2.9L427,293.71s14-.68,20-4.34l-7.78-96.79h0c9.16,40.08,12.29,128.09,12.29,128.09l15.78,1.07S469.54,275,468.11,248.69Z" transform="translate(-59.44 -69.61)"/><path class="cls-4" d="M602.08,523.78l10.41,1.47c.09-14.43,4.34-124,16.12-212.64l.24-1.83h11l.25,1.83c11.77,88.61,12.06,198.21,12.15,212.64l10.41-1.47C676,418.83,671,296.67,671.91,281.53h-79.1C591.89,296.59,588.71,418.8,602.08,523.78Z" transform="translate(-59.44 -69.61)"/><path class="cls-1" d="M621.66,397.73c1.89-26.6,4.6-55.77,8.46-84.86l8.78.56c3,29.68,4.86,58.08,6,83.57,8.82.16,21-.46,32.7-3.82a1077.06,1077.06,0,0,0-4.82-113.64H590.5s-3.42,49-1.56,115.16C597.51,396.65,609.78,398.63,621.66,397.73Z" transform="translate(-59.44 -69.61)"/><path class="cls-15" d="M601,514.59s-1,7.93-13.49,13.63-18.72,9.42-6.58,11.65c7.63,1.4,34.2-3.22,35.93-9.67s-4.46-15.61-4.46-15.61-1.49,4-4.95,4.71S606,514.59,601,514.59Z" transform="translate(-59.44 -69.61)"/><path class="cls-15" d="M594.33,524.16l3-11.55s11-3.75,18,0l1.6,12.64Z" transform="translate(-59.44 -69.61)"/><path class="cls-15" d="M663.55,514.59s1,7.93,13.49,13.63,18.72,9.42,6.58,11.65c-7.63,1.4-34.2-3.22-35.93-9.67s4.46-15.61,4.46-15.61,1.49,4,5,4.71S658.59,514.59,663.55,514.59Z" transform="translate(-59.44 -69.61)"/><path class="cls-15" d="M670.23,524.16l-3-11.55s-11-3.75-18,0l-1.6,12.64Z" transform="translate(-59.44 -69.61)"/><path class="cls-2" d="M587.51,281.33s-4-77.55-4-118.25c0,0-41.43,37.24-40.86,63.58s47.91,65.61,47.91,65.61l-8.05,13.61S524,276,520,229s42.94-91.11,62.41-94.55,56.36,8.13,79.67,10.31c29.12,2.72,33.13,76.15,34.56,102.49s-.84,73-.84,73L680,319.23s-3.13-88-12.29-128.09l7.44,92.76S639,295.06,587.51,281.33Z" transform="translate(-59.44 -69.61)"/><path class="cls-4" d="M617.31,107.41l-1.49,29.18,21.91,14s-.77-6.38-1.31-10.9l-2.33-26.45Z" transform="translate(-59.44 -69.61)"/><path class="cls-4" d="M614.4,91.84c0-11.6,10.66-16.3,21.63-14.42s15.05,11.92,13.16,27.9S641.36,126,633.52,126C623.8,126,614.4,106.26,614.4,91.84Z" transform="translate(-59.44 -69.61)"/><path class="cls-16" d="M618.16,103.75s.46-15.11,6.3-25.68c0,0-9.52,1.91-10.63,11.42s2.93,21.78,2.93,21.78Z" transform="translate(-59.44 -69.61)"/><path class="cls-4" d="M618.16,103.75S610,94.26,611,101.52s7.21,12.58,9.3,9.23Z" transform="translate(-59.44 -69.61)"/><path class="cls-12" d="M644,107.54c-2.79-.46-6.22.5-11.3.16s-10.61,3.7-8.21,12.42c2.19,8,12.58,8,17.53,5.4,5.39-2.83,6.27-6.32,6.18-11.4S647.48,108.1,644,107.54Z" transform="translate(-59.44 -69.61)"/><path class="cls-11" d="M624.27,96.73s1,5.5,2.05,5.88,8,1.29,9.24-.77a10.48,10.48,0,0,0,1.16-5.11S632.61,94.06,624.27,96.73Z" transform="translate(-59.44 -69.61)"/><path class="cls-12" d="M623.49,95.87s.23,6,2.47,7.24,9.89.88,10.59-1.12a27.48,27.48,0,0,0,.83-6.12S632.9,93.51,623.49,95.87Zm11.65,5.76c-1.18,1.89-7.53,1.06-8.47.71S624.78,97,624.78,97c7.65-2.45,11.42,0,11.42,0A9.49,9.49,0,0,1,635.14,101.63Z" transform="translate(-59.44 -69.61)"/><path class="cls-11" d="M651.31,96.73s-.77,5.5-1.54,5.88-5.95,1.29-6.91-.77a13.43,13.43,0,0,1-.86-5.11S645.07,94.06,651.31,96.73Z" transform="translate(-59.44 -69.61)"/><path class="cls-12" d="M641.5,95.87a36.39,36.39,0,0,0,.62,6.12c.53,2,6.25,2.35,7.92,1.12s1.85-7.24,1.85-7.24C644.85,93.51,641.5,95.87,641.5,95.87Zm.88,1.08s2.82-2.45,8.54,0c0,0-.7,5-1.41,5.39s-5.45,1.18-6.33-.71A12.19,12.19,0,0,1,642.38,97Z" transform="translate(-59.44 -69.61)"/><path class="cls-12" d="M636.7,97.67a6.9,6.9,0,0,1,5.31,0l.3-2.12h-5.75Z" transform="translate(-59.44 -69.61)"/><polygon class="cls-12" points="564.04 26.26 553.18 30.64 553.88 31.91 565.01 28.06 564.04 26.26"/><path class="cls-12" d="M630.43,96.59c-.75,0-1.36,1-1.36,2.19s.61,2.2,1.36,2.2,1.36-1,1.36-2.2S631.18,96.59,630.43,96.59Z" transform="translate(-59.44 -69.61)"/><path class="cls-12" d="M644.7,96.59c-.75,0-1.36,1-1.36,2.19s.61,2.2,1.36,2.2,1.36-1,1.36-2.2S645.45,96.59,644.7,96.59Z" transform="translate(-59.44 -69.61)"/><path class="cls-13" d="M640.81,98.91a47.28,47.28,0,0,0,1.56,6.81s1.13-1.22,1.53-.13-1.16,1.62-1.16,1.62-1.49,3-3.8.8c0,0-2.4-.51-1.8-1.74s1.43.19,1.43.19a46.78,46.78,0,0,1-.64-7.3,1.46,1.46,0,0,1,1.16-1.46h0A1.46,1.46,0,0,1,640.81,98.91Z" transform="translate(-59.44 -69.61)"/><path class="cls-12" d="M635.72,93.49s-5.41-3.76-8.55,1.33c0,0-1.88-2.27,1.49-4.23S637,89.1,635.72,93.49Z" transform="translate(-59.44 -69.61)"/><path class="cls-12" d="M640.27,93.49s5.41-3.76,8.54,1.33c0,0,1.88-2.27-1.49-4.23S639,89.1,640.27,93.49Z" transform="translate(-59.44 -69.61)"/><path class="cls-7" d="M631.72,111.29c.77-1.11,3.85.85,8.61.4,3-.28,4-1.18,5-.18s-.09,3.71-5.12,4S630.35,113.25,631.72,111.29Z" transform="translate(-59.44 -69.61)"/><path class="cls-13" d="M591.65,294.15s13.56-.31,14.63,1.57-11.17,2.64-11.17,2.64Z" transform="translate(-59.44 -69.61)"/><path class="cls-4" d="M590.61,292.27s20.68,11.5,24.25,16-10.05-2-10.05-2,11.85,6.79,10.47,8.44-15.51-5-15.51-5,12,6.42,11.09,7.8-13.7-4.45-13.7-4.45,8.5,6.12,7.88,7.38-22.48-14.53-22.48-14.53Z" transform="translate(-59.44 -69.61)"/><path class="cls-13" d="M681,321.15s-7.94,11-7,12.94,8.5-7.71,8.5-7.71Z" transform="translate(-59.44 -69.61)"/><path class="cls-4" d="M680,319.23s-2.23,23.55-.53,29,4-9.42,4-9.42-1.12,13.62,1,13.42,4.63-15.64,4.63-15.64-1.5,13.53.15,13.56,4.09-13.82,4.09-13.82.23,10.47,1.63,10.68.75-26.77.75-26.77Z" transform="translate(-59.44 -69.61)"/><path class="cls-17" d="M573.76,137.69c-1,.49-1.92,1-2.9,1.63,28.32,3.76,64,7.65,101,9.54a21.08,21.08,0,0,0-3.32-2.18C634,144.8,600.71,141.22,573.76,137.69Z" transform="translate(-59.44 -69.61)"/><path class="cls-17" d="M679.9,158.82c-44.92-1.92-88.53-7-120.16-11.45-.66.56-1.33,1.14-2,1.74,32.08,4.55,77,9.84,123.27,11.76C680.65,160.17,680.28,159.49,679.9,158.82Z" transform="translate(-59.44 -69.61)"/><path class="cls-17" d="M583.56,163.08v1c29.75,3.68,65.73,7.19,102.28,8.52-.23-.68-.46-1.36-.7-2-52-1.92-102.78-8.26-135.93-13.18l-1.62,1.78c10.11,1.51,21.93,3.16,35,4.79C583.2,163.4,583.56,163.08,583.56,163.08Z" transform="translate(-59.44 -69.61)"/><path class="cls-17" d="M583.63,173.7l0,2c30.62,3.79,67.82,7.39,105.44,8.62-.16-.68-.32-1.35-.49-2C651.14,181.08,614.1,177.48,583.63,173.7Z" transform="translate(-59.44 -69.61)"/><path class="cls-17" d="M574,172.47c-12.69-1.65-24-3.3-33.4-4.76-.45.6-.9,1.21-1.34,1.82,9.26,1.44,20.45,3.08,33,4.74Z" transform="translate(-59.44 -69.61)"/><path class="cls-17" d="M564.72,182.81c-12.14-1.66-22.71-3.27-31.18-4.63-.37.61-.74,1.23-1.09,1.85,8.33,1.34,18.76,2.94,30.77,4.6C563.72,184,564.22,183.41,564.72,182.81Z" transform="translate(-59.44 -69.61)"/><path class="cls-17" d="M583.88,187.33c24.83,3.07,54,6,84.16,7.66l-.17-2c-30.14-1.66-59.25-4.6-84-7.67C583.85,186,583.86,186.65,583.88,187.33Z" transform="translate(-59.44 -69.61)"/><path class="cls-17" d="M668.14,193c.14.66.29,1.34.43,2,7.59.42,15.24.75,22.91,1l-.36-2C683.43,193.75,675.75,193.42,668.14,193Z" transform="translate(-59.44 -69.61)"/><path class="cls-17" d="M669,206.63l-.16-2c-30.36-1.65-59.71-4.6-84.69-7.69l.06,2C609.2,202,638.58,205,669,206.63Z" transform="translate(-59.44 -69.61)"/><path class="cls-17" d="M670.33,204.7l.33,2c7.49.39,15,.7,22.6.91l-.27-2Q681.62,205.3,670.33,204.7Z" transform="translate(-59.44 -69.61)"/><path class="cls-17" d="M556.58,193.26c-11.47-1.64-21.22-3.18-28.71-4.41-.29.62-.57,1.25-.85,1.88,7.36,1.22,17,2.74,28.27,4.36Z" transform="translate(-59.44 -69.61)"/><path class="cls-17" d="M672.07,216.38c.09.66.18,1.33.26,2,7.39.37,14.83.66,22.28.86l-.21-2C686.94,217.05,679.48,216.75,672.07,216.38Z" transform="translate(-59.44 -69.61)"/><path class="cls-17" d="M549.8,203.85c-10.73-1.58-19.63-3-26.18-4.13-.2.64-.4,1.28-.59,1.93,6.43,1.09,15.2,2.51,25.76,4.08C549.11,205.1,549.46,204.48,549.8,203.85Z" transform="translate(-59.44 -69.61)"/><path class="cls-17" d="M669.9,218.26l-.16-2c-30.55-1.62-60.11-4.59-85.27-7.69,0,.67,0,1.34.07,2C609.74,213.68,639.33,216.64,669.9,218.26Z" transform="translate(-59.44 -69.61)"/><path class="cls-17" d="M670.84,229.9l-.16-2c-30.73-1.61-60.48-4.58-85.81-7.7,0,.68,0,1.35.07,2C610.31,225.33,640.09,228.3,670.84,229.9Z" transform="translate(-59.44 -69.61)"/><path class="cls-17" d="M673.51,228c.07.67.15,1.34.22,2,7.27.36,14.58.64,21.89.82,0-.66-.1-1.33-.16-2C688.13,228.67,680.8,228.39,673.51,228Z" transform="translate(-59.44 -69.61)"/><path class="cls-17" d="M544.84,214.7c-10-1.52-18.2-2.87-24-3.86-.11.65-.22,1.31-.31,2,5.72,1,13.78,2.31,23.67,3.81C544.41,216,544.62,215.34,544.84,214.7Z" transform="translate(-59.44 -69.61)"/><path class="cls-17" d="M542.7,226.66V226c-9.69-1.48-17.51-2.78-22.93-3.72,0,.68,0,1.35,0,2,5.49,1,13.32,2.25,23,3.73C542.74,227.54,542.71,227.1,542.7,226.66Z" transform="translate(-59.44 -69.61)"/><path class="cls-17" d="M671.77,241.53l-.16-2c-30.88-1.58-60.81-4.56-86.3-7.69,0,.67.05,1.35.08,2C610.92,237,640.88,240,671.77,241.53Z" transform="translate(-59.44 -69.61)"/><path class="cls-17" d="M674.74,239.67c.07.67.13,1.34.2,2,7.12.35,14.28.61,21.44.78,0-.65-.08-1.31-.12-2Q685.48,240.21,674.74,239.67Z" transform="translate(-59.44 -69.61)"/><path class="cls-17" d="M672.7,253.16l-.16-2c-31-1.56-61.12-4.54-86.76-7.68,0,.68.06,1.35.08,2C611.55,248.63,641.67,251.6,672.7,253.16Z" transform="translate(-59.44 -69.61)"/><path class="cls-17" d="M675.82,251.31c.06.67.11,1.34.17,2,7,.32,13.94.58,20.93.74l-.06-2Q686.32,251.8,675.82,251.31Z" transform="translate(-59.44 -69.61)"/><path class="cls-17" d="M545.27,237.93c-10.36-1.57-18.76-3-24.63-4q.18,1.06.39,2.1c6.07,1,14.65,2.45,25.16,4C545.87,239.37,545.56,238.65,545.27,237.93Z" transform="translate(-59.44 -69.61)"/><path class="cls-17" d="M676.77,262.94l.15,2q10.07.45,20.19.7c0-.67,0-1.34,0-2C690.31,263.49,683.52,263.25,676.77,262.94Z" transform="translate(-59.44 -69.61)"/><path class="cls-17" d="M673.64,264.79l-.16-2c-31.15-1.54-61.41-4.52-87.2-7.67,0,.69.06,1.36.09,2C612.2,260.28,642.48,263.26,673.64,264.79Z" transform="translate(-59.44 -69.61)"/><path class="cls-17" d="M552,250.52c-11.53-1.69-21.09-3.23-28-4.41.27.73.56,1.46.86,2.18,7.24,1.21,17,2.77,28.7,4.47C553,252,552.5,251.26,552,250.52Z" transform="translate(-59.44 -69.61)"/><path class="cls-17" d="M674.57,276.42l-.16-2c-31.26-1.52-61.67-4.49-87.6-7.65,0,.7.06,1.37.09,2C612.87,271.94,643.3,274.91,674.57,276.42Z" transform="translate(-59.44 -69.61)"/><path class="cls-17" d="M561.76,263.49c-12.54-1.75-23.3-3.41-31.62-4.77.46.76.93,1.51,1.41,2.26,8.58,1.38,19.51,3.06,32.17,4.8C563.06,265,562.41,264.26,561.76,263.49Z" transform="translate(-59.44 -69.61)"/><path class="cls-17" d="M697.09,275.23q-9.76-.23-19.48-.67c0,.68.09,1.34.14,2q9.63.44,19.32.66C697.07,276.57,697.08,275.9,697.09,275.23Z" transform="translate(-59.44 -69.61)"/><path class="cls-17" d="M573.87,276.71c-13.07-1.71-24.66-3.41-34.21-4.89.68.79,1.36,1.57,2.05,2.34,9.74,1.5,21.41,3.18,34.48,4.87C575.43,278.28,574.66,277.51,573.87,276.71Z" transform="translate(-59.44 -69.61)"/><path class="cls-17" d="M667.6,285.64c-28.64-1.58-56.32-4.33-80.24-7.23,0,.86.08,1.54.1,2,21.25,2.57,45.44,5,70.62,6.63C661.83,286.63,665,286.13,667.6,285.64Z" transform="translate(-59.44 -69.61)"/><path class="cls-17" d="M696.92,286.81q-9.3-.21-18.56-.63l.12,2q9.16.4,18.39.62C696.89,288.15,696.9,287.48,696.92,286.81Z" transform="translate(-59.44 -69.61)"/><path class="cls-4" d="M654,143.73c-16.6-2.52-37.4-7.8-54.22-9.43,7.36,8.72,23.39,25.08,39.68,24.33C650.76,158.11,653.76,150.78,654,143.73Z" transform="translate(-59.44 -69.61)"/><path class="cls-4" d="M582.56,305.88l8.05-13.61s-31.27-25.94-43.29-49.8l-20.88,9.43C542.59,285.5,582.56,305.88,582.56,305.88Z" transform="translate(-59.44 -69.61)"/><path class="cls-4" d="M680,319.23l15.78,1.06s1.85-37.94,1.16-64.72l-20.6,2.23C679,290.14,680,319.23,680,319.23Z" transform="translate(-59.44 -69.61)"/><path class="cls-12" d="M613.83,89.49s7.56.79,9.66-1,2.26-5.83,2.26-5.83,12.44,4,19.55,0l2.15,3.52a4.5,4.5,0,0,0-.8-4.85,8.76,8.76,0,0,0-3.31-10c-5.59-4.34-22.13,3.83-28.94-1.67a8.26,8.26,0,0,0-.57,10A8,8,0,0,0,613.83,89.49Z" transform="translate(-59.44 -69.61)"/><path class="cls-1" d="M545.29,234.45,521,241.68a71.59,71.59,0,0,0,7,16l24.29-9S549,239.47,545.29,234.45Z" transform="translate(-59.44 -69.61)"/><path class="cls-1" d="M675.35,246.07s-.86,6.28,1.32,15.53l20.41,1,1.26-16.54Z" transform="translate(-59.44 -69.61)"/></g></svg>