<svg xmlns="http://www.w3.org/2000/svg" viewBox="0 0 2976.22 2102.33"><defs><style>.cls-1{isolation:isolate;}.cls-2{fill:#754c29;}.cls-3{fill:#fff;}.cls-4{fill:#a06920;}.cls-5{fill:#eaa48c;}.cls-6{fill:#dd927f;}.cls-7{fill:#d1d3d4;}.cls-14,.cls-7{mix-blend-mode:multiply;}.cls-8{fill:#c01919;}.cls-9{fill:#241f20;}.cls-10{fill:#edb59d;}.cls-11{fill:#fac4a9;}.cls-12{fill:#8b5e3c;}.cls-13{fill:#3c2415;}.cls-14{fill:#e6e7e8;}.cls-15{fill:#603913;}.cls-16,.cls-18{fill:none;}.cls-16{stroke:#231f20;stroke-miterlimit:10;}.cls-17{fill:#f5f5f5;}</style></defs><g class="cls-1"><g id="Layer_2" data-name="Layer 2"><ellipse class="cls-2" cx="1342.07" cy="1006.76" rx="839.37" ry="799.79"/><path class="cls-3" d="M726.28,211.64h308.07a67.33,67.33,0,0,1,67.24,67.27v802.37a67.32,67.32,0,0,1-67.24,67.24H726.28A67.32,67.32,0,0,1,659,1081.28V278.91A67.33,67.33,0,0,1,726.28,211.64Z" transform="translate(257.79 164.6)"/><rect class="cls-4" x="916.84" y="446.75" width="442.55" height="742.42"/><path class="cls-5" d="M1712.2,1565.1c0,.46-181.35,124.1-300.09,205l-100.72,68.61s-178-394.59-207.82-467.52-77.37-114.92-138.13-137.05-118.27-85.59-118.27-85.59c136.77,1.8,189.56-1.34,212.36-6.56a1.57,1.57,0,0,1,.31-.08,60.19,60.19,0,0,0,7.92-2.35.7.7,0,0,0,.19-.06c7.79-3,9.66-6.45,13.17-9.93a78.64,78.64,0,0,0,12.6-16.69v0a68.2,68.2,0,0,0,6.71-19.11q1-131.49,2-263a304.1,304.1,0,0,1-22.79-36.31c-60.58-113.5-46.74-263.09,11.46-322.55a100.69,100.69,0,0,1,10.45-9.31c6.48-5,22.66-17.15,37.3-12.39,18.83,6.11,23.81,36.51,29.4,68.6,17.62,101.07,26.67,152.18,38.42,180,21.46,50.84,34,38.3,59,97.29,10.2,24.08,22,56.12,38.16,124.55,9.23,39,20.27,91.2,29.61,154a1916.18,1916.18,0,0,0,144.83,228.08A1921.12,1921.12,0,0,0,1712.2,1565.1Z" transform="translate(257.79 164.6)"/><path class="cls-6" d="M1412.11,1770.07l-100.72,68.61s-178-394.59-207.82-467.52-77.37-114.92-138.13-137.05-118.27-85.59-118.27-85.59c131.1,3.33,186.64-.35,212.36-6.56a1.57,1.57,0,0,1,.31-.08,77.41,77.41,0,0,0,7.92-2.35.7.7,0,0,0,.19-.06c6.57-2.36,10.23-5,12.91-7.61,7.58-7.51,12.55-18.34,12.86-19v0a68.2,68.2,0,0,0,6.71-19.11q1-131.49,2-263c-5.55-8.12-13.76-20.59-22.79-36.31-60.58-113.5-46.74-263.09,11.46-322.55a281.27,281.27,0,0,0-7.79,27.31c-22.49,97,10.49,188.36,40.31,271,17.88,49.56,34.54,44,40.35,101,14.7,144.42,39.77,178.31,8.82,227s-103.16,82.52-100.22,95.77-11.76,39.82,26.56,16.25,94.29-70.77,95.79-42.75-31,61.89-38.32,78.09-23.57,84.07,11.75,120.9C1195,1394,1340.83,1645.87,1412.11,1770.07Z" transform="translate(257.79 164.6)"/><path class="cls-6" d="M659.68,529.28s-81.79-21.37-97.26,7.37-4.42,72.65,21.37,89,75.89,34.07,75.89,34.07Z" transform="translate(257.79 164.6)"/><path class="cls-5" d="M628,655.28s-78.84,36.85-17,104.64c0,0-71.6,49.36-3.38,109.05,0,0-71.78,59.68,6.33,109,0,0,105.37,10.32,45.68-103.16,0,0,38.32-10.31,33.9-51.58s-29.47-59.68-29.47-59.68S698,748.86,698,720.13,706.11,654.55,628,655.28Z" transform="translate(257.79 164.6)"/><ellipse class="cls-7" cx="1180.3" cy="1043.42" rx="90.36" ry="56.18"/><ellipse class="cls-7" cx="1168.53" cy="1043.42" rx="105.41" ry="65.54"/><ellipse class="cls-7" cx="1168.53" cy="1055.54" rx="105.41" ry="65.54"/><path class="cls-8" d="M963.59,585.7s77.3,93.57,121.6,95.88,153.61-14.36,153.61-14.36l13.33,28.26s-163.5,58.4-196.48,52.68S984.9,731,984.9,731Z" transform="translate(257.79 164.6)"/><path class="cls-9" d="M959.43,350.74c-9.68-12.07-26.37-17-41.76-15.41S888,344.25,875.3,353.08s-24.25,19.23-36.9,28.15c-13.21,9.32-28.55,18.12-34.11,33.3-5.32,14.53-.1,31.31-5.4,45.85-3.17,8.69-9.78,15.65-14.18,23.78-7.83,14.45-8.27,31.65-8.09,48.08.3,27.93,2.26,57.22,17,81,6.48,10.48,15.65,20.73,15.06,33,9,3,15.12,11.15,22.27,17.43,20.85,18.3,54.46,20,77.06,3.9,8.34-6,15.1-13.87,23.36-19.93,5.54-4,11.74-7.27,16.6-12.11,15.09-15.07,12.47-39.67,9.87-60.84-1.73-14.07-2.86-29,3-41.86,4-8.72,10.84-15.74,16.52-23.47,17.1-23.28,22.76-57,6.71-81.06-7.79-11.66-22.34-21-21.56-36.19C963.28,376.5,971.06,365.23,959.43,350.74Z" transform="translate(257.79 164.6)"/><path class="cls-10" d="M872.46,550V493.91l64.39,5.61L925,571.83S900.2,587.68,872.46,550Z" transform="translate(257.79 164.6)"/><path class="cls-11" d="M950.72,389.57s10.89,95.76,7.92,104.34S936.85,535.18,918,535.18s-63.4-35-64.39-41.27-6.93-63.72,0-81.55S902.18,357.87,950.72,389.57Z" transform="translate(257.79 164.6)"/><path class="cls-12" d="M996.28,790.75s8.91,88.16,4,98.06-41.1,17.52-41.1,17.52V884.85l-15.37,19.81c-63.39,11.89-107-43.59-107-43.59l22.12-52.5s-10-14.94-28.53-62.65c-7.16-18.44-15.63-41.79-25.29-71.06-1.44-4.35-2.67-8.51-3.72-12.49-24.47-92,48.94-86.56,48.94-86.56l4.3-.66,89.15.66a99.51,99.51,0,0,1,19.82,9.9c3.78,2.39,10.16,12.39,17.1,25.44a501.72,501.72,0,0,1,26,58,138,138,0,0,1,5.4,17.58c5,23.77-16.84,58.44-16.84,58.44Z" transform="translate(257.79 164.6)"/><path class="cls-13" d="M953.87,781.83c25.57-16.84,46.37-29.72,46.37-29.72s1-33.67-12.87-36.65l-99.72,36.65s-39.24,36.49-37.32,40.39,8.6,16.08,8.6,16.08S928.3,798.67,953.87,781.83Z" transform="translate(257.79 164.6)"/><path class="cls-9" d="M901.84,399.52a72.88,72.88,0,0,0-31.59,40.75,35,35,0,0,1,1.15-19.83A23.9,23.9,0,0,0,856.69,436c-.09-2.37-.18-4.75-.28-7.12a59.61,59.61,0,0,0-10.72,14.41c1.92-13.24-3.23-27.54,2.29-39.73,3-6.55,8.62-11.43,14.1-16.08,4.84-4.11,9.72-8.25,15.3-11.25,12.31-6.62,27-7.2,40.88-6.1,8.38.67,16.94,2,24.28,6.08,4.93,2.77,10,7.42,9.56,13C934,392,918.76,389.25,901.84,399.52Z" transform="translate(257.79 164.6)"/><path class="cls-14" d="M1006.73,669.16C996.64,716,978.29,775,948.22,789.12c-50.34,23.67-114.46-39.82-117.82-43.2l-.13-.14s-22.09-42.5-28.88-83.41c-5.26-31.62-1.37-62.29,28.88-71.67l99.09,125.58L980.7,611.15A501.72,501.72,0,0,1,1006.73,669.16Z" transform="translate(257.79 164.6)"/><path class="cls-8" d="M826.16,579.73l99.1,125.59,56-114.63,31.61,6.4s-17,156.74-68.75,181.07-118-43.34-118-43.34S756.77,601.25,826.16,579.73Z" transform="translate(257.79 164.6)"/><path class="cls-11" d="M984.9,585.35s19.42-70,32.88-62.76,31.74,32.14,26.78,35.78-31.7,38.72-31.7,38.72l-28-5.66Z" transform="translate(257.79 164.6)"/><path class="cls-11" d="M1238.8,667.22s34.91-62.51,35.55-49.82-6.35,24.06-6.35,24.06,60.3-29.13,57.76-20.25-32.37,24.12-32.37,24.12,46.34-26.66,45.7-20.31-35.55,28.34-35.55,28.34,40.63-17.67,39.36-11.9-37.45,25.67-37.45,25.67,33.64-14.81,32.37-8.47-60.94,39.36-85.69,36.82Z" transform="translate(257.79 164.6)"/><path class="cls-13" d="M1128.61,708.06h54.95a11.09,11.09,0,0,1,11.09,11.09v23.47a7.34,7.34,0,0,1-7.34,7.34h-62.44a7.34,7.34,0,0,1-7.34-7.34V719.14A11.09,11.09,0,0,1,1128.61,708.06Z"/><path class="cls-12" d="M1018.6,507.14c-.14,6.51,1.4,12.92,2.93,19.25,2.51,10.4,5.29,21.33,12.66,29.09a40.47,40.47,0,0,1,4.6,5c1.26,1.89,2,4.34,1.15,6.46-1.39,3.61-6.29,4.39-10,3.35-8.58-2.41-14-10.72-18.1-18.62a233.82,233.82,0,0,1-16.29-39.64,3.34,3.34,0,0,1-.2-1.94,3.17,3.17,0,0,1,1.45-1.6,21.94,21.94,0,0,1,21.2-1.45" transform="translate(257.79 164.6)"/><path class="cls-15" d="M1018,507.07l.61.07c-.14,6.51,1.4,12.92,2.93,19.25,2.51,10.4,5.29,21.33,12.66,29.09a40.47,40.47,0,0,1,4.6,5,10.36,10.36,0,0,1,.82,1.5c-.19,0-.4-.07-.59-.12-8.58-2.41-14-10.73-18.09-18.63a233.31,233.31,0,0,1-15.76-37.94A21.81,21.81,0,0,1,1018,507.07Z" transform="translate(257.79 164.6)"/><path class="cls-8" d="M1055.49,411.09s-5.54,17.42-25.64,28-20.47,11.34-33.27,13.16-22.48,6.31-26.32,20.84c-4,15.11.73,31.07,12.07,38.38s25.22,3.66,28.88,2.56,11.33-4.39,27.41-3.65,33.27,6.21,39.85,9.86a142.57,142.57,0,0,0,13.21,6.39s6.16-12.6,2.87-37.46-14.62-56.66-16.45-59.22S1062.85,402.08,1055.49,411.09Z" transform="translate(257.79 164.6)"/><path class="cls-8" d="M970.26,473.11c1.81-6.83,4.92-11.43,9-14.58-.51,12.1,4.32,23.54,13.41,29.41,11.33,7.31,25.22,3.65,28.88,2.56s11.33-4.39,27.42-3.66,33.27,6.22,39.84,9.87c2.3,1.28,4.59,2.43,6.61,3.4.56,17.61-3.77,26.54-3.77,26.54a142.57,142.57,0,0,1-13.21-6.39c-6.58-3.65-23.76-9.13-39.85-9.86s-23.76,2.56-27.41,3.65-17.55,4.76-28.88-2.56S966.27,488.22,970.26,473.11Z" transform="translate(257.79 164.6)"/><path class="cls-12" d="M1055.49,411.09c2.53-6.37,6.92-10.91,14.39-10.07,3.26.37,6.2,2.15,8.76,4.2,12,9.61,18.64,25.21,23.54,39.41a137,137,0,0,1,6.75,62.1c-1.11,8.63-5.07,25.15-17.25,19.92-8.09-3.48-13.88-12.63-18.3-19.85-12.65-20.64-19.34-44.46-20.9-68.54C1052.06,431.77,1052.05,419.75,1055.49,411.09Z" transform="translate(257.79 164.6)"/><path class="cls-12" d="M994.12,452.67c.81-.14,1.63-.28,2.46-.4a67.66,67.66,0,0,0,10.52-2.07,49.3,49.3,0,0,0-2.36,9.41c-.91,6.5,0,13.48,1.36,19.86a77.41,77.41,0,0,0,5.95,17.44,66.08,66.08,0,0,0,8.42,13.46c.27.33.55.66.83,1a70.76,70.76,0,0,0-10.09,2.7c-.55.16-1.34.39-2.29.62-.63-.58-1.25-1.18-1.84-1.81a55.73,55.73,0,0,1-6.46-8.29A71.58,71.58,0,0,1,990.56,477C989.34,468.68,990,459.93,994.12,452.67Z" transform="translate(257.79 164.6)"/><path class="cls-8" d="M1067.56,492.68c3.92-6.82,13.4-14.31,19.64-19.09a1.53,1.53,0,0,0,.67-.86,1.48,1.48,0,0,0-.27-.89c-4-7.17-7-15.37-6.43-23.54-8,1.78-18.22,1.6-25.52-.49q1.17,5.56,2.35,11.12c1.53,7.21,3.08,14.49,6.1,21.21,1.58,3.53,3.6,7,3.72,10.89" transform="translate(257.79 164.6)"/><path class="cls-3" d="M1076.94,451.79c.92-2.53,3.46-4.52,6.25-3.85a7.06,7.06,0,0,1,3.21,2c3.57,3.57,5.28,9.21,5.47,14.16.14,3.43-.09,8.63-4.4,9.4s-7.6-4.47-9.14-7.76a21.34,21.34,0,0,1-1.7-13.05C1076.73,452.38,1076.83,452.09,1076.94,451.79Z" transform="translate(257.79 164.6)"/><path class="cls-3" d="M1052.48,438.26c1.56,24.08,8.25,47.9,20.9,68.54,4.42,7.22,10.21,16.37,18.3,19.85,12.18,5.23,16.14-11.29,17.25-19.92a137,137,0,0,0-6.75-62.1c-4.9-14.2-11.57-29.8-23.54-39.41-2.56-2.05-5.5-3.83-8.76-4.2-7.47-.84-11.86,3.7-14.39,10.07C1052.05,419.75,1052.06,431.77,1052.48,438.26Zm6.61-25.19c2.16-5.8,5.9-9.94,12.25-9.18,2.77.34,5.27,2,7.45,3.83,10.18,8.75,17.21,23.72,21.38,36.66,5.85,18.16,8.92,40.07,6.63,59.16-.94,7.86-4.31,22.91-14.67,18.14-6.88-3.17-12.7-14.1-16.46-20.67-10.77-18.81-16.46-40.5-17.78-62.44C1057.53,432.67,1056.17,421,1059.09,413.07Z" transform="translate(257.79 164.6)"/><line class="cls-16" x1="1361.03" y1="612.41" x2="1407.5" y2="578"/><line class="cls-16" x1="1367.77" y1="620.93" x2="1457.56" y2="613.7"/><line class="cls-16" x1="1370.41" y1="632.51" x2="1434.67" y2="647.04"/><path class="cls-13" d="M1709.92,310.05c-162.93,0-295,104.38-295,233.2,0,92.75,68.53,172.82,167.71,210.37-27.06,60-85.42,85.83-85.42,85.83,147,3.49,187.27-64,187.27-64h0c8.37.54,16.83.91,25.4.91,162.91,0,295-104.36,295-233.14S1872.83,310.05,1709.92,310.05Z" transform="translate(257.79 164.6)"/><path class="cls-8" d="M1976.66,127.65c192.43,0,348.43,123.3,348.43,275.41,0,109.56-80.91,204.16-198.14,248.51,32,70.84,101,101.35,101,101.35-173.71,4.13-221.21-75.51-221.21-75.51l0,0c-9.91.7-19.9,1.07-30,1.07-192.46,0-348.48-123.28-348.48-275.4S1784.2,127.65,1976.66,127.65Z" transform="translate(257.79 164.6)"/><path class="cls-17" d="M1777.7,408a46.63,46.63,0,1,0,46.62-46.63A46.64,46.64,0,0,0,1777.7,408Z" transform="translate(257.79 164.6)"/><path class="cls-17" d="M1926.14,408a46.64,46.64,0,1,0,46.65-46.63A46.68,46.68,0,0,0,1926.14,408Z" transform="translate(257.79 164.6)"/><path class="cls-17" d="M2076.81,408a46.64,46.64,0,1,0,46.65-46.63A46.67,46.67,0,0,0,2076.81,408Z" transform="translate(257.79 164.6)"/><rect class="cls-18" width="2976.22" height="2102.33"/></g></g></svg>