<?xml version="1.0" encoding="utf-8"?>
<!-- Generator: Adobe Illustrator 24.2.1, SVG Export Plug-In . SVG Version: 6.00 Build 0)  -->
<svg version="1.1" id="Layer_1" xmlns="http://www.w3.org/2000/svg" xmlns:xlink="http://www.w3.org/1999/xlink" x="0px" y="0px"
	 viewBox="0 0 5000 5000" enable-background="new 0 0 5000 5000" xml:space="preserve">
<g>
	<defs>
		<rect id="SVGID_1_" x="50" y="50" width="4900" height="4900"/>
	</defs>
	<clipPath id="SVGID_2_">
		<use xlink:href="#SVGID_1_"  overflow="visible"/>
	</clipPath>
	<g clip-path="url(#SVGID_2_)">
		<path fill="#C1272D" d="M3185.7,441.9c0,0,250.3-79.2,383.6,396.3s-505,291.6-327.5,572.5c177.5,280.9,620.7,307.3,553.2,1027
			s-367.4,740.7-75.8,938.4s-966.3,822.6-2240.7,352.1s-274.9-424.3-149.9-972s-966.3-1221-183.3-1632.7
			c0,0,678.6-164.8,755.8-419.3S3185.7,441.9,3185.7,441.9z"/>
		<g>
			<path fill="#A67C52" d="M3568.3,4370.4c0,0-18.7,3.1-70.3,17.4c-8.4,2.3-17.6,4.9-27.8,7.8c-38.1,11-325.1,61-629,95.8
				c-104.3,12-210.6,22.1-309.5,28.3c-164.6,10.3-308.7,9.6-389.4-12.1c-67.6-18.2-120.3-35.8-161.2-52l0,0
				c-122.6-48.4-140-83.9-140-83.9c-74.4-218.6-78.3-696.5-53.9-985c10.9,1.9,18.7,4.2,21.7,7c0,0,0,0,0,0
				c13.7,12.6,17.8,22,28.4-8.4c10.5-30.5,0-167,0-167s1.8-36.1,3.8-82.6c48-96.9,82-284.4,84.3-297c0,1.4,1.1,4.7,11.3,6.3
				c13.3,2.1,499.7,70,659.4,65.8c0,0,9.8,0,30.8,9.8c0,0,61.6-15.4,99.4-18.2c37.8-2.8,232.5-29.4,285.8-49c0,0,11.2-4.2,18.2,23.8
				c7,28,26.6,114.9,37.8,207.3c0,0,15.4,99.9,32.2,114.4c0,0-4.2,28.5,11.2,55.8c15.4,27.3,25.2,100.9,25.2,100.9
				s109.3,142.2,168.1,240.2c58.8,98.1,244.8,645.7,263.3,707.7C3586.9,4365.5,3568.3,4370.4,3568.3,4370.4z"/>
			<path fill="#FFD399" d="M3305,3595.8c-58.8-98.1-168.1-240.2-168.1-240.2s-9.8-73.5-25.2-100.9c-15.4-27.3-11.2-55.8-11.2-55.8
				c16.8,14.5,35.4-28.9,92.1-37.3c22.3-3.3,37.4-4.1,47.4-5.2l-0.3,0c0,0,7.5,142.4,17.5,194.2
				C3267.2,3402.5,3312,3541.6,3305,3595.8z"/>
			<path fill="#FFD399" d="M2580.1,4960h-485.4c0,0-103.9-485.7-113.6-504.3c40.9,16.2,93.6,33.8,161.2,52
				c80.6,21.7,224.8,22.4,389.4,12.1L2580.1,4960z"/>
			<path fill="#FFD399" d="M3646.8,4960h-551.9c-79.8-239.6-253.6-468.6-253.6-468.6c304-34.8,591-84.8,629-95.8
				c10.2-2.9,19.4-5.5,27.8-7.8C3544,4506.7,3646.8,4960,3646.8,4960z"/>
			<path fill="#FFD399" d="M1988.3,4457.9c-7-25.9-34.3-13.7-35.4-31.5c-1.1-17.9-2.5-81.7-15.1-106.9
				c-12.6-25.2-18.7-51.8-15.9-79.4c2.8-27.6-11.7-132.6-32.7-169.5c-21-36.9-81.7-105.1-88.7-163.9c-7-58.8-5.6-243.7,8.4-367
				c13.9-122,0.3-145.5,0-146c0,0,0,0,0,0c-13.7-12.6-131.3-16.8-181.7-11.5c-24.2,2.5-50.8,1.6-72.9-0.7
				c0.4,2.5,58.6,372.9,75.3,470.6c16.8,98.1-4.2,85.4,15.4,138.7c19.6,53.2,14,254.9,0,298.4c-14,43.4,18.2,49,30.8,71.4
				c12.6,22.4,49.7,118.4,71.4,140.8c21.7,22.4,89.7,27.3,134.5,25.2c44.8-2.1,65.8,9.8,78.4-5.6c12.6-15.4,14.7-35.7,0-39.9
				C1960.3,4481,1995.3,4483.8,1988.3,4457.9z M1822.5,4411.5c0,0-14.9-44.8-25.2-53.2c0,0,13.1-48.1,0-80.3c0,0,23.6-9.5,26.4-36.4
				c0,0,21,24.2,22.1,68.3c1.1,44.1,39.3,116.6,39.3,116.6S1844.5,4410.5,1822.5,4411.5z"/>
			<g>
				<g>
					<path fill="#333333" d="M1673.6,4289.1c-0.3,3.8-0.2,7.6,0.2,11.4c0.4,3.8,1.1,7.5,2.1,11.1c1,3.6,2.4,7.1,4.2,10.4
						c1.8,3.3,3.9,6.4,6.4,9.2c1.3,1.4,2.6,2.7,4,3.9c0.7,0.6,1.4,1.2,2.2,1.9c0.8,0.7,1.5,1.3,2.2,2c2.8,2.8,5.2,5.8,7.5,8.9
						c4.6,6.2,8.6,12.7,12.5,19.3c7.8,13.2,14.8,26.8,21.6,40.4c3.4,6.8,6.7,13.7,9.9,20.7c3.2,6.9,6.4,13.9,9.4,20.9l0,0.1l0,0.1
						c0.6,1.8,1.4,3.7,2.2,5.5c0.8,1.8,1.6,3.7,2.5,5.4c1.8,3.6,3.8,7.1,5.9,10.5c4.3,6.7,9.4,13,15.4,18.3
						c5.9,5.3,12.6,9.7,20,12.6c1.8,0.7,3.8,1.3,5.7,2c1.9,0.7,3.9,1.2,5.8,1.8c3.9,1.2,7.8,2.2,11.8,3.2c4,1,7.9,2,11.9,2.9
						c4,0.9,8,1.8,12,2.6c4,0.9,8,1.7,12,2.5c4,0.8,8,1.6,12.1,2.4c16.1,3.1,32.3,5.9,48.4,8.7c-16.3-1.6-32.6-3.8-48.9-6.2
						c-16.2-2.5-32.4-5.3-48.5-9c-8-1.8-16-4-23.9-6.7c-8-2.9-15.3-7.5-21.6-13.1c-6.3-5.6-11.7-12.2-16.3-19.2
						c-2.3-3.5-4.4-7.2-6.3-10.9c-1.9-3.8-3.6-7.5-5-11.6l0.1,0.2c-6-13.9-12.4-27.8-19-41.5c-6.6-13.7-13.4-27.3-20.7-40.6
						c-3.7-6.6-7.6-13.1-11.8-19.4c-2.1-3.1-4.4-6.1-6.9-8.8c-0.6-0.7-1.3-1.3-1.9-2c-0.6-0.6-1.4-1.3-2.1-1.9
						c-1.5-1.3-2.8-2.8-4-4.3c-5-6.1-8.3-13.3-10-20.8C1672.9,4304.5,1672.6,4296.7,1673.6,4289.1z"/>
				</g>
				<g>
					<path fill="#333333" d="M1822.5,4411.5c1.3,4.3,2.3,8.8,2.8,13.4c0.3,2.3,0.4,4.6,0.2,6.9c-0.1,2.3-0.5,4.8-1.9,7.1l-1.1-2.2
						c2.8,0.2,5.5,0.4,8.2,0.8c2.7,0.4,5.4,0.8,8.1,1.3c5.4,1,10.8,2.4,16,4.3c2.6,0.9,5.2,2,7.7,3.2c2.5,1.3,5,2.7,7.3,4.3
						c2.3,1.7,4.5,3.6,6.4,5.9c1.9,2.3,3.5,4.9,4.4,7.8l-2.4-1.7c3.6,0,7.1,0.1,10.7,0.3c3.5,0.1,7.1,0.3,10.6,0.6
						c7.1,0.6,14.1,1.3,21.1,2.5c7,1.1,14,2.7,20.8,4.9c3.4,1.1,6.7,2.4,9.9,4c3.2,1.6,6.2,3.6,8.7,6.1c-0.7-0.5-1.4-1.1-2.2-1.5
						c-0.8-0.4-1.5-0.9-2.3-1.3c-1.6-0.8-3.1-1.5-4.8-2.1c-3.3-1.2-6.6-2.2-10-2.9c-6.8-1.6-13.7-2.6-20.6-3.4
						c-6.9-0.7-13.9-1.3-20.9-1.6c-7-0.3-14-0.6-20.9-0.5l-1.8,0l-0.6-1.7c-1.5-4.5-4.9-8.3-9-11.3c-2.1-1.5-4.3-2.8-6.6-4
						c-2.3-1.2-4.7-2.3-7.2-3.3c-2.5-1-5-1.8-7.5-2.6c-2.5-0.8-5.1-1.5-7.7-2.2c-2.6-0.6-5.2-1.2-7.9-1.7c-2.6-0.5-5.3-1-7.9-1.4
						l-2.4-0.3l1.3-1.9c1.1-1.5,1.6-3.7,1.9-5.8c0.3-2.1,0.4-4.4,0.4-6.6c0-2.2-0.1-4.5-0.3-6.7
						C1823.1,4415.9,1822.9,4413.7,1822.5,4411.5z"/>
				</g>
				<g>
					<g>
						<path fill="#333333" d="M1883.4,4423.2c6,6.6,12.3,12.8,19,18.2c6.8,5.4,14.1,10.1,22.1,12.7c2,0.6,4,1.2,6.1,1.5
							c2,0.4,4,0.5,6,0.3c1.9-0.2,3.8-0.6,5.5-1.5c1.7-0.8,3.1-2.1,4.4-3.6c1.3-1.5,2.3-3.3,3-5.2c0.8-1.9,1.4-4,1.9-6.1
							c1-4.2,1.4-8.6,1.5-13.1c1.1,4.3,1.4,8.9,1.1,13.4c-0.2,2.3-0.5,4.6-1.2,6.8c-0.7,2.2-1.6,4.5-3,6.5c-1.4,2-3.3,3.9-5.5,5.2
							c-2.2,1.3-4.7,2-7.2,2.3c-2.5,0.3-4.9,0.2-7.2-0.2c-2.3-0.3-4.6-0.9-6.8-1.6c-4.4-1.5-8.6-3.6-12.4-6.1
							c-3.8-2.5-7.4-5.4-10.6-8.5C1893.5,4438,1887.8,4430.9,1883.4,4423.2z"/>
					</g>
				</g>
				<g>
					<path fill="#333333" d="M1942.1,4389.5c-3.3-0.1-6.6-0.1-9.9,0.1c-3.2,0.1-6.5,0.5-9.5,1.1c-3.1,0.6-6,1.6-8.5,3.1
						c-2.5,1.5-4.4,3.5-5.5,6c-1.1,2.5-1.4,5.5-1.2,8.5c0,0.4,0,0.8,0,1.1l0.2,1.1c0.1,0.8,0.2,1.5,0.3,2.3l0.5,2.3l0.2,1.2l0.3,1.2
						c1.6,6.2,4.1,12.3,6.5,18.5c-4.2-5.2-7.7-11-10.2-17.3c-0.7-1.6-1.1-3.3-1.6-4.9c-0.2-0.8-0.4-1.7-0.6-2.6l-0.3-1.3
						c-0.1-0.4-0.1-0.9-0.1-1.3c-0.1-0.9-0.2-1.8-0.2-2.7l0.1-2.7l0.5-2.8c0.3-0.9,0.6-1.8,0.9-2.7c0.5-0.8,0.9-1.7,1.4-2.5l0.9-1.2
						c0.3-0.4,0.6-0.8,1-1.1c0.7-0.7,1.4-1.4,2.2-1.9l1.2-0.8c0.4-0.2,0.8-0.4,1.2-0.7c3.3-1.7,6.8-2.6,10.3-2.9
						c3.5-0.3,6.9-0.1,10.2,0.3C1935.6,4387.6,1938.9,4388.3,1942.1,4389.5z"/>
				</g>
			</g>
			<path fill="#FFD399" d="M2876.4,1445.7c-233.9,330.6-329.2,270.3-329.2,270.3c0,25.2-71.4,180.7-71.4,180.7
				c-53.2-71.4-183.5-165.3-183.5-165.3c-298.3,78.4-509.5-244.4-509.5-244.4c151.3-83,405.2-454.5,405.2-454.5s0,0.1,0.1,0.2
				c1.5,4.1,34.7,92,154.7,182.3c122.9,92.4,159.7,49.4,159.7,49.4s27.8-25.9,50.9-50.2c-0.4,1.1-18.2,44.4-9.9,88
				C2551.7,1346.2,2876.4,1445.7,2876.4,1445.7z"/>
			<path fill="#FFD399" d="M2736.6,843c-13.7,179.6-39.9,238.5-57.8,257.4c-17.9,18.9-86.1,68.3-109.3,95.6
				c-4.8,5.6-10.4,11.8-16.3,18.1c0,0,0,0,0,0c-23,24.3-50.9,50.2-50.9,50.2s-36.8,43.1-159.7-49.4
				c-120-90.3-153.2-178.2-154.7-182.3c0-0.1-0.1-0.2-0.1-0.2c-25.2-79.1,35.7-313.8,35.7-313.8c144.3-7,372.6-123.3,372.6-123.3
				C2755.2,597.9,2736.6,843,2736.6,843z"/>
			<g>
				<g>
					<g>
						<g>
							<path fill="#333333" d="M2604.3,1435.5c-10.2,2.9-20.6,5.1-31,6.9c-10.4,1.9-20.9,3.3-31.5,4.3c-5.3,0.5-10.6,0.9-15.9,1.2
								c-5.3,0.2-10.6,0.4-15.9,0.3l-4,0c-1.3,0-2.7-0.1-4-0.2l-4-0.2c-1.3-0.1-2.7-0.1-4-0.3c-2.6-0.3-5.3-0.6-7.9-1
								c-2.6-0.5-5.2-1-7.8-1.6c10.6,0.5,21.1,0,31.6-0.6l3.9-0.3c1.3-0.1,2.6-0.2,3.9-0.3l7.9-0.6l7.9-0.7c2.6-0.2,5.2-0.5,7.9-0.7
								c10.5-1,21-2.1,31.5-3.2C2583.2,1437.5,2593.7,1436.4,2604.3,1435.5z"/>
						</g>
					</g>
					<g>
						<g>
							<path fill="#333333" d="M2168.3,1441c1.8,0.8,3.7,1.3,5.6,1.9c0.9,0.3,1.9,0.5,2.9,0.8c1,0.2,1.9,0.5,2.9,0.7
								c3.8,0.9,7.7,1.6,11.6,2.2c7.8,1.3,15.7,2.1,23.5,2.7l5.9,0.4l5.9,0.4c3.9,0.3,7.9,0.4,11.8,0.5c3.9,0.2,7.9,0.2,11.8,0.3
								c3.9,0.1,8.1,0.2,12.1,0.7c1,0.1,2,0.3,3,0.4l3,0.5l3,0.7c1,0.2,2,0.5,3,0.8l3,0.9l2.9,1.1c1,0.3,1.9,0.8,2.8,1.3
								c0.9,0.4,1.9,0.9,2.8,1.4c7.3,4,13.3,10.3,17.5,17.3c2.1,3.5,4,7.1,5.6,10.7c1.7,3.6,3.2,7.3,4.9,10.8
								c1.7,3.5,3.6,6.9,6.1,9.9c2.5,3,5.7,5.4,9.4,6.9c-0.9-0.3-1.9-0.6-2.8-1l-1.4-0.6l-0.7-0.3c-0.2-0.1-0.4-0.3-0.6-0.4
								c-0.9-0.5-1.7-1-2.5-1.7c-0.4-0.3-0.8-0.6-1.2-0.9l-1.1-1c-3-2.8-5.2-6.2-7.3-9.7c-4-7-7.3-14.2-11.7-20.6
								c-4.4-6.3-9.8-11.8-16.5-15.3c-0.8-0.5-1.7-0.8-2.5-1.3c-0.9-0.4-1.7-0.8-2.6-1.1l-2.7-1l-2.7-0.8c-0.9-0.3-1.8-0.5-2.8-0.7
								l-2.8-0.6l-2.9-0.4c-0.9-0.1-1.9-0.3-2.9-0.4c-3.9-0.5-7.7-0.6-11.6-0.7l-6-0.2c-2-0.1-4-0.1-6-0.3c-4-0.3-8-0.5-11.9-0.9
								c-2-0.2-4-0.3-6-0.6l-5.9-0.7c-7.9-1-15.8-2.4-23.6-4.2c-3.9-1-7.7-2-11.5-3.3C2175.5,1444.3,2171.8,1442.9,2168.3,1441z"/>
						</g>
					</g>
				</g>
				<g>
					<g>
						<path fill="#333333" d="M2304.9,1253.8c5.7,12.3,10.5,25,15,37.8c1.1,3.2,2.2,6.4,3.2,9.6l1.6,4.8l1.5,4.9
							c2,6.5,3.8,13,5.6,19.5c1.6,6.6,3.3,13.1,4.7,19.8c1.5,6.6,2.7,13.3,3.9,20c2.1,13.4,3.6,26.9,3.8,40.5
							c-2.2-13.4-4.8-26.6-7.6-39.7c-1.6-6.5-2.9-13.1-4.6-19.7c-1.5-6.6-3.3-13.1-4.9-19.6c-1.7-6.5-3.4-13-5.3-19.5l-1.3-4.9
							l-1.4-4.9l-2.8-9.7L2304.9,1253.8z"/>
					</g>
				</g>
			</g>
			<path fill="#754C24" d="M3243.7,3156L3243.7,3156c-1,0.1-2.1,0.3-3.3,0.4l-0.4,0c-10,1.1-25.1,1.9-47.4,5.2
				c-56.7,8.4-75.3,51.8-92.1,37.3c-16.8-14.5-32.2-114.4-32.2-114.4c-11.2-92.4-30.8-179.3-37.8-207.3c-7-28-18.2-23.8-18.2-23.8
				c-53.2,19.6-247.9,46.2-285.8,49c-37.8,2.8-99.4,18.2-99.4,18.2c-21-9.8-30.8-9.8-30.8-9.8c-159.7,4.2-646.1-63.7-659.4-65.8
				c-10.3-1.6-11.4-4.9-11.3-6.3c0,0,0,0,0,0c0-0.3,0.1-0.5,0.1-0.6c0,0,0,0,0,0s10.9-25.2,0-58.8c-10.9-33.6,0-109.3,0-109.3
				s-9.2-28.5-9.7-87.8c-0.5-59.3-28.9-81.2-28.9-81.2c-20.5-19.6-24.7-61.2-24.7-61.2c-4.6-10.7-1.5-30.4-1.5-30.4
				c8.4-40.6-22.4-88.2-22.4-88.2s1.4,270.3-4.2,334.8c-5.6,64.4,10.5,236.7,12.6,284c1.3,28.6-2.5,124.5-5.6,195.8
				c-2,46.6-3.8,82.6-3.8,82.6s10.5,136.6,0,167c-10.5,30.5-14.7,21-28.4,8.4c0,0,0,0,0,0c-3-2.7-10.8-5.1-21.7-7
				c-39.7-7-120.5-8.7-160.1-4.6c-24.2,2.5-50.8,1.6-72.9-0.7c-23.9-2.6-42.5-6.9-47.2-10.5c-9.1-7,11.9-478.3,18.2-614.9
				c6.3-136.6-27.3-790-29.4-945.5c-2.1-155.5,77.7-180.7,107.2-205.9c29.4-25.2,179.6-117.7,179.6-117.7s211.2,322.9,509.5,244.4
				c0,0,130.3,93.9,183.5,165.3c0,0,71.4-155.5,71.4-180.7c0,0,95.3,60.2,329.2-270.3c231.1,126.1,179.3,449.6,179.3,561.7
				c0,112.1,76,714,99.1,778.1c23.1,64.1,50.8,203.8,50.8,203.8c15.4,19.6,48,129.6,51.1,150.6
				C3258.4,3151.5,3255.9,3154.3,3243.7,3156z"/>
			<g>
				<g>
					<g>
						<g>
							<path fill="#333333" d="M1603.1,1604.7c11,21.4,21.6,43,32.2,64.7c10.6,21.6,21,43.4,31.3,65.1
								c10.3,21.8,20.4,43.6,30.5,65.5c10,21.9,19.8,43.9,29.5,66c9.6,22.1,19.1,44.2,28.3,66.5c9.2,22.3,18.1,44.6,26.7,67.2
								c4.2,11.3,8.5,22.6,12.5,33.9c1,2.8,2,5.7,3,8.5l2.9,8.6l2.9,8.6l2.8,8.6c7.3,23,14.1,46.2,17.8,70.3l0,0.1l0,0.1
								c0.2,5.4,0.6,10.8,1,16.1c0.5,5.4,1,10.7,1.8,16.1c0.8,5.3,1.7,10.6,3,15.8c0.7,2.6,1.4,5.1,2.3,7.6c0.9,2.4,2.1,4.8,3.7,6.6
								l0.4,0.5l0,0.6c-0.8,10-1.3,20-1.8,29.9c-0.4,10-0.7,20-0.5,30c0.1,5,0.4,10,0.9,14.9l0.6,3.7l0.7,3.7l0.6,3.7l0.5,3.7
								c0.6,5,1.1,10,1.4,15c0.3,5,0.5,10,0.4,15c-0.3-10-1.2-20-2.7-29.9l-0.6-3.7l-0.7-3.7l-0.7-3.7l-0.7-3.7
								c-0.7-5-1.1-10-1.3-15c-0.4-10-0.4-20.1-0.2-30.1c0.2-10,0.7-20,1.3-30.1l0.4,1.1c-2-2.3-3.3-4.9-4.3-7.4
								c-1-2.6-1.9-5.2-2.6-7.9c-1.4-5.3-2.4-10.7-3.3-16.1c-0.8-5.4-1.5-10.8-2-16.2c-0.5-5.4-1-10.8-1.3-16.3l0,0.2l-1.6-8.8
								c-0.3-1.5-0.5-2.9-0.8-4.4l-1-4.4l-2.1-8.7l-2.4-8.7c-0.8-2.9-1.5-5.8-2.4-8.7l-2.6-8.6c-0.9-2.9-1.7-5.8-2.6-8.6l-2.8-8.6
								l-2.8-8.6l-3-8.5l-3-8.5c-1-2.8-2-5.6-3.1-8.5c-4-11.3-8.3-22.6-12.5-33.8c-8.6-22.5-17.6-44.7-26.8-67
								c-9.2-22.2-18.6-44.4-28.1-66.5c-9.5-22.1-19.2-44.1-29-66.1c-9.7-22-19.6-44-29.5-65.9c-10-21.9-20.1-43.8-30.1-65.6
								C1623.5,1648.3,1613.3,1626.5,1603.1,1604.7z"/>
						</g>
					</g>
					<g>
						<g>
							<path fill="#333333" d="M1981.3,2046.6c-8,2.7-15.7,6-23.3,9.7c-7.5,3.6-14.8,7.8-21.9,12.2c-7,4.5-13.9,9.3-20.3,14.5
								c-6.5,5.2-12.7,10.8-18.4,16.8c-11.6,11.9-21.5,25.4-29.8,39.9c-8.1,14.6-14.4,30.2-19.3,46.3c2.9-16.6,8.3-32.9,15.9-48.2
								l3-5.6c0.5-0.9,1-1.9,1.5-2.8l1.7-2.7c1.1-1.8,2.2-3.7,3.4-5.4l3.6-5.3l0.9-1.3l1-1.3l2-2.5c1.3-1.7,2.6-3.4,4-5
								c1.4-1.6,2.8-3.3,4.2-4.9l4.4-4.7c6-6.1,12.4-11.8,19.1-17c6.8-5.2,13.8-10,21.2-14.2c1.8-1.1,3.7-2,5.6-3.1
								c1.9-1,3.8-1.9,5.7-2.9c3.8-1.8,7.7-3.6,11.6-5.1C1964.9,2050.9,1973,2048.2,1981.3,2046.6z"/>
						</g>
					</g>
					<g>
						<g>
							<path fill="#333333" d="M1944.2,2148.8c-8.2,2.4-16.4,4.8-24.4,7.4c-8,2.6-16,5.4-23.8,8.6c-7.8,3.2-15.3,6.9-22.3,11.3
								c-6.9,4.6-13.4,10-17.7,17.5c1.1-4.2,3.4-8,6.1-11.5c2.7-3.4,5.9-6.5,9.4-9.2c6.9-5.4,14.7-9.5,22.7-12.8
								c4-1.7,8.1-3.1,12.2-4.4c4.1-1.3,8.3-2.4,12.5-3.4C1927.1,2150.6,1935.6,2149.2,1944.2,2148.8z"/>
						</g>
					</g>
					<g>
						<g>
							<path fill="#333333" d="M1981.3,2270l-29.4,36c-4.9,6-9.8,12-14.6,18c-4.8,6-9.7,12.1-14.4,18.2c-4.8,6.1-9.4,12.2-14,18.4
								c-4.6,6.2-9,12.5-13.4,18.8l-3.2,4.8l-3.1,4.8c-2.1,3.3-4.1,6.5-6,9.9c-3.8,6.7-7.3,13.6-9.7,21c1.3-7.7,4.3-15,7.5-22.1
								c3.4-7,7.1-13.9,11.2-20.5c4.1-6.7,8.4-13.1,12.9-19.5c4.5-6.3,9.2-12.6,13.9-18.7c4.8-6.1,9.7-12.2,14.7-18.1
								c5-5.9,10.1-11.8,15.3-17.6C1959.3,2291.9,1970,2280.6,1981.3,2270z"/>
						</g>
					</g>
					<g>
						<g>
							<path fill="#333333" d="M2131.2,2359.8c-16.9,24.2-33.7,48.3-50.5,72.6c-8.3,12.1-16.7,24.2-25,36.5
								c-8.3,12.2-16.5,24.4-24.6,36.7c-16.3,24.5-32.2,49.3-47.3,74.5l-5.6,9.5l-5.5,9.6c-3.6,6.4-7.2,12.8-10.6,19.3
								c-0.9,1.6-1.7,3.2-2.6,4.9l-2.5,4.9c-0.8,1.6-1.7,3.3-2.4,4.9l-2.3,5c-3.1,6.7-5.8,13.5-8.2,20.5l1.5-5.3l0.8-2.7
								c0.3-0.9,0.6-1.7,0.9-2.6c1.2-3.5,2.4-7,3.8-10.4l2-5.2c0.7-1.7,1.5-3.4,2.2-5.1l2.2-5.1c0.8-1.7,1.6-3.3,2.3-5
								c6.3-13.3,13.2-26.4,20.5-39.3c7.2-12.9,14.9-25.5,22.6-38.1c7.8-12.5,15.8-24.9,23.9-37.2c8.2-12.3,16.5-24.5,24.9-36.6
								c8.5-12.1,17-24.1,25.7-36C2094.9,2406.3,2112.6,2382.8,2131.2,2359.8z"/>
						</g>
					</g>
					<g>
						<g>
							<path fill="#333333" d="M1678.7,2789c-8.7,13.6-17.8,26.7-27.2,39.8c-4.6,6.6-9.5,13-14.2,19.4c-4.8,6.4-9.7,12.8-14.6,19.2
								c-2.5,3.2-5,6.3-7.5,9.5c-2.5,3.1-5,6.3-7.5,9.4c-5.1,6.2-10.1,12.5-15.4,18.5c-10.4,12.2-21.1,24.2-32.7,35.5
								c10-12.6,19.8-25.3,29.6-37.9l29.5-38l14.8-19c5-6.3,9.9-12.6,14.9-18.9C1658.4,2813.8,1668.4,2801.3,1678.7,2789z"/>
						</g>
					</g>
					<g>
						<g>
							<path fill="#333333" d="M1739,2882.8c-9,10.1-18.3,19.7-27.9,29.2c-4.7,4.8-9.6,9.4-14.5,14.1c-4.9,4.6-9.8,9.2-14.7,13.8
								c-5,4.5-10,9-15,13.5l-7.7,6.6l-3.8,3.3l-3.9,3.2c-10.4,8.6-21,16.9-32.3,24.3c10-9,19.8-18.2,29.7-27.2l29.6-27.3l14.9-13.5
								l7.5-6.7c2.5-2.3,5-4.5,7.5-6.7C1718.4,2900.2,1728.6,2891.4,1739,2882.8z"/>
						</g>
					</g>
					<g>
						<g>
							<path fill="#333333" d="M1755.8,1503.7c7.1,10.8,14.8,21.2,22.7,31.3c8,10.2,16.2,20.1,24.8,29.7
								c17.1,19.4,35.2,37.8,54.3,55.1c19.1,17.3,39.1,33.7,60.1,48.7c10.5,7.5,21.2,14.7,32.1,21.5c10.9,6.8,22.1,13.3,33.5,19.4
								c45.5,24.3,94.4,42.3,144.9,52c12.6,2.5,25.4,4.3,38.2,5.8l9.6,1c3.2,0.3,6.4,0.5,9.6,0.7c6.4,0.6,12.9,0.7,19.3,1
								c25.7,0.8,51.5-0.5,77.1-3.6l0.7-0.1l0.5,0.4c16,11.9,31.8,24.1,47.4,36.6c15.6,12.5,30.9,25.2,46,38.3
								c15,13.2,29.7,26.7,43.7,41c6.9,7.2,13.7,14.6,20,22.5c1.6,2,3.1,3.9,4.6,6l2.2,3.1c0.8,1,1.4,2.1,2.1,3.2l2.1,3.2l1.8,3.4
								l0.9,1.7c0.3,0.6,0.5,1.2,0.8,1.8l1.5,3.6l0,0.1l0,0.2l2.5,11.2c0.8,3.7,1.6,7.5,2.4,11.2c1.6,7.5,3.2,14.9,4.7,22.4
								c1.5,7.5,3.1,15,4.5,22.5l4.4,22.5c1.5,7.5,2.8,15,4.2,22.5l4.1,22.5l7.8,45.2c10.1,60.3,18.6,120.8,25.9,181.5l2.7,22.8
								l1.3,11.4l1.2,11.4l4.6,45.6l0.6,5.7l0.5,5.7l0.9,11.4l1.9,22.8l1.9,22.8c0.6,7.6,1,15.3,1.5,22.9l2.8,45.8l1.8,45.8
								l0.9,22.9l0.3,22.9l0.6,45.9l-2.5-2.5l57.4,0l-2.4,2.3c1.9-30.6,2.2-61.5,2-92.2l-0.3-23.1c-0.2-7.7-0.5-15.4-0.7-23.1
								l-0.4-11.5c-0.1-3.8-0.2-7.7-0.4-11.5l-1.1-23.1c-3.2-61.5-8.7-122.9-16-184.1c-2-15.3-4.1-30.5-6.1-45.8
								c-1-7.6-2-15.3-3.1-22.9l-3.6-22.8c-2.4-15.2-4.7-30.4-7.2-45.6l-8.2-45.5l-4.1-22.7c-1.4-7.6-3.1-15.1-4.6-22.6l-9.3-45.3
								c-0.8-3.8-1.5-7.5-2.4-11.3l-2.6-11.3l-5.3-22.5l-10.5-45l-0.1-0.6l0.3-0.6l87.1-170l0.4-0.8l1,0.1c0.4,0,1,0.1,1.5,0.1
								c0.5,0,1.1,0,1.6,0c1.1,0,2.2-0.1,3.3-0.3c1.1-0.1,2.2-0.3,3.3-0.5c1.1-0.2,2.2-0.4,3.3-0.6c4.3-1,8.6-2.2,12.8-3.8
								c8.4-3,16.5-7,24.4-11.3c15.7-8.8,30.5-19.2,44.5-30.6c14-11.3,27.3-23.6,40.2-36.3c6.5-6.3,12.7-12.9,18.9-19.4
								c3.1-3.3,6.1-6.7,9.2-10c3-3.3,6.1-6.7,9.1-10.1c23.9-27.1,46.3-55.6,67.7-84.7c21.4-29.1,41.9-59,61.7-89.3
								c-19.6,30.4-39.8,60.5-61,89.8c-21.3,29.3-43.5,57.9-67.3,85.2c-2.9,3.5-6,6.8-9,10.2c-3,3.3-6,6.8-9.1,10.1
								c-6.2,6.6-12.4,13.2-18.9,19.6c-12.8,12.8-26.1,25.2-40.1,36.7c-14,11.5-28.8,22.1-44.6,31.1c-7.9,4.4-16.2,8.4-24.7,11.6
								c-4.3,1.6-8.7,2.9-13.2,3.9c-1.1,0.2-2.2,0.5-3.4,0.7c-1.1,0.2-2.3,0.4-3.4,0.5c-1.2,0.1-2.3,0.3-3.5,0.3c-0.6,0-1.2,0-1.8,0
								c-0.6,0-1.2,0-1.9-0.1l1.4-0.7l-86.5,170.4l0.1-1.2l10.7,45l5.3,22.5l2.7,11.3c0.8,3.8,1.6,7.5,2.4,11.3l9.5,45.3
								c1.6,7.6,3.2,15.1,4.7,22.7l4.2,22.8l8.4,45.5c2.5,15.2,4.9,30.5,7.3,45.7l3.6,22.9c1.1,7.6,2.1,15.3,3.2,22.9
								c2.1,15.3,4.2,30.6,6.2,45.9c7.4,61.3,13,122.7,16.3,184.4l1.2,23.1c0.2,3.9,0.3,7.7,0.4,11.6l0.4,11.6
								c0.2,7.7,0.5,15.4,0.7,23.1l0.3,23.1c0.2,30.9,0,61.7-1.9,92.7l-0.1,2.3l-2.3,0l-57.4,0l-2.4,0l0-2.5l-0.6-45.8l-0.3-22.9
								l-0.9-22.9l-1.8-45.7l-2.8-45.7c-0.5-7.6-0.9-15.2-1.5-22.8l-1.9-22.8l-1.9-22.8l-0.9-11.4l-0.5-5.7l-0.6-5.7l-4.6-45.6
								l-1.2-11.4l-1.3-11.4l-2.7-22.7c-7.2-60.6-15.6-121.1-25.6-181.3l-7.7-45.1l-4.1-22.5c-1.4-7.5-2.7-15-4.2-22.5l-4.3-22.5
								c-1.4-7.5-3-15-4.5-22.4c-1.5-7.5-3.1-14.9-4.6-22.4c-1.6-7.5-3.2-14.9-4.9-22.3l0.1,0.3l-1.4-3.3c-0.2-0.5-0.4-1.1-0.7-1.6
								l-0.9-1.6l-1.7-3.2l-2-3.1c-0.7-1-1.3-2.1-2-3.1l-2.1-3c-1.4-2-3-3.9-4.5-5.9c-6.1-7.7-12.8-15.1-19.7-22.3
								c-13.8-14.3-28.4-27.8-43.3-41c-14.9-13.1-30.2-25.9-45.7-38.4c-15.5-12.5-31.2-24.8-47.1-36.7l1.2,0.3
								c-25.7,3-51.7,4.2-77.6,3.4c-6.5-0.3-12.9-0.5-19.4-1.1c-3.2-0.3-6.5-0.4-9.7-0.8l-9.7-1c-12.9-1.5-25.7-3.4-38.4-6l-4.8-0.9
								c-1.6-0.3-3.2-0.7-4.7-1l-9.5-2.1c-6.3-1.6-12.6-3.1-18.8-4.9c-6.3-1.7-12.4-3.7-18.6-5.6c-3.1-1-6.1-2.1-9.2-3.1
								c-1.5-0.5-3.1-1-4.6-1.6l-4.6-1.7c-3-1.1-6.1-2.2-9.1-3.4l-9-3.6c-6-2.5-11.9-5-17.8-7.7c-5.9-2.6-11.7-5.5-17.5-8.3
								l-8.6-4.4c-2.9-1.5-5.7-3-8.6-4.6c-11.4-6.2-22.6-12.7-33.5-19.6c-10.9-6.9-21.6-14.2-32.1-21.8c-21-15.1-40.9-31.6-60-49.1
								c-19-17.5-37.1-36-54-55.6c-8.5-9.7-16.7-19.7-24.6-30C1770.4,1525,1762.8,1514.6,1755.8,1503.7z"/>
						</g>
					</g>
					<g>
						<g>
							<path fill="#333333" d="M2994,1800c2,20.9,3.2,41.9,3.7,63c0.2,10.5,0.2,21-0.2,31.6c-0.4,10.5-1,21.1-2.4,31.5
								c-0.7,5.2-1.6,10.5-2.9,15.6c-0.6,2.6-1.4,5.1-2.2,7.7l-0.6,1.8c-0.2,0.6-0.4,1.2-0.5,1.8c-0.3,1.2-0.5,2.5-0.7,3.7
								c-0.6,5.1-0.3,10.3,0.1,15.4c0.5,5.2,1.3,10.3,2.2,15.5c1.8,10.3,3.9,20.6,6,30.9c2.1,10.3,4.1,20.7,5.8,31
								c3.5,20.8,6.1,41.8,6.8,62.9c0.8,21.1-0.3,42.4-3.6,63.3c-3.3,20.9-8.9,41.5-16.7,61.2c-7.8,19.7-17.9,38.5-29.7,56.1l0.4-1
								c-1.5,11.6-2.6,23.4-3.6,35.1c-0.9,11.7-1.6,23.5-2.1,35.3c-1.1,23.5-1.4,47.1-1,70.7c0.9,47.1,4.3,94.2,11.3,140.9
								c3.5,23.3,7.4,46.6,11.2,69.9c3.8,23.3,7.8,46.6,11.8,69.8c4,23.3,8.1,46.5,12.3,69.8l6.4,34.9c2.1,11.6,4.3,23.2,6.5,34.8
								c-2.5-11.5-4.9-23.1-7.3-34.7l-7-34.7c-4.6-23.2-9.1-46.4-13.4-69.6c-8.5-46.5-16.8-93-24.5-139.6
								c-3.8-23.4-6.5-46.9-8.5-70.5c-1-11.8-1.8-23.6-2.4-35.4c-0.6-11.8-1-23.7-1.2-35.5c-0.4-23.7-0.2-47.3,0.9-71
								c0.5-11.8,1.3-23.6,2.2-35.4c1-11.8,2.1-23.6,3.7-35.4l0.1-0.5l0.3-0.5c11.7-17.3,21.6-35.8,29.4-55.1
								c7.8-19.4,13.4-39.6,16.7-60.2c3.4-20.6,4.5-41.6,3.9-62.5c-0.6-20.9-2.9-41.8-6.2-62.5c-1.7-10.4-3.6-20.7-5.5-31
								c-2-10.3-4-20.6-5.7-31.1c-0.8-5.2-1.6-10.4-2.1-15.7c-0.4-5.3-0.7-10.6,0-16c0.2-1.3,0.4-2.7,0.7-4c0.2-0.7,0.4-1.3,0.6-2
								l0.7-1.9c0.9-2.4,1.6-4.9,2.3-7.4c1.3-5,2.3-10.2,3-15.3c1.6-10.3,2.4-20.8,2.9-31.3c0.5-10.5,0.7-21,0.7-31.5
								c0-10.5-0.3-21-0.7-31.5C2995.3,1821,2994.8,1810.5,2994,1800z"/>
						</g>
					</g>
				</g>
				<g>
					<g>
						<path fill="#333333" d="M1507.7,3195.1c27.6-1,55.3-1.1,82.9-0.9c13.8,0.1,27.6,0.4,41.4,0.7c13.8,0.4,27.6,0.9,41.4,1.4
							c13.8,0.7,27.6,1.4,41.4,2.3c6.9,0.5,13.8,1,20.7,1.6c6.9,0.5,13.8,1.2,20.7,1.9c13.8,1.4,27.5,3.1,41.2,5.4
							c6.8,1.2,13.6,2.5,20.4,4.1c6.7,1.7,13.4,3.6,19.7,6.6c-3.2-1.3-6.5-2.3-9.8-3.1c-3.3-0.9-6.7-1.5-10.1-2.2
							c-6.8-1.2-13.6-2.2-20.4-3c-13.7-1.7-27.4-2.9-41.2-3.9c-13.8-1-27.5-1.9-41.3-2.6c-13.8-0.8-27.5-1.5-41.3-2
							c-13.8-0.7-27.6-1.2-41.4-1.7l-41.4-1.5C1562.9,3197.2,1535.3,3196.2,1507.7,3195.1z"/>
					</g>
				</g>
				<g>
					<g>
						<path fill="#333333" d="M3205.5,2989.3c-11.8,5.5-23.7,10.8-35.6,15.9c-5.9,2.6-11.9,5.1-17.9,7.7l-17.9,7.6
							c-6,2.5-11.9,5-17.9,7.6c-6,2.5-11.9,5.1-17.8,7.7c-5.9,2.6-11.8,5.3-17.6,8.1c-2.9,1.4-5.8,2.9-8.6,4.5
							c-1.4,0.8-2.8,1.6-4.1,2.5c-1.3,0.9-2.7,1.8-3.8,3c1.9-2.7,4.5-4.7,7.1-6.7c2.6-2,5.4-3.7,8.2-5.4c5.6-3.4,11.3-6.5,17.1-9.5
							c5.8-3,11.7-5.7,17.6-8.5c5.9-2.7,11.9-5.3,17.9-7.9c6-2.5,12-5,18.1-7.4c6.1-2.3,12.1-4.7,18.2-6.9
							C3180.7,2997.1,3193,2992.9,3205.5,2989.3z"/>
					</g>
				</g>
			</g>
			<g>
				<g>
					<circle fill="#333333" cx="2485" cy="1957.1" r="13.1"/>
					<circle fill="#333333" cx="2501.7" cy="2022.2" r="13.1"/>
					<circle fill="#333333" cx="2533.2" cy="2188.2" r="13.1"/>
					<circle fill="#333333" cx="2542" cy="2247.8" r="13.1"/>
					<circle fill="#333333" cx="2558.6" cy="2424.5" r="13.1"/>
					<circle fill="#333333" cx="2562.8" cy="2495.9" r="13.1"/>
				</g>
				
					<ellipse transform="matrix(0.2298 -0.9732 0.9732 0.2298 180.1975 3872.2566)" fill="#333333" cx="2536.5" cy="1822.3" rx="12.4" ry="12.4"/>
				
					<ellipse transform="matrix(0.1602 -0.9871 0.9871 0.1602 405.5568 4013.3865)" fill="#333333" cx="2561.4" cy="1768.4" rx="12.4" ry="12.4"/>
			</g>
			<path fill="#333333" stroke="#333333" stroke-width="5" stroke-miterlimit="10" d="M3118.7,1814.1c0,0-27-109.6-59.5-150.6
				c-32.6-41-128.2-182.8-238.5-205.9c0,0,20,245.8-58.8,368.7c-78.8,122.9-94.6,256.3-94.6,256.3s-10.3-112.4,66.2-253.2
				c0,0,44.1-109.3,44.1-157.6c0,0-59.9,138.7-83,167c-23.1,28.3-50.4,115.3-37.8,151.2c-1.1-2.6-27.7-68.6,3.2-136.5
				c31.3-68.9,131.1-185.5,101.4-290.1c-21.7,25.1-69.7,75.2-117.2,88.4c0,0,59.9-48.3,64.6-88.2c0,0-24.7,31.5-53,36.8
				c0,0,25-66.1-15.4-157.8c-23.3-49.5-63.4-95.9-74.7-108.4c0,0-0.1-0.1-0.1-0.1c-14-13.9-58.5-58.6-63.2-69.8
				c0,0,44.1-41,67.2-68.3c23.1-27.3,91.4-76.7,109.3-95.6c17.9-18.9,44.1-77.7,57.8-257.4c0,0,18.6-245.1-140.4-247.6
				c0,0-228.3,116.3-372.6,123.3c0,0-60.9,234.6-35.7,313.8c0,0,0,0.1,0.1,0.2c25.2,79.2,67.8,243.6,10.4,340.2
				c-57.4,96.6,134.5,326.4,78.4,546.3c0,0,3.6,147.1,177.6,301.1c-1.9-1-124.9-66.5-204.2-236.4c0,0-23.1,193.1,123.7,297.1
				c-4.9-3.4-83.7-58.2-113.2-107c0,0,7.3,151.8,35.6,185.8c-4-4.6-90.1-104.4-114.5-260.4c-25.1-159.7,6.5-384.5-104.9-496.9
				c0,0-63,48.3-37.8,110.3c25.2,62,2.1,154.4-21,208c0,0,17.9-112.4-24.2-177.5c0,0-103,152.3-122.9,272.1
				c0,0-23.1-185.9,25.2-286.8c48.3-100.9,75.3-193.3,34.7-263.3c-40.6-70-44.8-158.3-44.8-158.3s-79.8,40.6-60.2,96.7
				c19.6,56,98.1,116.3,78.4,196.1c0,0-30-93.9-81.5-151.3c-51.5-57.4-1.1-121.9,40.9-168.1c42-46.2,91.1-208.7,91.1-208.7
				s-147.9,91-153.8,235.3c0,0-31.1-84,69.7-191.9c100.9-107.9,107.9-64.4,112.1-246.5c4.2-182.1,101.5-430,160.4-479.7
				c0,0-46.2,3.5-68.6,0c0,0,119.8-49.7,175.1-93.1c55.3-43.4,180-110.7,318.7-44.8c0,0,184.2-11.9,282.9,261.2
				c0,0,21.7,45.5,53.2,75.6c-1.3-0.7-43.6-24.1-58.8-45.5c0,0,87.9,325,58.8,505.7c0,0-10.5,78.4,16.1,133.1
				c0,0-32.2-30.1-35.7-56.7c0,0,8.4,79.1-36.8,156.9c-45.2,77.7,15.8,143.9,62,187C2956.2,1511.1,3113.1,1619.4,3118.7,1814.1z"/>
			<g>
				<g>
					<path fill="#333333" d="M2329,757.9c15.5-0.5,30.9,1.6,46,4.8c3.8,0.9,7.6,1.6,11.3,2.7l5.6,1.5c1.9,0.5,3.7,1,5.6,1.6
						c3.7,1.2,7.4,2.4,11,3.6c3.6,1.3,7.2,2.7,10.9,4.1c14.4,5.8,28.4,12.4,41.6,20.5l5,3c0.8,0.5,1.7,1,2.5,1.5l2.4,1.6
						c3.2,2.2,6.3,4.4,9.5,6.6c3.2,2.2,6.1,4.7,9.1,7.1l4.4,3.7c1.5,1.3,2.9,2.5,4.3,3.8c-1.8-0.8-3.5-1.7-5.2-2.6l-5.1-2.6
						c-3.4-1.7-6.7-3.7-10.2-5.3c-3.4-1.7-6.8-3.4-10.2-5.1c-3.3-1.8-6.9-3.3-10.3-4.9c-13.6-6.6-27.5-12.5-41.5-18.1l-10.5-4.1
						c-3.5-1.3-7.1-2.5-10.6-3.9c-7.1-2.5-14.3-4.9-21.5-7.2C2358.6,765.7,2344,761.5,2329,757.9z"/>
				</g>
			</g>
			<g>
				<g>
					<path fill="#333333" d="M2593.8,849.3c5.1-3.6,10.6-6.6,16.1-9.5c5.6-2.8,11.3-5.4,17.1-7.7c11.6-4.6,23.6-8.3,35.9-10.9
						c3.1-0.6,6.2-1.2,9.3-1.7c3.1-0.5,6.2-0.9,9.3-1.3c6.3-0.6,12.6-1,18.9-0.9c6.3,0.1,12.6,0.6,18.8,1.7c6.2,1.1,12.3,2.7,18.1,5
						c-6.3-0.2-12.4-0.3-18.5-0.1c-6.1,0.2-12.1,0.7-18.1,1.3c-6,0.7-12,1.5-18,2.5c-3,0.5-6,1-8.9,1.6c-3,0.5-5.9,1.1-8.9,1.8
						c-11.9,2.5-23.7,5.4-35.5,8.5C2617.6,842.7,2605.8,846.1,2593.8,849.3z"/>
				</g>
			</g>
			<g>
				<g>
					<path fill="#333333" d="M2471.5,860.2c-5.6-5.2-11.5-9.7-17.6-13.9c-6.1-4.2-12.5-7.9-19-11.1c-13.1-6.4-27-10.8-41.3-12.8
						c-7.1-1.1-14.4-1.5-21.6-1.4l-2.7,0l-2.7,0.1l-2.7,0.1c-0.9,0-1.8,0.1-2.7,0.2l-5.5,0.5c-0.9,0.1-1.8,0.2-2.7,0.3l-2.7,0.4
						c-3.7,0.4-7.2,1.2-10.9,1.8c-1.8,0.3-3.6,0.8-5.4,1.2l-2.7,0.6l-1.4,0.3c-0.7,0.1-1.2,0.2-1.7,0.2c-4.3,0.3-8.5-0.7-12-2.6
						l-1.3-0.8c-0.4-0.3-0.8-0.6-1.2-0.9c-0.8-0.6-1.5-1.3-2.2-1.9c-0.7-0.7-1.3-1.5-1.9-2.2c-0.6-0.8-1.1-1.6-1.6-2.3
						c2.8,2.5,6.1,4.5,9.4,5.5c3.4,1,6.9,1.2,10.1,0.3c0.4-0.1,0.8-0.2,1-0.3l1.3-0.5l2.7-1c1.8-0.7,3.6-1.4,5.4-2
						c3.7-1.1,7.3-2.4,11.1-3.2c7.5-1.9,15.2-3,23-3.4l2.9-0.1c1,0,1.9-0.1,2.9-0.1l5.9,0.1c3.9,0.3,7.8,0.5,11.7,1.1
						c15.5,2.2,30.5,7.7,43.7,15.9c6.6,4.1,12.8,8.8,18.3,14.1c2.8,2.6,5.4,5.4,7.9,8.4c1.2,1.5,2.4,3,3.5,4.5
						C2469.5,856.9,2470.6,858.5,2471.5,860.2z"/>
				</g>
			</g>
			<g>
				<g>
					<path fill="#333333" d="M2605.3,882.9c4-2.9,8.3-5.4,12.6-7.7c4.4-2.3,8.9-4.3,13.5-6.1c9.2-3.6,18.9-6.2,28.8-7.6
						c5-0.7,10.1-1,15.2-0.8c2.6,0.1,5.1,0.3,7.7,0.7c2.6,0.4,5.1,0.9,7.6,1.6c5,1.4,9.9,3.7,14.2,6.9c4.2,3.2,7.7,7.4,9.9,12
						l-0.3-0.3c0.1,0.1,0.4,0.4,0.6,0.6c0.3,0.2,0.6,0.5,0.9,0.7c0.6,0.4,1.3,0.8,2,1.1c0.7,0.3,1.4,0.6,2.2,0.9
						c0.8,0.2,1.6,0.4,2.4,0.6c-0.8,0.2-1.6,0.3-2.5,0.3c-0.8,0.1-1.7,0.1-2.6,0c-0.9-0.1-1.7-0.2-2.6-0.5c-0.4-0.1-0.9-0.3-1.3-0.5
						c-0.5-0.2-0.8-0.4-1.4-0.8l-0.3-0.3c-3.2-3.4-6.8-6.2-10.8-8.2c-4-2-8.2-3.2-12.6-4.1c-8.8-1.5-18.1-1.2-27.3-0.2
						c-9.3,1-18.5,2.9-27.9,4.9C2624.2,878.3,2614.9,880.7,2605.3,882.9z"/>
				</g>
			</g>
			
				<ellipse transform="matrix(0.9871 -0.1602 0.1602 0.9871 -103.2924 394.909)" fill="#333333" cx="2397.8" cy="838.1" rx="23.6" ry="23.6"/>
			
				<ellipse transform="matrix(0.3827 -0.9239 0.9239 0.3827 823.0972 3002.1343)" fill="#333333" cx="2658.1" cy="885.1" rx="19.5" ry="19.5"/>
			<g>
				<g>
					<path fill="#333333" d="M2581.5,871.4c-1.7,19-3.1,38-3.7,57c-0.2,9.5-0.4,19-0.1,28.4c0.2,9.5,0.8,18.9,2.2,28.2
						c0.7,4.6,1.5,9.2,2.7,13.7c1.2,4.4,2.8,9.1,3.9,13.8c1.1,4.8,1.8,9.6,1.9,14.6c0.1,5-0.6,10.1-2.5,14.8
						c-0.9,2.4-2.2,4.6-3.7,6.7c-1.5,2.1-3.3,3.9-5.2,5.5c-1.9,1.6-4,2.9-6.2,4.1c-2.2,1.1-4.4,2.2-6.7,3c-4.6,1.7-9.2,2.9-14,3.7
						c-4.7,0.9-9.5,1.4-14.2,1.8c4.7-0.9,9.3-1.9,13.9-3.2c4.6-1.2,9.1-2.7,13.3-4.7c2.1-0.9,4.2-2,6.2-3.2c1.9-1.2,3.8-2.6,5.5-4.1
						c1.6-1.6,3.2-3.2,4.4-5.1c1.2-1.9,2.2-3.8,3-5.9c0.7-2.1,1.2-4.3,1.5-6.5c0.2-1.1,0.2-2.2,0.3-3.4c0-1.1,0.1-2.3,0-3.4
						c-0.2-4.6-1-9.1-2.1-13.6c-0.3-1.1-0.6-2.3-0.9-3.4c-0.3-1.1-0.6-2.2-1-3.4c-0.7-2.2-1.4-4.6-2.1-6.9
						c-1.3-4.7-2.2-9.5-2.9-14.3c-2.6-19.2-2.3-38.4-1-57.5c0.6-9.5,1.7-19.1,2.9-28.5C2578.1,890.2,2579.5,880.7,2581.5,871.4z"/>
				</g>
			</g>
			<g>
				<g>
					<path fill="#333333" d="M2549.3,1043.7c-3.3,0.9-6.5,1.7-9.6,2.5c-3.1,0.8-6.1,1.7-9.1,2.8c-2.9,1.1-5.8,2.3-8.5,3.8
						c-1.4,0.8-2.7,1.6-4,2.5c-1.3,0.9-2.6,2-3.9,3.1c0.4-1.7,1.2-3.3,2.1-4.8c1-1.5,2.1-2.8,3.5-4c2.6-2.4,5.8-4.1,9.1-5.3
						c3.3-1.2,6.7-1.8,10.2-1.9C2542.5,1042.2,2546,1042.5,2549.3,1043.7z"/>
				</g>
			</g>
			<path fill="#C1272D" d="M2386,1096.7c0,0,10.6,2.6,36.8-1.6s53.2-11.6,72.1,6c0,0,22.1-11.6,38.5,10.5c0,0,8.5,11.2,19.7,15.6
				C2553.3,1127.2,2498.1,1211.4,2386,1096.7z"/>
			<g>
				<g>
					<path fill="#333333" d="M2386,1096.7c13.6,4.8,27.2,9.4,41,13.6c6.9,2.1,13.7,4.2,20.6,6.1c6.9,1.9,13.8,3.8,20.8,5.4
						c13.9,3.3,28,5.9,42.2,7.4l5.3,0.4c1.8,0.1,3.6,0.2,5.3,0.3c1.8,0.1,3.6,0.1,5.3,0.1l2.7,0c0.9,0,1.8-0.1,2.7-0.1
						c7.1-0.2,14.3-1,21.3-2.7c-6.7,2.8-13.9,4.3-21.1,5.2c-7.2,0.8-14.5,1-21.8,0.7c-7.3-0.3-14.5-1.2-21.7-2.2
						c-7.2-1.1-14.3-2.6-21.4-4.2c-7-1.7-14-3.6-21-5.7c-6.9-2.1-13.8-4.4-20.6-6.9C2412.2,1109,2398.8,1103.4,2386,1096.7z"/>
				</g>
			</g>
			<path fill="none" stroke="#333333" stroke-width="5" stroke-miterlimit="10" d="M2553.3,1214.1
				C2553.3,1214.1,2553.3,1214.1,2553.3,1214.1"/>
			<circle fill="#333333" cx="2587.8" cy="2974.2" r="33.6"/>
			<g>
				<g>
					<g>
						<g>
							<path fill="#333333" d="M1901.2,2952.8c49.3,8.4,98.6,16.3,147.9,23.9c49.4,7.5,98.8,14.6,148.3,20.9
								c24.7,3.1,49.5,6.1,74.3,8.9c6.2,0.7,12.4,1.4,18.6,2l18.6,1.9l18.6,1.7l9.3,0.9l9.3,0.8c6.2,0.5,12.4,1.1,18.6,1.5l18.6,1.4
								c12.4,0.8,24.9,1.6,37.3,2.1c24.9,1.2,49.7,1.8,74.6,1.4l0.2,0l0.2,0c12.5,0.9,25.1,1.7,37.7,2.4c12.6,0.7,25.2,1.2,37.7,1.6
								c12.6,0.4,25.2,0.6,37.7,0.5c12.5-0.1,25.1-0.5,37.4-2.3l-2,2.2c0.8-8.8,1-17.7,0.9-26.6c-0.1-8.9-0.7-17.8-1.7-26.7
								c-0.5-4.4-1.2-8.8-2.1-13.2c-0.4-2.2-0.9-4.4-1.4-6.5c-0.6-2.2-1.1-4.3-1.7-6.5c-2.5-8.6-6-16.9-11.1-24.3
								c5.5,7.1,9.5,15.3,12.5,23.8c1.5,4.3,2.8,8.6,3.8,13c1.1,4.4,2,8.8,2.7,13.3c1.5,8.9,2.4,17.9,2.9,26.9
								c0.5,9,0.6,18,0.2,27.2l-0.1,1.9l-1.9,0.3c-12.7,2.3-25.4,3-38.1,3.5c-12.7,0.5-25.4,0.7-38,0.6c-12.7-0.1-25.3-0.4-38-0.8
								c-12.7-0.4-25.3-0.9-37.9-1.7l0.4,0c-50.2,1.5-100.3-1-150.2-5.1c-25-2-49.8-4.6-74.7-7.4l-9.3-1.1l-9.3-1.1l-18.6-2.3
								c-12.4-1.6-24.8-3.3-37.2-5c-49.5-6.9-98.9-15-148.1-23.9c-12.3-2.2-24.6-4.5-36.9-6.9c-12.3-2.4-24.5-4.8-36.8-7.3
								C1950,2963.6,1925.5,2958.4,1901.2,2952.8z"/>
						</g>
					</g>
					<g>
						<g>
							<path fill="#333333" d="M3051.1,2974.2c-32.2,8-64.6,14.7-97.1,20.8c-16.3,3.1-32.6,6-48.9,8.7c-8.2,1.4-16.3,2.6-24.5,3.9
								l-24.6,3.7c-8.2,1.2-16.4,2.3-24.6,3.4c-8.2,1-16.4,2.1-24.7,3c-16.5,1.9-33,3.6-49.5,4.9c-4.1,0.3-8.3,0.7-12.4,0.9
								c-4.1,0.3-8.3,0.6-12.4,0.8l-12.4,0.5l-12.5,0.3l-12.5,0c-4.2-0.1-8.3-0.2-12.5-0.4c-8.3-0.5-16.6-1.2-24.7-3.1l6.2,0.4
								c1,0.1,2.1,0.1,3.1,0.1l3.1,0l3.1,0c1,0,2.1,0,3.1-0.1l6.2-0.2l12.3-0.7l12.3-1l12.3-1.2l12.3-1.3c8.2-1,16.4-1.8,24.6-2.9
								c4.1-0.5,8.2-1,12.3-1.6l12.3-1.6l24.5-3.3c16.4-2.2,32.7-4.5,49.1-6.9l98.1-14.1C2985.4,2982.7,3018.2,2978.1,3051.1,2974.2
								z"/>
						</g>
					</g>
					<g>
						<g>
							<path fill="#333333" d="M2150.8,3021.5c2.7,16.5,4.5,33.1,6,49.7c0.8,8.3,1.4,16.6,2,25c0.6,8.3,1,16.7,1.4,25
								c0.8,16.7,1.2,33.4,1.2,50.1c0.1,8.4-0.1,16.7-0.2,25.1c-0.2,8.4-0.4,16.7-0.7,25.1c-0.3,8.4-0.8,16.7-1.2,25
								c-0.6,8.3-1.1,16.7-1.9,25c-1.4,16.7-3.3,33.3-5.6,49.8c-2.2,16.6-5.2,33-8.5,49.4c-3.4,16.4-7.4,32.6-12.1,48.6
								c2.6-16.5,5.2-32.9,7.3-49.4c0.6-4.1,1-8.2,1.6-12.4c0.5-4.1,1-8.2,1.4-12.4c0.4-4.1,0.9-8.3,1.4-12.4l1.2-12.4l0.6-6.2
								l0.5-6.2c0.3-4.1,0.7-8.3,1.1-12.4c0.6-8.3,1.3-16.5,1.8-24.8c1.1-16.6,2-33.1,2.6-49.7c1.4-33.2,1.8-66.4,1.9-99.6
								c0-8.3-0.1-16.6-0.1-24.9c0-8.3-0.2-16.6-0.3-24.9C2151.7,3054.9,2151.3,3038.2,2150.8,3021.5z"/>
						</g>
						<g>
							<path fill="#333333" d="M2899.2,3027.7c1.8,27.6,3.7,55,6,82.4c2.3,27.4,4.9,54.7,8.4,82l1.3,10.2l1.4,10.2
								c0.4,3.4,1,6.8,1.5,10.2c0.5,3.4,1,6.8,1.6,10.2c2.1,13.5,4.7,27,7.5,40.4c2.8,13.4,6,26.7,9.9,39.9
								c3.8,13.2,8.2,26.2,13.5,38.9c-7.3-11.8-13.1-24.5-18.2-37.4c-5.1-12.9-9.3-26.2-12.9-39.6c-3.6-13.4-6.6-27-9.2-40.6
								c-0.7-3.4-1.2-6.8-1.8-10.2c-0.6-3.4-1.2-6.8-1.7-10.3l-1.5-10.3l-1.4-10.3c-3.5-27.5-5.5-55.1-6.3-82.8
								c-0.4-13.8-0.5-27.6-0.2-41.5C2897.4,3055.3,2897.9,3041.5,2899.2,3027.7z"/>
						</g>
						<g>
							<path fill="#333333" d="M2131.2,3856.3c3.1,46.2,4.6,92.4,5.2,138.6c0.2,11.6,0.3,23.1,0.3,34.7l0,34.7
								c-0.2,23.1-0.7,46.3-1.3,69.4c-0.8,23.1-1.8,46.2-3.1,69.4c-0.8,11.5-1.5,23.1-2.4,34.6c-0.5,5.8-0.8,11.5-1.4,17.3
								l-1.7,17.3l-1.9,17.3c-0.6,5.8-1.4,11.5-2.1,17.2c-0.7,5.7-1.6,11.5-2.4,17.2l-1.3,8.6l-1.5,8.6l-1.5,8.6
								c-0.5,2.8-1.1,5.7-1.7,8.5l-1.7,8.5c-0.6,2.8-1.4,5.6-2,8.5c-2.6,11.3-6.1,22.4-10.2,33.2l2.2-8.4c0.4-1.4,0.8-2.8,1.1-4.2
								l0.9-4.2l1.8-8.5c0.6-2.8,1-5.7,1.5-8.5l1.4-8.5l1.2-8.6c0.4-2.9,0.8-5.7,1.2-8.6l1-8.6l1-8.6l0.9-8.6
								c0.6-5.7,1.2-11.5,1.6-17.2c0.4-5.7,1-11.5,1.5-17.2l1.3-17.2l1.1-17.3c0.4-5.7,0.7-11.5,1-17.3c0.7-11.5,1.2-23,1.7-34.6
								c1-23,1.9-46.1,2.6-69.2c0.8-23.1,1.3-46.1,1.8-69.2l0.7-34.6l0.7-34.6C2129.4,3948.7,2130.1,3902.6,2131.2,3856.3z"/>
						</g>
						<g>
							<path fill="#333333" d="M3099.9,3814.3c18.3,44.1,36.3,88.3,54.4,132.4l13.6,33.1l13.6,33.1c9.1,22,18.2,44.1,27.5,66
								c4.6,11,9.2,22,13.9,32.9l14.2,32.8c4.7,10.9,9.5,21.8,14.4,32.7l7.4,16.3l7.4,16.2c5,10.8,10.1,21.5,15.3,32.2
								c5.2,10.7,10.5,21.3,16.1,31.9c5.5,10.5,11.3,20.9,17.4,31.1c6.2,10.1,12.7,20.1,20.7,29.1c-4.4-4-8.3-8.6-12.2-13.2
								c-1.9-2.3-3.7-4.7-5.5-7.1c-1.8-2.4-3.5-4.8-5.3-7.3c-6.9-9.8-13.2-20-19.4-30.2c-6.1-10.3-11.9-20.8-17.6-31.3
								c-5.7-10.5-11.1-21.2-16.5-31.8c-10.8-21.3-20.8-43-30.8-64.7c-9.8-21.8-19.3-43.7-28.7-65.7c-9.2-22-18.3-44.1-27.1-66.3
								c-8.7-22.2-17.4-44.5-25.7-66.8C3130.4,3904.8,3114.4,3859.8,3099.9,3814.3z"/>
						</g>
						<g>
							<path fill="#333333" d="M2554.2,3514.5c1.6,47.6,4.4,95.1,8.1,142.5l1.5,17.8l1.6,17.7c1.1,11.8,2.3,23.6,3.6,35.4
								c2.6,23.6,5.3,47.2,8.8,70.7c3.3,23.5,7,46.9,11.4,70.3c4.3,23.3,9.1,46.6,14.6,69.6l1,4.3l1.1,4.3l2.2,8.6l2.2,8.6
								c0.7,2.9,1.6,5.7,2.3,8.6c1.6,5.7,3.1,11.4,4.8,17.1l5.2,17c7.1,22.6,15.3,45,24.4,67c-11.1-21.1-20.5-43.1-29-65.4
								c-8.4-22.4-15.4-45.2-21.8-68.3l-4.6-17.3c-1.4-5.8-2.8-11.6-4.2-17.4c-0.7-2.9-1.4-5.8-2-8.7l-1.9-8.8l-1.9-8.8l-0.9-4.4
								l-0.9-4.4c-1.2-5.9-2.3-11.7-3.4-17.6l-3.1-17.6c-1.1-5.9-2-11.8-2.9-17.7c-0.9-5.9-1.9-11.8-2.7-17.7l-2.4-17.7l-2.2-17.8
								c-0.8-5.9-1.3-11.9-2-17.8l-1-8.9c-0.3-3-0.5-5.9-0.8-8.9c-2.1-23.8-4-47.6-5.1-71.4c-0.6-11.9-1.1-23.8-1.4-35.7
								c-0.3-11.9-0.5-23.8-0.6-35.8C2552.5,3562.2,2552.8,3538.3,2554.2,3514.5z"/>
						</g>
					</g>
				</g>
				<g>
					<g>
						<path fill="#333333" d="M2646.6,3024.6c-1.5,43.3-3,86.4-4.4,129.6l-0.9,32.4c-0.3,10.8-0.6,21.6-0.8,32.4
							c-0.5,21.6-0.9,43.2-1.1,64.8c-0.3,21.6-0.4,43.2-0.4,64.7c0,5.4,0,10.8,0,16.2l0.1,16.2c0.2,10.8,0.3,21.6,0.6,32.4
							c1,43.2,2.9,86.3,6.8,129.4c-4.1-21.3-7-42.7-9.4-64.3c-0.6-5.4-1.1-10.8-1.6-16.2l-1.4-16.2c-0.5-5.4-0.8-10.8-1.2-16.2
							l-0.5-8.1l-0.5-8.1c-1.4-21.6-1.9-43.3-2.4-64.9c-0.2-10.8-0.3-21.7-0.4-32.5l0-16.2c0-5.4,0.1-10.8,0.1-16.2
							c0.5-43.3,2.3-86.6,5.1-129.8c0.7-10.8,1.4-21.6,2.3-32.4c0.9-10.8,1.8-21.6,2.7-32.3
							C2641.6,3067.6,2643.7,3046,2646.6,3024.6z"/>
					</g>
				</g>
			</g>
			<g>
				<g>
					<path fill="#333333" d="M2205,1066.8c6.3,9.7,13.3,18.9,20.3,27.9c7.1,9,14.4,17.9,22.1,26.4c7.6,8.6,15.4,17,23.5,25.1
						c2,2,4,4.1,6.1,6.1l6.1,6c4.2,3.9,8.3,7.9,12.5,11.7c4.2,3.9,8.5,7.6,12.8,11.4c4.4,3.7,8.7,7.4,13.1,11
						c8.8,7.3,17.9,14.2,27.1,21c18.5,13.5,37.7,25.9,57.4,37.5l0.2,0.1l0,0c1.5,1,3.2,2.1,4.9,3.1c1.7,1,3.4,1.9,5.2,2.9
						c3.5,1.9,7.1,3.6,10.7,5.2c7.2,3.2,14.7,5.9,22.4,7.8c3.8,0.9,7.7,1.7,11.7,2.3c3.9,0.5,7.9,0.7,11.9,0.7c4,0,7.9-0.4,11.9-1.1
						c3.9-0.7,7.8-1.8,11.6-3.2c-3.6,1.9-7.3,3.5-11.3,4.7c-3.9,1.1-8,2-12.1,2.4c-4.1,0.4-8.2,0.5-12.4,0.4
						c-4.1-0.2-8.3-0.6-12.3-1.3c-8.2-1.4-16.2-3.7-23.9-6.5c-3.9-1.4-7.7-3.1-11.4-4.8c-1.9-0.9-3.7-1.8-5.6-2.8
						c-1.9-1-3.6-1.9-5.5-3.1l0.3,0.1c-20.6-10.7-40.4-23-59.4-36.5c-2.4-1.7-4.7-3.4-7-5.2c-2.3-1.7-4.7-3.4-7-5.2l-6.9-5.4
						c-2.3-1.8-4.5-3.7-6.8-5.5c-9-7.4-17.7-15.1-26.1-23.2c-16.9-16-32.4-33.4-46.7-51.6c-7.1-9.2-13.9-18.6-20.2-28.3
						c-3.2-4.9-6.2-9.8-9.1-14.8C2210.2,1077.1,2207.5,1072,2205,1066.8z"/>
				</g>
			</g>
		</g>
	</g>
</g>
</svg>
