<?xml version="1.0" encoding="utf-8"?>
<!-- Generator: Adobe Illustrator 24.2.1, SVG Export Plug-In . SVG Version: 6.00 Build 0)  -->
<svg version="1.1" id="Layer_1" xmlns="http://www.w3.org/2000/svg" xmlns:xlink="http://www.w3.org/1999/xlink" x="0px" y="0px"
	 viewBox="0 0 5000 5000" enable-background="new 0 0 5000 5000" xml:space="preserve">
<g>
	<defs>
		<rect id="SVGID_1_" x="50" y="50" width="4900" height="4900"/>
	</defs>
	<clipPath id="SVGID_2_">
		<use xlink:href="#SVGID_1_"  overflow="visible"/>
	</clipPath>
	<g clip-path="url(#SVGID_2_)">
		<path fill="#C01919" d="M3812.4,3941.3c0,0,753.7-635.6,394.5-846c-359.2-210.4-791.7-618.4-396.8-1192.1
			c437.3-1029.7-784.3-505.5-1149.6-886.1s-941.2-77.6-1511.4,272.8C0.3,2742.8,1444,2419.1,1235.7,2908.1
			c-557.6,221.1-826,1092.8,3.4,1314.2c1006.3,268.7,829.6-631.1,1276.4-340.9S3108,4268.7,3812.4,3941.3z"/>
		<g>
			<g>
				<path fill="#754C24" d="M3234.5,3855.9C3234.5,3855.9,3234.5,3855.9,3234.5,3855.9c-5.1,7.6-32.2,121.4-69.5,233.5
					c-37.4,112.1-102.4,870.6-102.4,870.6h-552c0,0-9.7-138.7-27.7-220.4c-18-81.6-54.7-296.6-54.7-296.6
					c-89.2,100.5-169.5,516.9-169.5,516.9h-523c-12.4-55,16.6-1033.9,16.6-1033.9s8.3,0.3,8.3-18.3c0-18.7,2.8-148.5,102.4-285.7
					c0,0,5.2-19,0-25.5c-1.5-1.8-8.9-14.3-19.2-32.1v0c-0.2-22.7,8.1-83.1,8.1-83.1s473.2,296.8,1195.3,28.4c0,0,3.7-1.1,7.2-6.3
					l0,0c0.9-1.3,1.7-2.9,2.5-4.8l0,0l0.1-0.1c0,0,38,42,53.9,61.7l0.6,0.8c0.2,0.2,0.3,0.4,0.6,0.7c0.7,0.8,1.6,2,2.8,3.5l1.3,1.6
					c11.4,14.2,41,50.4,87.1,101.3C3263.1,3734,3235,3854.1,3234.5,3855.9z"/>
				<g>
					<g>
						<path fill="#333333" d="M1922.6,3544.3c6.9,8.5,13.1,17.5,19.2,26.6c6,9.1,11.7,18.5,17.1,28c5.4,9.5,10.5,19.2,15.3,29
							c2.4,4.9,4.7,9.9,6.9,14.9c2.2,5,4.4,10.1,6.4,15.2c1,2.5,2,5.1,3,7.7c1,2.6,2,5.1,2.9,7.7c1.8,5.2,3.6,10.4,5.2,15.6
							c3.2,10.5,6.1,21.1,8.2,31.9c2.1,10.8,3.8,21.7,4.3,32.7c0.5,11,0.4,22-1.2,32.8c-1.1-21.8-5-43-10.7-63.7
							c-0.7-2.6-1.4-5.2-2.2-7.8l-2.3-7.7c-0.8-2.6-1.7-5.1-2.5-7.7l-1.2-3.8l-1.3-3.8c-3.5-10.2-7.3-20.2-11.3-30.2
							c-4-10-8.2-19.9-12.6-29.8c-4.4-9.9-9-19.7-13.6-29.4c-4.7-9.8-9.5-19.5-14.4-29.1C1932.7,3563.6,1927.7,3554,1922.6,3544.3z"
							/>
					</g>
					<g>
						<path fill="#333333" d="M1865.5,3536c8.3,3.5,15.4,9.6,20.9,16.8c5.6,7.2,9.4,15.8,11.7,24.7c0.6,2.2,1,4.5,1.4,6.8
							c0.3,2.3,0.7,4.6,0.8,6.8c0.5,4.6,0.4,9.2,0.3,13.8l-0.2,3.4c-0.1,1.1-0.1,2.3-0.3,3.4c-0.3,2.3-0.5,4.6-0.9,6.8
							c-0.4,2.3-0.7,4.5-1.2,6.8l-0.7,3.4c-0.2,1.1-0.6,2.2-0.9,3.3c-2.5,8.9-6.1,17.4-10.1,25.5c-4,8.2-8.6,16-13.2,23.7
							c-9.3,15.4-19,30.3-28.1,45.5c-4.5,7.6-9,15.2-13.2,23c-2.2,3.9-4.1,7.8-6.2,11.7c-2,3.9-3.9,7.9-5.9,11.9
							c-3.7,8-7.4,16-10.6,24.2l-2.5,6.1l-2.3,6.2c-0.8,2.1-1.6,4.1-2.3,6.2l-2.1,6.3c-0.7,2.1-1.5,4.2-2.1,6.3l-1.9,6.3
							c-1.3,4.2-2.4,8.5-3.6,12.8c-1.2,4.2-2.3,8.6-3.3,12.9c-0.5,2.2-1.1,4.3-1.5,6.5l-1.4,6.5c-3.8,17.3-6.4,35-8.7,52.7
							c0.3-35.7,5.1-71.6,15.1-106.2c4.9-17.3,11.3-34.3,18.7-50.7c7.4-16.4,16-32.3,25.2-47.7c4.6-7.7,9.4-15.3,14.2-22.8
							c4.8-7.5,9.7-15,14.4-22.5c4.7-7.5,9.3-15,13.4-22.7c4.1-7.7,7.8-15.6,10.5-23.7c2.7-8.1,4.2-16.8,5.2-25.4
							c0.4-4.3,0.7-8.6,0.5-13c0-2.2-0.2-4.3-0.4-6.5c-0.3-2.1-0.5-4.3-0.9-6.4c-0.8-4.3-1.8-8.5-3.4-12.5c-1.5-4.1-3.5-8-5.8-11.6
							c-2.3-3.7-5.1-7.1-8.2-10.2C1872.8,3541,1869.4,3538.2,1865.5,3536z"/>
					</g>
					<g>
						<path fill="#333333" d="M2643.6,3610.1c4.3,9.4,7.6,19.3,10.2,29.4c2.5,10.1,4,20.6,3.9,31.2c-0.1,5.3-0.7,10.7-1.9,15.9
							c-1.3,5.3-3.3,10.5-6.2,15.2c-0.4,0.6-0.7,1.2-1.1,1.8l-1.3,1.7l-2.3,3.1c-0.8,0.9-1.4,2-2,3c-0.7,1-1.2,2.1-1.7,3.1
							c-2.1,4.3-3.6,8.9-4.5,13.8c-1,4.8-1.4,9.8-1.7,14.8c-0.2,5-0.2,10.1-0.1,15.2c0.3,10.2,1.2,20.4,1.9,30.8
							c0.8,10.3,1.4,20.8,1.5,31.3c0.1,10.5-0.4,21.1-1.8,31.7c-0.8,5.4-1.7,10.3-2.5,15.4l-2.5,15.3l-4.9,30.6
							c-1.6,10.2-3.2,20.4-4.8,30.6l-4.6,30.7c-1.5,10.2-2.9,20.5-4.4,30.7c-1.4,10.2-2.8,20.5-4,30.7c-1.3,10.2-2.4,20.5-3.3,30.8
							c-0.4,5.1-0.8,10.3-1,15.4c-0.2,5.2-0.3,10.3,0.1,15.5c-1-5.1-1.3-10.3-1.6-15.5c-0.2-5.2-0.2-10.4-0.2-15.6
							c0.1-10.4,0.6-20.8,1.2-31.1c0.7-10.4,1.5-20.7,2.4-31c0.9-10.3,2-20.6,3.1-30.9l1.7-15.4l1.9-15.4
							c1.3-10.3,2.7-20.5,4.1-30.8c1.4-10.3,3-20.5,4.5-30.7l2.4-15.4c0.8-5.1,1.7-10.3,2.4-15.2c1.4-9.9,1.9-20.1,1.8-30.2
							c0-10.2-0.6-20.4-1.1-30.7c-0.5-10.3-1.2-20.7-1.2-31.2c-0.1-10.5,0.4-21.2,2.9-31.8c1.3-5.3,3.1-10.5,5.7-15.4
							c0.7-1.2,1.3-2.4,2.2-3.6c0.8-1.2,1.5-2.3,2.5-3.4l2.5-3l1.1-1.4c0.4-0.5,0.7-1,1-1.5c2.7-3.9,4.7-8.4,6.1-13.1
							c1.4-4.7,2.2-9.7,2.6-14.7c0.8-10.1-0.1-20.3-1.7-30.4c-0.8-5.1-1.9-10.1-3.2-15.1C2646.7,3620,2645.3,3615,2643.6,3610.1z"/>
					</g>
					<g>
						<path fill="#333333" d="M2735.5,3596.1c3.3,11.7,5.9,23.7,8.1,35.7c2.1,12,3.6,24.2,4.4,36.5c0.3,6.1,0.4,12.3,0.2,18.5
							c-0.2,6.2-0.8,12.4-2,18.6c-1.2,6.2-3,12.4-6.2,18.2l-2.3,4c-0.3,0.6-0.7,1.2-1,1.8l-0.9,1.9c-1.2,2.6-2.2,5.3-3.1,8
							c-1.7,5.5-2.8,11.3-3.5,17.2c-0.7,5.9-1.1,11.8-1.3,17.8c-0.4,12,0.1,24.1,0.8,36.2l2.2,36.5c0.7,12.2,1.2,24.5,0.9,36.9
							c-0.1,3.1-0.3,6.3-0.4,9.2c-0.1,3-0.1,5.9-0.1,8.9c0,6,0.2,12,0.5,18.1c0.6,12.1,1.5,24.2,2.2,36.4
							c0.6,12.2,1.2,24.5,1.1,36.8c0,6.2-0.2,12.3-0.6,18.5c-0.4,6.2-1.1,12.4-2.1,18.5c-1,6.2-2.4,12.3-4.3,18.3
							c-2,6-4.5,11.9-8.1,17.3c-1.8,2.7-3.8,5.2-6.1,7.6c-1.1,1.2-2.3,2.3-3.6,3.3c-0.6,0.5-1.3,1-1.9,1.5c-0.7,0.5-1.3,0.9-1.9,1.4
							c-2.6,1.7-5.1,3.5-7.7,5.1c-2.6,1.6-5.2,3.3-7.9,4.8c-10.7,6.2-21.7,11.6-33.1,16.2c-2.8,1.2-5.7,2.2-8.6,3.3
							c-2.9,1-5.8,2-8.7,2.9c-5.8,1.8-11.7,3.5-17.7,4.7c5.8-1.8,11.6-3.9,17.2-6.1c2.8-1.1,5.6-2.3,8.4-3.5
							c2.8-1.3,5.5-2.5,8.3-3.8c10.9-5.3,21.5-11.1,31.6-17.8c2.5-1.7,5-3.4,7.5-5.1c2.5-1.7,4.9-3.6,7.3-5.3
							c0.6-0.4,1.2-0.9,1.7-1.3c0.5-0.4,1.1-0.9,1.6-1.4c1.1-0.9,2-2,3-3c1.9-2.1,3.6-4.4,5-6.9c2.9-4.9,5.1-10.3,6.8-16
							c1.6-5.6,2.7-11.4,3.5-17.3c0.8-5.9,1.2-11.9,1.4-17.8c0.2-6,0.3-12,0.2-18c-0.2-12.1-0.9-24.1-1.8-36.3
							c-0.9-12.1-1.8-24.3-2.5-36.5c-0.3-6.1-0.6-12.3-0.7-18.5c0-3.1,0-6.2,0.1-9.3l0.3-9.1c0.6-24-1.6-48.3-2.5-72.7
							c-0.4-12.2-0.7-24.6-0.1-36.9c0.6-12.4,2-24.9,6.1-37.1c1.1-3,2.2-6,3.7-8.9l1.1-2.2c0.4-0.7,0.9-1.4,1.3-2.1l2.4-3.8
							c2.8-4.8,4.7-10.3,6.1-16c2.7-11.5,3.3-23.6,3.3-35.6c-0.1-12.1-1-24.2-2.3-36.3c-0.7-6-1.4-12.1-2.3-18.1
							C2737.6,3608.1,2736.6,3602.1,2735.5,3596.1z"/>
					</g>
					<g>
						<path fill="#333333" d="M2428.3,4443.1c3.2-12.1,7.1-24,11-35.9c4-11.9,8.2-23.6,12.7-35.3c8.9-23.4,18.7-46.5,29.4-69.1
							c10.8-22.6,22.6-44.8,36.2-66c6.9-10.6,14.2-20.8,22.5-30.4c4.2-4.7,8.6-9.3,13.4-13.4c1.2-1.1,2.5-2,3.7-3
							c1.3-0.9,2.5-1.9,3.9-2.8c2.7-1.7,5.4-3.3,8.3-4.4c-5.3,3.4-9.8,7.6-14,12.2c-4.1,4.6-7.9,9.4-11.5,14.5
							c-7.1,10.1-13.6,20.6-19.7,31.4c-12.2,21.5-23.2,43.8-33.9,66.2c-10.7,22.4-21,45.1-31.2,67.8
							C2448.9,4397.6,2438.8,4420.4,2428.3,4443.1z"/>
					</g>
					<g>
						<path fill="#333333" d="M2579.8,4243l-18.3,116.9c-6,39-11.9,77.9-17.2,116.9c-2.7,19.5-5.2,39-7.5,58.6
							c-0.6,4.9-1.2,9.8-1.7,14.7l-1.6,14.7l-1.5,14.7c-0.5,4.9-1,9.8-1.4,14.7c-1,9.8-1.6,19.6-2.3,29.4l-0.9,14.7l-0.6,14.7
							c-0.7,19.6-0.7,39.3,1.2,59l-1.4-7.3c-0.4-2.4-1-4.9-1.2-7.3l-0.9-7.4l-0.5-3.7c-0.1-1.2-0.2-2.5-0.3-3.7
							c-1-9.9-1.4-19.8-1.8-29.7l-0.2-14.9l0.1-14.9c0.1-5,0.3-9.9,0.4-14.8c0.1-5,0.4-9.9,0.7-14.8c0.9-19.8,2.7-39.5,4.6-59.2
							c0.4-4.9,1-9.8,1.6-14.7l1.7-14.7c1.2-9.8,2.5-19.6,3.8-29.4c5.3-39.2,12-78.1,19.4-116.9
							C2561.4,4319.8,2569.7,4281.2,2579.8,4243z"/>
					</g>
					<g>
						<path fill="#333333" d="M1910.2,4068.7c17.7,20.9,34.5,42.5,51.1,64.3c8.2,10.9,16.3,22,24.4,33.1c8,11.1,15.9,22.3,23.7,33.6
							c7.8,11.3,15.5,22.6,23,34l5.7,8.6l5.6,8.6c3.7,5.8,7.5,11.5,11.1,17.3c3.7,5.8,7.3,11.6,10.9,17.4l10.7,17.6l2.7,4.4l2.6,4.4
							l5.2,8.9l5.2,8.9l5.1,8.9c13.6,23.8,26.5,48,38.7,72.6c12.2,24.6,23.7,49.5,34,75l3.9,9.5l1.9,4.8l1.8,4.8l7.2,19.3l6.6,19.5
							l1.6,4.9c0.5,1.6,1,3.3,1.5,4.9l3,9.9c7.6,26.4,13.9,53.2,17.3,80.3c-5.5-26.8-13.1-53.1-22-78.9l-3.3-9.7
							c-0.6-1.6-1.1-3.2-1.7-4.8l-1.8-4.8l-7.3-19.1l-7.8-18.9l-1.9-4.7l-2.1-4.7l-4.1-9.4l-4.1-9.4c-1.4-3.1-2.9-6.2-4.3-9.3
							c-2.9-6.2-5.7-12.4-8.6-18.5l-9-18.4c-1.5-3.1-3-6.1-4.6-9.1l-4.7-9.1l-4.6-9.1l-4.8-9c-3.2-6-6.3-12.1-9.6-18.1l-9.9-17.9
							c-3.3-6-6.7-11.9-10.1-17.8c-13.4-23.7-27.3-47.2-41.7-70.5c-3.5-5.9-7.2-11.6-10.8-17.4l-5.4-8.7l-5.5-8.6
							c-3.7-5.8-7.3-11.5-11-17.3c-3.7-5.7-7.3-11.5-11.1-17.2l-11.2-17.1l-11.3-17.1c-7.6-11.4-15.2-22.7-23-33.9
							C1941.9,4113.2,1926.2,4090.9,1910.2,4068.7z"/>
					</g>
					<g>
						<path fill="#333333" d="M3003.1,3552.6c-19.4,12.1-38.8,24.2-57.9,36.6c-19.1,12.4-38,25-56.3,38.3
							c-18.3,13.3-36.2,27.2-52.7,42.6c-8.3,7.7-16.2,15.7-23.4,24.4c-7.3,8.6-13.7,18-18.6,28.3c2.8-11.2,8.3-21.6,14.7-31.3
							c6.4-9.7,13.8-18.6,21.8-27c15.9-16.8,33.8-31.6,52.4-45.1c18.6-13.5,38.1-25.7,58.1-36.9c10-5.6,20.2-10.9,30.5-15.9
							C2982,3561.6,2992.4,3556.7,3003.1,3552.6z"/>
					</g>
					<g>
						<path fill="#333333" d="M3066.4,3529.4c20.8,21.5,40.4,44,59.5,67.1c9.5,11.5,18.8,23.3,27.9,35.2c9,12,17.8,24.1,26,36.8
							c4.1,6.3,8.1,12.8,11.7,19.6c0.9,1.7,1.7,3.5,2.6,5.2c0.8,1.8,1.6,3.6,2.4,5.4c1.3,3.5,2.7,7,4,10.5c2.6,7,5.2,14.1,7.5,21.2
							c1.2,3.6,2.3,7.2,3.4,10.7c1,3.6,2.1,7.2,3.1,10.9c0.9,3.7,2,7.3,2.8,11l1.3,5.5c0.4,1.8,0.7,3.7,1.1,5.6
							c1.4,7.4,2.4,14.9,3.1,22.5c1,15.1,0.3,30.4-3.6,44.9c1.8-14.9,1.1-29.7-1.2-44.3c-1.3-7.3-2.7-14.5-4.6-21.6l-1.4-5.3
							l-1.5-5.3c-1-3.6-2.2-7.1-3.3-10.6c-4.6-14-9.9-27.9-15.4-41.7l-4.2-10.4c-0.7-1.6-1.4-3.2-2.2-4.8c-0.8-1.6-1.6-3.2-2.5-4.8
							c-3.4-6.4-7.3-12.6-11.3-18.8c-16.1-24.7-34-48.6-51.6-72.6C3102,3577.4,3084,3553.5,3066.4,3529.4z"/>
					</g>
				</g>
			</g>
			<path fill="#333333" stroke="#333333" stroke-width="5" stroke-miterlimit="10" d="M2633.8,596.1h1.4
				C2634.2,596.1,2633.8,596.1,2633.8,596.1z"/>
			<path fill="#8C6239" stroke="#333333" stroke-width="5" stroke-miterlimit="10" d="M2969.9,637.3l-32.2-14.5
				c0,0,22.8,57.1-31.1,105.8c0,0,7.3-77.7,3.8-94c0,0-9.7,9.9-84.4,26.5c0,0,74.7-33.2,74.7-62.3c0,0-49.8,34.6-96.8,44.3
				c0,0,44.3-26.3,56.7-59.5c-1.2,0.8-80.6,51.2-124.5,59.5c0,0,41.5-36,55.3-59.5c0,0-52.6,33.2-98.2,38.7c0,0,38.7-33.2,52.6-47
				c0,0-31.4,20.5-110.5,20.8c6.5-0.2,32.7-2.6,66.2-27.7c0,0-51.2,12.5-101,12.5c0,0,39.5-12.5,77.2-34.6c0,0-70.3-2.8-157.4,41.5
				c0,0,4.2-26.3,53.9-48.4c-2.3,0.8-75.2,25.4-110.6,60.9c0,0,27.7-52.8,48.2-68.5c-14,9.7-73,52.7-92.5,99c-22.1,52.6-6.9,0-6.9,0
				s1.9-26.7,10.2-48.9c-24.9,38.6-69.1,114.4-83,185.8c0,0-29.5-170.2-90.4-142.5c0,0-15.6-158.4,24.2-204.5l-32.9,32
				c0,0,41.9-94.4,109.6-119.2l-59.8,19.6c0,0,56-58.1,132.8-57.1l-42.5-11.4c0,0,69.5-40.5,138-30.1l-30.1-20.8
				c0,0,70.6-2.1,100.7,17.6c0,0,96.5-27,158.7-8.3c0,0-51.1,5.2-70.2,14.5c0,0,80.6-8.3,130.4,21.8l-59,2.1
				c3.4-0.1,102.5-2.7,156.6,79.9l-43.6-9.3c0,0,57.1,29.1,83,103.8l-39.4-29c1.5,1.5,47.9,50.7,64.3,106.8l-49.8-40.4
				c0.9,1.1,30.2,36,40.4,84l-36.3-34.2C2924.3,542.8,2956.5,590.6,2969.9,637.3z"/>
			<path fill="#FFD399" d="M2910.5,634.6c0,0-9.7,9.9-84.4,26.5c0,0,74.7-33.2,74.7-62.3c0,0-49.8,34.6-96.8,44.3
				c0,0,44.3-26.3,56.7-59.5c-1.2,0.8-80.6,51.2-124.5,59.5c0,0,41.5-36,55.3-59.5c0,0-52.6,33.2-98.2,38.7c0,0,38.7-33.2,52.6-47
				c0,0-31.4,20.5-110.5,20.8c6.5-0.2,32.7-2.6,66.2-27.7c0,0-51.2,12.5-101,12.5c0,0,39.5-12.5,77.2-34.6c0,0-70.3-2.8-157.4,41.5
				c0,0,4.2-26.2,53.8-48.4c-3.3,1.1-75.4,25.7-110.6,60.8c0,0,27.7-52.8,48.2-68.5c-14,9.7-73,52.7-92.5,99c-22.1,52.6-6.9,0-6.9,0
				s1.9-26.7,10.2-48.9c-24.9,38.6-69.1,114.4-83,185.8c0,0-29.5-170.2-90.4-142.5c0,0-97.9,62.9,47.4,244.5
				c0,0,15.6,176.4,42.5,206.5c27,30.1,120.4,123.5,215.8,142.2c95.5,18.7,147.3,1,171.2-21.8c23.9-22.8,135.9-241.8,143.2-291.6
				c7.3-49.8,11.3-142.7,37.3-176.4C2906.6,728.6,2913.9,650.9,2910.5,634.6z M2633.8,596.1h1.4
				C2634.2,596.1,2633.8,596.1,2633.8,596.1z"/>
			<g>
				<path fill="#333333" d="M2287.9,675c-6.7-1.2-13.5-1.4-19.9-0.1c-6.4,1.2-12.4,4.3-16.3,9.2c-1.9,2.5-3.4,5.3-4.4,8.3
					c-1,3-1.6,6.2-1.9,9.4c-0.6,6.4-0.2,13.1,0.8,19.6c0.9,6.6,2.4,13.1,4.1,19.5c1.7,6.5,3.7,12.9,5.8,19.3
					c4.3,12.7,9.1,25.3,13.9,38c-6.7-11.8-12.6-24-17.6-36.7c-5-12.7-9.1-25.7-11.1-39.4c-0.5-3.4-0.8-6.9-0.9-10.3
					c-0.1-3.5,0-7,0.4-10.5c0.5-3.5,1.2-7,2.5-10.3c1.3-3.4,3.1-6.6,5.6-9.3c2.4-2.7,5.4-4.9,8.7-6.4c3.3-1.5,6.7-2.3,10.2-2.7
					C2274.5,671.8,2281.5,672.7,2287.9,675z"/>
			</g>
			<g>
				<path fill="#333333" d="M2303.8,718.2c0.3,10.1,0.2,20.1,0,30.2c-0.2,10-0.6,20.1-1,30.1c-0.5,10-1,20-1.7,30
					c-0.6,10-1.4,20-2.4,30.1c-1-10-1.4-20.1-1.5-30.2c-0.1-10.1,0.1-20.1,0.6-30.2c0.5-10,1.2-20.1,2.2-30.1
					C2300.8,738.1,2302,728.1,2303.8,718.2z"/>
			</g>
			<g>
				<path fill="#333333" d="M2463.6,640.4c2.2-0.3,4.3-0.3,6.5-0.4c2.2,0,4.4,0,6.5,0c4.4,0.1,8.7,0.4,13.1,0.9
					c8.7,0.9,17.3,2.5,25.9,4.5c8.5,2,16.9,4.6,25.2,7.6c2.1,0.7,4.1,1.5,6.2,2.4c2,0.8,4.1,1.6,6.1,2.5l6,2.7c2,0.9,4,1.9,5.9,2.8
					c2,0.9,3.9,2,5.9,3c1.9,1,3.9,2,5.8,3.1l5.7,3.3c1.9,1.1,3.7,2.3,5.6,3.5c3.7,2.3,7.3,4.8,10.9,7.3c3.5,2.6,7.1,5.2,10.5,7.9
					c13.6,11,26.2,23.3,36.9,37c-13.6-10.8-27.3-21.2-41.5-30.7c-1.7-1.2-3.6-2.4-5.4-3.5c-1.8-1.1-3.6-2.3-5.4-3.5
					c-3.7-2.2-7.2-4.5-10.9-6.6c-1.9-1-3.7-2.2-5.5-3.2l-5.6-3.1c-1.8-1-3.8-2-5.6-3c-1.9-1-3.8-2-5.7-2.9c-1.9-0.9-3.8-1.9-5.7-2.8
					l-5.8-2.7c-3.9-1.7-7.8-3.5-11.7-5.1c-7.9-3.2-15.8-6.2-23.9-8.9c-8.1-2.7-16.3-5.1-24.6-7.2
					C2480.6,643.5,2472.2,641.7,2463.6,640.4z"/>
			</g>
			<g>
				<path fill="#333333" d="M2729.2,740c12.5-6.2,25.6-11,38.8-15.1c6.6-2,13.4-3.8,20.1-5.4c3.4-0.8,6.8-1.5,10.2-2.2
					c3.4-0.6,6.9-1.3,10.3-1.8c1.7-0.3,3.4-0.5,5.2-0.8c1.7-0.2,3.5-0.5,5.2-0.7c3.5-0.4,7-0.7,10.5-1c1.7-0.1,3.5-0.2,5.2-0.3
					c1.8-0.1,3.5-0.2,5.3-0.2l5.3,0l5.3,0.2c7,0.4,14.1,1.2,21,2.8c1.7,0.5,3.4,0.9,5.1,1.4c1.7,0.6,3.4,1.1,5,1.7l4.8,2.1
					c1.5,0.9,3.1,1.7,4.6,2.6c-1.7-0.4-3.4-0.8-5-1.2l-5-0.9c-1.7-0.2-3.4-0.4-5.1-0.6l-5.1-0.3c-6.8-0.3-13.5-0.2-20.2,0.2
					c-6.7,0.4-13.5,1.1-20.2,1.9l-5,0.6l-5,0.7c-3.4,0.5-6.7,0.9-10.1,1.5c-6.7,1-13.4,2.2-20.2,3.4c-6.7,1.2-13.4,2.5-20.2,3.7
					C2756.4,735.1,2742.9,737.7,2729.2,740z"/>
			</g>
			<g>
				<path fill="#333333" d="M2463.6,723.4c3.2-1.7,6.6-3.1,10-4.4c3.4-1.3,6.9-2.4,10.4-3.4c7-2,14.2-3.5,21.4-4.5
					c14.5-2,29.5-1.7,44.1,1.3c1.8,0.4,3.6,0.8,5.5,1.3l5.4,1.5c1.8,0.5,3.5,1.2,5.3,1.9c1.8,0.6,3.5,1.3,5.2,2.1
					c3.5,1.4,6.7,3.3,10,5.1l4.7,3l1.2,0.8c0.4,0.3,0.7,0.6,1.1,0.8l2.2,1.7c1.5,1.1,3,2.2,4.3,3.5c1.4,1.2,2.8,2.5,4.1,3.8l3.8,4.1
					c0.6,0.7,1.3,1.3,1.8,2.1l1.7,2.2c1.1,1.5,2.3,2.9,3.3,4.4c1,1.6,2,3.1,2.9,4.6c0.5,0.8,1,1.5,1.4,2.3l1.3,2.4
					c0.8,1.6,1.6,3.2,2.4,4.9c-4.9-5.4-9.5-10.8-14.9-15.4l-1.9-1.8c-0.6-0.6-1.4-1.1-2-1.7l-4.1-3.3c-2.9-1.9-5.6-4.1-8.6-5.8
					c-2.9-1.9-6-3.4-9-5c-3.1-1.4-6.2-2.9-9.4-4.1l-2.4-0.9c-0.8-0.3-1.6-0.5-2.4-0.8c-1.6-0.5-3.2-1.1-4.9-1.6l-5-1.4
					c-1.7-0.4-3.4-0.7-5-1.1c-13.5-2.8-27.4-3.7-41.5-3.3c-7,0.2-14.1,0.7-21.1,1.5c-3.5,0.4-7.1,0.8-10.6,1.3
					c-1.8,0.2-3.5,0.5-5.3,0.8C2467.1,722.7,2465.4,723.1,2463.6,723.4z"/>
			</g>
			<g>
				<path fill="#333333" d="M2744.4,783.6c1.7-2.3,3.7-4.4,5.8-6.3c2.1-1.9,4.4-3.7,6.7-5.4c4.7-3.3,9.9-6,15.4-8.1
					c10.9-4.2,23-5.6,34.8-4.3c2.9,0.4,5.8,0.8,8.7,1.5c2.9,0.6,5.7,1.5,8.5,2.4l4.1,1.6c0.7,0.3,1.4,0.5,2,0.8l2,0.9l3.9,1.9
					l3.8,2.1c10,5.8,18.9,13.2,26.1,21.9c-9.9-5.5-19.6-10.8-29.6-14.9l-3.7-1.5l-3.8-1.3l-1.9-0.7l-1.9-0.6l-3.8-1.2
					c-2.6-0.6-5.1-1.4-7.7-1.8c-2.6-0.6-5.2-0.9-7.8-1.3c-10.4-1.1-21-0.6-31.3,1.9C2764.3,773.7,2754.1,777.8,2744.4,783.6z"/>
			</g>
			<circle fill="#333333" cx="2540.1" cy="737.8" r="24"/>
			<circle fill="#333333" cx="2797.3" cy="783.5" r="21.7"/>
			<g>
				<path fill="#333333" d="M2725.1,778.4c-0.6,9.3-1.1,18.5-1.3,27.8c-0.1,4.6-0.2,9.2-0.2,13.9c0,4.6,0.1,9.2,0.3,13.8
					c0.4,9.2,1,18.4,2.4,27.4c0.7,4.5,1.5,9,2.7,13.4c1.2,4.4,2.6,8.7,4.4,12.7c0.5,1,0.9,2,1.4,3l1.6,2.8c0.6,0.9,1.2,1.8,1.9,2.7
					c0.7,0.9,1.4,1.8,2.1,2.8c2.8,3.7,5.7,7.5,8.2,11.5c2.5,4,4.9,8.2,6.6,12.7c0.8,2.3,1.6,4.6,1.9,7.1c0.3,2.5,0.5,5,0,7.6
					c-0.4,2.5-1.3,4.9-2.5,7.2c-1.3,2.1-2.8,4.1-4.6,5.8c-3.5,3.4-7.7,5.9-11.9,8c-8.5,4.1-17.5,6.7-26.6,8.7
					c8.7-3.1,17.5-6.3,25.4-10.9c3.9-2.3,7.7-4.9,10.7-8.1c1.5-1.6,2.7-3.4,3.8-5.2c0.9-1.9,1.6-3.9,1.8-6c0.5-4.2-0.5-8.4-2.2-12.5
					c-1.7-4.1-4-8-6.5-11.7c-2.5-3.8-5.3-7.4-8.1-11.1c-0.7-0.9-1.4-1.8-2.1-2.7c-0.7-1-1.5-2-2.1-3l-1.9-3.2
					c-0.6-1.1-1.1-2.2-1.6-3.3c-2-4.4-3.4-9-4.6-13.6c-1.1-4.6-2-9.3-2.6-13.9c-1.1-9.3-1.7-18.7-1.6-28c0-9.3,0.5-18.6,1.4-27.9
					C2722.2,796.7,2723.3,787.5,2725.1,778.4z"/>
			</g>
			<g>
				<path fill="#333333" d="M2724,940.2c-3.1,0.1-6,0.3-8.8,0.6c-2.8,0.4-5.4,0.9-7.8,1.9c-1.2,0.5-2.3,1.1-3.4,1.8
					c-1.1,0.7-2.1,1.5-3.1,2.4c-2,1.9-3.7,4.2-5.5,6.7c-0.1-3.2,0.7-6.4,2.5-9.2c0.9-1.4,2-2.7,3.3-3.8c1.3-1.1,2.8-1.9,4.4-2.6
					c3.1-1.3,6.5-1.6,9.7-1.2C2718.4,937.4,2721.5,938.4,2724,940.2z"/>
			</g>
			<path fill="#D19B6F" d="M2556.3,1031.1c0,0,64.7-15.5,78.2-22.4c13.5-6.9,30.4-4.9,39.4,11.2c0,0,25.3-22.7,42.9,6.4
				c16.8,26.4,16.9,25,19.4,27.6c0,0-48.4,46.6-140.8-2.4C2595.4,1051.6,2571.8,1036.6,2556.3,1031.1z"/>
			<g>
				<path fill="#333333" d="M2556.3,1031.1c15.2-0.8,30.4-0.8,45.6-0.4c7.6,0.2,15.2,0.6,22.8,1c7.6,0.5,15.2,1.1,22.8,1.8
					c15.1,1.5,30.3,3.4,45.3,6.5c7.5,1.5,14.9,3.2,22.2,5.5c7.3,2.3,14.5,4.9,21.2,8.6c-7.1-2.7-14.4-4.6-21.8-6.2l-5.5-1.2l-5.6-1
					c-3.7-0.6-7.4-1.3-11.2-1.8c-3.7-0.6-7.5-1-11.2-1.6c-3.8-0.5-7.5-1-11.3-1.4c-7.5-0.9-15-1.7-22.6-2.4
					c-7.5-0.8-15.1-1.4-22.6-2c-7.5-0.7-15.1-1.2-22.7-1.8C2586.6,1033.5,2571.4,1032.4,2556.3,1031.1z"/>
			</g>
			<path fill="#FFD399" d="M2647.2,1622c-42.5,33.2-71.6,201.3-71.6,201.3c-112.1-319.6-145.3-324.8-223.1-368.4
				c-77.8-43.6-119.3-157.4-119.3-157.4c11.4-6.4,30.7-29.2,45-47.3c10.5-13.3,18.3-24.1,18.3-24.1c-3.1-23.3,0-356.5,0-356.5
				s15.6,176.4,42.5,206.5c27,30.1,120.4,123.5,215.8,142.2c95.5,18.7,147.3,1,171.2-21.8c-3,26.8-2.6,78-1.4,123.5
				c1.3,47.8,3.5,89.3,3.5,89.3C2753.1,1506.8,2689.8,1588.8,2647.2,1622z"/>
			<path fill="#C69C6D" d="M3310.3,2115.2c0,70.6-9,179.2-6.6,208.6c2.4,29.4-5.9,28.7-5.9,28.7c-130.7,114.1-272.9,63.3-272.9,63.3
				s-10.4,16.6-21.8,33.2c-11.4,16.6-16.6,183.7-16.6,183.7c24.9,74.7,88.2,572.8,88.2,572.8s44.6,98.6,20.8,122.4
				c-23.9,23.9-46.7,85.1-46.7,85.1s9.3,28,11.4,60.2c2.1,32.2-12.8,36.7-12.8,36.7c-722.2,268.4-1195.3-28.4-1195.3-28.4
				s-18-11.8-38.7-24.2c-20.7-12.5-9.7-84.4,8.3-170.2c18-85.8-2.8-397.1-2.8-397.1c-58.1-315.4-41.2-500.1-41.2-500.1
				c-24.9,2.1-284.4-73.1-309.8-81.9c-4.4-1.5-7.8-3.1-10.4-4.6c-12.3-7.2-6.6-13.8-6.6-13.8s101-417.8,143.9-552
				c42.9-134.2,178.5-202,178.5-202c341.7-96.8,422.4-252.7,438.1-274.4c15.7-21.7,66.9-10.9,66.9-10.9
				c-14.3,18.1-33.6,40.9-45,47.3c0,0,41.5,113.8,119.3,157.4c77.8,43.6,111,48.8,223.1,368.4c0,0,29.1-168.1,71.6-201.3
				c42.5-33.2,105.8-115.2,80.9-212.7c0,0-2.2-41.4-3.5-89.3c0,0,82.3,75.8,141.5,122.5c59.1,46.7,232.4,119.3,355.6,191.3
				C3344.9,1705.7,3310.3,2044.6,3310.3,2115.2z"/>
			<path fill="#FFD399" d="M1863.2,3622.1c-99.6,137.2-102.4,267.1-102.4,285.7c0,18.7-8.3,18.3-8.3,18.3
				c-48.4-58.1-141.8-326.5-141.8-326.5c-145.3-238.6-309.2-657.8-289.5-802.1c19.7-144.2,136.3-494.2,136.3-494.2
				c2.6,1.5,6,3.1,10.4,4.6c25.4,8.8,284.9,83.9,309.8,81.9c-10.7,43.6-134.5,251.1-166.4,324.4c-31.8,73.3-20.8,99.6-18.9,139.7
				c1.9,40.1,79.7,257.3,90.8,307.1c11.1,49.8,54,206.1,73.7,246.6c14.2,29.1,60.3,110.9,87,156.8v0c10.3,17.8,17.7,30.2,19.2,32.1
				C1868.3,3603.1,1863.2,3622.1,1863.2,3622.1z"/>
			<path fill="#FFD399" d="M3373.9,3101.6c-26.3,172.9-87.2,469-87.2,500.8c0,31.8,28.7,137.3-52.2,253.5
				c0.4-1.8,28.6-121.9-31.1-187.8c-60.2-66.4-92.4-107.9-92.4-107.9s3.7-4.4,3.7-11.8c0-7.4-2.8-253.2-6.9-275.3
				c-4.1-22.1-19.6-250.4-16.5-307.5c3.1-57.1,12.4-94.4,5.2-172.3c-7.3-77.8-87.8-302.6-93.4-344.5c11.4-16.6,21.8-33.2,21.8-33.2
				s142.2,50.8,272.9-63.3c0,0,19.4,300.9,30.4,342.4C3339.3,2736.4,3400.2,2928.7,3373.9,3101.6z"/>
			<g>
				<g>
					<path fill="#333333" d="M2465,1210.4c7.9,13.9,15.6,27.9,23.3,41.9c3.9,7,7.7,14,11.7,20.9c3.9,7,7.8,13.9,11.8,20.8
						c3.9,6.9,7.9,13.8,12,20.6c2,3.4,4.1,6.8,6.1,10.2l6.3,10.1c2.1,3.4,4.3,6.7,6.5,10l3.3,5l3.4,4.9c4.6,6.5,9.4,12.8,14.8,18.8
						c-6.1-5.2-11.5-11.2-16.7-17.3c-5.1-6.2-9.9-12.6-14.5-19.2c-9.2-13.1-17.6-26.8-25.6-40.7c-3.9-7-7.8-14-11.6-21
						c-3.7-7.1-7.4-14.2-11-21.4C2477.7,1239.7,2471,1225.2,2465,1210.4z"/>
				</g>
				<g>
					<path fill="#333333" d="M2601.9,1514.7c-0.9,10.1-2.4,20.1-4.2,30.1c-1.7,10-3.8,19.9-6.2,29.7c-2.4,9.8-5,19.6-8,29.3
						c-3.1,9.7-6.4,19.2-10.7,28.5c2.3-9.9,4.6-19.7,6.9-29.5c2.3-9.8,4.6-19.6,6.9-29.4c2.4-9.8,4.7-19.6,7.2-29.4
						C2596.4,1534.2,2599,1524.5,2601.9,1514.7z"/>
				</g>
				<g>
					<path fill="#333333" d="M2359.8,1256c10.9,17.5,20.8,35.7,30.3,54c9.4,18.4,18.2,37.1,26.3,56.1c8,19.1,15.4,38.4,21.2,58.3
						c2.9,9.9,5.4,20,7.2,30.2c1.7,10.2,2.9,20.6,2.2,30.9c-0.4-10.3-2.2-20.5-4.6-30.4l-1.9-7.5c-0.7-2.5-1.4-4.9-2.1-7.4
						c-0.7-2.5-1.5-4.9-2.2-7.4l-1.1-3.7l-1.2-3.7c-1.6-4.9-3.3-9.7-5-14.6c-1.8-4.8-3.5-9.6-5.4-14.4c-1.8-4.8-3.7-9.6-5.6-14.3
						c-2-4.7-3.9-9.5-5.9-14.2c-2-4.8-4-9.5-6.1-14.2l-6.3-14.1c-4.2-9.4-8.5-18.7-12.9-28.1
						C2377.9,1293.1,2368.9,1274.6,2359.8,1256z"/>
				</g>
			</g>
			<g>
				<g>
					<path fill="#333333" d="M2095.1,1385.6c18.9,27.6,36.9,55.6,54.8,83.7c9,14,17.8,28.2,26.7,42.2c4.5,7,8.9,14.1,13.4,21
						c1.1,1.7,2.2,3.5,3.4,5.2l1.7,2.5l0.9,1.2l0.9,1.3c2.5,3.4,4.8,6.8,7.3,9.9c2.4,3,5,5.7,7.8,7.5c2.8,1.7,5.7,2.4,8.9,2.2
						c3.2-0.2,6.7-1.5,10-3.2c0.8-0.4,1.7-0.9,2.5-1.4c0.8-0.5,1.7-1,2.5-1.5l2.5-1.6l2.5-1.8c13.5-9.5,26.7-19.6,39.8-29.8
						c6.5-5.1,13-10.4,19.4-15.6c6.4-5.3,12.7-10.6,18.9-16.1c6.2-5.5,12.3-11.1,18.1-17c2.9-2.9,5.7-6,8.4-9.2
						c2.7-3.2,5.2-6.5,7.2-10.1c-1.5,3.9-3.7,7.5-6,11c-2.4,3.5-4.9,6.8-7.5,10.1c-2.6,3.3-5.4,6.4-8.2,9.5
						c-2.8,3.1-5.7,6.2-8.6,9.2c-5.9,6-11.9,11.8-18,17.5c-6.1,5.7-12.4,11.2-18.8,16.7c-6.3,5.5-12.8,10.8-19.3,16.1
						c-6.5,5.3-13.2,10.4-19.9,15.4l-2.6,1.9c-0.9,0.6-1.8,1.2-2.7,1.9c-0.9,0.6-1.9,1.2-2.8,1.8c-1,0.6-2,1.1-3,1.7
						c-4.1,2.1-8.5,3.9-13.6,4.4c-2.5,0.2-5.2,0.1-7.8-0.6c-2.6-0.6-5-1.7-7.2-3c-4.3-2.7-7.5-6.2-10.3-9.6c-2.8-3.5-5.1-7-7.5-10.3
						l-0.9-1.2l-0.9-1.3l-1.8-2.7c-1.2-1.8-2.3-3.5-3.4-5.3c-4.5-7.1-8.8-14.2-13.1-21.4c-8.6-14.3-17-28.7-25.3-43.2
						C2126.6,1444.4,2110.4,1415.2,2095.1,1385.6z"/>
				</g>
				<g>
					<path fill="#333333" d="M2304.8,1573.5c14.8,21.1,29.1,42.4,43.4,63.7c14.3,21.3,28.5,42.6,42.9,63.8
						c14.4,21.2,28.8,42.3,43.9,63c7.5,10.4,15.1,20.6,23.1,30.6c7.9,10,16.2,19.7,25.4,28.7c-10.7-7.3-20.1-16.3-29.1-25.5
						c-9-9.3-17.5-19-25.6-29c-16.3-20-31.5-40.9-45.9-62.2c-14.4-21.3-28.1-43.1-41.2-65.2
						C2328.6,1619.2,2316.1,1596.7,2304.8,1573.5z"/>
				</g>
				<g>
					<path fill="#333333" d="M2829.3,1412.3c4.5,28.5,9.5,56.9,15.4,85.1c3,14.1,6.2,28.1,10,42c1.9,6.9,3.9,13.8,6.3,20.5
						c1.2,3.4,2.4,6.7,3.8,9.9c0.7,1.6,1.5,3.2,2.2,4.8l1.2,2.3c0.4,0.8,0.8,1.5,1.3,2.4c0.9,1.6,1.8,3.3,2.6,5.1
						c0.8,1.8,1.5,3.7,1.8,6c0.2,1.1,0.2,2.4,0,3.9c-0.1,0.4-0.2,0.7-0.3,1.1c-0.1,0.4-0.3,0.8-0.6,1.2c-0.4,0.8-1.1,1.5-1.9,2
						c-1.5,1-3,1.3-4.3,1.4c-1.3,0.1-2.4,0-3.5-0.2c-4.2-0.8-7.7-2.3-11.1-4c-3.4-1.7-6.6-3.5-9.8-5.5c-6.3-4-12.2-8.4-17.8-13.3
						c-5.6-4.9-10.9-10.1-15.6-16.1c-0.6-0.7-1.2-1.5-1.7-2.3l-1.6-2.2l-3.1-4.5c-2.1-3-4.1-6-6.1-9c-4-6-8-12-12-18.1
						c-7.9-12.1-15.7-24.3-23.3-36.6l8.6-3.1c0.5,3.3,0.8,6.4,1.1,9.6c0.3,3.2,0.6,6.3,0.8,9.5c0.4,6.3,0.6,12.6,0.7,19
						c0.1,12.6-0.4,25.3-1.7,37.9c-1.2,12.6-3.3,25.2-6.1,37.5c-2.9,12.4-6.7,24.6-11.7,36.4c-4.9,11.8-11.1,23.1-18.5,33.7
						l-2.8,3.9c-0.5,0.6-0.9,1.3-1.4,1.9l-1.5,1.9c-2,2.5-4.1,5-6.1,7.4c-4.1,4.7-8.4,9.4-12.6,14c-8.5,9.2-17.2,18.2-26,27.1
						c-8.8,8.9-17.7,17.7-26.6,26.4c-8.9,8.7-17.9,17.5-26.8,26.1c-9,8.7-17.9,17.3-26.8,26.1c-8.9,8.7-17.7,17.6-26.2,26.6
						c-4.3,4.5-8.5,9.1-12.5,13.7c-4,4.7-7.9,9.4-11.4,14.4c-1.7,2.5-3.3,5.1-4.4,7.6c-0.5,1.3-1,2.6-1.2,3.8c0,0.3,0,0.6-0.1,0.8
						c0,0.3,0,0.8,0,1.2l-0.1,2.4c-0.3,6.3-1,12.6-1.7,18.8c-1.4,12.4-2.9,24.8-4.1,37.2c-1.2,12.4-2.3,24.8-2.6,37.2
						c-0.1,6.2-0.1,12.4,0.4,18.6c0.3,3.1,0.7,6.2,1.5,9.2c0.8,3,1.8,6,3.9,8.3c-2.2-2.2-3.5-5.2-4.4-8.2c-0.9-3-1.5-6.1-2-9.2
						c-0.9-6.2-1.2-12.5-1.3-18.7c-0.2-12.5,0.3-25,1.1-37.5c0.8-12.5,1.8-24.9,2.8-37.3c0.4-6.2,0.9-12.4,1.1-18.5l0-2.3
						c0-0.4,0-0.7,0-1.2c0-0.5,0-1,0.1-1.5c0.2-1.9,0.8-3.6,1.5-5.2c1.3-3.2,2.9-6,4.7-8.7c3.5-5.4,7.4-10.4,11.4-15.3
						c4-4.9,8.1-9.6,12.3-14.3c8.4-9.3,17.1-18.3,25.8-27.3c8.7-9,17.5-17.8,26.3-26.7l26.5-26.5c17.6-17.6,35-35.5,51.8-53.8
						c4.2-4.6,8.3-9.2,12.4-13.9c2.1-2.3,3.9-4.7,5.8-7l1.4-1.8c0.5-0.6,0.9-1.2,1.3-1.8l2.6-3.7c6.9-9.9,12.7-20.6,17.3-31.9
						c9.3-22.5,14.7-46.7,17.2-71.1c1.3-12.2,1.8-24.5,1.8-36.8c0-6.2-0.2-12.3-0.6-18.4c-0.2-3.1-0.4-6.1-0.6-9.2
						c-0.3-3-0.6-6.1-1-9l-2.9-22.1l11.5,19c7.5,12.3,15.1,24.5,22.8,36.7c3.9,6.1,7.8,12.1,11.7,18.1c2,3,4,6,6,9l3,4.5l1.5,2.2
						c0.5,0.7,1,1.4,1.5,2.1c4.1,5.5,9,10.5,14.2,15.2c5.2,4.7,10.8,9.1,16.6,12.9c2.9,1.9,5.9,3.7,9,5.3c3,1.6,6.2,2.9,9.1,3.5
						c0.7,0.1,1.4,0.2,1.9,0.2c0.5,0,0.8-0.1,0.8-0.1c0,0,0,0.2,0-0.1c0.1-0.3,0.1-0.8,0-1.5c-0.2-1.3-0.7-2.9-1.3-4.4
						c-0.6-1.5-1.3-3.1-2.1-4.6c-0.4-0.7-0.8-1.6-1.2-2.4l-1.3-2.5c-0.7-1.7-1.5-3.4-2.2-5.1c-1.3-3.4-2.6-6.9-3.7-10.4
						c-2.2-7-4.1-14-5.8-21c-3.4-14.1-6.2-28.3-8.7-42.6c-2.5-14.2-4.6-28.5-6.6-42.8C2832.5,1441,2830.8,1426.6,2829.3,1412.3z"/>
				</g>
				<g>
					<path fill="#333333" d="M1773.2,1535.5c6.9,36.4,13.9,72.8,21.4,109.1c3.7,18.1,7.5,36.3,11.4,54.4c3.9,18.1,7.8,36.2,12,54.2
						l3.1,13.5c1.1,4.5,2.1,9,3.2,13.5c2.1,9,4.3,18,6.5,27c4.5,17.9,9.2,35.8,14.3,53.6c5.1,17.7,10.4,35.4,16.5,52.7l2.3,6.5
						c0.8,2.2,1.5,4.3,2.4,6.4l2.5,6.4l1.3,3.2l1.3,3.3l2.5,6.6c0.8,2.2,1.5,4.5,2.2,6.7c0.7,2.3,1.5,4.5,2.1,6.8l1.8,6.8
						c4.8,18.3,7.6,36.9,9.1,55.6c1.4,18.7,1.5,37.5,0.4,56.2c-1.1,18.7-3.4,37.3-6.5,55.7c-0.4,2.3-0.7,4.6-1.2,6.9l-1.3,6.9
						l-1.3,6.9c-0.5,2.3-1,4.6-1.5,6.8c-1,4.5-2,9.1-3.2,13.6l-1.7,6.8c-0.6,2.3-1.1,4.5-1.8,6.8c-19.5,71.9-51.1,140.5-93.5,201.4
						c38.9-63.1,68-131.9,85.9-203.4c0.6-2.2,1.1-4.5,1.6-6.7l1.5-6.7c1.1-4.5,1.9-9,2.9-13.5l1.4-6.8l1.2-6.8l1.2-6.8
						c0.4-2.3,0.7-4.5,1.1-6.8c2.8-18.2,4.8-36.5,5.7-54.8c0.9-18.3,0.8-36.7-0.7-54.9c-1.5-18.2-4.4-36.3-9-53.9l-1.7-6.6
						c-0.6-2.2-1.4-4.3-2-6.5c-0.7-2.2-1.3-4.3-2.1-6.5l-2.4-6.4l-1.2-3.2l-1.3-3.3l-2.5-6.6c-0.9-2.2-1.6-4.4-2.4-6.6l-2.4-6.6
						c-6.1-17.7-11.5-35.5-16.4-53.4c-9.8-35.9-18.2-72.1-25.7-108.4c-7.6-36.3-14.3-72.8-20.6-109.4
						C1783.7,1608.9,1778,1572.3,1773.2,1535.5z"/>
				</g>
				<g>
					<path fill="#333333" d="M1732.8,1788c4.7,32.2,9.2,64.3,13.7,96.5c4.6,32.1,9.3,64.2,14.5,96.2c5.1,32,10.7,63.9,17.3,95.6
						c0.8,4,1.7,7.9,2.6,11.9l1.3,5.9l1.4,5.9c1.7,7.9,3.8,15.7,5.8,23.6c4,15.7,8.7,31.2,14.5,46.4c-7.8-14.3-13.8-29.6-19.2-45
						c-2.6-7.7-5.1-15.5-7.4-23.3l-1.7-5.9l-1.6-5.9c-1-3.9-2.2-7.9-3.1-11.8c-8.1-31.6-14.4-63.6-19.5-95.7
						c-2.6-16.1-4.9-32.2-6.9-48.3c-2.1-16.1-3.9-32.3-5.4-48.5l-1.1-12.1c-0.4-4-0.7-8.1-1-12.2c-0.6-8.1-1.2-16.2-1.8-24.3
						C1733.9,1820.5,1733,1804.3,1732.8,1788z"/>
				</g>
				<g>
					<path fill="#333333" d="M1905.4,1729.9c3.9,6.8,7.3,13.8,10.5,21c3.3,7.1,6.2,14.4,9.1,21.7l2.1,5.5l2,5.5
						c1.4,3.7,2.6,7.4,3.8,11.1c2.5,7.4,4.7,15,6.8,22.5c4.2,15.1,7.6,30.5,10.3,46c1.4,7.7,2.4,15.6,3.4,23.4l1.2,11.8
						c0.2,2,0.4,3.9,0.5,5.9l0.4,5.9l0.4,5.9l0.2,5.9l0.2,5.9c0.1,2,0.1,3.9,0.1,5.9l-0.1,11.8c-0.1,3.9-0.3,7.9-0.5,11.8
						c-0.9,15.7-2.5,31.5-5.6,46.9l-1.1,5.8l-0.3,1.5l-0.3,1.4l-0.7,2.9c-0.9,3.8-1.8,7.7-2.7,11.5c-1,3.8-2.2,7.6-3.3,11.3
						l-1.6,5.7l-1.9,5.6l-3.9,11.1c-1.5,3.6-3,7.3-4.5,10.9c-0.8,1.8-1.5,3.6-2.3,5.4l-2.6,5.3c-1.7,3.5-3.5,7-5.2,10.5
						c1.2-3.7,2.6-7.4,3.8-11.1l2-5.5c0.6-1.9,1.1-3.7,1.7-5.6c1.1-3.7,2.3-7.4,3.4-11.1l2.9-11.3l1.5-5.6l1.2-5.7
						c0.8-3.8,1.7-7.6,2.4-11.3c1.2-7.6,2.9-15.2,3.7-22.9l0.8-5.7l0.4-2.9c0.1-1,0.2-1.9,0.3-2.9l1.1-11.5c0.2-1.9,0.3-3.8,0.4-5.8
						l0.3-5.8l0.4-5.8c0.1-1.9,0.1-3.9,0.2-5.8c0.1-3.9,0.3-7.7,0.3-11.6l-0.1-11.6c0-1.9-0.1-3.9-0.1-5.8l-0.2-5.8l-0.2-5.8
						l-0.4-5.8c-0.9-15.4-2.6-30.8-4.9-46c-2.3-15.3-5.1-30.5-8.5-45.6c-1.7-7.6-3.6-15.1-5.5-22.6c-1-3.7-1.9-7.5-3-11.2l-1.6-5.6
						l-1.7-5.6c-1.1-3.7-2.3-7.4-3.4-11.1l-3.7-11.1c-0.6-1.8-1.2-3.7-1.9-5.5c-0.6-1.8-1.3-3.7-2-5.5
						C1908.2,1737.1,1906.8,1733.5,1905.4,1729.9z"/>
				</g>
				<g>
					<path fill="#333333" d="M1463.3,2238.4c28.9,7.6,57.4,16.1,85.9,24.8c28.5,8.7,56.8,17.8,85.1,27.1
						c28.3,9.3,56.5,18.8,84.6,28.5l42.2,14.5l10.5,3.6l10.6,3.6c3.5,1.2,7.1,2.4,10.6,3.4l2.7,0.8l2.7,0.8c1.8,0.6,3.6,0.9,5.4,1.3
						l-2.8-0.2c-0.9,0-1.9-0.2-2.8-0.4l-2.8-0.4l-2.8-0.5c-3.7-0.7-7.3-1.5-11-2.2c-7.3-1.6-14.5-3.4-21.8-5.2
						c-7.2-1.9-14.4-3.8-21.6-5.7c-7.2-2-14.4-4-21.5-6.1c-28.7-8.2-57.1-17.1-85.4-26.4c-28.3-9.3-56.5-19-84.5-29.2
						C1518.7,2260.5,1490.9,2250,1463.3,2238.4z"/>
				</g>
				<g>
					<path fill="#333333" d="M2198,2389.8c-9.4,26.6-19.8,52.9-30.4,79.1c-5.3,13.1-10.8,26.1-16.3,39.1c-2.7,6.5-5.6,13-8.4,19.4
						c-2.8,6.5-5.7,12.9-8.6,19.4c-2.9,6.5-5.8,12.9-8.7,19.3c-2.9,6.4-5.9,12.8-8.9,19.2c-3,6.4-6,12.8-9,19.2l-9.1,19.1
						c-12.4,25.4-25.2,50.6-38.4,75.6L2050,2718c-3.3,6.2-6.9,12.4-10.3,18.6l-5.2,9.3l-5.3,9.2c-3.5,6.1-7,12.3-10.6,18.4
						l-10.9,18.2c-1.8,3-3.7,6-5.6,9l-5.6,9l-5.6,9l-5.8,8.9l-5.8,8.9c-1.9,3-3.9,5.9-5.9,8.8c-15.7,23.5-32.5,46.4-50.3,68.4
						c-17.9,21.9-36.7,43.2-57.8,62.1c19.5-20.5,37.2-42.4,53.9-65.1c2.1-2.8,4.2-5.6,6.3-8.5l6.1-8.6c4-5.8,8.2-11.4,12-17.3
						l11.8-17.5l11.4-17.7c30.1-47.6,57.9-96.6,84.3-146.3c13.3-24.8,26.1-49.9,38.8-75.1c12.7-25.2,24.9-50.6,37.2-76
						c6.1-12.7,12.1-25.5,18.1-38.2c6-12.8,11.9-25.6,17.8-38.4C2174.9,2441.3,2186.5,2415.6,2198,2389.8z"/>
				</g>
				<g>
					<path fill="#333333" d="M2538.4,2073.7c-3.2,26.5-7.7,52.9-12.6,79.2c-5,26.3-10.6,52.4-16.6,78.5
						c-12.2,52.1-26.3,103.7-42.2,154.8c-2,6.4-4,12.8-6,19.1c-2,6.4-4.1,12.7-6.2,19.1c-2.1,6.4-4.2,12.7-6.4,19l-3.2,9.5l-3.3,9.5
						c-8.8,25.3-18,50.4-27.6,75.4c-19.3,49.9-40.3,99.2-62.9,147.8c-11.3,24.3-23.1,48.3-35.2,72.2l-9.2,17.9l-9.4,17.8
						c-3.1,5.9-6.3,11.8-9.5,17.7c-3.2,5.9-6.3,11.8-9.7,17.6l-9.8,17.5c-3.3,5.8-6.7,11.6-10,17.4c-6.6,11.6-13.6,23.1-20.4,34.6
						c-13.9,22.9-28,45.6-42.8,67.9c-29.3,44.8-60.5,88.3-93.2,130.7c-32.9,42.2-67.3,83.2-103.6,122.5
						c34.6-40.8,67.9-82.5,99.6-125.4l11.8-16.2l5.9-8.1l5.8-8.2l11.6-16.3l11.3-16.5l5.7-8.2l5.6-8.3l11.1-16.6l10.9-16.8l5.5-8.4
						l5.4-8.4l10.7-16.9l10.5-17l5.2-8.5l5.1-8.6l10.3-17.2c6.7-11.5,13.5-23,20-34.6c3.3-5.8,6.6-11.6,9.8-17.4l9.6-17.5
						c25.6-46.8,49.7-94.4,72.1-142.7c11.3-24.2,22.3-48.5,32.7-73c10.5-24.5,20.6-49.2,30.4-74c19.6-49.6,37.5-99.9,54.1-150.6
						c8.3-25.4,16.1-50.9,23.6-76.5c7.5-25.6,14.6-51.3,21.2-77.2c3.4-12.9,6.6-25.9,9.7-38.8c3.1-13,6.1-26,9-39
						c2.9-13,5.6-26.1,8.2-39.2C2533.9,2100,2536.4,2086.9,2538.4,2073.7z"/>
				</g>
				<g>
					<path fill="#333333" d="M2690.5,2021.1c9.9,42.9,19.9,85.7,30.2,128.5c5.1,21.4,10.3,42.8,15.5,64.1
						c5.3,21.3,10.5,42.7,15.8,64c10.8,42.6,21.5,85.3,32.8,127.7c5.7,21.2,11.3,42.5,17,63.7c5.8,21.2,11.7,42.4,17.7,63.5
						c6,21.2,12,42.3,18.2,63.4c6.2,21.1,12.6,42.1,19,63.1c6.5,21,13.1,42,19.9,62.8c3.4,10.4,6.9,20.9,10.4,31.3
						c3.5,10.4,7,20.8,10.6,31.2c7.2,20.8,14.7,41.4,22.5,61.9c7.7,20.6,15.8,41,24.4,61.2c8.5,20.3,17.5,40.3,27.1,60
						c2.4,5,4.9,9.8,7.4,14.7c2.4,4.9,5.1,9.7,7.7,14.6l1.9,3.6l2,3.6l4,7.2c1.3,2.4,2.8,4.7,4.2,7.1l4.2,7.1l-4.6-6.9
						c-1.5-2.3-3.1-4.6-4.5-6.9l-4.4-7l-2.2-3.5l-2.1-3.6c-2.8-4.8-5.6-9.5-8.3-14.3c-2.7-4.8-5.4-9.6-7.9-14.5
						c-10.4-19.4-20-39.3-29.2-59.3c-18.2-40.1-34.5-81.1-49.7-122.5c-15.3-41.3-29.2-83.1-42.6-125.1
						c-13.3-42-25.8-84.2-37.8-126.6c-11.9-42.4-23.3-84.9-34.2-127.6c-5.4-21.3-10.7-42.7-16-64.1l-7.8-32.1l-7.5-32.1
						c-5-21.4-9.9-42.9-14.6-64.4c-4.7-21.5-9.4-43-13.9-64.5C2706.9,2107.6,2698.2,2064.4,2690.5,2021.1z"/>
				</g>
				<g>
					<path fill="#333333" d="M1852.1,3481.4c12.4,3.2,24.8,6.2,37.3,9c12.5,2.9,25,5.6,37.5,8.2c25,5.3,50.1,10.2,75.3,14.7
						c25.2,4.6,50.4,8.7,75.7,12.5c25.3,3.8,50.6,7.3,76,10.4c50.7,6.1,101.6,10.9,152.6,13.9c25.5,1.5,51,2.6,76.5,3.2
						c12.8,0.4,25.5,0.5,38.3,0.6l19.1,0c6.4,0,12.8-0.1,19.1-0.2c51-0.6,102.1-3.5,152.8-8.7c6.4-0.6,12.7-1.4,19-2.1
						c6.3-0.7,12.7-1.4,19-2.3l19-2.5l18.9-2.9l4.7-0.7l4.7-0.8l9.4-1.6l9.4-1.6c3.1-0.5,6.3-1.2,9.4-1.8c6.3-1.2,12.5-2.3,18.8-3.6
						l18.7-3.9c24.9-5.5,49.7-11.7,74.2-18.8c24.5-7.2,48.8-15,72.7-24c23.9-9,47.5-18.8,70.6-29.7c5.8-2.7,11.5-5.6,17.2-8.4
						l4.3-2.1l2.2-1.1l2.1-1.1l8.5-4.5c11.4-5.8,22.4-12.3,33.6-18.6c-10.9,6.7-21.7,13.7-32.9,19.9l-8.3,4.8l-2.1,1.2l-2.1,1.1
						l-4.2,2.3c-5.7,3-11.3,6.1-17,9l-17.3,8.5l-4.3,2.1l-4.4,2l-8.8,4l-8.8,4c-2.9,1.3-5.9,2.5-8.9,3.8l-8.9,3.7l-4.4,1.9l-2.2,0.9
						l-2.2,0.9l-18,6.9c-3,1.2-6,2.2-9,3.3l-9.1,3.2l-9.1,3.2l-9.1,3l-9.1,3c-3.1,1-6.1,2-9.2,2.9l-18.4,5.5c-3.1,1-6.2,1.7-9.3,2.6
						l-9.3,2.5l-9.3,2.5l-9.3,2.3l-9.3,2.3c-3.1,0.8-6.2,1.6-9.4,2.2c-50,11.8-100.8,20-151.8,25.7l-19.1,2l-19.2,1.7
						c-6.4,0.6-12.8,1-19.2,1.5c-6.4,0.5-12.8,0.9-19.2,1.3c-25.6,1.6-51.3,2.4-76.9,2.9c-6.4,0-12.8,0.2-19.2,0.2l-19.2,0
						c-12.8-0.2-25.7-0.3-38.5-0.7l-9.6-0.3l-9.6-0.4c-6.4-0.3-12.8-0.5-19.2-0.8l-19.2-1l-19.2-1.2c-25.6-1.7-51.1-3.9-76.7-6.5
						l-19.1-2l-19.1-2.2l-19.1-2.4l-19.1-2.5c-25.4-3.5-50.7-7.3-76-11.7c-25.3-4.3-50.5-9-75.6-14.2c-25.1-5.2-50.1-10.7-75-16.8
						C1901.4,3495.2,1876.6,3488.8,1852.1,3481.4z"/>
				</g>
				<g>
					<path fill="#333333" d="M3221.7,1633.7c-4.6,33.5-10.1,67-15.9,100.3c-6,33.3-12.3,66.6-19.8,99.7c-3.8,16.5-7.8,33.1-13,49.4
						c-0.6,2-1.3,4.1-2,6.1c-0.7,2-1.4,4.1-2.2,6.1c-0.8,2-1.6,4.1-2.6,6.1c-0.5,1-1,2.1-1.4,3l-1.4,2.8c-3.9,7.5-7.5,15-11.1,22.6
						c-7,15.2-13.3,30.7-18.2,46.6c-4.9,15.9-8.4,32.2-10.4,48.7c-2.1,16.5-2.6,33.2-1.9,49.8l0.3,6.2l0.3,6.4l0.1,3.3l0.1,1.6
						l0,1.6l-0.1,6.5c-0.4,8.6-1,17.2-2.1,25.7c-2.2,17-5.4,33.8-9.2,50.4l-2.9,12.4l-3.1,12.4l-3.3,12.3l-3.5,12.3
						c-4.7,16.3-9.7,32.5-15.1,48.6c-5.4,16.1-11.1,32.1-17,47.9c-6,15.8-12.3,31.6-19,47.2c-6.8,15.5-13.7,31-22.1,45.7
						c3.8-7.6,7.1-15.3,10.3-23.2c3.2-7.8,6.3-15.7,9.2-23.6c5.9-15.8,11.6-31.7,16.9-47.8c5.4-16,10.6-32.1,15.4-48.3
						c4.9-16.2,9.6-32.4,13.9-48.7l3.2-12.2l3-12.3l2.9-12.3l2.7-12.3c3.5-16.5,6.4-33,8.3-49.6c1-8.3,1.6-16.6,1.9-24.9l0-6.2
						l0-1.5l-0.1-1.5l-0.1-3.1l-0.1-3.1l-0.2-3.2l-0.3-6.4c-0.8-17.2-0.3-34.4,1.7-51.5c2.1-17.1,5.8-34,11-50.4
						c5.1-16.4,11.6-32.4,19-47.8c3.8-7.7,7.6-15.3,11.6-22.8l1.5-2.8c0.5-0.9,0.9-1.8,1.3-2.7c0.9-1.7,1.6-3.7,2.4-5.5
						c0.8-1.9,1.5-3.8,2.2-5.8c0.7-1.9,1.4-3.9,2-5.9c1.4-3.9,2.5-8,3.8-12c1.2-4,2.4-8.1,3.5-12.1c2.3-8.1,4.4-16.3,6.5-24.4
						c4.2-16.3,7.9-32.8,11.7-49.3c3.8-16.5,7.4-33,10.9-49.5C3208.2,1700,3214.9,1666.9,3221.7,1633.7z"/>
				</g>
				<g>
					<path fill="#333333" d="M3266.7,1858.5c-7.5,28.9-16.3,57.4-25.6,85.7c-9.3,28.3-19.2,56.4-29.8,84.3
						c-10.6,27.9-21.9,55.5-34.4,82.7c-3.1,6.8-6.3,13.6-9.6,20.2c-3.3,6.7-6.8,13.3-10.3,19.9c-3.6,6.5-7.3,13.1-11.4,19.4
						c-4.1,6.3-8.4,12.5-13.7,17.8c2.3-3,4.2-6.1,6.1-9.4c1.9-3.2,3.6-6.5,5.3-9.8c3.3-6.6,6.4-13.4,9.4-20.2
						c3-6.8,5.9-13.6,8.8-20.5c2.8-6.9,5.7-13.7,8.4-20.6c11-27.6,21.6-55.4,32.2-83.1c10.6-27.8,21.1-55.6,31.9-83.4
						C3244.4,1913.8,3255.2,1886.1,3266.7,1858.5z"/>
				</g>
				<g>
					<path fill="#333333" d="M3303.6,2292.2c-2,2.1-4.1,4-6.2,5.9c-2.2,1.9-4.4,3.7-6.6,5.5c-4.5,3.6-9.1,6.9-13.8,10.2
						c-9.5,6.4-19.4,12.2-29.6,17.5c-20.4,10.4-42,18.6-64.2,24.7c-11.1,2.9-22.3,5.6-33.6,7.5c-1.4,0.2-2.8,0.5-4.2,0.7l-4.3,0.6
						c-2.8,0.4-5.7,0.8-8.5,1.2l-8.5,0.9l-4.3,0.4l-4.3,0.3c-22.8,1.7-45.8,1.5-68.4-1.4c22.7-1.4,45.3-3.3,67.5-6.5l4.2-0.6
						l4.2-0.7l8.3-1.3l8.3-1.5l4.1-0.8c1.4-0.3,2.7-0.6,4.1-0.9l8.2-1.7l8.2-1.9l4.1-1l4.1-1.1c2.7-0.7,5.4-1.4,8.1-2.1
						c21.6-5.9,42.9-13.2,63.5-22.1c10.3-4.4,20.5-9.3,30.4-14.6c5-2.6,9.9-5.4,14.8-8.2c2.4-1.4,4.9-2.9,7.3-4.4
						C3298.9,2295.4,3301.3,2293.9,3303.6,2292.2z"/>
				</g>
			</g>
			<g>
				
					<ellipse transform="matrix(0.9239 -0.3827 0.3827 0.9239 -465.5216 1077.1982)" fill="#333333" cx="2475" cy="1708.8" rx="22.8" ry="22.8"/>
				<circle fill="#333333" cx="2382.2" cy="1525.1" r="20.8"/>
				
					<ellipse transform="matrix(0.1602 -0.9871 0.9871 0.1602 307.7931 4132.2891)" fill="#333333" cx="2582.4" cy="1885.3" rx="17.8" ry="17.8"/>
			</g>
			<g>
				<path fill="#333333" d="M2302,919.9c4.6,24.3,9.3,48.5,14.7,72.6c2.6,12,5.4,24,8.5,35.9c1.6,5.9,3.2,11.8,5,17.7
					c1.8,5.8,3.7,11.6,6,17.1c1.2,2.7,2.4,5.4,3.9,7.7c0.4,0.5,0.7,1.1,1.1,1.6c0.2,0.3,0.4,0.5,0.6,0.7l0.3,0.3l0.4,0.4l3.2,3.3
					c4.3,4.4,8.6,8.8,13,13.1c8.7,8.6,17.7,17,26.9,25.1c18.3,16.3,37.4,31.7,57.6,45.5c20,14,41.1,26.5,63.3,36.5
					c11.1,5,22.4,9.4,34,12.9c2.9,0.8,5.8,1.8,8.8,2.5c3,0.8,5.9,1.4,8.9,2.3c5.8,1.5,11.8,2.8,17.8,4c12,2.3,24.1,3.7,36.3,4.6
					c12.2,0.8,24.4,0.9,36.6,0c12.2-0.8,24.3-2.9,36.1-6.1c1.5-0.4,2.9-0.9,4.4-1.3c1.5-0.5,2.9-0.9,4.4-1.4
					c2.9-1.1,5.8-2.1,8.6-3.3c5.7-2.3,11.1-5.3,16.5-8.3c-10,7.2-21.2,12.9-33,17c-11.8,4.1-24,6.8-36.4,8.4
					c-12.4,1.6-24.9,2-37.4,1.7c-12.5-0.4-24.9-1.6-37.3-3.5c-6.2-1-12.3-2.1-18.5-3.5c-6-1.5-12.1-2.7-18.1-4.5
					c-12.1-3.4-23.9-7.7-35.4-12.7c-23-10-44.6-22.8-65.1-36.9c-20.4-14.3-39.8-30-58.2-46.7c-9.2-8.4-18.1-17.1-26.7-25.9
					c-4.3-4.4-8.6-8.9-12.8-13.5l-3.1-3.4l-0.4-0.4l-0.5-0.6c-0.3-0.4-0.6-0.8-0.9-1.1c-0.6-0.8-1-1.5-1.5-2.3c-1.7-3-3-6-4.2-9
					c-2.3-6-4.1-12-5.7-18c-1.6-6-3.1-12.1-4.4-18.1c-2.6-12.1-4.9-24.3-7-36.5C2307.8,968.9,2304.4,944.5,2302,919.9z"/>
			</g>
		</g>
	</g>
</g>
</svg>
