<?xml version="1.0" encoding="utf-8"?>
<!-- Generator: Adobe Illustrator 24.2.1, SVG Export Plug-In . SVG Version: 6.00 Build 0)  -->
<svg version="1.1" id="Layer_1" xmlns="http://www.w3.org/2000/svg" xmlns:xlink="http://www.w3.org/1999/xlink" x="0px" y="0px"
	 viewBox="0 0 2000 2000" enable-background="new 0 0 2000 2000" xml:space="preserve">
<g>
	<g>
		<g>
			<g id="XMLID_1_">
				<path fill="#754C29" d="M1588,583v662.9H412V583H1588z M1284.3,926.4c6.6-6.6,6.6-17.3,0-23.9l-138.2-138.2
					c-6.6-6.6-17.3-6.6-23.9,0c-6.6,6.6-6.6,17.3,0,23.9l126.3,126.3l-126.3,126.3c-6.6,6.6-6.6,17.3,0,23.9
					c3.3,3.3,7.6,4.9,11.9,4.9c4.3,0,8.6-1.6,11.9-4.9L1284.3,926.4z M1066.6,731c2.4-9-2.9-18.3-11.9-20.7
					c-9-2.4-18.3,2.9-20.7,11.9L933.4,1098c-2.4,9,2.9,18.3,11.9,20.7c1.5,0.4,2.9,0.6,4.4,0.6c7.4,0,14.3-5,16.3-12.5L1066.6,731z
					 M877.8,788.2c6.6-6.6,6.6-17.3,0-23.9c-6.6-6.6-17.3-6.6-23.9,0L715.7,902.5c-6.6,6.6-6.6,17.3,0,23.9l138.2,138.2
					c3.3,3.3,7.6,4.9,11.9,4.9c4.3,0,8.6-1.6,11.9-4.9c6.6-6.6,6.6-17.3,0-23.9L751.5,914.5L877.8,788.2z"/>
				<path fill="#754C29" d="M1675.8,541.6v792.1h-499.5c-7.2,0-13.7,4.6-16,11.4l-17.2,50.5H856.8l-17.2-50.5
					c-2.3-6.8-8.8-11.4-16-11.4H324.2V541.6c0-25.6,20.8-46.4,46.4-46.4h1258.7C1655,495.2,1675.8,516,1675.8,541.6z M1621.7,1262.8
					V566.1c0-9.3-7.6-16.9-16.9-16.9H395.1c-9.3,0-16.9,7.6-16.9,16.9v696.7c0,9.3,7.6,16.9,16.9,16.9h1209.7
					C1614.2,1279.7,1621.7,1272.1,1621.7,1262.8z"/>
				<path fill="#754C29" d="M1768,1367.5v37.9c0,54.8-44.6,99.4-99.4,99.4H331.4c-54.8,0-99.4-44.6-99.4-99.4v-37.9h75.3h504.3
					l17.2,50.5c2.3,6.8,8.7,11.4,16,11.4h310.5c7.2,0,13.7-4.6,16-11.4l17.2-50.5h504.3H1768z"/>
			</g>
		</g>
	</g>
</g>
<rect fill="none" width="2000" height="2000"/>
</svg>
