<?xml version="1.0" encoding="utf-8"?>
<!-- Generator: Adobe Illustrator 24.2.1, SVG Export Plug-In . SVG Version: 6.00 Build 0)  -->
<svg version="1.1" id="Ñëîé_4" xmlns="http://www.w3.org/2000/svg" xmlns:xlink="http://www.w3.org/1999/xlink" x="0px" y="0px"
	 viewBox="0 0 2500 2500" enable-background="new 0 0 2500 2500" xml:space="preserve">
<g id="XMLID_159_">
	<defs>
		<rect id="XMLID_158_" x="0.5" y="0" width="2500" height="2500"/>
	</defs>
	<clipPath id="XMLID_20_">
		<use xlink:href="#XMLID_158_"  overflow="visible"/>
	</clipPath>
	<g id="XMLID_157_" clip-path="url(#XMLID_20_)">
		<path id="XMLID_4027_" fill="#BD1622" d="M2248,1144.7c-2-75.3-4.5-151-17.5-225.2c-39.2-223.5-172.9-423.1-344-572.1
			c-171.1-149-874.2-427.9-1273.8,76.1c-63,79.4-129.5,308.9-136,497.2c-5.3,154.1-36,288.9-93.7,431.9
			c-70.4,174.5,10,525.4,73.6,640.7c60,108.8,140.2,175.1,240,195.8c526.4,109.5,752.7-178.7,1236.7-233.2
			c108.2-12.2,383.4-39.8,410.4-323.2C2369.1,1367.6,2255,1411.1,2248,1144.7z"/>
		<g id="XMLID_348_">
			<path id="XMLID_548_" fill="#212832" d="M1365.1,374.3c-5.8-4-56.5,14.4-62.8,17.6c-3.2,1.6-5.2,4.7-7,7.8
				c-22.7,37.2-41.4,81-31.2,123.4c0.7,2.9,1.8,6.1,4.6,7.2c2.3,1,5,0,7.3-1c37-15.6,69.2-42.5,91.1-76.2"/>
			<path id="XMLID_545_" fill="#CF8F72" d="M251.5,521.3c-8.4-16.3-23-30-40.8-34.4l-2.3,2c-7.8,6.3-14.5,14.1-19.4,22.9
				c-1.2,2.1-2.2,4.2-2.7,6.5c-0.4,2.3-0.2,4.7,0.1,7.1c0.9,6.4,2.9,12.7,4.8,18.9c4.7,15,9.5,30.3,18.6,43.1
				c2.6,3.6,5.7,7.1,9.9,8.3c2.1,0.6,4.3,0.5,6.5,0.4c9.9-0.4,20-1.9,28.8-6.7c2-1.1,3.9-2.3,5.2-4.1c2.2-3,2.4-6.9,2.4-10.5
				C262.7,556.3,259.9,537.6,251.5,521.3z"/>
			<path id="XMLID_542_" fill="#E59F7E" d="M595.1,1091.8c181.7-6.2,351.8-109,522.1-109c-21.4,65.7-18.1,111.4-17,180.6
				c0.5,28.6,0.9,57.2,1.4,85.7c0,3,0,6.2-1.7,8.6c-1.3,1.9-3.5,3.1-5.6,4.1c-48.1,23.4-102.7,28.3-156.1,31.9
				c-113.4,7.6-227,11.1-340.7,10.5c-25.8-0.1-51.6-0.5-77.2-3.4c-19.9-2.2-41.2-6.9-54.3-22c-17.6-20.4-13.6-51.4-5.4-77
				c8.4-26.2,20.1-51.6,36.8-73.5c11-14.4,24.6-27.6,41.6-34c16.8-6.4,36.1-5.6,52.3,2.2"/>
			<path id="XMLID_539_" fill="#E59F7E" d="M335.3,771c14.2,130.1,38.4,259.2,72.3,385.6c11.1,41.4,24.1,84.1,52.9,115.9
				c2.3,2.5,4.8,5.1,8.1,5.9c4.5,1.1,9.1-1.2,13.1-3.6c30.9-17.9,60.1-38.8,87.1-62.2c15-13.1,29.7-27.5,36.9-46.1
				c7.8-20.1,5.7-43-1.2-63.5c-6.9-20.5-18.2-39.1-29.1-57.8c-63.2-108.6-113.2-224.9-148.7-345.4c-17.2,17.4-34.5,34.8-51.7,52.2
				c-6.3,6.4-12.7,12.8-20.7,17c-6.9,3.6-14.9,5.3-22.7,4.9"/>
			<path id="XMLID_536_" fill="#CF8F72" d="M207.2,618.7c-1.2,32.7,2.7,67.2,21.7,93.8c6.7,9.4,15.2,17.5,23.5,25.5
				c25,23.9,49.9,47.9,74.9,71.8c5.8,5.5,11.8,11.2,19.2,14.1c19.6,7.5,40.3-6.4,56.6-19.5c8.5-6.8,17-13.7,25.5-20.5
				c8.6-6.9,17.5-14.3,21.2-24.6c2.9-8.2,2.2-17.3,1.2-25.9c-6.6-61.4-19.7-122.2-39-180.9c-4.6-14-10.5-29.1-23.2-36.4
				c-15.8-9.1-35.7-3-52.4,4.2c-30.6,13.2-59.8,29.4-87.2,48.4c-6.2,4.3-12.5,9-16.6,15.3c-2.8,4.3-4.5,9.3-6.1,14.1
				c-4,11.9-8,23.7-12.1,35.6"/>
			<path id="XMLID_533_" fill="#422918" d="M511,386.8c-1.8-1.7-12.7-13.1-15.1-13.5c-13.8-2.4-34.4,1.7-48.3,3.9
				c-59.6,9.7-107.5,14.2-163.2,25.1c-3.8,0.8-7.6,2.4-10.3,5.2c-3,3.1-4.2,7.6-5.2,11.8c-14.3,60.5-26.6,121.5-37.1,182.7l3.2-0.5
				c55.6,6.1,101.4,2.6,161.9,0.1c35.9-1.5,72.6-3.8,77.1-18.8c2-6.5,25.7-121,38.5-183.5C513.5,395,514.1,389.9,511,386.8z"/>
			<g id="XMLID_519_">
				<path id="XMLID_530_" fill="#E59F7E" d="M349.1,643.8c-6.1-15.4-23.2-22.4-38.7-28.2c-37.5-14-69-35.9-107-43.4l-2.8,2.1
					c-9.2,5.7-12.4,14.7-15.6,25c-0.8,2.5-1.4,5.2-1,7.8c0.8,6,6.2,10.3,11.4,13.5C229.6,642.7,270,653,310,661.3
					c9,1.9,18.1,3.6,27.2,3c2.8-0.2,5.7-0.7,7.8-2.6C348.5,658.6,350.8,648.2,349.1,643.8z"/>
				<g id="XMLID_526_">
					<path id="XMLID_527_" fill="#E59F7E" d="M342.7,675.3c-5.9-5.1-13.5-7.4-20.9-9.7c-36.8-11.1-78.4-26.8-115.2-37.8
						c-4.1,7.7-7.4,16-9.6,24.5c-0.9,3.6-1.6,7.4-0.4,10.9c1.8,5.2,12,12.7,17.1,14.8c31.1,13.2,65.5,16.6,99.4,17.7
						c8.3,0.3,16.7,0.4,25-0.3c2.5-0.2,5.2-0.5,7.2-2C351,689.3,348,679.9,342.7,675.3z"/>
				</g>
				<path id="XMLID_523_" fill="#E59F7E" d="M299.6,543.4c-25.4-25.4-38.2-53.3-72.5-63.9c-1.9-0.6-4-1.1-6-0.8
					c-2.3,0.3-4.3,1.8-6.2,3.2c-12.3,9.6-26.7,24-29.1,37.5l20.4,6.9c21.5,8.1,27.9,11.1,45.9,25.3c8.2,6.4,16.1,12.2,25.4,17
					c9.2,4.8,18,5.5,26.9,0.1c1.4-0.9,2.8-3.9,3.6-5.3C310.3,559.3,304.5,548.3,299.6,543.4z"/>
				<path id="XMLID_520_" fill="#E59F7E" d="M334.4,387c-0.9-4.7-2.6-9.2-5-13.3c-5.5-9.6-15.3-17-26.3-18.3
					c-11-1.3-22.8,4.2-27.8,14.2c-2.5,5.1-3.2,11-3.4,16.7c-0.3,7.2,2.4,15.9,5.6,22.3c1,2.1,3.3,2.8,5.7,2.8
					c8.6-0.1,31.1-1.6,45-8.5c2.8-1.4,5.5-8.4,6.3-11.4C334.9,390,334.7,388.5,334.4,387z"/>
			</g>
			<path id="XMLID_516_" fill="#925F36" d="M1139.2,1105.5c-8.1-58.8-31-103.3-69.6-148.3l-78-2c-74,50.3-228.1,93.4-320.7,118.4
				c-6.3,1.7-13.1,3.6-17.2,8.7c-3.2,3.8-4.3,8.9-5.3,13.7c-17.2,85.9-11.4,157.8,32,233.8c4.5,7.9,9.4,15.7,16.2,21.7
				c13.2,11.6,31.6,14.6,49.1,16.4c75.7,7.8,284.6-6.3,357.2-28.7c8.6-2.7,17.5-5.7,24.1-11.9c11.5-10.9,13.1-28.4,14-44.2
				C1144.1,1224,1147.3,1164.3,1139.2,1105.5z"/>
			<g id="XMLID_509_">
				<path id="XMLID_19_" fill="#FFFFFF" d="M484.5,383.4c2.7,3.3,0.2,9.4-0.6,13c-0.8,3.7-1.6,7.3-2.4,11
					c-1.7,7.9-3.4,15.7-5.2,23.6c-3.4,15.7-6.8,31.3-10.3,46.9c-6.5,29-13.1,58-20.8,86.7c-0.8,3.1,4,4.4,4.8,1.3
					c8.4-30.9,15.4-62.2,22.3-93.4c3.7-16.7,7.3-33.4,11-50.1c1.7-8,3.5-16,5.2-23.9c1.4-6.2,4-13.2-0.5-18.6
					C486,377.3,482.4,380.9,484.5,383.4L484.5,383.4z"/>
			</g>
			<g id="XMLID_502_">
				<path id="XMLID_18_" fill="#FFFFFF" d="M452,400.5c-2.8-0.9-5.8,0-8.6,0.4c-4.1,0.6-8.3,1.2-12.4,1.9c-4.2,0.7-8.4,1.4-12.6,2.2
					c-2.6,0.5-4.4,0.2-5.7,2.5c-1.7,3.1-2.6,7-3.7,10.3c-1.1,3.2-4,9-2.6,12.4c2,4.9,10.4,3.1,14.3,2.7c6.8-0.8,14.3-1.1,20.8-3.1
					c5.8-1.8,8-7.3,10-12.5c1.8-4.6,5.8-12,1.5-16.2c-2.3-2.3-5.8,1.3-3.5,3.5c1.8,1.8-2,9.5-2.8,11.4c-1.7,4.3-3.2,8.1-8,9.4
					c-3.4,0.9-7.2,1.1-10.7,1.6c-4.2,0.6-8.5,1.4-12.7,1.5c-0.8,0-4.1,0-4.3-0.3c-0.2-0.5,0.5-2,0.6-2.5c0.7-2.5,1.6-5.1,2.4-7.6
					c1.1-3.1,2.2-6.2,3.4-9.3c-0.6,0.6-1.2,1.2-1.7,1.7c5.8-1.1,11.7-2.1,17.5-3.1c2.5-0.4,5.1-0.8,7.7-1.2c2.7-0.4,7.1-1.8,9.7-1
					C453.7,406.2,455,401.4,452,400.5z"/>
			</g>
			<g id="XMLID_495_">
				<path id="XMLID_17_" fill="#212832" d="M713.2,1057.5c-9.3,13.9-13.6,30.1-15.9,46.5c-2.4,17.1-3.4,34.4-3.4,51.7
					c-0.1,35.8,4.4,71.5,13.3,106.2c5.1,20,11.8,39.6,19.8,58.7c1.2,2.8,5.9,1.6,4.7-1.3c-27.1-64.5-38-135.6-30.7-205.3
					c2-18.9,5.7-37.9,16.4-53.9C719.1,1057.4,714.9,1054.9,713.2,1057.5L713.2,1057.5z"/>
			</g>
			
				<ellipse id="XMLID_494_" transform="matrix(0.9225 -0.3861 0.3861 0.9225 -446.9903 830.2357)" fill="#B17F49" cx="1843.7" cy="1528.1" rx="135.6" ry="41.4"/>
			<path id="XMLID_491_" fill="#C99D66" d="M1616.5,1936.1c138.6,192.6,133.2,434.1,166.3,665.7c1.1,7.3,2,15.1-0.9,22
				c-2.8,6.4-8.6,11.2-14.3,15.5c-116.4,87.4-180.8,81.5-327.6,63.4c-123.5-15.2-244.4-48.9-357.2-99.4
				c-34.1-15.3-67.8-32.3-104.3-41.2c-36.5-9-77-9.2-110.1,8c27-143.4,60.1-205.3,87.1-348.7c2.5-13.3,49.8-202.3,66-211.3
				c185.9-103.2,391.5-87.2,604.1-57"/>
			<path id="XMLID_488_" fill="#925F36" d="M1355.9,927.3c-77.7-7.9-296.3,4-364.3,28c-67.3,212-4.4,310.3-28.4,546
				c-8.9,87.3-63.6,376-26.3,464.5c398.2,81.7,501.7,237.2,858.7,270.2c-30-159-156.6-498-61.9-847.1
				c28.1-103.5,48-248.5,74.3-352.4C1736.9,1001.9,1596.7,951.8,1355.9,927.3z"/>
			<path id="XMLID_485_" fill="#CF8F72" d="M1620.4,1198.7c13.8,154.3,70,304.5,160.8,429.9c19.3,26.7,40.7,52.7,68.3,70.6
				c11.1,7.2,19.5,4.3,32,0c11.3-3.9,23.6-6,29.2-16.5c35.7-68.1,44.7-148,36.6-224.4c-8.2-76.5-32.6-150.3-61-221.8
				c-22.2-55.8-46.8-110.7-73.7-164.4c-2.5-4.9-5.1-9.9-9.2-13.6c-9.3-8.3-23.5-7.3-35.6-4.7c-64.7,13.5-121.9,58.8-150,118.6
				c-3.2,6.8-6.1,14-6.3,21.5c-0.2,5.9,1.3,11.6,2.7,17.3c3.7,14.6,7.4,29.1,11.1,43.7"/>
			<g id="XMLID_478_">
				<path id="XMLID_482_" fill="#925F36" d="M1855.2,1101.9c-8.5-22.1-28.5-54.6-47.1-65.5c-11.6-6.8-15.2,1.3-28.3,2.5
					c-64.3,6.1-114.1,26.9-160.8,120.6c-33.2,66.7-40.3,215.2,2.8,266.4c0,0,58.4,70.2,96.1,151.9c-3-24.6,143.1-121.8,250.2-103.6
					C1903.5,1313.1,1896.3,1209.1,1855.2,1101.9z"/>
				<path id="XMLID_479_" fill="#925F36" d="M1953.6,1484.4c0.6,0.9,1.1,1.8,1.7,2.6C1954.8,1486.1,1954.2,1485.3,1953.6,1484.4z"/>
			</g>
			<path id="XMLID_475_" fill="#E59F7E" d="M1577.9,709.7c-26.8,34.9-38,78.5-45.5,122.3c-1.5,8.5-2.8,17.1-4.1,25.6
				c-9.9,66.1-1.6,87.2-6.1,153.9c-2.6,39.5-116.7,101.1-198.7,93.1c-83.8-8.2-115.5-86.3-97.2-112.2c1.3-1.9,2.2-3.9,3.7-5.6
				c13.8-14,25.4-30,34.8-47.3c21.2-39.1,30.4-84.9,24.9-129.1l5.2-3.4c24.4-49.7,69-89,121.4-107
				C1468.7,682,1528.1,685.6,1577.9,709.7z"/>
			<path id="XMLID_472_" fill="#CF8F72" d="M1559.6,699.3c-26.8,34.9-68.7,145.4-117,189.9c-53.3,49.1-106.8,63.4-177.7,50.3
				c21.2-39.1,30.4-84.9,24.9-129.1l5.2-3.4c24.4-49.7,69-89,121.4-107C1468.7,682,1509.8,675.2,1559.6,699.3z"/>
			<path id="XMLID_469_" fill="#E59F7E" d="M1665,525.5c-2.8-25-31.9-74.1-49.4-92.2c-29-30-48.6-56.5-119-76
				c-34.8-9.6-112.7,3.3-147.7,20c-47.2,22.5-66.7,70.4-76.3,124c-2.8,15.5,1.3,24.3-5.7,38.4c-11.2,22.4-25.9,30.9-35.8,53.8
				c-8.5,19.8-36,215,10.8,239.4c117.5,61.2,202,26.6,280.5-35S1676.1,624.7,1665,525.5z"/>
			<path id="XMLID_466_" fill="#683B11" d="M1356.6,719.9c-48.6-18.8-96-36.4-147.4-51.9c-9.8,49.3-13.3,87.4-11.9,137.7
				c0.3,9.7,0.9,20,6.3,28.2c4.5,6.8,11.7,11.2,18.8,15.2c42.8,23.8,90.7,38.1,139.5,41.6c10.5,0.8,21.2,1,31.1-2.4
				c12.3-4.2,22-13.6,31.3-22.8c19.8-19.4,43.1-36.1,58.5-60.1C1452,763.4,1405.2,738.7,1356.6,719.9z"/>
			<g id="XMLID_459_">
				<path id="XMLID_16_" fill="#212832" d="M1280.5,504.6c18.6,1.6,34.4,7.6,48.9,19.6c4.3,3.5,10.4,4.2,14.6,0
					c3.7-3.7,4.3-11,0-14.6c-9.4-7.8-19.2-14.3-30.5-18.9c-10.5-4.2-21.7-5.8-32.9-6.7c-5.5-0.5-10.3,5.1-10.3,10.3
					C1270.2,500.3,1275,504.1,1280.5,504.6L1280.5,504.6z"/>
			</g>
			<g id="XMLID_452_">
				<path id="XMLID_15_" fill="#212832" d="M1404.6,557.5c28.1-0.6,54.5,12.3,71.9,34.3c3.5,4.4,11,3.6,14.6,0
					c4.3-4.3,3.5-10.2,0-14.6c-20.5-26-53.5-41-86.5-40.4C1391.4,537.2,1391.4,557.8,1404.6,557.5L1404.6,557.5z"/>
			</g>
			<path id="XMLID_449_" fill="#FFFFFF" d="M1239,714.6c0,0,10.9,37.4,27.6,43.7c16.7,6.4,34.4,8.5,52.2,7.3
				c18-1.2,37.2-5.7,53.4-13.6C1306.8,747,1276.6,743.1,1239,714.6z"/>
			<path id="XMLID_448_" fill="#212832" d="M1419.8,632.5c-5.6,12.2-14.7,20.1-20.3,17.5c-5.6-2.6-5.6-14.6,0-26.8
				c5.6-12.2,14.7-20.1,20.3-17.5C1425.4,608.2,1425.5,620.2,1419.8,632.5z"/>
			<path id="XMLID_447_" fill="#212832" d="M1308.5,578.5c-5.6,12.2-14.7,20.1-20.3,17.5c-5.6-2.6-5.6-14.6,0-26.8
				c5.6-12.2,14.7-20.1,20.3-17.5C1314.1,554.2,1314.1,566.2,1308.5,578.5z"/>
			<path id="XMLID_444_" fill="#925F36" d="M981.1,1923c-10.5,66-15,73.5-19.4,123.9c-0.5,6.3-2.5,13.5,2,17.9
				c5.3,4.9,13.8,2.1,20.4-0.8c97.6-43.3,202.2-36.2,309-37.5c124.5-1.5,294,48,393,63c-47.7-60.1-198.8-123.3-271.7-147.2
				c-56.2-18.4-113.3-35.1-172-41.6c-58.7-6.5-119.5-2.5-174.4,19.5"/>
			<g id="XMLID_437_">
				<path id="XMLID_14_" fill="#FFFFFF" d="M979.1,2115.6c74.4-6.3,149.2-7.1,223.6-0.3c21.6,2,43.2,4.6,64.6,7.8
					c3.1,0.5,4.5-4.3,1.3-4.8c-74.4-11.1-149.6-14.6-224.8-11.7c-21.6,0.9-43.2,2.2-64.8,4.1
					C975.9,2110.9,975.9,2115.9,979.1,2115.6L979.1,2115.6z"/>
			</g>
			<g id="XMLID_430_">
				<path id="XMLID_13_" fill="#FFFFFF" d="M1245.3,2053.5c-8.1,42.2-13.2,85-15.3,128c-1,21.4-1.3,42.8-0.7,64.2
					c0.4,17.6-0.3,37.9,10.4,53c4.8,6.8,11.7,12.3,20,14c9.5,2,20.4-0.9,28.9,4.8c2.7,1.8,5.2-2.5,2.5-4.3c-6.5-4.4-14-4.3-21.5-4.6
					c-8.9-0.3-16.4-2.3-22.7-9c-13.2-14.1-12.1-36-12.5-53.9c-1-40.5,0.8-81.1,5.3-121.3c2.6-23.3,6.1-46.5,10.6-69.5
					C1250.8,2051.7,1246,2050.3,1245.3,2053.5L1245.3,2053.5z"/>
			</g>
			<g id="XMLID_423_">
				<path id="XMLID_12_" fill="#212832" d="M1010.6,1951.9c46.8,15.6,92.5,34.6,138,53.5c54.9,22.8,109.4,46.3,163.4,71
					c23.3,10.6,46.5,21.4,69.3,33c2.8,1.4,5.3-2.8,2.5-4.2c-45.3-23-91.9-43.5-138.4-63.8c-54.1-23.6-108.5-46.6-163.5-68.2
					c-23.2-9.1-46.4-18.1-70-25.9C1008.9,1946.2,1007.7,1950.9,1010.6,1951.9L1010.6,1951.9z"/>
			</g>
			<g id="XMLID_416_">
				<path id="XMLID_11_" fill="#212832" d="M956.2,1174.5c4.7,64.7,8.5,129.6,9.9,194.4c1.4,60.2,0.6,120.4-1.8,180.6
					c-1.5,37.3-3.6,74.7-6.1,112c-0.2,3.1,4.7,3.1,4.9,0c4.3-64,7.4-128,8.3-192.1c0.8-60.4-0.4-120.9-3.3-181.3
					c-1.8-37.9-4.3-75.8-7-113.6C960.8,1171.4,956,1171.4,956.2,1174.5L956.2,1174.5z"/>
			</g>
			<g id="XMLID_409_">
				<path id="XMLID_10_" fill="#212832" d="M1169.8,1003.4c-4.6,48.7,23,93,61.8,120.5c20.2,14.3,43.4,24.4,67.7,29
					c26.6,5.1,54.2,4.7,81,1.2c29.7-3.9,59-11.7,86.5-23.7c2.9-1.3,0.4-5.5-2.5-4.2c-46.8,20.5-101.4,30.4-152.3,23.9
					c-47.2-6.1-92.8-32-118.7-72.5c-14.2-22.2-21.1-47.9-18.6-74.2C1175,1000.3,1170.1,1000.3,1169.8,1003.4L1169.8,1003.4z"/>
			</g>
			<path id="XMLID_406_" fill="#683B11" d="M1649.6,476.3c-5.5,11.8-48.4,26.5-61.6,28.2c-6.2,0.8-27.2-2-22.1,20.3
				c5.2,22.3,8.2,75.8-18.6,145.4c25.6,3.5,71.2-24.9,94.1-13.2C1698.5,607.5,1686.9,511.8,1649.6,476.3z"/>
			<g id="XMLID_399_">
				<path id="XMLID_9_" fill="#212832" d="M1697.8,1091.5c-20.6,70.6-36.2,142.7-46.6,215.5c-2.9,20.2-5.4,40.6-7.5,60.9
					c-0.3,3.1,4.5,3.1,4.9,0c7.5-72.6,20.2-144.7,37.8-215.6c5-19.9,10.4-39.8,16.1-59.5C1703.3,1089.8,1698.7,1088.5,1697.8,1091.5
					L1697.8,1091.5z"/>
			</g>
			<g id="XMLID_387_">
				<path id="XMLID_396_" fill="#E59F7E" d="M1943.3,1607.5c-0.8-91.3-7-172.3-43.9-255.9c-6.9-15.6-15-30.6-22.1-46.1
					c-30.5-65.7-42.6-160.1-36.2-235.4c-45.4,12.8-107.3,24-151.3,40.9l18.2,28.1c30.1,67.8,42.2,144.2,41.1,218.3
					c-0.7,49.5-8.6,99.3-2.1,148.4c9.2,69.5,46.6,132,86.6,189.6c5,7.2,11,15,19.7,16.3c5.4,0.8,10.9-1.1,16.1-3
					c24.7-9,51.8-20.1,62.9-43.9C1938.5,1651.4,1943.4,1622.5,1943.3,1607.5z"/>
				<g id="XMLID_388_">
					<path id="XMLID_395_" fill="#E59F7E" d="M1824.2,1114c-12.3,21.5-36.6,34.2-61.1,37.4c-20.6,2.7-54.8-7-63.5-13.5
						c-16-12-21.7-20-26.9-29.2c-5.2-9.2-1.9-14.8-3.5-25.2c-6.1-39-4.2-68.9-1.6-108.4c0.4-6.8,4.2-27.6,6.7-34
						c2.6-6.6,4.2-2,9.3-7c17.6-17.2,42.3-26.1,66.9-27.7c24.6-1.6,49.2,3.6,72.5,11.7c12.5,4.3,25.8,10.4,31.3,22.5
						c4.4,9.7,2,20.8,0.7,31.3c-5,39.2-4.4,51.6-10.5,85.2C1841.7,1071.3,1831.3,1101.5,1824.2,1114z"/>
					<path id="XMLID_394_" fill="#E59F7E" d="M1680.4,1120.4c0,0-12.1-12.1-25.8-28.8c-9.2-11.1-22.4-31.3-30.6-43.1
						c-9.3-13.4-15.6-28.7-23.2-43.2c-13-25-29.8-48.1-49.6-68.2c-3.2-3.2-6.7-7-6.3-11.5c0.5-6.3,8.1-9.3,14.5-9.6
						c13.4-0.5,26.9,5.3,35.9,15.3c11.6,13.1,18,29.6,33.1,38.5c16.9,10,37.9,4.9,55.1,14.5c15.3,8.6,20.2,27.9,23.4,45.2
						c2.8,15.4,5.3,31.2,2.4,46.5C1706.4,1091.5,1695,1114.8,1680.4,1120.4z"/>
					<path id="XMLID_393_" fill="#E59F7E" d="M1697.4,962c-4.7,1.3-10.7,0.9-13.5-3.1l-11-9.4c-0.9-44.5-4.2-68.3-7.9-107.6
						c-2.1-22.4-7.1-44.5-10.7-66.7c-0.7-4.6-1.3-9.6,1.1-13.6c3.6-6,12.8-6.4,18.6-2.5c5.8,3.9,8.9,10.7,11.2,17.3
						c9.6,27.9,8.9,58.5,18,86.6c5.8,17.9,15.5,34.6,17.9,53.2C1723.6,934.9,1715.5,957,1697.4,962z"/>
					<path id="XMLID_392_" fill="#E59F7E" d="M1741.1,932.2c-9.6-6.2-10-19.9-9.4-31.3c1.5-27.7,3.1-55.4,4.6-83
						c1.8-31.7,3.6-64,14.2-93.9c1.7-4.7,4-9.8,8.6-11.7c5.9-2.5,12.9,1.9,15.7,7.7c2.7,5.8,2.3,12.6,1.7,19
						c-4.6,49.9-14,101.1-0.8,149.5c4,14.7,9.5,32.2-0.6,43.6c-5.2,6-13.8,8.4-21.6,7.4s-15.1-4.9-21.3-9.9"/>
					<g id="XMLID_390_">
						<path id="XMLID_391_" fill="#E59F7E" d="M1815.7,936.8c-5.5,7-16.6,7.6-24.1,2.8c-5.3-3.4-8.9-8.8-11-14.8
							c15.8-52,23.4-106.6,22.3-160.9c-0.1-5.7-0.3-11.6,1.5-17c1.8-5.4,6-10.5,11.7-11.5c6.6-1.2,13.2,3.6,16.3,9.6
							c3.1,6,3.5,13,3.8,19.7c1.6,31.7,3.1,63.9-4.1,94.8c-2.2,9.5-3.1,21.2-4.9,30.8c-2.3,12.4-4.6,22.9-7,35.3
							C1819.3,929.4,1818.2,933.5,1815.7,936.8z"/>
					</g>
					<path id="XMLID_389_" fill="#E59F7E" d="M1837.2,977.4c-7.5,1.2-15.2-3.4-18.8-10c-3.6-6.7-3.5-14.9-0.9-22l3.4,3.8
						c-1.1-17,8.5-32.8,19.1-46.1c10.6-13.3,22.8-25.9,28.9-41.8c5.4-14.1,6.9-31.9,20.1-39.2c2-1.1,4.3-1.9,6.5-1.7
						c4.9,0.4,8.4,5.5,8.9,10.4c0.4,4.9-1.4,9.8-3.3,14.4c-14.5,36.3-29,72.6-43.4,108.9C1853.6,964.2,1847.8,975.7,1837.2,977.4z"
						/>
				</g>
			</g>
			<g id="XMLID_379_">
				<path id="XMLID_6_" fill="#925F36" d="M1369.9,573.3l-2.1,1.3c-8.3,22.7-16.7,46.2-15,70.3c0.2,3.3,0.7,6.7,2.5,9.4
					c1.6,2.4,4.1,4.1,6.6,5.6c18.4,11.4,39,19.1,60.4,22.5c12.6,2,26.5,2.2,37-5.1c5.4-3.7,9.3-9.1,13.2-14.4
					c9.8-13.5,19.7-27.1,29.5-40.6C1455.7,611.7,1417.3,571.6,1369.9,573.3z M1463.3,649.1c-4.4,6.6-9.1,13.4-15.9,17.3
					c-13,7.4-29.3,2.4-43.3-2.8c-8.9-3.3-17.9-6.6-26.8-9.9c-2.9-1.1-6-2.2-8.2-4.4c-2.3-2.2-3.5-5.3-4.2-8.4
					c-2.4-11,1.1-22.3,4.5-33.1c2-6.2,4-12.3,6-18.5c0,0,0.7-3.7,3-4.1s4.6,0.6,6.7,1.5c31.2,13.1,62.4,26.2,93.6,39.3
					C1473.6,633.8,1468.5,641.5,1463.3,649.1z"/>
			</g>
			<g id="XMLID_371_">
				<path id="XMLID_3_" fill="#925F36" d="M1236.4,503.7c-3.6,15.8-7.2,31.6-10.9,47.4c-1.4,6.2-2.8,12.5-2.2,18.8
					c1.3,12.3,10.4,22.3,19.9,30.2c16.1,13.4,24,17.7,44,23.8c2.7,0.8,5.5,1.6,8.3,1.2c3.1-0.4,5.9-2.2,8.5-4.2
					c18.7-14.1,30.5-35.2,41.7-55.7l-0.4-2.4C1316.3,527.4,1259.6,515,1236.4,503.7z M1248.2,523.2c29.4,14.4,48,22.9,77.4,37.3
					c2,1-2.1,19.5-5.3,24.9c-5.6,9.4-11.7,19.1-21.2,24.4c-2.7,1.5-5.7,2.6-8.8,2.3c-3-0.2-5.8-1.7-8.4-3.2
					c-8.1-4.4-16.2-8.9-24.3-13.3c-12.7-7-15.9-9.7-18.7-23.9c-1.5-7.5,0.5-15.2,2.5-22.6C1243.6,540.5,1245.9,531.8,1248.2,523.2z"
					/>
			</g>
			<path id="XMLID_368_" fill="#E59F7E" d="M1340.2,549.6c-6,19.4-11.4,39-16.3,58.8c-0.1,0.5-0.2,1.1,0.1,1.5
				c0.3,0.3,0.8,0.3,1.2,0.3c2.4-0.1,4.8-0.2,7.2-0.3c1.1,0,2.3-0.1,3.2-0.7c0.9-0.6,1.5-1.6,2-2.6c8-15.2,16.1-30.5,24.1-45.7
				c0.2-0.5,0.5-1,0.5-1.5c0-1-0.9-1.6-1.7-2.2c-3.8-2.6-7.7-5.2-11.5-7.8c-1.2-0.8-2.5-1.6-3.9-1.8c-1.4-0.2-3.1,0.5-3.5,1.9"/>
			<g id="XMLID_361_">
				<path id="XMLID_2_" fill="#212832" d="M1341.2,518.4c-3.3,54.6-22.9,107.4-55.9,151c-0.8,1.1-0.2,2.8,0.9,3.4
					c7,3.8,12.9,8.9,17.7,15.2c1.9,2.5,6.3,0.1,4.3-2.5c-5.3-7.1-11.7-12.8-19.5-17c0.3,1.1,0.6,2.3,0.9,3.4
					c33.5-44.3,53.2-98.1,56.6-153.5C1346.4,515.2,1341.4,515.2,1341.2,518.4L1341.2,518.4z"/>
			</g>
			<path id="XMLID_358_" fill="#683B11" d="M1473.2,817.4c69.6-85.8,89-146.6,118.4-226.3c-7.6,1.2-15.5,0.1-22.4-3.1
				c-23,89-86.6,153.3-159.1,209.9"/>
			<path id="XMLID_355_" fill="#925F36" d="M1332.5,558.3c10.7-4.9,21.8-1.3,31,6c3.1,2.5,5.8,5.6,6.9,9.4c2.3,7.3-1.4,15-5,21.8
				c-3.7-7.3-7.5-14.9-14-19.9c-6.5-5-16.6-2.9-23,2.2"/>
			<path id="XMLID_352_" fill="#925F36" d="M1479.6,616c15.5,5.6,32.1,7.6,48.4,9.6c25.8,3.1,51.7,6.1,77.5,9.2
				c-1.9,4.5-3.8,9-5.7,13.6c-38.6-7.5-77.9-11.2-117.3-10.8"/>
			<path id="XMLID_349_" fill="#E59F7E" d="M1647.1,650.4c-5.5-25.2-40-21.7-55.4-13.1c-19.7,10.9-30.9,27.8-40.5,52.5
				c-14.4,29.7-24.5,55-26.2,87.9c6.7-7,7.8-10.5,17.2-8.6c6.5,1.3,14.4,8.3,19.7,12.1c15.3,10.8,28.3-5.6,36.2-22
				c3.5-7.3,15.1-33.9,22.9-41.9C1640.7,697,1652.2,674.1,1647.1,650.4z"/>
		</g>
	</g>
</g>
</svg>
