<svg xmlns="http://www.w3.org/2000/svg" viewBox="0 0 1917.72 1372.08"><defs><style>.cls-1{isolation:isolate;}.cls-2{fill:#683c11;}.cls-3{fill:#7d4e24;}.cls-4{fill:#936037;}.cls-5{fill:#ca9e67;}.cls-6{fill:#914428;}.cls-7{fill:#b4b4b4;mix-blend-mode:multiply;}.cls-8{fill:#f7b6a0;}.cls-9{fill:#be1622;}.cls-10{fill:#733014;}.cls-11{fill:#f6ad96;}.cls-12{fill:#f2937c;}.cls-13{fill:#302d4d;}.cls-14{fill:#e30613;}.cls-15{fill:#2c4367;}.cls-16{fill:#f39d94;}.cls-17{fill:#7f482e;}.cls-18{fill:none;stroke:#ee756d;stroke-linecap:round;stroke-linejoin:round;stroke-width:4.99px;}.cls-19{fill:#001522;}.cls-20{fill:#0b2230;}.cls-21{fill:#1d394c;}.cls-22{fill:#432918;}.cls-23{fill:#211d35;}</style></defs><g class="cls-1"><g id="Capa_1" data-name="Capa 1"><path class="cls-2" d="M1617.51,1104.22v502.27c0,15.76,15.11,28.55,33.75,28.55h325.5c18.61,0,33.72-12.79,33.72-28.55V1104.22Z" transform="translate(-101.8 -374.62)"/><path class="cls-3" d="M1854.56,1104.22V1635h122.2c18.61,0,33.72-12.79,33.72-28.55V1104.22Z" transform="translate(-101.8 -374.62)"/><path class="cls-4" d="M975.37,745h540l71.93,625.84h-540c-42.74,0-77.4-29.31-77.4-65.48L898,810.43C898,774.26,932.63,745,975.37,745Z" transform="translate(-101.8 -374.62)"/><path class="cls-5" d="M1103.11,1305.31c0,36.17,34.63,65.48,77.39,65.48h473.28c42.74,0,77.4-29.31,77.4-65.48l-71.93-494.88c0-36.17-34.66-65.48-77.4-65.48H1108.57c-42.76,0-77.39,29.31-77.39,65.48Z" transform="translate(-101.8 -374.62)"/><rect class="cls-5" x="1004.04" y="931.83" width="748.72" height="328.59"/><rect class="cls-2" x="1004.04" y="1162.75" width="748.74" height="97.67"/><path class="cls-3" d="M1845.72,1519.29H1139.84c-18.76,0-34-11.26-34-25.15v-196c0-9.36,15.77-20.09,34-25.15,279.12-39.31,680.73,0,680.73,0,20.89,5.35,27.28,11.2,34,25.15v212.26S1855.44,1519.29,1845.72,1519.29Z" transform="translate(-101.8 -374.62)"/><path class="cls-4" d="M1854.56,1300.35H1105.84v193.79c0,13.89,15.24,25.15,34,25.15h705.88c9.72,0,8.84-8.86,8.84-8.86Z" transform="translate(-101.8 -374.62)"/><path class="cls-6" d="M1973.92,1635.37h-54.19l64.92,99.08s7,12.25,23.53,12.14c0,0,16.89,2.26,9.45-13.77Z" transform="translate(-101.8 -374.62)"/><path class="cls-7" d="M1919.73,1635.37l64.92,99.08s7,12.25,23.53,12.14c0,0,13.82,1.81,10.88-9.78a11.07,11.07,0,0,1-4.39,3.72c-7.31,3.11-15.62-.11-20.75-5.93l-50.46-99.23Z" transform="translate(-101.8 -374.62)"/><path class="cls-6" d="M1644.73,1635.37h-54.19l64.93,99.08s7,12.25,23.51,12.14c0,0,16.91,2.26,9.46-13.77Z" transform="translate(-101.8 -374.62)"/><path class="cls-7" d="M1590.54,1635.37l64.93,99.08s7,12.25,23.51,12.14c0,0,13.84,1.81,10.88-9.78a10.77,10.77,0,0,1-4.38,3.72c-7.3,3.11-15.62-.11-20.75-5.93l-50.45-99.23Z" transform="translate(-101.8 -374.62)"/><path class="cls-4" d="M228.29,745h540l71.93,625.84h-540c-42.74,0-77.4-29.31-77.4-65.48L150.89,810.43C150.89,774.26,185.55,745,228.29,745Z" transform="translate(-101.8 -374.62)"/><path class="cls-5" d="M356,1305.31c0,36.17,34.63,65.48,77.4,65.48H906.7c42.74,0,77.4-29.31,77.4-65.48L912.17,810.43c0-36.17-34.66-65.48-77.4-65.48H361.5c-42.77,0-77.4,29.31-77.4,65.48Z" transform="translate(-101.8 -374.62)"/><rect class="cls-5" x="256.96" y="931.83" width="748.72" height="328.59"/><rect class="cls-2" x="256.96" y="1162.75" width="748.74" height="97.67"/><path class="cls-3" d="M1098.64,1519.29H392.76c-18.76,0-34-11.26-34-25.15v-196c0-9.36,15.77-20.09,34-25.15,279.12-39.31,680.73,0,680.73,0,20.9,5.35,27.28,11.2,34,25.15v212.26S1108.36,1519.29,1098.64,1519.29Z" transform="translate(-101.8 -374.62)"/><path class="cls-4" d="M1107.48,1300.35H358.76v193.79c0,13.89,15.24,25.15,34,25.15h705.88c9.72,0,8.84-8.86,8.84-8.86Z" transform="translate(-101.8 -374.62)"/><path class="cls-6" d="M426.14,1635.37h54.2l-64.93,99.08s-7,12.25-23.5,12.14c0,0-16.92,2.26-9.47-13.77Z" transform="translate(-101.8 -374.62)"/><path class="cls-7" d="M480.34,1635.37l-64.93,99.08s-7,12.25-23.5,12.14c0,0-13.85,1.81-10.89-9.78a10.77,10.77,0,0,0,4.38,3.72c7.3,3.11,15.61-.11,20.74-5.93l50.45-99.23Z" transform="translate(-101.8 -374.62)"/><path class="cls-6" d="M147.4,1635.37h54.2l-64.93,99.08s-7,12.25-23.51,12.14c0,0-16.92,2.26-9.46-13.77Z" transform="translate(-101.8 -374.62)"/><path class="cls-7" d="M201.6,1635.37l-64.93,99.08s-7,12.25-23.51,12.14c0,0-13.84,1.81-10.88-9.78a10.81,10.81,0,0,0,4.37,3.72c7.32,3.11,15.64-.11,20.75-5.93l50.44-99.23Z" transform="translate(-101.8 -374.62)"/><path class="cls-2" d="M121.72,1104.22v502.27c0,15.76,15.1,28.55,33.73,28.55H481c18.62,0,33.74-12.79,33.74-28.55V1104.22Z" transform="translate(-101.8 -374.62)"/><path class="cls-3" d="M358.76,1104.22v502c0,28.84,27.61,28.84,27.61,28.84H481c18.62,0,33.74-12.79,33.74-28.55V1104.22Z" transform="translate(-101.8 -374.62)"/><polygon class="cls-8" points="1416.14 861.79 1514.29 855.6 1521.53 820.33 1413.61 795.17 1416.14 861.79"/><path class="cls-9" d="M1531.16,1237.45c-6.12,8.76-34.42,11.74-44.73,12.74a207.1,207.1,0,0,1-50.32-.73c-33.22-4.82-64.09-2.69-97.56-.29-32.28,2.31-64.23,9.91-96.74,11-28.79.92-60,1.15-89.54-2.3s-57.22-15.07-86.56-18.09c-15.19-1.56-8.18-8.28-4.93-22.42,2.38-10.41,0,0,3-10.33,7-24.28,15.21-49.5,33.11-68.14,9.4-9.77,21-16.63,34.81-17.77l415.42,48.86S1553.92,1204.79,1531.16,1237.45Z" transform="translate(-101.8 -374.62)"/><path class="cls-10" d="M781.37,596c13.67,19,28.87,45.28,53.3,46.7,24.06,1.39,53-15.61,73.11-27.25,46.91-27.11,60-69.86,49.56-119.09-12.51-59.17-87.69-67.8-133.12-55.68C768.31,455.58,750.53,553.07,781.37,596Z" transform="translate(-101.8 -374.62)"/><path class="cls-10" d="M797.59,411.93c6.13-12,14.91-13.76,26.1-17.34,13-4.17,15.28-12.25,26.37-17.61,29.3-14.18,45,39.37,39,59-7.27,24-38.33,44.16-66.93,39.55C794.57,471,786.49,433.62,797.59,411.93Z" transform="translate(-101.8 -374.62)"/><path class="cls-8" d="M1274.09,1003.54l0-21.81c-123.31-13.18-179.73-32.89-179.73-32.89C1070,936.31,1065.46,921,1054.92,898c-23.74-51.7-39.79-100.42-61.41-153.07-6.47-15.09-19.23-33.61-32.81-37.32-35.63-9.75-52-10.52-61.7-1.56,1.79,60.66,27.75,130.12,95.31,225.22,23,32.3,48.22,65.21,85,69.87C1079.27,1001.16,1191.55,1009.85,1274.09,1003.54Z" transform="translate(-101.8 -374.62)"/><path class="cls-11" d="M1320.52,955.41c6.15,10.85-29.15,15.05-34.76,18.66,8-1.52,37.85-9.57,41.65-2.22,1.83,4.56-25.72,8-30.71,9.7,4.89,0,24.18-3,25.58,2.66,0,4.18-18.92,6-24.57,7.48,1.44.43,19-1.29,17.92,2.3-.83,3.55-12.83,6.6-18.9,7.66-27.42,4.79-57.58,10.89-55.79-8.13,1.35-14.2,2.49-22,34.55-47.73,5.53-4.43,7,8.4-2.14,19.56C1276.45,967.17,1319.78,954.11,1320.52,955.41Z" transform="translate(-101.8 -374.62)"/><path class="cls-12" d="M1269.63,972.78l.76-.86c1-1.18-2.25-1.64-3-.85a12,12,0,0,0-.87,1.12.56.56,0,0,0,.2.73c.19.13-1.37,3.27-1.23,4,.34,1.76-1.38,3.45-2.63,4.44-2.74,2.17-6.16,2.26-9.34,3.23-2.68.82-.34,2.41,1.33,2.41a22.13,22.13,0,0,0,13.06-4.74c1.25-1,3.12-3.35,2.59-5.12-.67-2.27,2.3-4.13-.72-5.36l.51.94a7.34,7.34,0,0,0,.29-1.21c.13-1.09-3.27-1.22-3.42,0l-.12,1c-.11.89,2.16.77,2.54.34Z" transform="translate(-101.8 -374.62)"/><polygon class="cls-8" points="723.79 311.45 603.39 355.76 669.68 652.57 828.35 652.57 858.9 333.01 780.13 311.45 723.79 311.45"/><path class="cls-8" d="M889.08,689.59H817.85V604.52h71.23S881.48,671.54,889.08,689.59Z" transform="translate(-101.8 -374.62)"/><path class="cls-12" d="M886.55,678.06c-2.9-25.73,2.53-73.54,2.53-73.54H817.85v27.59C831.42,659.1,855.84,681.57,886.55,678.06Z" transform="translate(-101.8 -374.62)"/><path class="cls-13" d="M961.43,776.5l-26.84,241.92c-32.08,16.3-49.78,7.18-99.08,12.47-59.43,6.38-69.17-24.36-69.17-24.36L720.93,850.78c16.92-1.72,33-10.79,44.37-27.14,12.17-17.45,12.91-39.26,12.38-59.73-.49-19.25-1.87-38.77-8.1-57.23l18.69-6.87s23.86,77.8,79.72,80.92c0,0,40.75,10.4,67.2-80.09l17.93,4.91S945.69,737,961.43,776.5Z" transform="translate(-101.8 -374.62)"/><path class="cls-8" d="M936.62,573.79c-5.34,26-19.1,70.72-40.53,83.55-26,15.56-78.72-29.6-92.36-53.73-17.07-30.18-9.6-77.33,3.22-108.48A66.52,66.52,0,0,1,898,460.43C933.57,477.57,943.63,539.69,936.62,573.79Z" transform="translate(-101.8 -374.62)"/><path class="cls-12" d="M808.35,493.71a67.85,67.85,0,0,1,11.4-17.79l-4.83,86.94L809,595.36l-4.74,9.75c-.65-1-1.24-2.05-1.76-3C786.18,571.5,794.78,524.55,808.35,493.71Z" transform="translate(-101.8 -374.62)"/><path class="cls-8" d="M786.15,536c-11.32,9.53-7.5,40.52,12.61,52.3,5.68-5.34,6.82-20.86,8.12-28.47S809,545.18,805,538.42C803.69,536.34,794.51,529,786.15,536Z" transform="translate(-101.8 -374.62)"/><path class="cls-12" d="M798.08,558.2c-.24,1.3-.08,4.16-1.21,5a3.75,3.75,0,0,1-1,.57c1.62-.57,1.89.71,1.31-.1-1-1.39-1.12-3.35-1.24-5-.19-2.73,1-6.91-1.42-9a2.53,2.53,0,0,0-2.76,0c-1.78,1.27-1.88,3.51-1.84,5.49a22.74,22.74,0,0,0,1.3,8.1c1.09,2.66,4.07,3.35,6.66,2.8a7.76,7.76,0,0,0,3.58-2c1.27-1.16.29-4.4.19-5.87-.08-1.26-3.36-1.21-3.58,0Z" transform="translate(-101.8 -374.62)"/><path class="cls-12" d="M798.64,550.7c-1.45-5.33-8.71-4.51-11.94-1.55-5.27,4.83-2.39,15.24,2.92,18.72.41.27,2.67.67,2.55-.33-.37-2.95-2.11-5.72-2.73-8.65s2-14.27,6.3-8c.41.6,3.17.76,2.9-.2Z" transform="translate(-101.8 -374.62)"/><path class="cls-10" d="M847.65,449.23a21.55,21.55,0,0,1,4.21,8.47c3.61,6.95,12.85,34.65,14.73,39,5.11,11.72-4.76,18.66-13.42,24.29-2.73,1.77-5.49,3.52-8.23,5.32-8.2,5.41-16.07,11.29-21.42,19.76-3.54,5.6-8.6,22-17.48,21,1.2-8.87,1.49-27.37-11-32.24-1.51-.91-7.11-1.51-13.62,7.39,0,0-9.21-90.34,66.26-92.92" transform="translate(-101.8 -374.62)"/><path class="cls-10" d="M868.41,501.24l-20.76-52c13.87-12.59,52.27-1.6,52.29-1.6,13.28,3.8,39.42,18.28,48.71,60.51,0,0,11.36,32.37-24.49,109,13.86-37.2,18.57-62.29,8.41-90.43C922.19,528,899,520.78,891.8,515.52c-7.9-5.78-18.69-11.52-25.21-18.85" transform="translate(-101.8 -374.62)"/><path class="cls-14" d="M934.59,1018.42s-82.58,3.47-189.75.68c-42.12,64.4-67.58,119.76-59.65,185.24,0,0,16.72,53,98.5,58l164.83-25.66,145.63,5.38s126.26-97,35.27-124.17L969.2,1082.31Z" transform="translate(-101.8 -374.62)"/><path class="cls-15" d="M850.6,1262.32" transform="translate(-101.8 -374.62)"/><path class="cls-16" d="M878.6,581.37c-.69,3.45-7.83,4.93-16,3.32s-14.16-5.71-13.48-9.15,7.83-4.93,16-3.32S879.27,577.93,878.6,581.37Z" transform="translate(-101.8 -374.62)"/><path class="cls-16" d="M932.54,592.06c-.69,3.45-6.55,5.18-13.11,3.89s-11.3-5.14-10.61-8.59,6.54-5.18,13.09-3.88S933.21,588.62,932.54,592.06Z" transform="translate(-101.8 -374.62)"/><path class="cls-17" d="M922.7,565.35c-2.9-.39-5.9,3.29-6.68,8.18s.93,9.17,3.85,9.54,5.91-3.28,6.7-8.18S925.62,565.71,922.7,565.35Z" transform="translate(-101.8 -374.62)"/><path class="cls-17" d="M872.46,555.36c-2.92-.37-5.92,3.29-6.7,8.2s.94,9.17,3.86,9.55,5.92-3.3,6.69-8.2S875.37,555.75,872.46,555.36Z" transform="translate(-101.8 -374.62)"/><path class="cls-12" d="M900.16,562.29c-3.41,2.65-2.36,8.92-1.32,12.49,1.31,4.47,6.18,8.35,5.91,13.15-.19,3.38-4.23,5-7,5.74a33.56,33.56,0,0,1-9.72,1.19l2.66,1c-.63-2-3.92-1.61-5-.32-1.26,1.45,1.36,2,2.39,2,6.29,0,16.21-1.06,20-6.86,2.55-3.92-1.27-8.37-3.32-11.48a20.71,20.71,0,0,1-3.41-8.46c-.35-2.34-.91-6.16.66-8.1.47-.58-1.5-.66-1.85-.38Z" transform="translate(-101.8 -374.62)"/><path class="cls-18" d="M877.4,611.11S888,623.61,900.79,615" transform="translate(-101.8 -374.62)"/><path class="cls-10" d="M860.68,549.65c4.44-1.81,9.23-3.13,13.89-1.33,3.91,1.51,6.06,4.91,9.31,7.24,1.1.79,6.83,1.35,5.85-1.2-1.94-5-9.32-8.61-14.33-9.57a24.63,24.63,0,0,0-17.81,3.35c-2.24,1.33,2,2,3.09,1.51Z" transform="translate(-101.8 -374.62)"/><path class="cls-10" d="M938.09,561c-7-7.31-20.82-8.87-29-2.29-2.28,1.84,3.42,2.43,4.37,2.14,2.8-.84,5.37-2.2,8.26-2.73,4.5-.83,9,1.52,12.56,4,.91.62,5.26.49,3.76-1.08Z" transform="translate(-101.8 -374.62)"/><path class="cls-13" d="M941.14,902.32c-13.71,9.22-47.21,10.77-61.12-1.11-18.14-15.48-3.94-46.16,3.68-63.07a164.79,164.79,0,0,1,32-46.44c6.44-6.68,13.44-13.53,21.08-18.86,9.77-6.84,15.92-15.75,20.6-5.48,15.15,33.23,28.72,68.83,26.89,89.27C982.58,875,966.51,885.26,941.14,902.32Z" transform="translate(-101.8 -374.62)"/><path class="cls-8" d="M690.81,1038.27c117.13,16.26,129.18,19.81,250,45l7.28-25.36C894,1036.4,755,985.69,755,985.69c-34-19.37-25.12-40.8-25.12-40.8,11.63-66.7,36.49-159.5,36.49-159.5-7.79-57.21-44.86-65.62-72.61-49-17.45,24.92-37.27,52.94-33.24,257.79C660.49,994.19,657.84,1023.36,690.81,1038.27Z" transform="translate(-101.8 -374.62)"/><path class="cls-8" d="M1003.47,1105c8-1.19,28.46-.56,30.3-10.88,2-11.23-17.69-20.2-25.85-23.89-12.16-5.52-47.43-14.3-60.25-15.53-15.49-1.5-24.25,7.21-6,28.45C955.84,1099.66,982.46,1108.13,1003.47,1105Z" transform="translate(-101.8 -374.62)"/><rect class="cls-19" x="798.71" y="775.68" width="302.03" height="14.45"/><polygon class="cls-20" points="1187.99 790.12 906.9 790.12 931.55 591.7 1212.65 591.7 1187.99 790.12"/><polygon class="cls-21" points="896.89 790.12 906.9 790.12 931.55 591.7 921.55 591.7 896.89 790.12"/><path class="cls-21" d="M1184.06,1060.75a22.49,22.49,0,1,1-22.48-22.48A22.48,22.48,0,0,1,1184.06,1060.75Z" transform="translate(-101.8 -374.62)"/><polygon class="cls-11" points="940.05 832.76 1000.67 838.11 999.7 884.25 939.14 882.62 940.05 832.76"/><path class="cls-22" d="M1084.06,1259c26.15,7.2,100.78,1.16,127.94-9.14,32.88-12.48,30.61-78.3-10.8-68.87-37.52,8.54-77,23.87-115.21,27C1086,1208,1063.2,1225.64,1084.06,1259Z" transform="translate(-101.8 -374.62)"/><path class="cls-9" d="M1084.06,1259c9.35-19.27,4.07-59.48,4.07-59.48l-32.68-17.17c-40.35-31.38-88.23-51.76-127.72-84.17-30.6-25.1-60.51-67-105-62.54-30.06,3-50.79,25.6-68,48.28-28.74,37.79-69.55,68.61-69.55,120.42,0,43.76,58,76.6,89.35,71.66,23.14-3.66,57.91-32.82,70.77-50.39l34.53-42.6s13.73,44.72,147,72.78C1026.88,1255.79,1066.51,1264.27,1084.06,1259Z" transform="translate(-101.8 -374.62)"/><path class="cls-22" d="M1557.1,1233.94c26.45,5.8,52.61-1.39,70.13,3.14,14.86,3.84,31.52,15.5,46.89,17.26,19.85,2.27,26.17-7.17,35.31-22.16,7.8-12.8,18.56-20.28,31.47-27.71,9.37-5.39,40.54-28.48,14.9-33-15-2.63-22.57,4.11-36.94,8.58-20.15,6.26-17.82,6.61-51.33,10.83-16.42,2.06-70.15-6.09-111.26-15.91C1556.27,1175,1553.19,1219.49,1557.1,1233.94Z" transform="translate(-101.8 -374.62)"/><path class="cls-23" d="M774.64,842.16c.1,21.15,16.45,40,34.84,48.55,10.31,4.81,21.83,6.6,33.14,6.36a94.48,94.48,0,0,0,18.93-2.52c6.09-1.4,13.26-2.94,18-7.18,1.12-1-1.48-1.39-2-1.29-6.25,1.09-12.07,3.42-18.22,5a83.73,83.73,0,0,1-18,2.47,61.09,61.09,0,0,1-51.81-25.63c-5.84-7.82-9.26-16.93-13-25.85-.21-.49-1.84-.5-1.84.12Z" transform="translate(-101.8 -374.62)"/><path class="cls-23" d="M906.6,881c1.76,9.84,16.34,15.34,25,16.93a38.06,38.06,0,0,0,16.71-.83,28.2,28.2,0,0,0,6.55-2.65c2.4-1.34,4.36-4.23,7-5,.83-.23.06-.69-.4-.72-3.43-.19-7.58,1.17-10.58,2.7-4.27,2.17-9.32,2.36-14,2.22-10-.3-18.74-6.94-25.87-13.28-.66-.58-4.64-1-4.36.58Z" transform="translate(-101.8 -374.62)"/></g></g></svg>