<?xml version="1.0" encoding="utf-8"?>
<!-- Generator: Adobe Illustrator 24.2.1, SVG Export Plug-In . SVG Version: 6.00 Build 0)  -->
<svg version="1.1" xmlns="http://www.w3.org/2000/svg" xmlns:xlink="http://www.w3.org/1999/xlink" x="0px" y="0px"
	 viewBox="0 0 800 600" enable-background="new 0 0 800 600" xml:space="preserve">
<g id="Layer_2">
</g>
<g id="Layer_1">
	<g>
		<g>
			<polygon fill="#FAD9BC" points="251.1,429.6 233.6,396 293.2,373.9 302.1,410.1 			"/>
			<polygon fill="#F5F5F5" points="309,417.3 304.5,404.9 247.9,428.9 253.1,440 			"/>
			<path fill="#2B2B2B" d="M453.3,451.4l-32-55c-2.9,37.2-16.1,133.7-38.2,137.4c-30.9,5.1-52.6-52.4-71.7-121.1l-63.7,24.2
				c0,0,45.4,169,143.6,153.3C434.5,583.3,442.7,523.6,453.3,451.4z"/>
			<g>
				<path fill="#484848" d="M269.3,444.7c0.8,2.8-0.9,5.7-3.7,6.5c-2.8,0.8-5.7-0.8-6.5-3.6c-0.8-2.8,0.9-5.7,3.7-6.5
					C265.6,440.3,268.5,441.9,269.3,444.7z"/>
				<path fill="#484848" d="M277.3,461.3c0.8,2.8-0.9,5.7-3.7,6.5c-2.8,0.8-5.7-0.8-6.5-3.6c-0.8-2.8,0.9-5.7,3.7-6.5
					C273.6,456.9,276.5,458.5,277.3,461.3z"/>
				<path fill="#484848" d="M285.1,477.4c0.8,2.8-0.9,5.7-3.7,6.5c-2.8,0.8-5.7-0.8-6.5-3.6c-0.8-2.8,0.9-5.7,3.7-6.5
					C281.4,473,284.3,474.6,285.1,477.4z"/>
			</g>
			<g>
				<path fill="#FAD9BC" d="M285.6,344.7c0,0-1.9,19.6-13.5,42l22.6-13.2c0,0,18.6-20.7,15-37.3L285.6,344.7z"/>
			</g>
			<path opacity="7.000000e-02" d="M296.2,386.3l-3-12l0,0l0,0l1.4-0.8c0,0,0.5-0.6,1.4-1.6c-1.5-9.7-3.6-19.2-5.9-28.7l-4.5,1.6
				c0,0-0.1,0.6-0.2,1.6c0,0.4-0.1,0.8-0.2,1.2c0,0.2-0.1,0.5-0.1,0.7c-1,5.8-3.6,18.2-10.1,32.4L233.6,396l8.7,16.6L296.2,386.3z"
				/>
			<g>
				<g>
					<path fill="#F5F0E1" d="M200.7,225.1c-33.3,16.8-65.1,32.1-95.5,46c61.4,34.8,104.8,84,126.7,139.9l27.7-12.9
						c10.4-8.4,21.3-17.3,32.9-26.6C278.4,316.1,247,265.4,200.7,225.1z"/>
				</g>
				<g>
					<path fill="none" d="M277.2,354.7c-5.4-14.7-12.1-29-20-42.8c0.7,10.8-5.4,22.7-15.6,29.6c-10.8,7.3-23.4,7.6-33.6,2.2
						c10.1,13.9,18.7,28.6,25.7,43.8c0.1,0,0.1-0.1,0.2-0.1c6.8-5.2,15.2-3.3,18,4.5c5.9-4.7,12-9.5,18.3-14.4
						C267.6,369.9,270.5,359.7,277.2,354.7z"/>
					<path fill="none" d="M208.7,295.3c12-6.9,26.8-7.5,36.7-2c-9.9-14.4-21.2-28.1-34-40.9c-9.1,4.8-22.5,3-30.6-3.6
						c-9.6,4.8-19,9.5-28.3,14.1c8.9,6.6,7.4,16.4-2.6,21.4c-0.1,0-0.2,0.1-0.3,0.1c16.2,12.4,30.6,26,43.3,40.5
						C190.5,314.1,196,302.6,208.7,295.3z"/>
					<path fill="#59756A" d="M273,382.4c4.9-3.9,10-8,15.2-12.1c-1.7-6.1-3.6-12.1-5.6-18c-13.5-38.4-35.6-73.9-65.5-104.6
						c-5.5-5.7-11.3-11.1-17.3-16.5c-7.9,4-15.7,7.9-23.4,11.8c-11,5.5-21.8,10.7-32.5,15.9c-9.1,4.4-18.1,8.6-26.9,12.8
						c8.1,4.9,15.9,10.1,23.3,15.5c40,29.3,70.1,65.6,88.8,105.9c2.5,5.4,4.8,10.8,6.8,16.3l8.9-4.1c2.6-2.1,5.3-4.3,8-6.5
						C259.3,393.3,266,387.9,273,382.4z M192.9,324.9c-12.7-14.6-27.1-28.1-43.3-40.5c0.1,0,0.2-0.1,0.3-0.1
						c10-5,11.6-14.8,2.6-21.4c9.3-4.6,18.8-9.2,28.3-14.1c8.1,6.6,21.5,8.4,30.6,3.6c12.7,12.8,24.1,26.5,34,40.9
						c-9.9-5.5-24.7-4.9-36.7,2C196,302.6,190.5,314.1,192.9,324.9z M233.8,387.4c-0.1,0-0.1,0.1-0.2,0.1
						c-7-15.2-15.6-29.8-25.7-43.8c10.2,5.4,22.8,5.1,33.6-2.2c10.2-7,16.3-18.8,15.6-29.6c7.9,13.7,14.6,28,20,42.8
						c-6.7,5-9.5,15.2-7,22.8c-6.3,4.9-12.4,9.7-18.3,14.4C249,384.1,240.6,382.2,233.8,387.4z"/>
				</g>
			</g>
			<g>
				<g>
					<path fill="#F5F0E1" d="M219.5,218.6c-35.1,13.1-69.4,25.5-103,37.1c58.1,39.8,98.3,94.2,116.6,154.8l24.5-11.4
						c11-6.8,22.5-13.9,34.7-21.4C283.7,319.3,258.7,264.4,219.5,218.6z"/>
				</g>
				<g>
					<path fill="#59756A" d="M217.6,224.6c-8.3,3.1-16.6,6.2-24.9,9.3c-11.7,4.3-23.4,8.6-34.9,12.7c-9.9,3.5-19.7,7-29.4,10.4
						c7.4,5.5,14.5,11.2,21.3,17.2c36.6,32.2,63.7,70.9,79.9,113.4c2.5,6.5,4.7,13,6.6,19.6c5.3-3.2,10.7-6.5,16.3-9.9
						c6.6-4,13.4-8.1,20.4-12.4c5-3,10.1-6.1,15.2-9.3c-1.1-6.4-2.3-12.8-3.8-19.1c-9.4-40.7-27.1-79.2-52.2-113.4
						C227.6,236.8,222.8,230.6,217.6,224.6z M234.7,383c-0.1,0-0.1,0.1-0.2,0.1c-6-16-13.4-31.6-22.4-46.4
						c9.8,6.6,22.4,8.2,33.7,2.6c10.7-5.3,17.6-16.1,18.1-26.9c6.3,14.8,11.4,30.1,15.3,45.7c-6.8,3.8-10.3,13.4-8.5,21.4
						c-6.4,3.8-12.5,7.4-18.6,11C249.9,382.3,241.8,379,234.7,383z M196.4,240.2c7.1,7.5,20.1,10.7,29.7,7
						c10.8,14.3,20.2,29.3,28.3,45c-9-6.9-23.6-8.2-36.5-2.8c-13.5,5.6-20.5,16.3-19.2,27.1c-11.3-15.6-24.4-30.4-39.1-44
						c0.1,0,0.2-0.1,0.3-0.1c10.9-4,13.8-13.5,5.9-20.9C176,247.7,186.2,244,196.4,240.2z"/>
				</g>
			</g>
			<g>
				<path fill="#F5F0E1" d="M236.8,408.6c17.8-8.1,37.2-17.1,58.1-26.9c-4.1-60.1-23.6-117.6-56.6-167.5
					c-36.1,10-72,19.8-107.8,29.5C184.7,287.5,221.5,345.2,236.8,408.6z"/>
				<g>
					<path fill="#59756A" d="M235.7,220.1c-8.6,2.4-17.2,4.8-25.7,7.1c-12.2,3.4-24.4,6.7-36.5,10c-10.4,2.8-20.8,5.7-31.1,8.5
						c6.8,5.9,13.3,12.1,19.4,18.4c33.3,34.3,57.7,74.6,71.8,118.2c2.1,6.6,4.1,13.3,5.7,20.1c5.4-2.4,10.8-4.9,16.5-7.4
						c6.6-3,13.4-6.1,20.4-9.3c5-2.3,10-4.6,15.1-6.9c-0.6-6.6-1.4-13.1-2.3-19.7c-6.2-42.1-20.1-82.4-41-119.2
						C244.2,233.3,240.1,226.7,235.7,220.1z M238.9,378.6c-0.1,0-0.1,0.1-0.2,0.1c-5.1-16.5-11.6-32.6-19.5-48
						c9.5,7.4,22,10.5,33.4,6.4c10.9-3.9,18.5-13.7,19.8-24.5c4.9,15.5,8.8,31.3,11.4,47.5c-6.8,2.9-10.9,11.9-9.6,20.1
						c-6.4,2.8-12.6,5.6-18.6,8.2C253.9,379.9,246.2,375.6,238.9,378.6z M212.9,233.9c6.1,8.1,18.8,12.5,28.6,9.7
						c9.1,15.3,16.9,31.3,23.4,47.8c-8.2-7.9-22.5-10.7-35.9-6.6c-14,4.3-22.1,14.2-21.8,24.8c-10.1-16.4-21.8-31.9-35.1-46.5
						c0.1,0,0.2,0,0.3-0.1c11.6-3.1,15.6-12.3,8.5-20.3C191.6,239.8,202.2,236.8,212.9,233.9z"/>
				</g>
			</g>
			<path opacity="7.000000e-02" d="M285.6,322.1c-11.5-1.9-44.5-5.9-34.5,25.6c11.4,35.9,38,2,39-4.5
				C288.7,334.6,287.7,330.5,285.6,322.1z"/>
			<path fill="#FAD9BC" d="M288.5,318.8c0,0-50.4-12.1-38.3,25.8c12.1,37.9,40-1.5,40-1.5l19.6-7
				C308.2,328.9,302.3,322.3,288.5,318.8z"/>
			<g>
				<path fill="#FAD9BC" d="M204.2,366.8c-11.6,16-7.5,38.1,23.9,34.9c-5.8-13.2-12.9-26-21.1-38.3
					C205.9,364.6,205,365.7,204.2,366.8z"/>
				<path fill="#FAD9BC" d="M216.9,357c-3.2,1.2-7.5,3.8-9.9,6.5l13.4,22.4c6.1-0.8,34.2-5.3,33.5-20.1
					C253.1,350,236.1,349.7,216.9,357z"/>
				<path opacity="7.000000e-02" d="M253.9,367.1c-0.9,13.8-27.6,18.1-33.5,18.8l-0.2-0.4c0.6,1.1,35.1,1.8,34.3-14.8
					C254.4,369.4,254.2,368.2,253.9,367.1z"/>
			</g>
			<path fill="#FAD9BC" d="M204.2,366.8c0.8-1.1,1.7-2.2,2.8-3.4c2.4-2.6,6.7-5.3,9.9-6.5c8.8-3.3,17.2-5.1,23.7-4.4
				c0.1-0.7,0.2-1.4,0.1-2.1c-0.8-15.7-17.9-16-37-8.8c-4.6,1.7-10.1,6.2-12.7,9.8c-9.1,12.5-8.6,28.8,7.3,33.7
				C197.8,379.3,199.9,372.6,204.2,366.8z"/>
			<path opacity="7.000000e-02" d="M207,363.4c2.4-2.6,6.7-5.3,9.9-6.5c8.8-3.3,17.2-5.1,23.7-4.4c0.1-0.6,0.1-1.2,0.1-1.8
				c-6.9-1.6-16.4,0.1-26.6,4c-3.2,1.2-7.5,3.8-9.9,6.5c-1,1.1-2,2.3-2.8,3.4c-4.6,6.2-6.7,13.4-5.7,19.7c0.8,0.4,1.7,0.7,2.6,1
				c-0.5-5.9,1.6-12.6,5.9-18.4C205,365.7,205.9,364.6,207,363.4z"/>
			<g>
				<path fill="#FAD9BC" d="M191.1,351.5c2.7-3.6,8.1-8.1,12.7-9.8c9.4-3.5,18.2-5.3,24.9-4.3c1.6-2.1,2.5-4.6,2.4-7.5
					c-0.8-15.7-17.9-16-37-8.8c-4.6,1.7-10.1,6.2-12.7,9.8c-8.5,11.6-8.6,26.5,4.2,32.5C186.4,359.4,188.3,355.3,191.1,351.5z"/>
			</g>
			<path opacity="7.000000e-02" d="M202.3,339.3c-4.6,1.7-10.1,6.2-12.7,9.8c-3.1,4.2-5.1,8.9-5.7,13.4c0.6,0.3,1.1,0.6,1.7,0.9
				c0.8-4.1,2.7-8.2,5.5-12c2.7-3.6,8.1-8.1,12.7-9.8c9.4-3.5,18.2-5.3,24.9-4.3c0.4-0.6,0.8-1.2,1.1-1.8
				C222.9,333.6,212.9,335.3,202.3,339.3z"/>
		</g>
		<polygon fill="#C01919" points="709.5,601 711.7,398.9 421.3,396.4 426.9,601 		"/>
		<path fill="#484848" d="M530.5,548.4c-1,4.3-5.2,7-9.6,6.1c-4.3-0.9-7.1-5.2-6.1-9.5c1-4.3,5.2-7,9.6-6.1
			C528.7,539.9,531.5,544.1,530.5,548.4z"/>
		<path fill="#484848" d="M530.5,580.8c-1,4.3-5.2,7-9.6,6.1c-4.3-0.9-7.1-5.2-6.1-9.5c1-4.3,5.2-7,9.6-6.1
			C528.7,572.3,531.5,576.5,530.5,580.8z"/>
		<polygon opacity="7.000000e-02" points="441.1,415.2 434.3,457.5 468.3,469.5 463.5,499.3 523.2,531.2 		"/>
		<polygon opacity="7.000000e-02" points="653,452 648.5,601 666.2,600.9 		"/>
		<g>
			<polygon fill="#F5F5F5" points="441.2,401.7 523.2,531.2 613,416.7 			"/>
			<polygon fill="#484848" points="441.2,401.7 434.4,452.2 469.4,465.6 463.5,495.8 523.2,531.2 			"/>
			<polygon opacity="7.000000e-02" points="523.2,531.2 587.8,500.2 588.1,478.3 623.3,466 613,432.6 			"/>
			<polygon fill="#484848" points="523.2,531.2 587.8,495.4 587.1,473.1 622.2,458.8 613,416.7 			"/>
			<polygon fill="#8C6239" points="506.6,438.1 510.9,423.4 539.5,425.3 544.9,438.7 536.6,451.4 549.1,498.2 523.2,531.2 
				501.6,497 514.4,450.9 			"/>
		</g>
		<path fill="#FAD9BC" d="M421.3,396.4c0,0-29.8-295.8,197.8-217.2c0,0,125.7,28,92.5,219.7C568.6,443,421.3,396.4,421.3,396.4z"/>
		<g>
			<g>
				<path fill="#2B2B2B" d="M378.6,93.2c0,0-12.6,186.4,236.5,137.8l18.9,54.5c0,0,25.5-26.6,33.7,1.2c8.2,27.8-26.8,18.9-26.8,18.9
					s35.4,75.2,70.7,93.3c0,0,79-289.6-54.8-254.5c0,0-18.7-62.1-97.8-62.1C465.5,82.2,453.6,172.1,378.6,93.2z"/>
			</g>
		</g>
		<polygon fill="#CBDED4" points="102.8,184.1 138.8,205.2 145.5,197.4 116.2,165.3 		"/>
		<polygon fill="#CBDED4" points="161.9,143.6 177.7,184.8 189.7,183.2 189.2,136.6 		"/>
		<polygon fill="#CBDED4" points="245.2,144.4 223.6,180.2 233,187.1 265.1,157.2 		"/>
	</g>
	<g>
		<path fill="#2B2B2B" d="M463.8,287.1c-0.5,13.7-5.5,21.1-11.3,20.9c-5.8-0.2-10.2-7.9-9.7-21.7c0.5-13.7,5.5-21.1,11.3-20.9
			C459.9,265.7,464.4,273.4,463.8,287.1z"/>
	</g>
	<g>
		<path fill="#2B2B2B" d="M602.6,293.5c-0.5,13.7-5.5,21.1-11.3,20.9c-5.8-0.2-10.2-7.9-9.7-21.7c0.5-13.7,5.5-21.1,11.3-20.9
			C598.6,272.1,603.1,279.8,602.6,293.5z"/>
	</g>
	<g>
		<g>
			<g>
				<path fill="#EB7D86" d="M478.4,345.7c12.7-0.9,55-3,84.8,3.8c2.1,0.5,3.5,2.3,3.5,4.4c0,10.8-3.7,42.3-48.2,41.5
					c-43.9-0.8-45.2-34-44.3-45.5C474.4,347.6,476.2,345.8,478.4,345.7z"/>
			</g>
		</g>
	</g>
</g>
</svg>
