<?xml version="1.0" encoding="utf-8"?>
<!-- Generator: Adobe Illustrator 24.2.1, SVG Export Plug-In . SVG Version: 6.00 Build 0)  -->
<svg version="1.1" id="Layer_2" xmlns="http://www.w3.org/2000/svg" xmlns:xlink="http://www.w3.org/1999/xlink" x="0px" y="0px"
	 viewBox="0 0 2865.5 2000" enable-background="new 0 0 2865.5 2000" xml:space="preserve">
<g>
	<g opacity="0.1">
		<ellipse opacity="0" fill="#000201" cx="1473.9" cy="1141.6" rx="279.4" ry="86.3"/>
		<ellipse opacity="4.166667e-02" fill="#000201" cx="1473.9" cy="1141.6" rx="274.1" ry="84.7"/>
		<ellipse opacity="8.333334e-02" fill="#000201" cx="1473.9" cy="1141.6" rx="268.7" ry="83.1"/>
		<ellipse opacity="0.125" fill="#000201" cx="1473.9" cy="1141.6" rx="263.4" ry="81.4"/>
		<ellipse opacity="0.1667" fill="#000201" cx="1473.9" cy="1141.6" rx="258.1" ry="79.8"/>
		<ellipse opacity="0.2083" fill="#000201" cx="1473.9" cy="1141.6" rx="252.8" ry="78.1"/>
		<ellipse opacity="0.25" fill="#000201" cx="1473.9" cy="1141.6" rx="247.5" ry="76.5"/>
		<ellipse opacity="0.2917" fill="#000201" cx="1473.9" cy="1141.6" rx="242.1" ry="74.8"/>
		<ellipse opacity="0.3333" fill="#000201" cx="1473.9" cy="1141.6" rx="236.8" ry="73.2"/>
		<ellipse opacity="0.375" fill="#000201" cx="1473.9" cy="1141.6" rx="231.5" ry="71.5"/>
		<ellipse opacity="0.4167" fill="#000201" cx="1473.9" cy="1141.6" rx="226.2" ry="69.9"/>
		<ellipse opacity="0.4583" fill="#000201" cx="1473.9" cy="1141.6" rx="220.9" ry="68.3"/>
		<ellipse opacity="0.5" fill="#000201" cx="1473.9" cy="1141.6" rx="215.5" ry="66.6"/>
		<ellipse opacity="0.5417" fill="#000201" cx="1473.9" cy="1141.6" rx="210.2" ry="65"/>
		<ellipse opacity="0.5833" fill="#000201" cx="1473.9" cy="1141.6" rx="204.9" ry="63.3"/>
		<ellipse opacity="0.625" fill="#000201" cx="1473.9" cy="1141.6" rx="199.6" ry="61.7"/>
		<ellipse opacity="0.6667" fill="#000201" cx="1473.9" cy="1141.6" rx="194.3" ry="60"/>
		<ellipse opacity="0.7083" fill="#000201" cx="1473.9" cy="1141.6" rx="188.9" ry="58.4"/>
		<ellipse opacity="0.75" fill="#000201" cx="1473.9" cy="1141.6" rx="183.6" ry="56.7"/>
		<ellipse opacity="0.7917" fill="#000201" cx="1473.9" cy="1141.6" rx="178.3" ry="55.1"/>
		<ellipse opacity="0.8333" fill="#000201" cx="1473.9" cy="1141.6" rx="173" ry="53.5"/>
		<ellipse opacity="0.875" fill="#000201" cx="1473.9" cy="1141.6" rx="167.7" ry="51.8"/>
		<ellipse opacity="0.9167" fill="#000201" cx="1473.9" cy="1141.6" rx="162.3" ry="50.2"/>
		<ellipse opacity="0.9583" fill="#000201" cx="1473.9" cy="1141.6" rx="157" ry="48.5"/>
		<ellipse fill="#000201" cx="1473.9" cy="1141.6" rx="151.7" ry="46.9"/>
	</g>
	<g opacity="0.1">
		<ellipse opacity="0" fill="#000201" cx="1654.9" cy="1629.2" rx="279.4" ry="86.3"/>
		<ellipse opacity="4.166667e-02" fill="#000201" cx="1654.9" cy="1629.2" rx="274.1" ry="84.7"/>
		<ellipse opacity="8.333334e-02" fill="#000201" cx="1654.9" cy="1629.2" rx="268.7" ry="83.1"/>
		<ellipse opacity="0.125" fill="#000201" cx="1654.9" cy="1629.2" rx="263.4" ry="81.4"/>
		<ellipse opacity="0.1667" fill="#000201" cx="1654.9" cy="1629.2" rx="258.1" ry="79.8"/>
		<ellipse opacity="0.2083" fill="#000201" cx="1654.9" cy="1629.2" rx="252.8" ry="78.1"/>
		<ellipse opacity="0.25" fill="#000201" cx="1654.9" cy="1629.2" rx="247.5" ry="76.5"/>
		<ellipse opacity="0.2917" fill="#000201" cx="1654.9" cy="1629.2" rx="242.1" ry="74.8"/>
		<ellipse opacity="0.3333" fill="#000201" cx="1654.9" cy="1629.2" rx="236.8" ry="73.2"/>
		<ellipse opacity="0.375" fill="#000201" cx="1654.9" cy="1629.2" rx="231.5" ry="71.5"/>
		<ellipse opacity="0.4167" fill="#000201" cx="1654.9" cy="1629.2" rx="226.2" ry="69.9"/>
		<ellipse opacity="0.4583" fill="#000201" cx="1654.9" cy="1629.2" rx="220.9" ry="68.3"/>
		<ellipse opacity="0.5" fill="#000201" cx="1654.9" cy="1629.2" rx="215.5" ry="66.6"/>
		<ellipse opacity="0.5417" fill="#000201" cx="1654.9" cy="1629.2" rx="210.2" ry="65"/>
		<ellipse opacity="0.5833" fill="#000201" cx="1654.9" cy="1629.2" rx="204.9" ry="63.3"/>
		<ellipse opacity="0.625" fill="#000201" cx="1654.9" cy="1629.2" rx="199.6" ry="61.7"/>
		<ellipse opacity="0.6667" fill="#000201" cx="1654.9" cy="1629.2" rx="194.3" ry="60"/>
		<ellipse opacity="0.7083" fill="#000201" cx="1654.9" cy="1629.2" rx="188.9" ry="58.4"/>
		<ellipse opacity="0.75" fill="#000201" cx="1654.9" cy="1629.2" rx="183.6" ry="56.7"/>
		<ellipse opacity="0.7917" fill="#000201" cx="1654.9" cy="1629.2" rx="178.3" ry="55.1"/>
		<ellipse opacity="0.8333" fill="#000201" cx="1654.9" cy="1629.2" rx="173" ry="53.5"/>
		<ellipse opacity="0.875" fill="#000201" cx="1654.9" cy="1629.2" rx="167.7" ry="51.8"/>
		<ellipse opacity="0.9167" fill="#000201" cx="1654.9" cy="1629.2" rx="162.3" ry="50.2"/>
		<ellipse opacity="0.9583" fill="#000201" cx="1654.9" cy="1629.2" rx="157" ry="48.5"/>
		<ellipse fill="#000201" cx="1654.9" cy="1629.2" rx="151.7" ry="46.9"/>
	</g>
	<g opacity="0.1">
		<ellipse opacity="0" fill="#000201" cx="1165.3" cy="1485.8" rx="279.4" ry="86.3"/>
		<ellipse opacity="4.166667e-02" fill="#000201" cx="1165.3" cy="1485.8" rx="274.1" ry="84.7"/>
		<ellipse opacity="8.333334e-02" fill="#000201" cx="1165.3" cy="1485.8" rx="268.7" ry="83.1"/>
		<ellipse opacity="0.125" fill="#000201" cx="1165.3" cy="1485.8" rx="263.4" ry="81.4"/>
		<ellipse opacity="0.1667" fill="#000201" cx="1165.3" cy="1485.8" rx="258.1" ry="79.8"/>
		<ellipse opacity="0.2083" fill="#000201" cx="1165.3" cy="1485.8" rx="252.8" ry="78.1"/>
		<ellipse opacity="0.25" fill="#000201" cx="1165.3" cy="1485.8" rx="247.5" ry="76.5"/>
		<ellipse opacity="0.2917" fill="#000201" cx="1165.3" cy="1485.8" rx="242.1" ry="74.8"/>
		<ellipse opacity="0.3333" fill="#000201" cx="1165.3" cy="1485.8" rx="236.8" ry="73.2"/>
		<ellipse opacity="0.375" fill="#000201" cx="1165.3" cy="1485.8" rx="231.5" ry="71.5"/>
		<ellipse opacity="0.4167" fill="#000201" cx="1165.3" cy="1485.8" rx="226.2" ry="69.9"/>
		<ellipse opacity="0.4583" fill="#000201" cx="1165.3" cy="1485.8" rx="220.9" ry="68.3"/>
		<ellipse opacity="0.5" fill="#000201" cx="1165.3" cy="1485.8" rx="215.5" ry="66.6"/>
		<ellipse opacity="0.5417" fill="#000201" cx="1165.3" cy="1485.8" rx="210.2" ry="65"/>
		<ellipse opacity="0.5833" fill="#000201" cx="1165.3" cy="1485.8" rx="204.9" ry="63.3"/>
		<ellipse opacity="0.625" fill="#000201" cx="1165.3" cy="1485.8" rx="199.6" ry="61.7"/>
		<ellipse opacity="0.6667" fill="#000201" cx="1165.3" cy="1485.8" rx="194.3" ry="60"/>
		<ellipse opacity="0.7083" fill="#000201" cx="1165.3" cy="1485.8" rx="188.9" ry="58.4"/>
		<ellipse opacity="0.75" fill="#000201" cx="1165.3" cy="1485.8" rx="183.6" ry="56.7"/>
		<ellipse opacity="0.7917" fill="#000201" cx="1165.3" cy="1485.8" rx="178.3" ry="55.1"/>
		<ellipse opacity="0.8333" fill="#000201" cx="1165.3" cy="1485.8" rx="173" ry="53.5"/>
		<ellipse opacity="0.875" fill="#000201" cx="1165.3" cy="1485.8" rx="167.7" ry="51.8"/>
		<ellipse opacity="0.9167" fill="#000201" cx="1165.3" cy="1485.8" rx="162.3" ry="50.2"/>
		<ellipse opacity="0.9583" fill="#000201" cx="1165.3" cy="1485.8" rx="157" ry="48.5"/>
		<ellipse fill="#000201" cx="1165.3" cy="1485.8" rx="151.7" ry="46.9"/>
	</g>
	<g opacity="0.1">
		<ellipse opacity="0" fill="#000201" cx="2037.9" cy="1697.6" rx="279.4" ry="86.3"/>
		<ellipse opacity="4.166667e-02" fill="#000201" cx="2037.9" cy="1697.6" rx="274.1" ry="84.7"/>
		<ellipse opacity="8.333334e-02" fill="#000201" cx="2037.9" cy="1697.6" rx="268.7" ry="83.1"/>
		<ellipse opacity="0.125" fill="#000201" cx="2037.9" cy="1697.6" rx="263.4" ry="81.4"/>
		<ellipse opacity="0.1667" fill="#000201" cx="2037.9" cy="1697.6" rx="258.1" ry="79.8"/>
		<ellipse opacity="0.2083" fill="#000201" cx="2037.9" cy="1697.6" rx="252.8" ry="78.1"/>
		<ellipse opacity="0.25" fill="#000201" cx="2037.9" cy="1697.6" rx="247.5" ry="76.5"/>
		<ellipse opacity="0.2917" fill="#000201" cx="2037.9" cy="1697.6" rx="242.1" ry="74.8"/>
		<ellipse opacity="0.3333" fill="#000201" cx="2037.9" cy="1697.6" rx="236.8" ry="73.2"/>
		<ellipse opacity="0.375" fill="#000201" cx="2037.9" cy="1697.6" rx="231.5" ry="71.5"/>
		<ellipse opacity="0.4167" fill="#000201" cx="2037.9" cy="1697.6" rx="226.2" ry="69.9"/>
		<ellipse opacity="0.4583" fill="#000201" cx="2037.9" cy="1697.6" rx="220.9" ry="68.3"/>
		<ellipse opacity="0.5" fill="#000201" cx="2037.9" cy="1697.6" rx="215.5" ry="66.6"/>
		<ellipse opacity="0.5417" fill="#000201" cx="2037.9" cy="1697.6" rx="210.2" ry="65"/>
		<ellipse opacity="0.5833" fill="#000201" cx="2037.9" cy="1697.6" rx="204.9" ry="63.3"/>
		<ellipse opacity="0.625" fill="#000201" cx="2037.9" cy="1697.6" rx="199.6" ry="61.7"/>
		<ellipse opacity="0.6667" fill="#000201" cx="2037.9" cy="1697.6" rx="194.3" ry="60"/>
		<ellipse opacity="0.7083" fill="#000201" cx="2037.9" cy="1697.6" rx="188.9" ry="58.4"/>
		<ellipse opacity="0.75" fill="#000201" cx="2037.9" cy="1697.6" rx="183.6" ry="56.7"/>
		<ellipse opacity="0.7917" fill="#000201" cx="2037.9" cy="1697.6" rx="178.3" ry="55.1"/>
		<ellipse opacity="0.8333" fill="#000201" cx="2037.9" cy="1697.6" rx="173" ry="53.5"/>
		<ellipse opacity="0.875" fill="#000201" cx="2037.9" cy="1697.6" rx="167.7" ry="51.8"/>
		<ellipse opacity="0.9167" fill="#000201" cx="2037.9" cy="1697.6" rx="162.3" ry="50.2"/>
		<ellipse opacity="0.9583" fill="#000201" cx="2037.9" cy="1697.6" rx="157" ry="48.5"/>
		<ellipse fill="#000201" cx="2037.9" cy="1697.6" rx="151.7" ry="46.9"/>
	</g>
	<g opacity="0.1">
		<ellipse opacity="0" fill="#000201" cx="706.9" cy="1204.3" rx="279.4" ry="86.3"/>
		<ellipse opacity="4.166667e-02" fill="#000201" cx="706.9" cy="1204.3" rx="274.1" ry="84.7"/>
		<ellipse opacity="8.333334e-02" fill="#000201" cx="706.9" cy="1204.3" rx="268.7" ry="83.1"/>
		<ellipse opacity="0.125" fill="#000201" cx="706.9" cy="1204.3" rx="263.4" ry="81.4"/>
		<ellipse opacity="0.1667" fill="#000201" cx="706.9" cy="1204.3" rx="258.1" ry="79.8"/>
		<ellipse opacity="0.2083" fill="#000201" cx="706.9" cy="1204.3" rx="252.8" ry="78.1"/>
		<ellipse opacity="0.25" fill="#000201" cx="706.9" cy="1204.3" rx="247.5" ry="76.5"/>
		<ellipse opacity="0.2917" fill="#000201" cx="706.9" cy="1204.3" rx="242.1" ry="74.8"/>
		<ellipse opacity="0.3333" fill="#000201" cx="706.9" cy="1204.3" rx="236.8" ry="73.2"/>
		<ellipse opacity="0.375" fill="#000201" cx="706.9" cy="1204.3" rx="231.5" ry="71.5"/>
		<ellipse opacity="0.4167" fill="#000201" cx="706.9" cy="1204.3" rx="226.2" ry="69.9"/>
		<ellipse opacity="0.4583" fill="#000201" cx="706.9" cy="1204.3" rx="220.9" ry="68.3"/>
		<ellipse opacity="0.5" fill="#000201" cx="706.9" cy="1204.3" rx="215.5" ry="66.6"/>
		<ellipse opacity="0.5417" fill="#000201" cx="706.9" cy="1204.3" rx="210.2" ry="65"/>
		<ellipse opacity="0.5833" fill="#000201" cx="706.9" cy="1204.3" rx="204.9" ry="63.3"/>
		<ellipse opacity="0.625" fill="#000201" cx="706.9" cy="1204.3" rx="199.6" ry="61.7"/>
		<ellipse opacity="0.6667" fill="#000201" cx="706.9" cy="1204.3" rx="194.3" ry="60"/>
		<ellipse opacity="0.7083" fill="#000201" cx="706.9" cy="1204.3" rx="188.9" ry="58.4"/>
		<ellipse opacity="0.75" fill="#000201" cx="706.9" cy="1204.3" rx="183.6" ry="56.7"/>
		<ellipse opacity="0.7917" fill="#000201" cx="706.9" cy="1204.3" rx="178.3" ry="55.1"/>
		<ellipse opacity="0.8333" fill="#000201" cx="706.9" cy="1204.3" rx="173" ry="53.5"/>
		<ellipse opacity="0.875" fill="#000201" cx="706.9" cy="1204.3" rx="167.7" ry="51.8"/>
		<ellipse opacity="0.9167" fill="#000201" cx="706.9" cy="1204.3" rx="162.3" ry="50.2"/>
		<ellipse opacity="0.9583" fill="#000201" cx="706.9" cy="1204.3" rx="157" ry="48.5"/>
		<ellipse fill="#000201" cx="706.9" cy="1204.3" rx="151.7" ry="46.9"/>
	</g>
	<g>
		<g>
			<path fill="#8A5D3B" d="M1936.8,1253.9c-5.7,0-11.7-0.7-18-2.2l-1.9-0.4l-664.6-252.7c-21.5-6.2-58.1-30.5-55.7-82.3l0-539.8
				c0.7-30.4,20.8-61.1,57.9-61.1c8.4,0,17.4,1.6,26.7,4.9l657.1,227.5c18.7,7.2,50.4,32.4,50.4,81.2v568.8
				c0.3,6.7-0.1,25.4-13.5,40.1C1968.6,1245.2,1956.5,1253.9,1936.8,1253.9z"/>
			<path fill="#754C28" d="M1914.1,1268.3c-5.7,0-11.7-0.7-18-2.2l-1.9-0.4L1229.6,1013c-21.5-6.2-58.1-30.5-55.7-82.3V390.9
				c0.7-30.4,20.8-61.1,57.9-61.1c8.4,0,17.4,1.6,26.7,4.9l657.1,227.5c18.7,7.2,50.4,32.4,50.4,81.2v568.8
				c0.3,6.7-0.1,25.4-13.5,40.1C1945.9,1259.6,1933.8,1268.3,1914.1,1268.3z"/>
			<path fill="#E8EAE9" d="M1902.7,1237.6l-496.9-188.9l-27.1-10.3l-140-53.2c0,0-38-9.5-35.6-53.8V391.5c0,0,1-44.8,45.9-29.3
				l656.2,227.1c0,0,31.7,12.2,31.7,54v569.8C1936.8,1213.1,1939.9,1246.3,1902.7,1237.6z"/>
			<path fill="#8A5D3B" d="M1936.8,643.4v27.2l-733.7-254.9v-24.2c0,0,1-44.8,45.9-29.3l656.2,227.1
				C1905.1,589.4,1936.8,601.6,1936.8,643.4z"/>
		</g>
		<g>
			<path fill="#F34B6E" d="M1513.3,919.3c15,54.2-18.1,97.7-74,97.2c-55.9-0.5-113.5-44.8-128.5-99c-15-54.2,18.1-97.7,74-97.2
				C1440.7,820.8,1498.2,865.1,1513.3,919.3z"/>
			<polygon fill="#FFFFFF" points="1383.7,872.6 1382.6,961.3 1456.6,942.2 			"/>
		</g>
		<path opacity="0.8" fill="#FFFFFF" d="M1442.1,512.8l-2.3,235c0,0,1.3,8.3-2.1,15.1c-10.8,1.7-23.6-5.7-23.6-5.7l-336.7-122.1
			c0,0-11.7-1.7-18.1-10.4c-6.4-8.7-4.1-25.5-4.1-25.5l2.2-232.1c0,0-0.7-4.8,1.7-9.5c9.8-2.7,13.7,0.9,13.7,0.9l349.6,122.1
			c0,0,9.6,2,15.7,9.3C1444.3,497.2,1442.1,512.8,1442.1,512.8z"/>
		<g>
			<g>
				<path fill="#603813" d="M1986.6,819.7l33,7c1.6-16,1.3-32.4-0.9-48.7l-33.1-7c-3-18.3-8.9-36.3-17.1-53l24-21.4
					c-7.7-14.5-16.7-28.1-27.1-40.4l-24.1,21.5c-10.9-12.3-23.5-22.7-37.4-30.6c-4.4-2.5-8.7-4.7-13.1-6.5l-1.6-40
					c-16-5.9-31.9-8.6-47.1-8.3l1.6,40c-15.4,1.2-29.8,6.3-42.3,15.2L1776,616c-11.8,9.5-22.1,21.6-30.3,36.2l25.5,31.2
					c-3.8,7.7-6.9,16.2-9.2,25.4c-1.2,4.6-2.1,9.3-2.8,14l-33-7c-1.7,16-1.5,32.3,0.6,48.6l32.9,7c2.8,18.3,8.5,36.4,16.7,53.2
					l-24,21.4c7.5,14.5,16.5,28.2,26.8,40.7l24-21.4c11.1,12.8,24.1,23.7,38.4,31.8c4.4,2.5,8.8,4.7,13.1,6.5l1.6,40
					c16,5.9,31.8,8.6,47.1,8.3l-1.6-40c15.8-1.2,30.6-6.7,43.3-15.9l25.5,31.2c11.7-9.6,21.9-21.9,30-36.6l-25.6-31.3
					c3.6-7.4,6.5-15.4,8.7-24.2C1984.9,830.2,1985.9,825,1986.6,819.7z M1888.5,864.5c-35.5,2.1-71.5-36.3-80.5-85.8
					c-9-49.5,12.4-91.3,47.9-93.4c35.4-2.1,71.5,36.3,80.5,85.8C1945.4,820.5,1924,862.4,1888.5,864.5z"/>
				<path fill="#603813" d="M1965.4,656.2l-25.6,10.5c0,0,18.5,22.8,27.1,40.4l25.6-10.5C1992.5,696.6,1973.2,662.3,1965.4,656.2z"
					/>
				<path fill="#603813" d="M1889.3,600.5l-25.6,10.5c0,0-10.6-4.9-23.6-6.5c-13-1.6-25.1-1.9-25.1-1.9l27.2-10.5
					C1842.2,592.2,1866.3,591.3,1889.3,600.5z"/>
				<polygon fill="#603813" points="1776,616 1750.4,626.6 1776,657.8 1800.4,646 				"/>
				<polygon fill="#603813" points="1993.1,788.5 2018.6,778 2019.5,826.7 1994,837.2 				"/>
				<path fill="#603813" d="M2000.5,890.9l-25.6,10.5l-30,36.6l25.6-10.5C1970.5,927.5,1990.1,909.5,2000.5,890.9z"/>
				<polygon fill="#603813" points="1877.7,962.7 1903.3,952.2 1901.9,916.6 1876.1,922.6 				"/>
				<polygon fill="#603813" points="1753.5,897.4 1779.1,886.9 1783.8,882.7 1777.5,876 				"/>
				<polygon fill="#603813" points="1726.1,716 1700.4,728.4 1733.6,733.5 1736.3,719.4 				"/>
				<path fill="#C3996B" d="M1961,830.2l33,7c1.6-16,1.2-32.4-0.9-48.7l-33.1-7c-3-18.3-8.9-36.3-17.1-53l24-21.4
					c-7.7-14.5-16.7-28.1-27.1-40.4l-24.1,21.5c-10.9-12.3-23.5-22.7-37.4-30.6c-4.4-2.5-8.7-4.7-13.1-6.5l-1.6-40
					c-16-5.9-31.9-8.6-47.1-8.3l1.6,40c-15.4,1.2-29.8,6.4-42.3,15.2l-25.6-31.3c-11.8,9.5-22.1,21.6-30.3,36.2l25.5,31.2
					c-3.8,7.7-6.9,16.2-9.2,25.4c-1.2,4.6-2.1,9.3-2.8,14l-33-7c-1.7,16-1.5,32.3,0.6,48.6l32.9,7c2.8,18.3,8.5,36.4,16.7,53.2
					l-24,21.4c7.5,14.5,16.5,28.2,26.8,40.7l24-21.4c11.1,12.8,24.1,23.7,38.4,31.8c4.4,2.5,8.8,4.7,13.1,6.5l1.6,40
					c16,5.9,31.8,8.6,47.1,8.3l-1.6-40c15.8-1.2,30.6-6.7,43.3-15.9l25.5,31.2c11.7-9.6,21.9-21.9,30-36.6l-25.5-31.3
					c3.5-7.4,6.5-15.4,8.7-24.2C1959.3,840.7,1960.3,835.5,1961,830.2z M1863,875c-35.4,2.1-71.5-36.3-80.5-85.8
					c-9-49.5,12.4-91.3,47.9-93.4c35.4-2.1,71.5,36.3,80.5,85.8C1919.9,831,1898.4,872.9,1863,875z"/>
			</g>
			<g>
				<g>
					<path fill="#C93155" d="M1497.6,723.9c8.5,8,21.5,17.7,34.9,22.5c14.5,5.2,22.1,1,22.1-9.5c0-10-6.6-18.1-23.3-31
						c-23.1-17.5-38.2-37.7-38.2-61.1c0-27.4,19.8-41.3,52.7-29.6c15.7,5.6,27.3,13.5,35.5,20.8l-7,26.8c-1.7-1.5-11.7,6.9-14.1,5.1
						c-5.7-4.4-5.5-19.7-15-23.1c-13.6-4.9-20.2-0.1-20.2,8.3c0,10.3,7.8,17.6,25.8,31.9c24.6,19.3,36.1,38.2,36.1,60.8
						c0,26.9-18,43.4-56.2,29.8c-15.9-5.7-31.6-16-39.4-23.8l-7.7-22.7L1497.6,723.9z"/>
					<path fill="#C93155" d="M1690.9,762.3l-15.4,4.6l-35.8-22.8v38.2l57.2,20.4v29.8l-14.1,5.1l-74.7-36.7L1594,645.1l14.1-5.1
						l85.9,30.6v29.8l-14.1,5.1l-40.2-24.4v33.4l51.2,18.3V762.3z"/>
				</g>
			</g>
			<g>
				<g>
					<path fill="#F34B6E" d="M1483.5,729c8.5,8,21.5,17.7,34.9,22.5c14.5,5.2,22.1,1,22.1-9.5c0-10-6.6-18.1-23.3-31
						c-23.1-17.5-38.2-37.7-38.2-61.1c0-27.4,19.8-41.3,52.7-29.6c15.7,5.6,27.3,13.5,35.5,20.8l-7,26.8c-5.6-5.1-15.5-13.1-29.1-18
						c-13.6-4.9-20.2-0.1-20.2,8.3c0,10.3,7.8,17.6,25.8,31.9c24.6,19.3,36.1,38.2,36.1,60.8c0,26.9-18,43.4-56.2,29.8
						c-15.9-5.7-31.6-16-39.4-23.8L1483.5,729z"/>
					<path fill="#F34B6E" d="M1676.8,767.4l-51.2-18.3v38.2l57.2,20.4v29.8l-88.8-31.7V645.1l85.9,30.6v29.8l-54.3-19.4v33.4
						l51.2,18.3V767.4z"/>
				</g>
			</g>
		</g>
		<g>
			<polyline fill="none" stroke="#2FE0CC" stroke-miterlimit="10" points="1086.6,390.8 1084.6,610.1 1379.7,726.1 			"/>
			<g>
				<line fill="none" stroke="#2FE0CC" stroke-width="0.5" stroke-miterlimit="10" x1="1121.7" y1="412.3" x2="1119.7" y2="625.6"/>
				<line fill="none" stroke="#2FE0CC" stroke-width="0.5" stroke-miterlimit="10" x1="1152.8" y1="424" x2="1150.9" y2="637.4"/>
				<line fill="none" stroke="#2FE0CC" stroke-width="0.5" stroke-miterlimit="10" x1="1184" y1="435.8" x2="1182.1" y2="649.2"/>
				<line fill="none" stroke="#2FE0CC" stroke-width="0.5" stroke-miterlimit="10" x1="1215.2" y1="447.6" x2="1213.2" y2="660.9"/>
				<line fill="none" stroke="#2FE0CC" stroke-width="0.5" stroke-miterlimit="10" x1="1246.3" y1="459.3" x2="1244.4" y2="672.7"/>
				<line fill="none" stroke="#2FE0CC" stroke-width="0.5" stroke-miterlimit="10" x1="1277.5" y1="471.1" x2="1275.6" y2="684.5"/>
				<line fill="none" stroke="#2FE0CC" stroke-width="0.5" stroke-miterlimit="10" x1="1308.7" y1="482.9" x2="1306.7" y2="696.2"/>
				<line fill="none" stroke="#2FE0CC" stroke-width="0.5" stroke-miterlimit="10" x1="1339.9" y1="494.6" x2="1337.9" y2="708"/>
				<line fill="none" stroke="#2FE0CC" stroke-width="0.5" stroke-miterlimit="10" x1="1371" y1="506.4" x2="1369.1" y2="719.8"/>
			</g>
			<path opacity="0.4" fill="#3B2314" d="M1071.1,509.8c0,0,46.9-42.1,80.9,9.5c33.9,51.6,69.9,49.4,97.5,27.6
				c27.6-21.8,5.5,93.8,40.8,103.4c35.3,9.6,52.3-131.2,95.4-114.2l-1.6,178.5l-313.5-127.3L1071.1,509.8z"/>
			<g>
				<g>
					<g>
						
							<line fill="none" stroke="#AEB7B6" stroke-width="0.25" stroke-miterlimit="10" x1="1086.4" y1="411.9" x2="1087" y2="412.2"/>
						
							<line fill="none" stroke="#AEB7B6" stroke-width="0.25" stroke-miterlimit="10" stroke-dasharray="1.0003,0.5002" x1="1087.7" y1="412.4" x2="1369.9" y2="521.1"/>
						
							<line fill="none" stroke="#AEB7B6" stroke-width="0.25" stroke-miterlimit="10" x1="1370.2" y1="521.2" x2="1370.9" y2="521.5"/>
					</g>
				</g>
			</g>
			<g>
				<g>
					<g>
						
							<line fill="none" stroke="#AEB7B6" stroke-width="0.25" stroke-miterlimit="10" x1="1086.2" y1="434.8" x2="1086.8" y2="435.1"/>
						
							<line fill="none" stroke="#AEB7B6" stroke-width="0.25" stroke-miterlimit="10" stroke-dasharray="1.0003,0.5002" x1="1087.5" y1="435.3" x2="1369.7" y2="544"/>
						
							<line fill="none" stroke="#AEB7B6" stroke-width="0.25" stroke-miterlimit="10" x1="1370" y1="544.1" x2="1370.7" y2="544.4"/>
					</g>
				</g>
			</g>
			<g>
				<g>
					<g>
						<line fill="none" stroke="#AEB7B6" stroke-width="0.25" stroke-miterlimit="10" x1="1086" y1="457.7" x2="1086.6" y2="458"/>
						
							<line fill="none" stroke="#AEB7B6" stroke-width="0.25" stroke-miterlimit="10" stroke-dasharray="1.0003,0.5002" x1="1087.3" y1="458.2" x2="1369.5" y2="566.9"/>
						
							<line fill="none" stroke="#AEB7B6" stroke-width="0.25" stroke-miterlimit="10" x1="1369.8" y1="567" x2="1370.5" y2="567.3"/>
					</g>
				</g>
			</g>
			<g>
				<g>
					<g>
						
							<line fill="none" stroke="#AEB7B6" stroke-width="0.25" stroke-miterlimit="10" x1="1085.8" y1="480.6" x2="1086.4" y2="480.9"/>
						
							<line fill="none" stroke="#AEB7B6" stroke-width="0.25" stroke-miterlimit="10" stroke-dasharray="1.0003,0.5002" x1="1087.1" y1="481.1" x2="1369.3" y2="589.8"/>
						
							<line fill="none" stroke="#AEB7B6" stroke-width="0.25" stroke-miterlimit="10" x1="1369.6" y1="589.9" x2="1370.3" y2="590.2"/>
					</g>
				</g>
			</g>
			<g>
				<g>
					<g>
						
							<line fill="none" stroke="#AEB7B6" stroke-width="0.25" stroke-miterlimit="10" x1="1085.5" y1="503.5" x2="1086.2" y2="503.8"/>
						
							<line fill="none" stroke="#AEB7B6" stroke-width="0.25" stroke-miterlimit="10" stroke-dasharray="1.0003,0.5002" x1="1086.9" y1="504" x2="1369.1" y2="612.7"/>
						
							<line fill="none" stroke="#AEB7B6" stroke-width="0.25" stroke-miterlimit="10" x1="1369.4" y1="612.9" x2="1370.1" y2="613.1"/>
					</g>
				</g>
			</g>
			<g>
				<g>
					<g>
						
							<line fill="none" stroke="#AEB7B6" stroke-width="0.25" stroke-miterlimit="10" x1="1085.3" y1="526.4" x2="1086" y2="526.7"/>
						
							<line fill="none" stroke="#AEB7B6" stroke-width="0.25" stroke-miterlimit="10" stroke-dasharray="1.0003,0.5002" x1="1086.7" y1="526.9" x2="1368.8" y2="635.6"/>
						
							<line fill="none" stroke="#AEB7B6" stroke-width="0.25" stroke-miterlimit="10" x1="1369.2" y1="635.8" x2="1369.8" y2="636"/>
					</g>
				</g>
			</g>
			<g>
				<g>
					<g>
						
							<line fill="none" stroke="#AEB7B6" stroke-width="0.25" stroke-miterlimit="10" x1="1085.1" y1="549.3" x2="1085.8" y2="549.6"/>
						
							<line fill="none" stroke="#AEB7B6" stroke-width="0.25" stroke-miterlimit="10" stroke-dasharray="1.0003,0.5002" x1="1086.5" y1="549.8" x2="1368.6" y2="658.5"/>
						
							<line fill="none" stroke="#AEB7B6" stroke-width="0.25" stroke-miterlimit="10" x1="1369" y1="658.7" x2="1369.6" y2="658.9"/>
					</g>
				</g>
			</g>
			<g>
				<g>
					<g>
						
							<line fill="none" stroke="#AEB7B6" stroke-width="0.25" stroke-miterlimit="10" x1="1084.9" y1="572.2" x2="1085.6" y2="572.5"/>
						
							<line fill="none" stroke="#AEB7B6" stroke-width="0.25" stroke-miterlimit="10" stroke-dasharray="1.0003,0.5002" x1="1086.2" y1="572.7" x2="1368.4" y2="681.4"/>
						
							<line fill="none" stroke="#AEB7B6" stroke-width="0.25" stroke-miterlimit="10" x1="1368.8" y1="681.6" x2="1369.4" y2="681.8"/>
					</g>
				</g>
			</g>
			<g>
				<g>
					<g>
						
							<line fill="none" stroke="#AEB7B6" stroke-width="0.25" stroke-miterlimit="10" x1="1084.7" y1="595.1" x2="1085.4" y2="595.4"/>
						
							<line fill="none" stroke="#AEB7B6" stroke-width="0.25" stroke-miterlimit="10" stroke-dasharray="1.0003,0.5001" x1="1086" y1="595.7" x2="1368.2" y2="704.3"/>
						
							<line fill="none" stroke="#AEB7B6" stroke-width="0.25" stroke-miterlimit="10" x1="1368.5" y1="704.5" x2="1369.2" y2="704.7"/>
					</g>
				</g>
			</g>
			<path fill="none" stroke="#BE1E2D" stroke-width="2" stroke-miterlimit="10" d="M1071.1,509.8c0,0,46.9-42.1,80.9,9.5
				c33.9,51.6,69.9,49.4,97.5,27.6c27.6-21.8,5.5,93.8,40.8,103.4c35.3,9.6,52.3-131.2,95.4-114.2"/>
		</g>
		<g>
			<polygon fill="#3B2314" points="1904.4,1168.2 1903.4,1267.8 1931.1,1277 1932.1,1176.2 			"/>
			<polygon fill="#3B2314" points="1957.9,1115.6 1956.3,1288.6 1984,1297.7 1985.6,1123.6 			"/>
			<path opacity="0.2" fill="#3B2314" d="M2433.3,1121.2l-3.2,339.3c0,0,3.7,23.7-12.7,31.6c-2.1,1-4.4,1.7-6.7,2
				c4.9-9.8,3.1-21.8,3.1-21.8l3.2-339.4c0,0,3.2-22.5-5.6-33c-8.8-10.6-22.7-13.4-22.7-13.4l-505-176.5c0,0-5.6-5.1-19.7-1.3
				c2-4.1,5.7-8.1,12.2-10.4c17.2-6.2,23.8,0,23.8,0l505,176.4c0,0,13.9,2.8,22.7,13.4C2436.5,1098.6,2433.3,1121.2,2433.3,1121.2z"
				/>
			<path opacity="0.4" fill="#603813" d="M2416.7,1131.8l-3.2,339.4c0,0,1.9,12-3.1,21.8c-15.6,2.5-34.1-8.2-34.1-8.2l-486.3-176.3
				c0,0-16.9-2.5-26.1-15.1c-9.2-12.6-6-36.8-6-36.8l3.3-335.3c0,0-1-7,2.4-13.8c0.1,0,0.1,0,0.1,0c14.1-3.9,19.7,1.3,19.7,1.3
				l505,176.5c0,0,13.9,2.9,22.7,13.4C2419.9,1109.3,2416.7,1131.8,2416.7,1131.8z"/>
			<path opacity="0.4" fill="#FFFFFF" d="M2410.8,1494.1c-1.9,3.9-4.9,7.4-9.6,9.7c-16.3,7.9-40.7-6.2-40.7-6.2l-486.3-176.3
				c0,0-16.9-2.4-26.1-15c-9.3-12.6-6-36.8-6-36.8l3.3-335.3c0,0-2.5-18.1,14.7-24.3c1.4-0.5,2.8-0.9,4-1.3
				c-3.4,6.7-2.4,13.8-2.4,13.8l-3.3,335.3c0,0-3.2,24.2,6,36.8c9.3,12.6,26.1,15.1,26.1,15.1l486.3,176.3
				C2376.7,1485.9,2395.2,1496.6,2410.8,1494.1z"/>
			<polygon fill="#A87C4F" points="2010.2,1197.8 2009.1,1309.3 2036.8,1318.5 2037.9,1205.8 			"/>
			<polygon fill="#A87C4F" points="2063.8,1141.6 2062,1330 2089.7,1339.2 2091.5,1149.5 			"/>
			<polygon fill="#3B2314" points="2116.5,1182.5 2114.9,1350.8 2142.6,1359.9 2144.2,1190.5 			"/>
			<polygon fill="#A87C4F" points="2168.7,1275.5 2167.8,1371.5 2195.4,1380.7 2196.4,1283.4 			"/>
			<polygon fill="#3B2314" points="2222,1253 2220.6,1392.2 2248.3,1401.4 2249.6,1261 			"/>
			<polygon fill="#A87C4F" points="2275.5,1204.3 2273.5,1412.9 2301.2,1422.1 2303.2,1212.2 			"/>
			<polygon fill="#A87C4F" points="2327.7,1297.2 2326.3,1433.7 2354,1442.8 2355.3,1305.2 			"/>
		</g>
		<g>
			<path fill="#A87C4F" d="M2425.8,782.8l-2.3,244.7c0,0,1.4,8.7-2.2,15.7c-11.2,1.8-24.6-5.9-24.6-5.9l-350.6-127.1
				c0,0-12.2-1.8-18.8-10.9c-6.6-9.1-4.3-26.5-4.3-26.5l2.4-241.7c0,0-0.7-5.1,1.7-9.9c0,0,0,0,0,0c10.2-2.8,14.2,0.9,14.2,0.9
				l364.1,127.2c0,0,10,2.1,16.3,9.7C2428.1,766.6,2425.8,782.8,2425.8,782.8z"/>
			<linearGradient id="SVGID_1_" gradientUnits="userSpaceOnUse" x1="2027.0771" y1="827.4592" x2="2437.9246" y2="827.4592">
				<stop  offset="0" style="stop-color:#4A31BB"/>
				<stop  offset="1" style="stop-color:#1E183D"/>
			</linearGradient>
			<path opacity="0.2" fill="url(#SVGID_1_)" d="M2437.5,774.4l-2.3,244.6c0,0,2.7,17.1-9.1,22.8c-1.5,0.8-3.2,1.2-4.8,1.4
				c3.6-7.1,2.2-15.7,2.2-15.7l2.3-244.7c0,0,2.3-16.2-4.1-23.8c-6.3-7.6-16.3-9.7-16.3-9.7l-364.1-127.2c0,0-4-3.7-14.2-0.9
				c1.5-3,4.1-5.8,8.8-7.5c12.4-4.5,17.1,0,17.1,0l364.1,127.2c0,0,10,2.1,16.3,9.7C2439.8,758.1,2437.5,774.4,2437.5,774.4z"/>
			<path opacity="0.4" fill="#FFFFFF" d="M2421.3,1043.2c-1.4,2.8-3.6,5.4-6.9,7c-11.8,5.7-29.4-4.5-29.4-4.5l-350.6-127.1
				c0,0-12.2-1.7-18.8-10.8c-6.7-9.1-4.4-26.5-4.4-26.5l2.4-241.7c0,0-1.8-13,10.6-17.5c1-0.3,2-0.6,2.9-0.9
				c-2.5,4.9-1.7,9.9-1.7,9.9l-2.4,241.7c0,0-2.3,17.4,4.3,26.5c6.7,9.1,18.8,10.9,18.8,10.9l350.6,127.1
				C2396.7,1037.3,2410,1045.1,2421.3,1043.2z"/>
			<g>
				<path opacity="0.4" fill="#FFFFFF" d="M2385.3,784.4l-1.9,61c0,0,1.1,7.1-1.8,12.8c-9.1,1.5-20-4.8-20-4.8l-285.4-103.4
					c0,0-9.9-1.5-15.3-8.9c-5.4-7.4-3.5-21.6-3.5-21.6l1.9-58.5c0,0-0.6-4.1,1.4-8.1c0,0,0,0,0,0c8.3-2.3,11.6,0.7,11.6,0.7
					l296.4,103.6c0,0,8.2,1.7,13.3,7.9C2387.2,771.2,2385.3,784.4,2385.3,784.4z"/>
				<path opacity="0.8" fill="#FFFFFF" d="M2108.3,706.3c3,15.6-2.5,28.9-12.3,29.7c-9.8,0.8-20.2-11.3-23.2-26.9
					c-3-15.6,2.5-28.9,12.3-29.7C2094.9,678.6,2105.3,690.7,2108.3,706.3z"/>
				<path opacity="0.8" fill="#FFFFFF" d="M2276.5,752.6c0,3.4-2.8,5.2-6.2,4l-121.7-43.1c-3.4-1.2-6.2-5-6.2-8.4l0,0
					c0-3.4,2.8-5.2,6.2-4l121.7,43.2C2273.8,745.4,2276.5,749.2,2276.5,752.6L2276.5,752.6z"/>
				<path opacity="0.8" fill="#FFFFFF" d="M2360.3,807.6c0,3.4-2.8,5.2-6.2,4l-205.5-73.8c-3.4-1.2-6.2-5-6.2-8.4l0,0
					c0-3.4,2.8-5.2,6.2-4l205.5,73.8C2357.5,800.4,2360.3,804.2,2360.3,807.6L2360.3,807.6z"/>
				<path opacity="0.8" fill="#FFFFFF" d="M2276.5,801.2c0,3.4-2.8,5.2-6.2,4l-121.7-43.1c-3.4-1.2-6.2-5-6.2-8.4l0,0
					c0-3.4,2.8-5.2,6.2-4l121.7,43.2C2273.8,794,2276.5,797.8,2276.5,801.2L2276.5,801.2z"/>
			</g>
			<g>
				<path opacity="0.4" fill="#FFFFFF" d="M2385.3,900.9l-1.9,61c0,0,1.1,7.1-1.8,12.8c-9.1,1.5-20-4.8-20-4.8l-285.4-103.5
					c0,0-9.9-1.5-15.3-8.9c-5.4-7.4-3.5-21.6-3.5-21.6l1.9-58.5c0,0-0.6-4.1,1.4-8.1c0,0,0,0,0,0c8.3-2.3,11.6,0.7,11.6,0.7
					l296.4,103.6c0,0,8.2,1.7,13.3,7.9C2387.2,887.7,2385.3,900.9,2385.3,900.9z"/>
				<path opacity="0.8" fill="#FFFFFF" d="M2108.3,822.8c3,15.6-2.5,28.9-12.3,29.7c-9.8,0.8-20.2-11.3-23.2-26.9
					c-3-15.6,2.5-28.9,12.3-29.7C2094.9,795.2,2105.3,807.2,2108.3,822.8z"/>
				<path opacity="0.8" fill="#FFFFFF" d="M2276.5,869.2c0,3.4-2.8,5.2-6.2,4L2148.6,830c-3.4-1.2-6.2-5-6.2-8.4l0,0
					c0-3.4,2.8-5.2,6.2-4l121.7,43.2C2273.8,862,2276.5,865.7,2276.5,869.2L2276.5,869.2z"/>
				<path opacity="0.8" fill="#FFFFFF" d="M2360.3,924.1c0,3.4-2.8,5.2-6.2,4l-205.5-73.8c-3.4-1.2-6.2-5-6.2-8.4l0,0
					c0-3.4,2.8-5.2,6.2-4l205.5,73.8C2357.5,916.9,2360.3,920.7,2360.3,924.1L2360.3,924.1z"/>
				<path opacity="0.8" fill="#FFFFFF" d="M2276.5,917.7c0,3.4-2.8,5.2-6.2,4l-121.7-43.2c-3.4-1.2-6.2-5-6.2-8.4l0,0
					c0-3.4,2.8-5.2,6.2-4l121.7,43.2C2273.8,910.5,2276.5,914.3,2276.5,917.7L2276.5,917.7z"/>
			</g>
		</g>
		<g>
			<linearGradient id="SVGID_2_" gradientUnits="userSpaceOnUse" x1="762.8541" y1="895.152" x2="477.4196" y2="970.1946">
				<stop  offset="0" style="stop-color:#E0B68C"/>
				<stop  offset="0.9952" style="stop-color:#F7D9B2"/>
			</linearGradient>
			<path fill="url(#SVGID_2_)" d="M537.2,803.8c-9.2,14.1-8.8,42.1-8.8,42.1v278.8c0,0-1.4,14.4,8.3,23.3
				c11.8,10.8,36.2-1.2,36.2-1.2l280-111.8c0,0,19.1-6.8,25.7-22.3c6.7-15.4,7-37.6,7-37.6v-283c0,0,1.5-16.2-12.4-23.1
				c-11.2-5.6-29.1,2.5-29.1,2.5L562.2,784C562.2,784,546.3,789.8,537.2,803.8z"/>
			<linearGradient id="SVGID_3_" gradientUnits="userSpaceOnUse" x1="542.2327" y1="918.4165" x2="899.4394" y2="918.4165">
				<stop  offset="0" style="stop-color:#E0B68C"/>
				<stop  offset="0.9952" style="stop-color:#D68B41"/>
			</linearGradient>
			<path fill="url(#SVGID_3_)" d="M551.1,812.4c-9.2,14.1-8.8,42.1-8.8,42.1v278.8c0,0-1.4,14.4,8.3,23.3
				c11.8,10.8,36.2-1.2,36.2-1.2l280-111.8c0,0,19.1-6.8,25.7-22.3c6.7-15.4,7-37.6,7-37.6v-283c0,0,1.5-16.2-12.4-23.1
				c-11.2-5.6-29.2,2.5-29.2,2.5L576.1,792.6C576.1,792.6,560.3,798.3,551.1,812.4z"/>
			<linearGradient id="SVGID_4_" gradientUnits="userSpaceOnUse" x1="597.9313" y1="794.3592" x2="961.2286" y2="794.3592">
				<stop  offset="0" style="stop-color:#DDD9D9"/>
				<stop  offset="1" style="stop-color:#F2F0FA"/>
			</linearGradient>
			<polygon fill="url(#SVGID_4_)" points="597.9,1095 597.9,612.6 961.2,493.7 961.2,824.3 			"/>
			<polygon fill="#8A5D3B" points="597.9,675.7 961.2,555.4 961.2,493.7 597.9,612.6 			"/>
			<polygon fill="#FFFFFF" points="715.4,636.8 715.4,970.8 596.6,1095 597.9,675.7 			"/>
			<g>
				<path fill="#BE1E2D" d="M757.9,661.5c0,7.2-5.8,15-13.1,17.4c-7.2,2.4-13-1.5-13-8.7c0-7.2,5.8-15,13-17.4
					C752.1,650.3,757.9,654.2,757.9,661.5z"/>
				<path fill="#C1BDBE" d="M940.9,594.1c0,3.6-2.9,7.5-6.5,8.7l-154.8,51.4c-3.6,1.2-6.5-0.8-6.5-4.4l0,0c0-3.6,2.9-7.5,6.5-8.7
					l154.8-51.4C938,588.6,940.9,590.5,940.9,594.1L940.9,594.1z"/>
				<path fill="#C1BDBE" d="M940.9,620.3c0,3.6-2.9,7.5-6.5,8.7l-154.8,51.4c-3.6,1.2-6.5-0.8-6.5-4.4l0,0c0-3.6,2.9-7.5,6.5-8.7
					l154.8-51.4C938,614.7,940.9,616.7,940.9,620.3L940.9,620.3z"/>
				<path fill="#C1BDBE" d="M940.9,646.4c0,3.6-2.9,7.5-6.5,8.7l-154.8,51.4c-3.6,1.2-6.5-0.7-6.5-4.4l0,0c0-3.6,2.9-7.5,6.5-8.7
					L934.4,642C938,640.8,940.9,642.8,940.9,646.4L940.9,646.4z"/>
			</g>
			<g>
				
					<linearGradient id="SVGID_5_" gradientUnits="userSpaceOnUse" x1="742.8002" y1="200.1039" x2="747.6672" y2="185.2841" gradientTransform="matrix(1 -0.3322 0 1 0 817.969)">
					<stop  offset="0" style="stop-color:#E0B68C"/>
					<stop  offset="0.9952" style="stop-color:#D68B41"/>
				</linearGradient>
				<path fill="url(#SVGID_5_)" d="M757.9,760c0,7.2-5.8,15-13.1,17.4c-7.2,2.4-13-1.5-13-8.7c0-7.2,5.8-15,13-17.4
					C752.1,748.9,757.9,752.8,757.9,760z"/>
				<path fill="#C1BDBE" d="M940.9,692.7c0,3.6-2.9,7.5-6.5,8.7l-154.8,51.4c-3.6,1.2-6.5-0.8-6.5-4.4l0,0c0-3.6,2.9-7.5,6.5-8.7
					l154.8-51.4C938,687.2,940.9,689.1,940.9,692.7L940.9,692.7z"/>
				<path fill="#C1BDBE" d="M940.9,718.8c0,3.6-2.9,7.5-6.5,8.7l-154.8,51.4c-3.6,1.2-6.5-0.8-6.5-4.4l0,0c0-3.6,2.9-7.5,6.5-8.7
					l154.8-51.4C938,713.3,940.9,715.2,940.9,718.8L940.9,718.8z"/>
				<path fill="#C1BDBE" d="M940.9,745c0,3.6-2.9,7.5-6.5,8.7l-154.8,51.4c-3.6,1.2-6.5-0.8-6.5-4.4l0,0c0-3.6,2.9-7.5,6.5-8.7
					l154.8-51.4C938,739.4,940.9,741.4,940.9,745L940.9,745z"/>
			</g>
			<g>
				<path fill="#BE1E2D" d="M757.9,858.6c0,7.2-5.8,15-13.1,17.4c-7.2,2.4-13-1.5-13-8.7c0-7.2,5.8-15,13-17.4
					C752.1,847.5,757.9,851.4,757.9,858.6z"/>
				<path fill="#C1BDBE" d="M940.9,791.3c0,3.6-2.9,7.5-6.5,8.7l-154.8,51.4c-3.6,1.2-6.5-0.7-6.5-4.4l0,0c0-3.6,2.9-7.5,6.5-8.7
					l154.8-51.4C938,785.8,940.9,787.7,940.9,791.3L940.9,791.3z"/>
				<path fill="#C1BDBE" d="M940.9,817.4c0,3.6-2.9,7.5-6.5,8.7l-154.8,51.4c-3.6,1.2-6.5-0.7-6.5-4.4l0,0c0-3.6,2.9-7.5,6.5-8.7
					L934.4,813C938,811.9,940.9,813.8,940.9,817.4L940.9,817.4z"/>
				<path fill="#C1BDBE" d="M940.9,843.5c0,3.6-2.9,7.5-6.5,8.7l-154.8,51.4c-3.6,1.2-6.5-0.8-6.5-4.4l0,0c0-3.6,2.9-7.5,6.5-8.7
					l154.8-51.4C938,838,940.9,839.9,940.9,843.5L940.9,843.5z"/>
			</g>
			<linearGradient id="SVGID_6_" gradientUnits="userSpaceOnUse" x1="542.2422" y1="976.0734" x2="999.0828" y2="976.0734">
				<stop  offset="0" style="stop-color:#E0B68C"/>
				<stop  offset="0.9952" style="stop-color:#F7D9B2"/>
			</linearGradient>
			<path fill="url(#SVGID_6_)" d="M542.2,1151.2l155.6-220.9c0,0,14.7-29.2,39.7-31.2l241.8-100.9c0,0,27.9-1.4,17.4,22.3
				L879,1023.4c0,0-11.6,8.4-28.6,15.2l-285.3,112.7C565.2,1151.2,555.9,1157.3,542.2,1151.2z"/>
			<linearGradient id="SVGID_7_" gradientUnits="userSpaceOnUse" x1="914.077" y1="1093.1113" x2="673.8833" y2="898.2687">
				<stop  offset="0" style="stop-color:#E0B68C"/>
				<stop  offset="0.9952" style="stop-color:#D68B41"/>
			</linearGradient>
			<path fill="url(#SVGID_7_)" d="M553.2,1158.5l155.6-220.9c0,0,14.6-29.2,39.7-31.2l241.7-100.9c0,0,27.9-1.4,17.4,22.3
				L890,1030.6c0,0-11.6,8.4-28.6,15.2l-285.2,112.7C576.1,1158.5,566.9,1164.6,553.2,1158.5z"/>
			<polygon opacity="0.3" fill="#C1BDBE" points="597.9,801.9 715.4,764.3 715.4,792.7 596.6,832 			"/>
			<polygon opacity="0.3" fill="#C1BDBE" points="597.9,863.6 715.4,826 715.4,854.4 596.6,893.7 			"/>
			<path fill="#BE1E2D" d="M659.3,674.7c-22.9,7.6-41.5,32.3-41.5,55.3s18.6,35.3,41.5,27.7c22.9-7.6,41.5-32.4,41.5-55.3
				C700.8,679.5,682.2,667.1,659.3,674.7z M658.8,688.5c6.6-2.2,11.9,1.4,11.9,8c0,3.4-1.4,7-3.8,10c-2.1,2.7-4.9,4.9-8.1,6
				c-3.2,1-6,0.8-8.2-0.5c-2.3-1.4-3.8-4-3.8-7.5C646.8,697.9,652.2,690.7,658.8,688.5z M683.7,729.8l-49.9,16.8c0-0.1,0-0.3,0-0.4
				c0-10.2,6.1-21,14.9-27.7c2.7,1.6,6.2,1.9,10.1,0.6c3.9-1.3,7.5-4,10.1-7.4c8.8,0.9,14.9,7.7,14.9,17.9
				C683.8,729.6,683.7,729.7,683.7,729.8z"/>
		</g>
		<g>
			<g>
				<path fill="#8A5D3B" d="M1250.9,284.1v226.4c0,1.7-0.4,3.2-1,4.5c-1.9,3.5-6,5-10.8,3.3L988,432.7c-4.5-1.5-8.4-5.4-10.4-9.7
					c-0.9-2-1.4-4.1-1.4-6.2V190.5c0-6.5,5.3-10,11.8-7.8l251.1,85.6c4,1.3,7.5,4.5,9.6,8.2C1250.1,278.9,1250.9,281.5,1250.9,284.1
					z"/>
				<path fill="#8A5D3B" d="M1243.8,289.1v226.4c0,1.7-0.4,3.2-1,4.5c-1.9,3.5-6,5-10.8,3.3l-251.1-85.6c-4.5-1.5-8.4-5.4-10.4-9.7
					c-0.9-2-1.5-4.1-1.5-6.2V195.5c0-6.5,5.3-10,11.9-7.8l251.1,85.6c4,1.3,7.5,4.5,9.6,8.2C1243,283.9,1243.8,286.6,1243.8,289.1z"
					/>
			</g>
			<g>
				<polygon fill="#FEFFFF" points="1028.6,395.8 1004,387.5 1004,277.4 1028.6,285.8 				"/>
				<polygon fill="#FEFFFF" points="1074.2,411.3 1049.6,403 1049.6,312.1 1074.2,320.4 				"/>
				<polygon fill="#FEFFFF" points="1119.7,426.8 1095.1,418.5 1095.1,354.2 1119.7,362.6 				"/>
				<polygon fill="#FEFFFF" points="1165.3,442.3 1140.6,434 1140.6,309.6 1165.3,317.9 				"/>
				<polygon fill="#FEFFFF" points="1210.8,457.8 1186.2,449.5 1186.2,346.9 1210.8,355.3 				"/>
			</g>
		</g>
		<g>
			<g>
				<g>
					<path fill="#603813" d="M2277,1588.7c-4.4-20.2-21.6-40-51.7-55.7c-31.4-16.5-71.5-25.7-112-27.4c-2-0.1-4-0.2-5.9-0.2
						c-2.6-0.1-5.2-0.1-7.8-0.1h-0.7c-42.9,0-85.1,8.3-117.2,25.1c-29.2,15.2-45,34.9-47.6,55.2c-0.5,3.9-0.6,7.8-0.1,11.6
						c-0.6,4.2-0.7,8.5-0.1,12.7c0.9,7.7,3.7,15.3,8.4,22.7c8.1,13,21.8,25.3,41.2,35.8c0.9,0.5,1.8,1,2.7,1.5
						c68.6,36,177.7,37.2,243.7,2.7c28.1-14.6,43.8-33.3,47.3-52.7c0.9-4.7,1.1-9.4,0.5-14.2
						C2278.4,1600.1,2278.2,1594.4,2277,1588.7z M2008.8,1645.8c-25.5-13.4-39.5-30.4-42.1-47.6c0.4-2.5,1.1-4.9,2-7.3
						c4.9-13.3,17-25.9,36.5-36c53.5-28,141.8-27,197.3,2.2c20.9,10.9,34,24.2,39.6,38c1.3,3.1,2.1,6.3,2.6,9.4
						c-2.7,16-15.5,31.4-38.6,43.5C2152.6,1675.8,2064.3,1674.8,2008.8,1645.8z"/>
					<path fill="#603813" d="M1985.4,1640.5c68.6,36,177.7,37.2,243.7,2.7c66.2-34.3,64.2-91.5-4.4-127.4
						c-68.5-36-177.7-37.2-243.7-2.7C1914.9,1547.5,1917,1604.7,1985.4,1640.5z M2004.6,1525.5c53.5-28,141.8-27,197.3,2.2
						c55.6,29,57.2,75.2,3.6,103.2c-53.5,27.8-141.8,26.8-197.3-2.2C1952.7,1599.5,1951.1,1553.3,2004.6,1525.5z"/>
					<path opacity="0.4" fill="#603813" d="M2008.2,1628.7c55.5,29.1,143.8,30,197.3,2.2c53.6-28,52-74.2-3.6-103.2
						c-55.4-29.2-143.8-30.2-197.3-2.2C1951.1,1553.3,1952.7,1599.5,2008.2,1628.7z"/>
				</g>
				<path fill="#603813" d="M1983.3,1668.4L1983.3,1668.4l-83.2,42.9l-69.7,36l-10.6-14.4l-17.4-23.7l70.8-38.9l60.3-33.1l8.5-4.7
					l17.1-9.4c0,0,8.9,2.4,16.8,12.1c2.7,3.4,5.3,7.6,7.3,12.9C1988.1,1660.8,1983.3,1668.4,1983.3,1668.4z"/>
				<g>
					<path fill="#603813" d="M1897.2,1727.1l-166.1,87l-0.5-0.8l-16.2-24.7l-21.7-33.1l2.7-1.5c0,0,0.1,0,0.1,0l166.2-87.8
						c0,0,5,0.5,11.6,4.1c7.6,4.1,17.3,12.5,23.9,29.1c0.3,0.7,0.5,1.4,0.7,2c1.3,3.7,2,7,2.2,9.9
						C1901,1721.3,1897.2,1727.1,1897.2,1727.1z"/>
					<path fill="#603813" d="M1734.4,1800.2c0,5.6-1.4,10.1-3.9,13.1c-4.4,5.5-12.1,6.4-21,1.3c-6-3.4-11.4-9-15.7-15.5
						c-5.7-8.5-9.2-18.6-9.2-27.6c0-9.9,4.3-16.1,10.8-17.4c0,0,0.1,0,0.1,0c4-0.8,8.8,0.1,14,3.1c8.3,4.8,15.6,13.7,20.1,23.5
						C1732.6,1787.1,1734.3,1793.9,1734.4,1800.2z"/>
				</g>
			</g>
		</g>
		<g opacity="0.6">
			<polygon opacity="0.5" fill="#E8EAE9" points="1412,1297.5 1195.1,1422.7 962.8,1336 1179.7,1210.8 			"/>
			<polygon fill="#BE1E2D" points="1412,1297.5 1412,1362.8 1195.1,1488.1 1195.1,1422.7 			"/>
			<polygon opacity="0.5" fill="#BE1E2D" points="962.8,1336 962.8,1399.2 1195.1,1488.1 1195.1,1422.7 			"/>
		</g>
		<g opacity="0.6">
			<polygon opacity="0.5" fill="#E8EAE9" points="1845.4,1466.6 1628.5,1591.8 1396.2,1505.1 1613.1,1379.9 			"/>
			<polygon fill="#BE1E2D" points="1845.4,1466.6 1845.4,1531.9 1628.5,1657.2 1628.5,1591.8 			"/>
			<polygon opacity="0.5" fill="#BE1E2D" points="1396.2,1505.1 1396.2,1568.3 1628.5,1657.2 1628.5,1591.8 			"/>
		</g>
		<g>
			<g>
				<path fill="#FFBDBD" d="M1729.5,1267.4c0,0,3.1,17-3,39.7c-6.1,22.7-21.5,113.3-16.3,136.5c5.2,23.2,40,51,40,51
					s-30.3,4.2-49.2-8c-18.9-12.3-27.9-19.9-27.9-29.8c0-9.9,10.9-8.1,6.1-28.9c-4.7-20.8-10.9-23.1-8.5-66.2
					c2.4-43,6.6-84.3,6.6-84.3S1719.3,1272.7,1729.5,1267.4z"/>
				<path fill="#FFBDBD" d="M1645.6,1276c0,0,2.2,11.8-5.2,26.1c-7.4,14.3-22.3,61.3-20.6,93.8c1.7,32.5,1.7,29.7,1.7,32.5
					c0,2.9,16,37.7,16,37.7s-17.7-3.4-31.4-19.4c-13.7-16-6.3-25.1-12-45.7c-5.7-20.5-8.4-68.7-2.5-96.7c5.9-28,11.5-47.3,11.5-47.3
					S1618.2,1274.7,1645.6,1276z"/>
				<path fill="#BE1E2D" d="M1736.7,1483.4c0,0,7.2,7.1,16.5,8.5c9.3,1.4,25.4,9.5,12.6,13.8c-12.8,4.3-48.3,8.5-58.9,1.4
					c-10.6-7.1-27.2-29-27.2-29v27.6c0,0-7.6,1.4-10.9-1.4c-3.3-2.9-3.3-2.9-3.3-2.9s-1-32.8,3.8-42.3c4.8-9.5,12.3-15.5,12.3-15.5
					s15.3,30.3,33.8,38.4C1733.9,1490,1736.7,1483.4,1736.7,1483.4z"/>
				<path fill="#BE1E2D" d="M1593.7,1409.7c0,0,10.9,5.1,12.7,15.1c1.8,9.9,1.4,27,12.2,32.8c10.8,5.8,16.9,3.7,16.9,3.7
					s8.4,10.5,14.7,12c6.3,1.5,8.7,13-7.2,14.5c-16,1.5-28-6.3-28-6.3l-19.9-24.7c0,0-1.8,6.3-1.2,17.2c0.6,10.9,1.2,22.6,1.2,22.6
					h-11.1c0,0-9.3-32.3-5.7-51.2C1581.6,1426.3,1593.7,1409.7,1593.7,1409.7z"/>
			</g>
			<path fill="#603813" d="M1613.1,1080.4c0,0-25.4,37.4-21.7,66.1c3.7,28.7,10.7,41,10.7,41l-5,93c0,0-12.1,27.3-13.2,55.2
				c-1.2,27.9,0,66,0,66s-8.7,12,14.4,16.1c23.1,4.1,26,0,26,0s5.8-89.8,21.7-120.1c15.8-30.3,28.9-196,28.9-196
				S1620.1,1108.8,1613.1,1080.4z"/>
			<path fill="#603813" d="M1638.8,1097.2c0,0-14.5,42.4,0,63.4c14.5,21,23.4,24.6,23.4,24.6l12.6,99.4c0,0-9,35.3-9.5,74
				c-0.5,38.6,4.8,70.5,4.8,70.5s14.5,17,27,14.4c12.5-2.6,20.8-6.8,20.8-6.8s2.5-98.7,15.7-136.9c13.2-38.2-5.1-213.5-5.1-213.5
				L1638.8,1097.2z"/>
			<path fill="#FFBDBD" d="M1721.6,811.9c0,0-4.8,9.3-4.9,12.4c-0.1,3.2,1.4,7.1-0.7,19.5c-2.1,12.4-6.2,25-13.4,25.1
				c-7.1,0-11.8-1.9-12.8-0.4c-1,1.5-4.4,20.1-4.4,20.1s-15.8-1.3-24.8-7.3c-9-5.9-16.4-9.2-16.4-9.2l1.1-28.9
				c0,0,30.5-55.1,50.8-58C1716.4,782.3,1723.2,801.3,1721.6,811.9z"/>
			<path fill="#603813" d="M1730.4,784.6c7.2,20.2-12.2,34.3-12.2,34.3s3.2-7.2,0.5-15.3c-2.7-8-2.7-8-2.7-8s2.3,14.7-11.4,18.1
				c-13.6,3.4-2.6,9.5-4.3,17.3c-1.7,7.9-4.1,16.6-4.1,16.6s-2.6-27.7-8.9-25.8c-6.2,1.8,9,33.1-23.9,30.3c-5-0.4-22.8,5.4-30.5-2.5
				c-7.7-7.9-24.4-63.1,2.7-83.1C1662.9,746.5,1717.3,747.5,1730.4,784.6z"/>
			<path fill="#BE1E2D" d="M1603.9,1093.1c8.4,17.3,59.9,19.2,88.9,17.6c9.6-0.5,25.5-10.8,28.4-11.7c11.7-3.9,6.7-33,6.7-33
				l0.2,0.4c0.8,1.1,4.3,3.6,20.5-3.8c19.6-8.9,87.2-71,87.2-71s1.7-7.3-5-19.6c-6.7-12.3-20.7-10.6-20.7-10.6s-53.1,48.9-64.8,48.9
				c-11.7,0-9-81.4-11.7-96c-2.7-14.6-45.9-31.3-45.9-31.3c-20.7-1.1-57.1-18.4-57.1-18.4s-8.4,3.9-21.2,13.9
				c-12.8,10.1,2.2,59.2-2.8,95.9C1601.6,1011.2,1592.8,1070.2,1603.9,1093.1z"/>
			<path fill="#603813" d="M1654.4,867.1c0,0-5.2,26.7,6,39.4c11.3,12.6,10.8,49.3-15.9,57.7c-26.7,8.4,8.6,49.7-26.1,63.3
				c-34.7,13.6-62.4-15-56-44.1c6.4-29.1,7.8-44.4,33-59c25.2-14.6,1.9-37.7,16.2-52.1c14.4-14.4,21.3-22.8,21.3-22.8l27.6,3.9
				L1654.4,867.1z"/>
			
				<linearGradient id="SVGID_8_" gradientUnits="userSpaceOnUse" x1="12514.5234" y1="969.1901" x2="12636.3477" y2="969.1901" gradientTransform="matrix(-1 0 0 1 14369.9844 0)">
				<stop  offset="0" style="stop-color:#4A31BB"/>
				<stop  offset="1" style="stop-color:#1E183D"/>
			</linearGradient>
			<polygon opacity="0.2" fill="url(#SVGID_8_)" points="1734.1,914.3 1855.5,976.1 1797.6,1024.1 1737.3,991.4 1733.6,921.2 			"/>
			<linearGradient id="SVGID_9_" gradientUnits="userSpaceOnUse" x1="1733.6372" y1="962.484" x2="1855.4611" y2="962.484">
				<stop  offset="0" style="stop-color:#FFFFFF"/>
				<stop  offset="1" style="stop-color:#E0E0E0"/>
			</linearGradient>
			<polygon fill="url(#SVGID_9_)" points="1734.1,907.6 1855.5,969.4 1797.6,1017.4 1737.3,984.7 1733.6,914.5 			"/>
			<path fill="#FFBDBD" d="M1836,958.4c0,0-23.2,6-35-3.8c-11.8-9.8-11.7-17.4,2.6-17.4C1817.9,937.3,1835.2,945,1836,958.4z"/>
			
				<linearGradient id="SVGID_10_" gradientUnits="userSpaceOnUse" x1="12640.9775" y1="1038.0009" x2="12675.9736" y2="1038.0009" gradientTransform="matrix(-1 0 0 1 14369.9844 0)">
				<stop  offset="0" style="stop-color:#4A31BB"/>
				<stop  offset="1" style="stop-color:#1E183D"/>
			</linearGradient>
			<path opacity="0.1" fill="url(#SVGID_10_)" d="M1696.1,1043.1c2.8,19.8,4.5,43.2,5.4,58.3c9.6-0.5,16.9-1.4,19.8-2.4
				c11.7-3.9,6.7-33,6.7-33s-18-23.6-25-48.7c-6.9-25-6.9-42.7-6.9-42.7S1691.4,1010.8,1696.1,1043.1z"/>
			<path fill="#BE1E2D" d="M1660.6,853.4c0,0-8.1-9.1-16.4-9.8c-8.4-0.7-14.1,1.5-14.1,1.5l-3,11.1c0,0,9.5,0.3,17.6,3
				c8.1,2.8,10.1,6.9,10.1,6.9S1663.5,860,1660.6,853.4z"/>
		</g>
		<g>
			<g>
				<path fill="#FFBDBD" d="M1229.7,1294.3c0,0,0.4,23,7.9,25.3c7.5,2.2,23.8-5.5,25.7-14.6c2-9.1,0-12.4,0-12.4L1229.7,1294.3z"/>
				<path fill="#FFBDBD" d="M1154.2,1277.4c0,0-3.1,20.9,7.5,25.3c10.6,4.4,28.6-7.7,30.2-12.7c1.6-5,0-15.3,0-15.3L1154.2,1277.4z"
					/>
				<path fill="#BE1E2D" d="M1152.5,1290.8c0,0,10.6,10.6,25.3,3.5c14.7-7.1,14.7-10.2,18.2-9.7c3.5,0.5,5.6,6.9,13.9,6
					c8.4-0.9,21.3-2.7,22.5,1.1c1.3,3.8,1.8,10,1.8,10s-33.2,14.6-54.2,17.8c-21,3.2-29.4,0.6-30.1-7.2
					C1149.2,1304.5,1149.4,1291.5,1152.5,1290.8z"/>
				<path fill="#BE1E2D" d="M1231.8,1306.5c0,0,7.6,10.4,19.8,3.3c12.2-7.1,13.2-12.7,18-8c4.8,4.7,27.9-0.5,34.2,0
					c6.3,0.5,9.9,16.1,9.9,16.1s-33.4,16.2-56.2,19.8c-22.8,3.5-28.4,0-29.6-7.6C1226.4,1322.4,1225.7,1306.2,1231.8,1306.5z"/>
				<path fill="#603813" d="M1143.5,914.8c0,0-6.4,13.9-4,39.3c2.4,25.4,20.2,37.8,20.2,37.8l2.4,127.9c0,0-14.5,34.5-14.7,82.5
					c-0.2,48.1,0.9,72.4,0.9,72.4s6.2,13.6,24.9,14.5s22.8-12.1,22.8-12.1s-2-79.6,18.8-136.6c20.8-56.9,7.8-201.9,7.8-201.9
					S1170.7,938.2,1143.5,914.8z"/>
				<path fill="#603813" d="M1186.4,934.1c0,0-1.2,31.6,14,55c15.1,23.5,30.3,41.1,30.3,41.1l3.9,89.6c0,0-10.4,19.4-11.6,66
					c-1.2,46.6,0,106.7,0,106.7s3.1,13.1,24.8,11.2c21.7-1.9,22.4-5.9,22.4-5.9s3.7-117.4,18.7-166.4c14.9-49-2.9-224.3-2.9-224.3
					S1261.7,944.6,1186.4,934.1z"/>
				<path fill="#FFBDBD" d="M1363.1,689.2c0,0-9.1-14.8-7.9-23.4c1.3-8.6,4.1-25,5.8-25c1.7-0.1,6.8,15.8,8.4,14.4
					c1.6-1.4,3.3-55.1,8.5-55.8c5.3-0.6,0.9,40.2,3.8,41.3c2.9,1.1,22.9,20.9,18.6,34.9c-4.3,14-15.7,32.4-15.7,32.4
					S1373.1,693.8,1363.1,689.2z"/>
				<path fill="#FFBDBD" d="M1254.3,571.5c0,0,5.9,16.4,4.4,20.6c-1.5,4.2-3,11.8-1.1,15.9c1.9,4.1,5.3,10,1,24.1
					c-4.3,14.1-0.8,20.7-7.9,23.2c-7.1,2.6-12.5-0.1-12.5-0.1l-1.9,7.4c0,0-32,1.3-39.9,1.6c-7.9,0.3-10.2,2.9-10.2,2.9
					s5.7-15.8,0.6-29.7c-5-13.9,5.1-54.6,25.6-65.9C1232.8,560.1,1254.3,571.5,1254.3,571.5z"/>
				<path fill="#A87C4F" d="M1384.7,708c0,0-37.3,99.2-52.3,104.9c-14.9,5.7-49.6-31.1-49.6-31.1s7.8,86.5,3.2,125.3
					c-1.1,9.5-26.1,25.9-38.2,29.7c-37.3,12-101.9-8.6-104.4-22c-7.9-43.3-1.6-94-1.6-94s-29.8,0.3-31.3-18.7
					c-1.4-19.1,5.1-123.2,25.4-134c20.3-10.9,44.3-6.6,44.3-6.6l5.4-6.8c0,0,37.2,2.7,49.1,6.2c12,3.4,15.3,16.5,15.3,16.5
					s26.4,8.5,34.2,19.9c7.8,11.5,35.6,55.3,39.4,52.8c3.8-2.4,32.8-64.8,32.8-64.8s16.3-0.2,23.5,9.1
					C1387.3,703.6,1384.7,708,1384.7,708z"/>
				<linearGradient id="SVGID_11_" gradientUnits="userSpaceOnUse" x1="1257.2153" y1="824.6506" x2="1287.4309" y2="824.6506">
					<stop  offset="0" style="stop-color:#4A31BB"/>
					<stop  offset="1" style="stop-color:#1E183D"/>
				</linearGradient>
				<path opacity="0.3" fill="url(#SVGID_11_)" d="M1286,907.1c-1.1,9.5-9.5,15.8-21.6,19.7c2.3-5.5,4.5-12.3,5.6-19.7
					c2.5-18.7,0.3-93.4-6.7-122.1c-7.1-28.8-6-62.4-6-62.4s0,2.2,3.4,20.1c3.4,17.9,22.2,39.1,22.2,39.1S1290.6,868.3,1286,907.1z"
					/>
				<linearGradient id="SVGID_12_" gradientUnits="userSpaceOnUse" x1="1118.8646" y1="765.4381" x2="1141.9246" y2="765.4381">
					<stop  offset="0" style="stop-color:#4A31BB"/>
					<stop  offset="1" style="stop-color:#1E183D"/>
				</linearGradient>
				<path opacity="0.3" fill="url(#SVGID_12_)" d="M1138,710.1l3.9,110.7c0,0-7.2,0.4-13.4-1.8c-6.2-2.1-9.6-4-9.6-4s14-7.1,14.3-23
					C1133.4,776.2,1138,710.1,1138,710.1z"/>
				<path fill="#603813" d="M1263.2,557.3c0,0,4.6,18.7-6.1,23c-10.7,4.3-11.7,11.3-11.4,20.7c0.3,9.5-5.1,6-5.4,12.3
					c-0.3,6.3,1.9,9.2-1.6,10.4c-3.5,1.3-0.2-20.7-8.9-19.7c-8.6,1-10.6,6.9-6.9,15.8c3.7,8.9-3.9,20.8-13,23.2
					c-9.1,2.4-36.3,9.6-38.1-23.2c-1.8-32.8-16.4-51,3.1-67.2C1194.5,536.6,1236.2,524.3,1263.2,557.3z"/>
			</g>
		</g>
	</g>
	<g>
		<g opacity="0.1">
			<ellipse opacity="0" fill="#F6921E" cx="757.9" cy="1720.8" rx="279.4" ry="86.3"/>
			<ellipse opacity="4.166667e-02" fill="#F6921E" cx="757.9" cy="1720.8" rx="274.1" ry="84.7"/>
			<ellipse opacity="8.333334e-02" fill="#F6921E" cx="757.9" cy="1720.8" rx="268.7" ry="83.1"/>
			<ellipse opacity="0.125" fill="#F6921E" cx="757.9" cy="1720.8" rx="263.4" ry="81.4"/>
			<ellipse opacity="0.1667" fill="#F6921E" cx="757.9" cy="1720.8" rx="258.1" ry="79.8"/>
			<ellipse opacity="0.2083" fill="#F6921E" cx="757.9" cy="1720.8" rx="252.8" ry="78.1"/>
			<ellipse opacity="0.25" fill="#F6921E" cx="757.9" cy="1720.8" rx="247.5" ry="76.5"/>
			<ellipse opacity="0.2917" fill="#F6921E" cx="757.9" cy="1720.8" rx="242.1" ry="74.8"/>
			<ellipse opacity="0.3333" fill="#F6921E" cx="757.9" cy="1720.8" rx="236.8" ry="73.2"/>
			<ellipse opacity="0.375" fill="#F6921E" cx="757.9" cy="1720.8" rx="231.5" ry="71.5"/>
			<ellipse opacity="0.4167" fill="#F6921E" cx="757.9" cy="1720.8" rx="226.2" ry="69.9"/>
			<ellipse opacity="0.4583" fill="#F6921E" cx="757.9" cy="1720.8" rx="220.9" ry="68.3"/>
			<ellipse opacity="0.5" fill="#F6921E" cx="757.9" cy="1720.8" rx="215.5" ry="66.6"/>
			<ellipse opacity="0.5417" fill="#F6921E" cx="757.9" cy="1720.8" rx="210.2" ry="65"/>
			<ellipse opacity="0.5833" fill="#F6921E" cx="757.9" cy="1720.8" rx="204.9" ry="63.3"/>
			<ellipse opacity="0.625" fill="#F6921E" cx="757.9" cy="1720.8" rx="199.6" ry="61.7"/>
			<ellipse opacity="0.6667" fill="#F6921E" cx="757.9" cy="1720.8" rx="194.3" ry="60"/>
			<ellipse opacity="0.7083" fill="#F6921E" cx="757.9" cy="1720.8" rx="188.9" ry="58.4"/>
			<ellipse opacity="0.75" fill="#F6921E" cx="757.9" cy="1720.8" rx="183.6" ry="56.7"/>
			<ellipse opacity="0.7917" fill="#F6921E" cx="757.9" cy="1720.8" rx="178.3" ry="55.1"/>
			<ellipse opacity="0.8333" fill="#F6921E" cx="757.9" cy="1720.8" rx="173" ry="53.5"/>
			<ellipse opacity="0.875" fill="#F6921E" cx="757.9" cy="1720.8" rx="167.7" ry="51.8"/>
			<ellipse opacity="0.9167" fill="#F6921E" cx="757.9" cy="1720.8" rx="162.3" ry="50.2"/>
			<ellipse opacity="0.9583" fill="#F6921E" cx="757.9" cy="1720.8" rx="157" ry="48.5"/>
			<ellipse fill="#F6921E" cx="757.9" cy="1720.8" rx="151.7" ry="46.9"/>
		</g>
		<g>
			<polygon fill="#A87C4F" points="656.1,1492.1 656.1,1528.6 685.6,1516.5 			"/>
			<path fill="#3B2314" d="M1009.8,1620.6l-43.3-2.2v-0.8c0-11.2-3.8-21.9-10.8-31.8l28.4-22.3c-12.8-12.5-29.8-23.6-50.1-32.6
				l-22.8,19.9c-12.9-6.3-27.5-11.6-43.6-15.6l6.5-23.4c-22.1-4.7-45.9-7.6-70.9-8.2l-8,22.7c-0.9,0-1.8-0.1-2.7-0.1
				c-18.4,0-36.2,1.5-52.8,4.3l-15.7-21.3c-24.9,4.3-47.8,11-67.8,19.4l9.6,26.4c-9.3,5.2-17.5,11-24.3,17.2h-48.5
				c-11.5,13.9-17.9,29.2-17.9,45.3c0,0.3,0,0.6,0.1,0.9l44,6.9c2,12.4,8.8,24.1,19.3,34.6l-22.8,23.9
				c14.3,10.5,31.8,19.5,51.8,26.9l26.4-18c10,3.6,20.8,6.7,32.4,9.2l-7.5,23c19.7,3.7,40.7,5.9,62.5,6.5l16.4-22.7
				c17.3-0.2,34-1.8,49.7-4.6h0.4l19.3,20.6c23.5-4.6,45.2-11.1,64.2-19.4l-6.7-28.4c7.7-4.7,14.6-9.9,20.4-15.4l42.7,6.2
				c9.5-10.1,16.2-21,19.7-32.5c1.3-4.4,2.2-9,2.4-13.5l0.2-1.2H1009.8z M792.5,1669.8c-54.9,0-99.5-23.4-99.5-52.2
				c0-28.8,44.5-52.2,99.5-52.2c54.9,0,99.5,23.4,99.5,52.2C891.9,1646.4,847.4,1669.8,792.5,1669.8z"/>
			<polygon fill="#603813" points="575,1581 575,1617.6 619.1,1625.4 619.1,1588.8 			"/>
			<path fill="#603813" d="M615.6,1647.4v36.6c0,0,14,10.4,27.9,16.7c13.8,6.3,24,10.2,24,10.2v-36.5
				C667.5,1674.3,630.1,1657.6,615.6,1647.4z"/>
			<path fill="#603813" d="M718.8,1688.4v36.6c0,0,15,3.4,33.8,4.7c18.8,1.4,28.8,1.8,28.8,1.8v-36.6L718.8,1688.4z"/>
			<path fill="#603813" d="M987.6,1631.3v36.6c0,0,20.1-14.6,22.3-47.3V1584C1009.9,1584,1003.8,1610.7,987.6,1631.3z"/>
			<polygon fill="#603813" points="984,1526.9 984,1563.5 966.3,1577.4 955.6,1549.2 			"/>
			<path fill="#A87C4F" d="M1009.8,1584l-43.3-2.2v-0.8c0-11.2-3.8-21.9-10.8-31.8l28.4-22.3c-12.8-12.5-29.8-23.6-50.1-32.6
				l-22.8,19.9c-12.9-6.3-27.5-11.6-43.6-15.6l6.5-23.4c-22.1-4.7-45.9-7.6-70.9-8.2l-8,22.7c-0.9,0-1.8-0.1-2.7-0.1
				c-18.4,0-36.2,1.5-52.8,4.3l-15.7-21.3c-24.9,4.4-47.8,11-67.8,19.4l9.6,26.4c-9.3,5.2-17.5,11-24.3,17.2h-48.5
				c-11.5,13.9-17.9,29.2-17.9,45.3c0,0.3,0,0.6,0.1,0.9l44,6.9c2,12.4,8.8,24.2,19.3,34.6l-22.8,23.9
				c14.3,10.5,31.8,19.6,51.8,26.9l26.4-18.1c10,3.6,20.8,6.7,32.4,9.2l-7.5,22.9c19.7,3.7,40.7,5.9,62.5,6.5l16.4-22.7
				c17.3-0.2,34-1.8,49.7-4.6h0.4l19.3,20.6c23.5-4.6,45.2-11.1,64.2-19.4l-6.7-28.4c7.7-4.7,14.6-9.9,20.4-15.4l42.7,6.3
				c9.5-10.1,16.2-21,19.7-32.5c1.3-4.4,2.2-9,2.4-13.6l0.2-1.2H1009.8z M792.5,1633.2c-54.9,0-99.5-23.4-99.5-52.2
				c0-28.8,44.5-52.2,99.5-52.2c54.9,0,99.5,23.4,99.5,52.2C891.9,1609.8,847.4,1633.2,792.5,1633.2z"/>
		</g>
	</g>
	<g>
		<path fill="#603813" d="M1768.1,353.7v240.2c0,1.8-0.4,3.4-1.1,4.7c-2,3.7-6.4,5.3-11.5,3.6l-266.4-90.8c-4.7-1.6-8.9-5.7-11-10.3
			c-1-2.1-1.5-4.4-1.5-6.5V254.4c0-6.9,5.6-10.7,12.6-8.3l266.4,90.8c4.2,1.4,7.9,4.8,10.2,8.7
			C1767.2,348.2,1768.1,351,1768.1,353.7z"/>
		<path fill="#C3996B" d="M1760.5,359.1v240.2c0,1.8-0.4,3.4-1.1,4.7c-2,3.7-6.4,5.3-11.5,3.6l-266.4-90.8c-4.7-1.6-8.9-5.7-11-10.3
			c-1-2.1-1.5-4.4-1.5-6.5V259.8c0-6.9,5.6-10.7,12.6-8.3l266.4,90.8c4.2,1.4,7.9,4.8,10.2,8.7
			C1759.7,353.5,1760.5,356.4,1760.5,359.1z"/>
		<path fill="#A87C4F" d="M1759.5,604c-2,3.7-6.4,5.3-11.5,3.6l-266.4-90.8c-4.7-1.6-8.9-5.7-11-10.3l131.1-96.4L1759.5,604z"/>
		<path fill="#8A5D3B" d="M1758.2,351l-149.4,147.3c-4.6,5.2-11.3,4.2-14.9-2.1L1469,260.6v-0.8c0-6.9,5.6-10.7,12.6-8.3l266.4,90.8
			C1752.2,343.7,1755.9,347,1758.2,351z"/>
	</g>
</g>
</svg>
