<svg xmlns="http://www.w3.org/2000/svg" viewBox="0 0 499.08 369.71"><defs><style>.cls-1{isolation:isolate;}.cls-2{fill:#ca9e67;mix-blend-mode:multiply;}.cls-3{fill:#e6846e;}.cls-4{fill:#fff;}.cls-5{fill:#be1622;}.cls-6{fill:#a85939;}.cls-7{fill:#f4a391;}.cls-8{fill:#7d4e24;}.cls-9{fill:#c6c6c6;}.cls-10{fill:#b17f4a;}.cls-11{fill:#761616;}.cls-12{fill:#f6a310;}.cls-13{fill:#683c11;}</style></defs><g class="cls-1"><g id="Capa_1" data-name="Capa 1"><path class="cls-2" d="M113.06,271c8.42,5.77,15,18.61,15,18.61.95,1.65,1.54,4.84,1.9,8.06-6-2.31-12.11-1.58-14.38-.77-2.43.87-1.22,3.32-1.22,3.32,3.84.33,16.2,7.05,16.2,7.05l3.47,3.09-.49.09.8,4.48h-.53l-9.92,67.38L113.2,425h42.06L163,396.12l.57-81.58h-.92l.7-3.55-.59-.25c.7-3.1,1.41-7.28.72-9.39-1.17-3.6-3.7-14.68-3.7-14.68,1.06-2.11,10.75-10,8.73-17.34-.16-.55-2.19-3.09-3.25-.78-3,6.51-9.8,13.62-10.41,14.25a19.24,19.24,0,0,0-2.81-1.31c1.23-5.66,4.64-17.6-1.41-23.8-.56-.56-4.64-2.23-4.38,1.19.58,7.52-1.35,17-2.39,21.41l-.76,0,.35-.13c-1.72-2.72-6-22.2-16-25.07-.76-.21-5.14.36-3.21,3.21,4.91,7.25,9.65,20.43,10.89,24-.55.24-1.08.49-1.58.75-2.95-3.63-9.23-17.2-18.77-16.28C114.09,266.91,110.23,269,113.06,271Z" transform="translate(-8.68 -56.95)"/><path class="cls-2" d="M9.7,349.49c8.42,5.77,15,18.61,15,18.61.95,1.65,1.54,4.84,1.9,8a23.41,23.41,0,0,0-14.39-.76c-2.42.87-1.21,3.32-1.21,3.32,3.84.33,16.2,7,16.2,7l3.47,3.1-.49.09.8,4.48h-.53L25.8,425H60L60.25,393h-.92l.7-3.56-.59-.24c.7-3.1,1.41-7.28.72-9.39-1.17-3.6-3.7-14.68-3.7-14.68,1-2.11,10.75-10,8.73-17.34-.16-.55-2.19-3.09-3.25-.79-3,6.52-9.8,13.63-10.41,14.26A19.24,19.24,0,0,0,48.72,360c1.23-5.66,4.64-17.6-1.41-23.81-.56-.55-4.64-2.23-4.38,1.2.58,7.52-1.35,17-2.4,21.41l-.76,0,.35-.14c-1.71-2.71-5.94-22.2-15.95-25.06-.75-.21-5.13.36-3.2,3.21,4.91,7.25,9.65,20.43,10.89,24-.55.24-1.08.49-1.58.75-3-3.63-9.24-17.2-18.77-16.28C10.73,345.41,6.87,347.54,9.7,349.49Z" transform="translate(-8.68 -56.95)"/><path class="cls-2" d="M215.31,310.79c8.42,5.77,15,18.61,15,18.61.95,1.65,1.54,4.84,1.9,8.05-6-2.3-12.11-1.57-14.38-.76-2.42.87-1.22,3.31-1.22,3.31,3.84.34,16.2,7.05,16.2,7.05l3.47,3.1-.49.09.81,4.48h-.54l-9.92,67.38-.72,2.88h40l.49-70.65-.92,0,.7-3.56-.59-.24c.7-3.1,1.41-7.28.73-9.39-1.18-3.6-3.7-14.68-3.7-14.68,1.05-2.11,10.74-10,8.72-17.34-.16-.56-2.19-3.09-3.24-.79-3,6.51-9.81,13.63-10.42,14.26a19.24,19.24,0,0,0-2.81-1.31c1.23-5.66,4.64-17.6-1.41-23.81-.56-.55-4.64-2.23-4.38,1.2.58,7.52-1.35,17-2.39,21.4l-.76.05.35-.14c-1.72-2.71-6-22.2-16-25.06-.76-.21-5.14.36-3.21,3.21,4.91,7.25,9.65,20.43,10.89,24-.55.24-1.08.49-1.58.75-2.95-3.63-9.23-17.2-18.77-16.28C216.34,306.71,212.48,308.84,215.31,310.79Z" transform="translate(-8.68 -56.95)"/><path class="cls-2" d="M293.11,296.37c-.69,2.11,0,6.29.72,9.39l-.59.24.7,3.56-.92,0,.57,81.59L302.72,425h28.06l13-3.75-11-43.92-9.92-67.38h-.53l.8-4.48-.49-.09,3.47-3.1s12.36-6.71,16.2-7.05c0,0,1.2-2.44-1.22-3.31s-8.34-1.54-14.39.76c.37-3.21,1-6.4,1.91-8.05,0,0,6.58-12.85,15-18.61,2.83-1.95-1-4.08-1.81-4.16-9.54-.92-15.82,12.64-18.77,16.28-.5-.26-1-.51-1.58-.75,1.24-3.58,6-16.76,10.89-24,1.93-2.85-2.45-3.42-3.21-3.21-10,2.86-14.23,22.35-15.95,25.06l.35.14-.76-.05c-1-4.42-3-13.88-2.39-21.4.26-3.43-3.82-1.75-4.38-1.2-6,6.21-2.64,18.15-1.41,23.81a18.25,18.25,0,0,0-2.81,1.31c-.61-.63-7.44-7.75-10.41-14.26-1.06-2.3-3.09.23-3.25.79-2,7.37,7.67,15.23,8.73,17.34C296.81,281.69,294.28,292.77,293.11,296.37Z" transform="translate(-8.68 -56.95)"/><path class="cls-2" d="M405.27,400.34,409.76,425h41.43l-5.76-35.17-4.31-68-.53-.05,1.18-4.4-.48-.13,3.71-2.8s12.87-5.67,16.73-5.68c0,0,1.4-2.34-.94-3.4s-8.19-2.23-14.4-.43c.63-3.18,1.48-6.31,2.56-7.87,0,0,7.62-12.26,16.5-17.31,3-1.71-.7-4.15-1.47-4.29-9.42-1.71-16.81,11.29-20.05,14.67-.48-.31-1-.6-1.51-.88,1.54-3.47,7.34-16.21,12.84-23,2.16-2.68-2.16-3.61-2.93-3.46-10.2,2-16,21.09-18,23.65l.34.17-.76-.11c-.67-4.49-1.81-14.08-.61-21.53.55-3.39-3.66-2.06-4.26-1.55-6.55,5.68-4.14,17.86-3.39,23.61a19.51,19.51,0,0,0-2.9,1.06c-.56-.67-6.77-8.33-9.2-15.06-.86-2.38-3.09,0-3.3.51-2.63,7.18,6.39,15.81,7.26,18,0,0-3.44,10.84-4.9,14.33-.86,2-.5,6.27-.06,9.41l-.61.2.41,3.6-.92-.09Z" transform="translate(-8.68 -56.95)"/><path class="cls-3" d="M81.4,326.28l-13.09-8.71s-2.07-13.41-5-17.12,15.76-19.46,31-7.39c0,0,4.07,10.61,5.74,14s.17,13.32.17,13.32Z" transform="translate(-8.68 -56.95)"/><path class="cls-3" d="M69.84,293.14S62.08,277.59,55.22,270c-2.31-2.55,1.94-3.73,2.72-3.63,10.3,1.42,17.26,20.11,19.33,22.55Z" transform="translate(-8.68 -56.95)"/><path class="cls-3" d="M77.42,291.56s1.83-14.13-.39-24.09c-.74-3.36,3.54-2.28,4.17-1.81,8.25,6.34,4.16,22.8,4.76,25.95Z" transform="translate(-8.68 -56.95)"/><path class="cls-3" d="M88.89,290s6.21-8.45,8.34-15.64c.71-2.43,3.08-.21,3.32.32,3,7-5.44,16.16-6.18,18.4Z" transform="translate(-8.68 -56.95)"/><path class="cls-3" d="M63.34,300.45S55,288.66,45.85,284.14c-3.08-1.52.45-4.18,1.21-4.37,10.11-2.45,18.84,12.56,21.67,14.07Z" transform="translate(-8.68 -56.95)"/><path class="cls-3" d="M68.31,317.57s-13.19-4.9-17-4.69c0,0-1.54-2.25.74-3.45s8.82-2.92,15.59-1C75,310.6,68.31,317.57,68.31,317.57Z" transform="translate(-8.68 -56.95)"/><path class="cls-4" d="M74.41,328.45l-2.7-8.15s19.66-6.64,29.63-3.68l-.4,7.44Z" transform="translate(-8.68 -56.95)"/><polygon class="cls-5" points="101.43 368.03 104.36 343.99 93.38 263.15 63.94 267.75 63.65 335.85 60.31 368.03 101.43 368.03"/><path class="cls-6" d="M480.37,373.21,490,360.8s-2.28-13.37-.7-17.81-21.13-13.46-31.78,2.82c0,0-.5,11.36-1,15.1s4,12.7,4,12.7Z" transform="translate(-8.68 -56.95)"/><path class="cls-6" d="M480.83,338.12s2.44-17.21,6.55-26.55c1.39-3.15-3-2.92-3.73-2.58-9.32,4.61-10,24.54-11.19,27.52Z" transform="translate(-8.68 -56.95)"/><path class="cls-6" d="M473.14,339s-6.21-12.83-7.26-23c-.36-3.41-4.08-1-4.53-.39-5.81,8.63,3.28,23,3.71,26.12Z" transform="translate(-8.68 -56.95)"/><path class="cls-6" d="M461.76,341.16s-8.57-6.05-12.86-12.2c-1.45-2.07-3,.78-3,1.36-.67,7.61,10.28,13.6,11.69,15.49Z" transform="translate(-8.68 -56.95)"/><path class="cls-6" d="M489.32,343s4.17-13.82,11.42-21c2.43-2.42-1.75-3.82-2.53-3.76-10.37.88-13.9,17.88-16.1,20.21Z" transform="translate(-8.68 -56.95)"/><path class="cls-6" d="M490,360.8S501,352,504.7,351c0,0,.74-2.62-1.79-3s-9.3,0-15.09,4C481.49,356.31,490,360.8,490,360.8Z" transform="translate(-8.68 -56.95)"/><path class="cls-4" d="M487.69,373.05l0-8.58s-20.75-.07-29.26,5.9l2.73,6.93Z" transform="translate(-8.68 -56.95)"/><polygon class="cls-5" points="499.08 369.71 479.52 311.98 450.14 316.94 460.15 369.71 499.08 369.71"/><path class="cls-3" d="M268.57,410.43l12.83-9.08s1.69-13.46,4.48-17.25-16.32-19-31.23-6.5c0,0-3.76,10.72-5.33,14.17s.2,13.32.2,13.32Z" transform="translate(-8.68 -56.95)"/><path class="cls-3" d="M279.17,377s7.31-15.77,14-23.52c2.23-2.61-2.05-3.67-2.83-3.55-10.26,1.72-16.67,20.6-18.68,23.1Z" transform="translate(-8.68 -56.95)"/><path class="cls-3" d="M271.54,375.61s-2.23-14.07-.29-24.09c.64-3.38-3.6-2.17-4.22-1.69-8.06,6.58-3.5,22.92-4,26.08Z" transform="translate(-8.68 -56.95)"/><path class="cls-3" d="M260,374.37s-6.45-8.27-8.78-15.4c-.79-2.41-3.09-.12-3.31.42-2.85,7.09,5.9,16,6.7,18.21Z" transform="translate(-8.68 -56.95)"/><path class="cls-3" d="M285.88,384.1s8-12,17-16.8c3-1.62-.56-4.17-1.33-4.34-10.17-2.16-18.47,13.09-21.26,14.68Z" transform="translate(-8.68 -56.95)"/><path class="cls-3" d="M281.4,401.35s13.05-5.28,16.9-5.17c0,0,1.47-2.3-.84-3.43s-8.9-2.66-15.61-.52C274.54,394.58,281.4,401.35,281.4,401.35Z" transform="translate(-8.68 -56.95)"/><path class="cls-4" d="M275.62,412.4l2.46-8.22s-19.84-6.08-29.72-2.83l.61,7.43Z" transform="translate(-8.68 -56.95)"/><polygon class="cls-5" points="269.17 368.03 268.63 351.65 239.07 347.9 236.92 368.03 269.17 368.03"/><path class="cls-3" d="M359.56,334.28l13.2-8.54S375,312.36,378,308.69,362.46,289,347,300.89c0,0-4.22,10.55-5.93,13.93s-.35,13.32-.35,13.32Z" transform="translate(-8.68 -56.95)"/><path class="cls-3" d="M371.56,301.3s8-15.45,14.93-22.91c2.34-2.52-1.9-3.76-2.67-3.67C373.49,276,366.29,294.6,364.18,297Z" transform="translate(-8.68 -56.95)"/><path class="cls-3" d="M364,299.61s-1.64-14.15.71-24.08c.79-3.35-3.5-2.32-4.14-1.86-8.33,6.23-4.47,22.74-5.1,25.88Z" transform="translate(-8.68 -56.95)"/><path class="cls-3" d="M352.55,297.88s-6.1-8.53-8.12-15.75c-.68-2.44-3.09-.25-3.33.28-3.14,7,5.23,16.23,5.94,18.48Z" transform="translate(-8.68 -56.95)"/><path class="cls-3" d="M378,308.69s8.48-11.67,17.7-16.07c3.1-1.49-.39-4.19-1.15-4.39-10.08-2.58-19,12.31-21.86,13.78Z" transform="translate(-8.68 -56.95)"/><path class="cls-3" d="M372.76,325.74s13.26-4.72,17.1-4.46c0,0,1.57-2.23-.69-3.46s-8.78-3-15.57-1.17C366.19,318.69,372.76,325.74,372.76,325.74Z" transform="translate(-8.68 -56.95)"/><path class="cls-4" d="M366.52,336.54l2.81-8.11s-19.57-6.91-29.58-4.07l.3,7.44Z" transform="translate(-8.68 -56.95)"/><polygon class="cls-5" points="361.39 369.71 359.07 343.97 359.69 275.87 330.31 270.87 318.25 351.56 320.22 369.71 361.39 369.71"/><path class="cls-6" d="M179.36,372l-9.65-12.41s2.28-13.37.7-17.81,21.12-13.46,31.78,2.82c0,0,.5,11.36,1,15.1s-4.05,12.7-4.05,12.7Z" transform="translate(-8.68 -56.95)"/><path class="cls-6" d="M178.9,336.9s-2.44-17.21-6.55-26.55c-1.39-3.15,3-2.92,3.73-2.58,9.32,4.61,10,24.54,11.19,27.52Z" transform="translate(-8.68 -56.95)"/><path class="cls-6" d="M186.59,337.8s6.21-12.83,7.26-23c.36-3.41,4.08-1,4.53-.39,5.81,8.63-3.28,22.95-3.71,26.12Z" transform="translate(-8.68 -56.95)"/><path class="cls-6" d="M198,339.94s8.57-6.05,12.86-12.2c1.45-2.07,3,.78,3,1.36.67,7.61-10.28,13.6-11.69,15.49Z" transform="translate(-8.68 -56.95)"/><path class="cls-6" d="M170.41,341.77s-4.17-13.82-11.42-21c-2.43-2.42,1.75-3.82,2.53-3.76,10.37.88,13.9,17.88,16.1,20.21Z" transform="translate(-8.68 -56.95)"/><path class="cls-6" d="M169.71,359.58s-11-8.83-14.68-9.84c0,0-.74-2.62,1.79-3s9.3,0,15.09,4C178.24,355.09,169.71,359.58,169.71,359.58Z" transform="translate(-8.68 -56.95)"/><path class="cls-4" d="M172,371.83l0-8.58s20.75-.07,29.26,5.9l-2.73,6.93Z" transform="translate(-8.68 -56.95)"/><polygon class="cls-5" points="182.32 368.03 192.24 315.72 162.85 310.76 143.45 368.03 182.32 368.03"/><path class="cls-7" d="M106.28,224.49l-7.38-.81s-4.57,3.32-6.74,3.78-1.69,12.41,8.77,13c0,0,4.69-2.61,6.32-3.34s4.1-4.77,4.1-4.77Z" transform="translate(-8.68 -56.95)"/><path class="cls-7" d="M92,232.38s-6,3.14-10.73,3.8c-1.61.22-.43,1.94-.12,2.14,4.17,2.6,10.78-1.92,12.28-2.17Z" transform="translate(-8.68 -56.95)"/><path class="cls-7" d="M93.35,236.29s-3.62,5.67-7.44,8.61c-1.28,1,.6,1.9,1,1.92,4.91.2,8.41-7,9.58-8Z" transform="translate(-8.68 -56.95)"/><path class="cls-7" d="M98,239.91a29.78,29.78,0,0,1-1.72,8.19c-.47,1.1,1.06,1,1.31.89,3.23-1.62,2.91-7.5,3.33-8.54Z" transform="translate(-8.68 -56.95)"/><path class="cls-7" d="M92.16,227.47s-6.59,1.76-11.28.62c-1.57-.38-1.1,1.65-.88,1.95,2.91,4,10.63,1.15,12.11,1.46Z" transform="translate(-8.68 -56.95)"/><path class="cls-7" d="M98.9,223.68s-6.26-2.22-7.59-3.46c0,0-1.24.35-.78,1.47a11.06,11.06,0,0,0,5.36,5.07C99.21,228.22,98.9,223.68,98.9,223.68Z" transform="translate(-8.68 -56.95)"/><path class="cls-3" d="M98.2,88l-7.12,2.11s-5.49-3.31-7.71-3.37-2.29-11.61,6.7-13.49c0,0,5.08,1.73,6.82,2.15s4.89,4,4.89,4Z" transform="translate(-8.68 -56.95)"/><path class="cls-3" d="M82.68,82.79s-6.42-2-11.23-1.81c-1.63.06-.77-1.84-.5-2.09,3.63-3.31,11,0,12.46-.06Z" transform="translate(-8.68 -56.95)"/><path class="cls-3" d="M83.36,78.7s-4.57-4.94-8.85-7.15c-1.44-.75.24-2,.6-2.06,4.8-1.07,9.53,5.39,10.86,6.13Z" transform="translate(-8.68 -56.95)"/><path class="cls-3" d="M87.3,74.3a29.91,29.91,0,0,0-3.15-7.75c-.67-1,.85-1.19,1.12-1.11,3.46,1,4.21,6.86,4.8,7.81Z" transform="translate(-8.68 -56.95)"/><path class="cls-3" d="M83.37,86.74s-6.8-.55-11.21,1.41c-1.48.65-1.38-1.43-1.22-1.76,2.17-4.41,10.25-3,11.66-3.61Z" transform="translate(-8.68 -56.95)"/><path class="cls-3" d="M91.08,90.11s-5.76,3.3-6.85,4.76c0,0-1.28-.12-1-1.31a11,11,0,0,1,4.36-5.94C90.57,85.58,91.08,90.11,91.08,90.11Z" transform="translate(-8.68 -56.95)"/><path class="cls-8" d="M202.81,109.38s30.32-7.58,32-26.83c0,0,14-4.81,16.13-5.18,7.41-1.29,18.72.3,18.72.3s-9.89,2.91-13.89,27.78Z" transform="translate(-8.68 -56.95)"/><path class="cls-8" d="M423.46,208.39s-2.52,1.46-2.48,2.33-.56,12.49.24,14.46,29.41,4.52,29.41,4.52,19.46-3.23,21.18-5.66.78-4-.29-4.33c-32.49-9.19-38-13-38-13Z" transform="translate(-8.68 -56.95)"/><path class="cls-8" d="M384.13,132.27c3.63-4,7.06-5.26,9.34-9.91,20.84,38.73,35.47,78,40.15,80.71,4.34,2.51-16.26,15-16.26,15-13.21-16-38.06-45.54-47.26-66C374.33,149.48,380.64,136.09,384.13,132.27Z" transform="translate(-8.68 -56.95)"/><path class="cls-8" d="M370.27,258.93s-2.9-.34-3.39.38S359,269,358.43,271.05s20.87,21.21,20.87,21.21,17.54,9,20.37,8.11,3-2.76,2.36-3.64c-20.56-26.78-22.68-33.14-22.68-33.14Z" transform="translate(-8.68 -56.95)"/><path class="cls-9" d="M171.66,154.19c-.18,0-2.59.78-2.59.78l-2.45-5.06s7.27-.65,7.49-.71S171.66,154.19,171.66,154.19Z" transform="translate(-8.68 -56.95)"/><path class="cls-10" d="M184.75,127.38l27.36,14.4,10.42-37.21-16.39.84L157.21,84.06s-7.42,12.77-7.23,17.39l28.71,31.45Z" transform="translate(-8.68 -56.95)"/><path class="cls-11" d="M256.27,101.89l-1.41.1a1.12,1.12,0,0,1-1,1c-10.65,2.21-21.68,2.52-32.53,2.48-8.26,0-12,4.11-16.51,10.4A120,120,0,0,0,198,127l95.45-22.53L268,91.5Z" transform="translate(-8.68 -56.95)"/><path class="cls-10" d="M255,105.68c.44-1.26.84-2.53,1.23-3.79h0L212,105.11l-15.9,22.38,57.5-13.57A20.18,20.18,0,0,1,255,105.68Z" transform="translate(-8.68 -56.95)"/><path class="cls-8" d="M395.2,156.91c2.72-9.93-4.43-24.72-1.73-34.55a7.31,7.31,0,0,0-3.5-3.52c-71.53-16.72-105.11-18.7-105.11-18.7l-.51,38s71.34,13.66,108.38,17.7C393.42,156.19,394.27,156.55,395.2,156.91Z" transform="translate(-8.68 -56.95)"/><path class="cls-10" d="M380.9,144.76c13.59,9.42,21.12,21.78,23.22,34.13,1.07,6.26-10.2,4-29.11,3.94-11.87-4-43.13-12.44-46.93-12.82-38.68-3.89-61.34-16.22-61.34-16.22-3.55-9.08,11-11,13.41-21.72,4.57.67,3.41-29.72,7.74-28.8C304.58,106.81,361,136.7,380.9,144.76Z" transform="translate(-8.68 -56.95)"/><path class="cls-3" d="M158.13,153.38s15.83-4,24.92-4.55c0,0,10.75-11.32,4.83-17.54,0,0-28.06,1.69-31.69-3.38S158.13,153.38,158.13,153.38Z" transform="translate(-8.68 -56.95)"/><path class="cls-9" d="M170.44,131.38s9.72.33,10.05.33S192.17,135,192.17,135s-1.91-5.43-2.86-6.39-15.56-3.44-15.56-3.44Z" transform="translate(-8.68 -56.95)"/><path class="cls-7" d="M132.35,159.54s-12.55-13.41-5.93-27.15c0,0,11.65-5.89,21.78-7.93,6.63-1.33,15.3-2.81,21.2.58,0,0,2.56,23.35-5.43,27.9C152.25,159.59,137.17,163.24,132.35,159.54Z" transform="translate(-8.68 -56.95)"/><path class="cls-5" d="M284.82,103.23l-32.62,7.7c-20,.27-19.88,3.29-21.33,4.65l-35.45,18.19-12.17-1.31-12.18,21,11.09,2.1-4.95.8,6.36,20.87,23.06,8.09s45.94-11.07,59.15-16.64c11.46-4.84,8.41,5.4,20.41,2.35,10.34-2.63,8.81-50.16,8.81-50.16C294.55,114.25,284.82,103.23,284.82,103.23Z" transform="translate(-8.68 -56.95)"/><path class="cls-12" d="M189.68,138s-3-6.91-1.92-10.25,10-2.43,10-2.43l1.57.7.87,4.14-2,2.88Z" transform="translate(-8.68 -56.95)"/><polygon class="cls-4" points="171.01 73.67 189.64 77.14 174.66 100.38 160.39 98.02 171.01 73.67"/><path class="cls-4" d="M100.78,88.32l-4,.45s-1.15-9.73,1.19-14l3.4.91Z" transform="translate(-8.68 -56.95)"/><polygon class="cls-10" points="142 45.14 121.65 38.59 90.2 31.83 90.94 17.78 129.37 20.57 148.53 27.11 142 45.14"/><polyline class="cls-4" points="101.14 178.7 98.51 180.5 96.78 166.91 100.3 165.62 101.13 178.29"/><polygon class="cls-10" points="162.03 167.8 135.97 175.63 100.12 180.15 98.63 165.75 125.21 155.45 151.61 143.5 162.03 167.8"/><path class="cls-10" d="M376,172.74c5.28-1.08,23.56,8.57,28.14,6.15-4.14,39.16-19.43,79-17.24,84,2,4.57-28.26,3.75-28.26,3.75,7.48-43.9,2-70.46,14.86-84.29C377.42,175.1,370.91,173.77,376,172.74Z" transform="translate(-8.68 -56.95)"/><path class="cls-10" d="M178.24,158s-11.74,26.17-18,42.46c-5.39,14.14,10.42,24.3,10.42,24.3l58.54-56.25Z" transform="translate(-8.68 -56.95)"/><path class="cls-10" d="M176.92,156.28s34.35-5.61,61.7-21.13l58.84,33.6s-28.6,26.17-20.57,64.32l-26.45-38.22-19.88-13.44-23.93,3.87-25.76-17Z" transform="translate(-8.68 -56.95)"/><path class="cls-10" d="M166.55,169.18s4.93-12.56,6.82-14.61,35.6-3.95,47.24-10.45,3.51,1.45,3.51,1.45S183.63,164.48,166.55,169.18Z" transform="translate(-8.68 -56.95)"/><path class="cls-13" d="M199.07,130.69s18.64-1.6,21.72-5.92,0-10.89-5.7-23-3.79-24.56,7.1-28.09L219.8,57l-3.39,9.69S199.21,70.32,202.9,86s14,22.39,14.87,28.67-11.8,13.49-18.69,12.12Z" transform="translate(-8.68 -56.95)"/><path class="cls-8" d="M131.57,131c-.24-.09,2-2.82.68-6.33a8.93,8.93,0,0,0-8.27-5.76c-6.45-.32-4.76,2.3-4.35,7s-1.18,1.4-3.75,2.25-5,4.29-2.93,7.54,3.68,3.33,2.86,8.39-3.29,13.26.87,17.62c3.22,3.38,6.58,3,7,6s1.69,5.17,4.38,3.41,2.55-2.55,5.16-.9,7.14,2.27,7.92-.23,4.25-4.08,8-2.63,1.44-1,4.5-1.51,6.74-.77,8.36-4.69,1.35-5.59,3.06-5.84-5.73-4.93-5.73-4.93-9.86,5-13.74,5.92-10.14,2.44-11.13,2.18-7.74-10.71-7.71-11.29S131.57,131,131.57,131Z" transform="translate(-8.68 -56.95)"/><path class="cls-7" d="M158.26,151c3.12-2.17,6.64-2.5,7.87-.73s-.3,5-3.42,7.13-6.64,2.5-7.87.73S155.14,153.12,158.26,151Z" transform="translate(-8.68 -56.95)"/><path class="cls-8" d="M159.37,150.72s.19-3.69-3.05-1.15-4.59,1.86-6.53,1.74-3.06-.64-4.72,1.74-3.76,3.67-5.06,2.82-1.23-4.79-5.31-3.92-2.31-5.47-1.51-6.32.73-5.33-1.05-5-1.87-4.83-.22-5.9,1.33-4.93-.43-4.43-7.36,9.48-7.42,10.94-.84,7.07.38,9.17,1.9,4,3.08,5.72,3.17,4.12,4.58,4.58,1.8,2.56,7.37,1.1,12.43-3,14.26-4.54-.51-1.47-.51-1.47S157.9,150.2,159.37,150.72Z" transform="translate(-8.68 -56.95)"/></g></g></svg>