<?xml version="1.0" encoding="utf-8"?>
<!-- Generator: Adobe Illustrator 24.2.1, SVG Export Plug-In . SVG Version: 6.00 Build 0)  -->
<svg version="1.1" id="Capa_1" xmlns="http://www.w3.org/2000/svg" xmlns:xlink="http://www.w3.org/1999/xlink" x="0px" y="0px"
	 viewBox="0 0 595.3 595.3" enable-background="new 0 0 595.3 595.3" xml:space="preserve">
<g>
	<defs>
		<filter id="Adobe_OpacityMaskFilter" filterUnits="userSpaceOnUse" x="160.5" y="454" width="274.4" height="10.8">
			<feFlood  style="flood-color:white;flood-opacity:1" result="back"/>
			<feBlend  in="SourceGraphic" in2="back" mode="normal"/>
		</filter>
	</defs>
	<mask maskUnits="userSpaceOnUse" x="160.5" y="454" width="274.4" height="10.8" id="SVGID_1_">
		<g filter="url(#Adobe_OpacityMaskFilter)">
			<defs>
				<filter id="Adobe_OpacityMaskFilter_1_" filterUnits="userSpaceOnUse" x="160.5" y="454" width="274.4" height="10.8">
					<feFlood  style="flood-color:white;flood-opacity:1" result="back"/>
					<feBlend  in="SourceGraphic" in2="back" mode="normal"/>
				</filter>
			</defs>
			<mask maskUnits="userSpaceOnUse" x="160.5" y="454" width="274.4" height="10.8" id="SVGID_1_">
				<g filter="url(#Adobe_OpacityMaskFilter_1_)">
				</g>
			</mask>
			
				<radialGradient id="SVGID_2_" cx="442.0766" cy="219361.3594" r="207.8253" gradientTransform="matrix(0.5696 0 0 3.220000e-02 45.8889 -6604.0479)" gradientUnits="userSpaceOnUse">
				<stop  offset="0.2683" style="stop-color:#999999"/>
				<stop  offset="0.3686" style="stop-color:#8C8C8C"/>
				<stop  offset="0.556" style="stop-color:#686868"/>
				<stop  offset="0.8077" style="stop-color:#303030"/>
				<stop  offset="1" style="stop-color:#000000"/>
			</radialGradient>
			<path mask="url(#SVGID_1_)" fill="url(#SVGID_2_)" d="M434.9,460.3c0,3.5-75.5,4.5-137.2,4.5c-61.7,0-137.2-1-137.2-4.5
				c0-3.5,75.5-6.3,137.2-6.3C359.4,454,434.9,456.8,434.9,460.3z"/>
		</g>
	</mask>
	
		<radialGradient id="SVGID_3_" cx="442.0766" cy="219361.3594" r="207.8253" gradientTransform="matrix(0.5696 0 0 3.220000e-02 45.8889 -6604.0479)" gradientUnits="userSpaceOnUse">
		<stop  offset="0.2683" style="stop-color:#000000"/>
		<stop  offset="1" style="stop-color:#000000"/>
	</radialGradient>
	<path fill="url(#SVGID_3_)" d="M434.9,460.3c0,3.5-75.5,4.5-137.2,4.5c-61.7,0-137.2-1-137.2-4.5c0-3.5,75.5-6.3,137.2-6.3
		C359.4,454,434.9,456.8,434.9,460.3z"/>
	<g>
		<g>
			<polygon fill="#D0D2D3" points="349.7,451.6 249.7,451.6 264.2,384.1 335.2,384.1 			"/>
			<polygon fill="#BBBDBF" points="343.4,422.3 335.2,384.1 264.2,384.1 256,422.3 			"/>
			<path fill="#E6E6E7" d="M370.6,459.3H228.8c-7.5,0-8.7-10-8.7-10h159.2C379.3,449.4,378.2,459.3,370.6,459.3z"/>
		</g>
		<path fill="#221F1F" d="M487.3,370.6c0,9.2-7.4,16.6-16.6,16.6H128.7c-9.2,0-16.6-7.4-16.6-16.6V171.9c0-9.1,7.4-16.6,16.6-16.6
			h342.1c9.2,0,16.6,7.4,16.6,16.6V370.6z"/>
		<path fill="#E6E6E7" d="M112.1,366.1v32.6c0,9.1,7.4,16.6,16.6,16.6h342.1c9.2,0,16.6-7.4,16.6-16.6v-32.6H112.1z"/>
		<rect x="124.2" y="170.9" fill="#F0F1F1" width="351" height="180.4"/>
		<path fill="#929597" d="M311.7,389.9c0,6.6-5.4,12-12,12c-6.6,0-12-5.4-12-12c0-6.6,5.4-12,12-12
			C306.3,377.9,311.7,383.2,311.7,389.9z"/>
	</g>
	<g>
		<rect x="170.9" y="179.5" fill="#5F3813" width="76.5" height="16.8"/>
		<rect x="261.5" y="179.5" fill="#BBBDBF" width="167" height="16.8"/>
		<rect x="170.9" y="204" fill="#A87B50" width="257.6" height="46.3"/>
		<rect x="170.9" y="259.6" fill="#F69322" width="76.5" height="46.9"/>
		<rect x="261.5" y="259.6" fill="#D34040" width="76.5" height="46.9"/>
		<rect x="352.1" y="259.6" fill="#744C29" width="76.5" height="46.9"/>
		<g>
			<rect x="170.9" y="313.6" fill="#929597" width="76.5" height="6.7"/>
			<rect x="170.9" y="325.4" fill="#BBBDBF" width="76.5" height="6.7"/>
			<rect x="170.9" y="337.1" fill="#BBBDBF" width="76.5" height="6.7"/>
		</g>
		<g>
			<rect x="261.5" y="313.6" fill="#929597" width="76.5" height="6.7"/>
			<rect x="261.5" y="325.4" fill="#BBBDBF" width="76.5" height="6.7"/>
			<rect x="261.5" y="337.1" fill="#BBBDBF" width="76.5" height="6.7"/>
		</g>
		<g>
			<rect x="352.1" y="313.6" fill="#929597" width="76.5" height="6.7"/>
			<rect x="352.1" y="325.4" fill="#BBBDBF" width="76.5" height="6.7"/>
			<rect x="352.1" y="337.1" fill="#BBBDBF" width="76.5" height="6.7"/>
		</g>
	</g>
	<g opacity="0.3">
		<path fill="#FFFFFF" d="M470.8,155.3H233.3l157,260h80.5c9.2,0,16.6-7.4,16.6-16.6v-28.1v-4.5V171.9
			C487.3,162.7,479.9,155.3,470.8,155.3z"/>
	</g>
</g>
<g>
	<defs>
		<filter id="Adobe_OpacityMaskFilter_2_" filterUnits="userSpaceOnUse" x="389.5" y="454.3" width="173.9" height="17.4">
			<feFlood  style="flood-color:white;flood-opacity:1" result="back"/>
			<feBlend  in="SourceGraphic" in2="back" mode="normal"/>
		</filter>
	</defs>
	<mask maskUnits="userSpaceOnUse" x="389.5" y="454.3" width="173.9" height="17.4" id="SVGID_4_">
		<g filter="url(#Adobe_OpacityMaskFilter_2_)">
			<defs>
				<filter id="Adobe_OpacityMaskFilter_3_" filterUnits="userSpaceOnUse" x="389.5" y="454.3" width="173.9" height="17.4">
					<feFlood  style="flood-color:white;flood-opacity:1" result="back"/>
					<feBlend  in="SourceGraphic" in2="back" mode="normal"/>
				</filter>
			</defs>
			<mask maskUnits="userSpaceOnUse" x="389.5" y="454.3" width="173.9" height="17.4" id="SVGID_4_">
				<g filter="url(#Adobe_OpacityMaskFilter_3_)">
				</g>
			</mask>
			
				<radialGradient id="SVGID_5_" cx="725.7148" cy="100336.9766" r="137.9898" gradientTransform="matrix(0.5868 0 0 6.850000e-02 50.6012 -6410.1206)" gradientUnits="userSpaceOnUse">
				<stop  offset="0.3415" style="stop-color:#B3B3B3"/>
				<stop  offset="0.5707" style="stop-color:#737373"/>
				<stop  offset="1" style="stop-color:#000000"/>
			</radialGradient>
			<path mask="url(#SVGID_4_)" fill="url(#SVGID_5_)" d="M563.4,464.4c0,5.6-38.9,7.3-86.9,7.3c-48,0-86.9-1.7-86.9-7.3
				c0-5.6,38.9-10.1,86.9-10.1C524.5,454.3,563.4,458.8,563.4,464.4z"/>
		</g>
	</mask>
	
		<radialGradient id="SVGID_6_" cx="725.7148" cy="100336.9766" r="137.9898" gradientTransform="matrix(0.5868 0 0 6.850000e-02 50.6012 -6410.1206)" gradientUnits="userSpaceOnUse">
		<stop  offset="0.3415" style="stop-color:#000000"/>
		<stop  offset="1" style="stop-color:#000000"/>
	</radialGradient>
	<path fill="url(#SVGID_6_)" d="M563.4,464.4c0,5.6-38.9,7.3-86.9,7.3c-48,0-86.9-1.7-86.9-7.3c0-5.6,38.9-10.1,86.9-10.1
		C524.5,454.3,563.4,458.8,563.4,464.4z"/>
	<g>
		<path fill="#221F1F" d="M421.8,464.9c-4.6,0-8.3-3.7-8.3-8.3V290.5c0-4.6,3.7-8.3,8.3-8.3h111.1c4.6,0,8.3,3.7,8.3,8.3v166.2
			c0,4.6-3.7,8.3-8.3,8.3H421.8z"/>
		<rect x="422.2" y="300" fill="#F0F1F1" width="110.2" height="147.1"/>
		<path fill="#403F41" d="M486,456.5c0,1.7-1.4,3-3,3h-9.5c-1.7,0-3-1.4-3-3l0,0c0-1.7,1.4-3,3-3h9.5
			C484.6,453.5,486,454.8,486,456.5L486,456.5z"/>
	</g>
	<g>
		<rect x="428.1" y="308.1" fill="#5F3813" width="34.1" height="14.5"/>
		<rect x="468.2" y="308.1" fill="#BBBDBF" width="58.4" height="14.5"/>
		<rect x="428.1" y="330.5" fill="#C3996C" width="98.6" height="40.8"/>
		<rect x="428.1" y="379.1" fill="#F69322" width="44.8" height="27.5"/>
		<rect x="481.2" y="379.1" fill="#D34040" width="44.8" height="27.5"/>
		<g>
			<rect x="428.1" y="413.3" fill="#929597" width="44.8" height="3.9"/>
			<rect x="428.1" y="421.2" fill="#BBBDBF" width="44.8" height="3.9"/>
			<rect x="428.1" y="429.2" fill="#BBBDBF" width="44.8" height="3.9"/>
			<rect x="428.1" y="437.1" fill="#BBBDBF" width="44.8" height="3.9"/>
		</g>
		<g>
			<rect x="481.2" y="413.3" fill="#929597" width="44.8" height="3.9"/>
			<rect x="481.2" y="421.2" fill="#BBBDBF" width="44.8" height="3.9"/>
			<rect x="481.2" y="429.2" fill="#BBBDBF" width="44.8" height="3.9"/>
			<rect x="481.2" y="437.1" fill="#BBBDBF" width="44.8" height="3.9"/>
		</g>
	</g>
	<path opacity="0.3" fill="#FFFFFF" d="M528.9,464.9h4.1c4.6,0,8.3-3.7,8.3-8.3V290.5c0-4.6-3.7-8.3-8.3-8.3H421.8
		c-1,0-2,0.2-2.9,0.5L528.9,464.9z"/>
</g>
<g>
	<defs>
		<filter id="Adobe_OpacityMaskFilter_4_" filterUnits="userSpaceOnUse" x="348" y="497.7" width="123" height="11.8">
			<feFlood  style="flood-color:white;flood-opacity:1" result="back"/>
			<feBlend  in="SourceGraphic" in2="back" mode="normal"/>
		</filter>
	</defs>
	<mask maskUnits="userSpaceOnUse" x="348" y="497.7" width="123" height="11.8" id="SVGID_7_">
		<g filter="url(#Adobe_OpacityMaskFilter_4_)">
			<defs>
				<filter id="Adobe_OpacityMaskFilter_5_" filterUnits="userSpaceOnUse" x="348" y="497.7" width="123" height="11.8">
					<feFlood  style="flood-color:white;flood-opacity:1" result="back"/>
					<feBlend  in="SourceGraphic" in2="back" mode="normal"/>
				</filter>
			</defs>
			<mask maskUnits="userSpaceOnUse" x="348" y="497.7" width="123" height="11.8" id="SVGID_7_">
				<g filter="url(#Adobe_OpacityMaskFilter_5_)">
				</g>
			</mask>
			
				<radialGradient id="SVGID_8_" cx="611.5995" cy="87328.1641" r="91.2757" gradientTransform="matrix(0.5868 0 0 7.860000e-02 50.6012 -6360.3945)" gradientUnits="userSpaceOnUse">
				<stop  offset="0.3415" style="stop-color:#B3B3B3"/>
				<stop  offset="0.5707" style="stop-color:#737373"/>
				<stop  offset="1" style="stop-color:#000000"/>
			</radialGradient>
			<path mask="url(#SVGID_7_)" fill="url(#SVGID_8_)" d="M471,504.6c0,3.8-33.1,4.9-61.5,4.9c-28.5,0-61.5-1.1-61.5-4.9
				c0-3.8,33.1-6.9,61.5-6.9C437.9,497.7,471,500.8,471,504.6z"/>
		</g>
	</mask>
	
		<radialGradient id="SVGID_9_" cx="611.5995" cy="87328.1641" r="91.2757" gradientTransform="matrix(0.5868 0 0 7.860000e-02 50.6012 -6360.3945)" gradientUnits="userSpaceOnUse">
		<stop  offset="0.3415" style="stop-color:#000000"/>
		<stop  offset="1" style="stop-color:#000000"/>
	</radialGradient>
	<path fill="url(#SVGID_9_)" d="M471,504.6c0,3.8-33.1,4.9-61.5,4.9c-28.5,0-61.5-1.1-61.5-4.9c0-3.8,33.1-6.9,61.5-6.9
		C437.9,497.7,471,500.8,471,504.6z"/>
	<g>
		<path fill="#221F1F" d="M447,497.3c0,4-3.3,7.3-7.3,7.3h-59.5c-4,0-7.3-3.3-7.3-7.3V383.6c0-4,3.3-7.3,7.3-7.3h59.5
			c4,0,7.3,3.3,7.3,7.3V497.3z"/>
		<rect x="377.4" y="392.4" fill="#F0F1F1" width="65" height="94.2"/>
		<path fill="#403F41" d="M412.6,385.2c0,1.5-1.2,2.7-2.7,2.7c-1.5,0-2.7-1.2-2.7-2.7c0-1.5,1.2-2.7,2.7-2.7
			C411.4,382.5,412.6,383.7,412.6,385.2z"/>
		<path fill="#403F41" d="M417.6,495.7c0,1.7-1.3,3-3,3h-9.4c-1.7,0-3-1.3-3-3l0,0c0-1.7,1.3-3,3-3h9.4
			C416.3,492.7,417.6,494.1,417.6,495.7L417.6,495.7z"/>
	</g>
	<g>
		<rect x="380.7" y="395.4" fill="#5F3813" width="58.6" height="9.5"/>
		<rect x="380.7" y="408" fill="#BBBDBF" width="58.6" height="10.5"/>
		<rect x="380.7" y="422.4" fill="#C3996C" width="58.6" height="23.7"/>
		<rect x="380.7" y="449.8" fill="#F69322" width="58.6" height="32.7"/>
	</g>
	<path opacity="0.3" fill="#FFFFFF" d="M445.9,500.7c0.5-1,0.8-2.1,0.8-3.3V383.6c0-4-3.3-7.3-7.3-7.3h-59.5c-2.9,0-5.4,1.7-6.6,4.2
		L445.9,500.7z"/>
</g>
</svg>
